<?xml version="1.0" encoding="UTF-8"?>
<svg id="Layer_2" data-name="Layer 2" xmlns="http://www.w3.org/2000/svg" viewBox="0 0 1528.32 4092.95">
  <defs>
    <style>
      .cls-1, .cls-2, .cls-3 {
        fill: #1e353c;
      }

      .cls-1, .cls-4 {
        opacity: .2;
      }

      .cls-2 {
        font-family: JosefinSansRoman-ExtraLight, 'JosefinSansRoman ExtraLight';
        font-size: 33.66px;
        font-variation-settings: ';
        font-weight: 200;
      }

      .cls-5 {
        fill: #fff;
      }

      .cls-6 {
        fill: none;
        opacity: .3;
        stroke: #1e353c;
        stroke-miterlimit: 10;
        stroke-width: 3.32px;
      }
    </style>
  </defs>
  <g id="Layer_1-2" data-name="Layer 1">
    <g>
      <g>
        <text class="cls-2" transform="translate(728.13 166.08)"><tspan x="0" y="0">GROUP</tspan></text>
        <rect class="cls-1" x="633.24" y="0" width="87.33" height="174.07" rx="43.67" ry="43.67"/>
        <g>
          <path class="cls-3" d="M624.18,70.21v58.02c0,.76-.61,1.37-1.37,1.37s-1.37-.61-1.37-1.37v-58.02c0-12.68-9.71-22.99-21.63-22.99h-12.34c-11.93,0-21.64,10.31-21.64,22.99v58.02c0,.76-.62,1.37-1.37,1.37s-1.37-.61-1.37-1.37v-58.02c0-14.19,10.94-25.74,24.38-25.74h12.34c13.44,0,24.38,11.55,24.38,25.74ZM602.71,81.51c0,.76-.62,1.37-1.37,1.37h-17.31c-.76,0-1.37-.62-1.37-1.37s.62-1.37,1.37-1.37h17.31c.76,0,1.37.62,1.37,1.37Z"/>
          <path class="cls-3" d="M677.62,88.88c.44.62.3,1.47-.32,1.92-.62.44-1.48.3-1.92-.32l-28.81-40.39v78.1c0,.76-.61,1.37-1.37,1.37s-1.37-.61-1.37-1.37V45.8c0-.6.39-1.13.96-1.31.57-.18,1.19.02,1.54.51l31.29,43.88Z"/>
          <path class="cls-3" d="M731.64,45.85v82.38c0,.76-.61,1.37-1.37,1.37s-1.37-.61-1.37-1.37V45.85c0-.76.61-1.37,1.37-1.37s1.37.62,1.37,1.37Z"/>
          <path class="cls-3" d="M808.95,127.61c.34.68.06,1.5-.61,1.84-.2.1-.41.15-.61.15-.5,0-.99-.28-1.23-.76l-22.41-44.82h-33.34v44.21c0,.76-.62,1.37-1.37,1.37s-1.37-.61-1.37-1.37v-45.58c0-.76.61-1.37,1.37-1.37h39.95c9.39,0,17.03-7.64,17.03-17.03s-7.64-17.03-17.03-17.03h-39.95c-.76,0-1.37-.61-1.37-1.37s.61-1.37,1.37-1.37h39.95c10.9,0,19.77,8.87,19.77,19.77s-8.87,19.77-19.77,19.77h-2.17l21.8,43.59Z"/>
          <path class="cls-3" d="M884.02,70.21v58.02c0,.76-.61,1.37-1.37,1.37s-1.37-.61-1.37-1.37v-58.02c0-12.68-9.71-22.99-21.63-22.99h-12.34c-11.93,0-21.64,10.31-21.64,22.99v58.02c0,.76-.61,1.37-1.37,1.37s-1.37-.61-1.37-1.37v-58.02c0-14.19,10.94-25.74,24.38-25.74h12.34c13.44,0,24.38,11.55,24.38,25.74ZM862.56,81.51c0,.76-.62,1.37-1.37,1.37h-17.31c-.76,0-1.37-.62-1.37-1.37s.62-1.37,1.37-1.37h17.31c.76,0,1.37.62,1.37,1.37Z"/>
          <path class="cls-3" d="M948.28,107.51c.43.63.27,1.48-.35,1.91-.63.43-1.48.27-1.91-.35l-40.69-58.98-1.58,78.12c-.02.75-.63,1.35-1.37,1.35h-.03c-.76-.02-1.36-.64-1.34-1.4l1.66-82.38c.01-.6.41-1.12.98-1.29.57-.17,1.19.05,1.53.54l43.1,62.49ZM962.11,45.8v82.38c0,.6-.39,1.13-.97,1.31-.13.04-.27.06-.41.06-.44,0-.87-.21-1.13-.59l-20.18-29.33c-.43-.63-.27-1.48.35-1.91.63-.43,1.48-.27,1.91.35l17.68,25.69V45.8c0-.76.62-1.37,1.37-1.37s1.37.61,1.37,1.37Z"/>
        </g>
        <path class="cls-3" d="M710.55,44.69c.61.45.75,1.31.3,1.92l-48.27,65.84c-.45.61-1.31.75-1.92.3s-.75-1.31-.3-1.92l48.27-65.84c.45-.61,1.31-.75,1.92-.3Z"/>
      </g>
      <g class="cls-4">
        <path class="cls-3" d="M706.13,401.23c1.88,2.64,1.27,6.3-1.36,8.18-2.64,1.88-6.3,1.27-8.18-1.36l-122.98-172.44v333.42c0,3.24-2.62,5.86-5.86,5.86-3.24,0-5.86-2.62-5.86-5.86V217.31c0-2.55,1.65-4.81,4.08-5.59,2.43-.78,5.08.1,6.56,2.18l133.61,187.33Z"/>
        <path class="cls-3" d="M846.72,212.57c2.61,1.91,3.18,5.58,1.28,8.19l-206.1,281.08c-1.91,2.61-5.57,3.19-8.19,1.28-2.61-1.91-3.19-5.57-1.28-8.19l206.1-281.08c1.91-2.61,5.58-3.19,8.19-1.28Z"/>
        <path class="cls-3" d="M822.19,385.09c-1.88-2.64-1.27-6.3,1.36-8.18,2.64-1.88,6.3-1.27,8.18,1.36l122.98,172.44V217.3c0-3.24,2.62-5.86,5.86-5.86,3.24,0,5.86,2.62,5.86,5.86v351.71c0,2.55-1.65,4.81-4.08,5.59-2.43.78-5.08-.1-6.56-2.18l-133.61-187.33Z"/>
        <path class="cls-3" d="M681.6,573.75c-2.61-1.91-3.18-5.58-1.28-8.19l206.1-281.08c1.91-2.61,5.57-3.19,8.19-1.28,2.61,1.91,3.19,5.57,1.28,8.19l-206.1,281.08c-1.91,2.61-5.58,3.19-8.19,1.28Z"/>
        <path class="cls-3" d="M706.13,753.03c1.88,2.64,1.27,6.3-1.36,8.18-2.64,1.88-6.3,1.27-8.18-1.36l-122.98-172.44v333.42c0,3.24-2.62,5.86-5.86,5.86-3.24,0-5.86-2.62-5.86-5.86v-351.71c0-2.55,1.65-4.81,4.08-5.59,2.43-.78,5.08.1,6.56,2.18l133.61,187.33Z"/>
        <path class="cls-3" d="M846.72,564.37c2.61,1.91,3.18,5.58,1.28,8.19l-206.1,281.08c-1.91,2.61-5.57,3.19-8.19,1.28-2.61-1.91-3.19-5.57-1.28-8.19l206.1-281.08c1.91-2.61,5.58-3.19,8.19-1.28Z"/>
        <path class="cls-3" d="M822.19,736.9c-1.88-2.64-1.27-6.3,1.36-8.18,2.64-1.88,6.3-1.27,8.18,1.36l122.98,172.44v-333.42c0-3.24,2.62-5.86,5.86-5.86,3.24,0,5.86,2.62,5.86,5.86v351.71c0,2.55-1.65,4.81-4.08,5.59-2.43.78-5.08-.1-6.56-2.18l-133.61-187.33Z"/>
        <path class="cls-3" d="M681.6,925.56c-2.61-1.91-3.18-5.58-1.28-8.19l206.1-281.08c1.91-2.61,5.57-3.19,8.19-1.28,2.61,1.91,3.19,5.57,1.28,8.19l-206.1,281.08c-1.91,2.61-5.58,3.19-8.19,1.28Z"/>
        <path class="cls-3" d="M706.13,753.03c1.88,2.64,1.27,6.3-1.36,8.18-2.64,1.88-6.3,1.27-8.18-1.36l-122.98-172.44v333.42c0,3.24-2.62,5.86-5.86,5.86-3.24,0-5.86-2.62-5.86-5.86v-351.71c0-2.55,1.65-4.81,4.08-5.59,2.43-.78,5.08.1,6.56,2.18l133.61,187.33Z"/>
        <path class="cls-3" d="M846.72,564.37c2.61,1.91,3.18,5.58,1.28,8.19l-206.1,281.08c-1.91,2.61-5.57,3.19-8.19,1.28-2.61-1.91-3.19-5.57-1.28-8.19l206.1-281.08c1.91-2.61,5.58-3.19,8.19-1.28Z"/>
        <path class="cls-3" d="M822.19,736.9c-1.88-2.64-1.27-6.3,1.36-8.18,2.64-1.88,6.3-1.27,8.18,1.36l122.98,172.44v-333.42c0-3.24,2.62-5.86,5.86-5.86,3.24,0,5.86,2.62,5.86,5.86v351.71c0,2.55-1.65,4.81-4.08,5.59-2.43.78-5.08-.1-6.56-2.18l-133.61-187.33Z"/>
        <path class="cls-3" d="M681.6,925.56c-2.61-1.91-3.18-5.58-1.28-8.19l206.1-281.08c1.91-2.61,5.57-3.19,8.19-1.28,2.61,1.91,3.19,5.57,1.28,8.19l-206.1,281.08c-1.91,2.61-5.58,3.19-8.19,1.28Z"/>
        <path class="cls-3" d="M706.13,1104.84c1.88,2.64,1.27,6.3-1.36,8.18-2.64,1.88-6.3,1.27-8.18-1.36l-122.98-172.44v333.42c0,3.24-2.62,5.86-5.86,5.86-3.24,0-5.86-2.62-5.86-5.86v-351.71c0-2.55,1.65-4.81,4.08-5.59,2.43-.78,5.08.1,6.56,2.18l133.61,187.33Z"/>
        <path class="cls-3" d="M846.72,916.18c2.61,1.91,3.18,5.58,1.28,8.19l-206.1,281.08c-1.91,2.61-5.57,3.19-8.19,1.28-2.61-1.91-3.19-5.57-1.28-8.19l206.1-281.08c1.91-2.61,5.58-3.19,8.19-1.28Z"/>
        <path class="cls-3" d="M822.19,1088.7c-1.88-2.64-1.27-6.3,1.36-8.18,2.64-1.88,6.3-1.27,8.18,1.36l122.98,172.44v-333.42c0-3.24,2.62-5.86,5.86-5.86,3.24,0,5.86,2.62,5.86,5.86v351.71c0,2.55-1.65,4.81-4.08,5.59-2.43.78-5.08-.1-6.56-2.18l-133.61-187.33Z"/>
        <path class="cls-3" d="M681.6,1277.36c-2.61-1.91-3.18-5.58-1.28-8.19l206.1-281.08c1.91-2.61,5.57-3.19,8.19-1.28,2.61,1.91,3.19,5.57,1.28,8.19l-206.1,281.08c-1.91,2.61-5.58,3.19-8.19,1.28Z"/>
        <path class="cls-3" d="M706.13,1104.84c1.88,2.64,1.27,6.3-1.36,8.18-2.64,1.88-6.3,1.27-8.18-1.36l-122.98-172.44v333.42c0,3.24-2.62,5.86-5.86,5.86-3.24,0-5.86-2.62-5.86-5.86v-351.71c0-2.55,1.65-4.81,4.08-5.59,2.43-.78,5.08.1,6.56,2.18l133.61,187.33Z"/>
        <path class="cls-3" d="M846.72,916.18c2.61,1.91,3.18,5.58,1.28,8.19l-206.1,281.08c-1.91,2.61-5.57,3.19-8.19,1.28-2.61-1.91-3.19-5.57-1.28-8.19l206.1-281.08c1.91-2.61,5.58-3.19,8.19-1.28Z"/>
        <path class="cls-3" d="M822.19,1088.7c-1.88-2.64-1.27-6.3,1.36-8.18,2.64-1.88,6.3-1.27,8.18,1.36l122.98,172.44v-333.42c0-3.24,2.62-5.86,5.86-5.86,3.24,0,5.86,2.62,5.86,5.86v351.71c0,2.55-1.65,4.81-4.08,5.59-2.43.78-5.08-.1-6.56-2.18l-133.61-187.33Z"/>
        <path class="cls-3" d="M681.6,1277.36c-2.61-1.91-3.18-5.58-1.28-8.19l206.1-281.08c1.91-2.61,5.57-3.19,8.19-1.28,2.61,1.91,3.19,5.57,1.28,8.19l-206.1,281.08c-1.91,2.61-5.58,3.19-8.19,1.28Z"/>
        <path class="cls-3" d="M706.13,1456.65c1.88,2.64,1.27,6.3-1.36,8.18-2.64,1.88-6.3,1.27-8.18-1.36l-122.98-172.44v333.42c0,3.24-2.62,5.86-5.86,5.86-3.24,0-5.86-2.62-5.86-5.86v-351.71c0-2.55,1.65-4.81,4.08-5.59,2.43-.78,5.08.1,6.56,2.18l133.61,187.33Z"/>
        <path class="cls-3" d="M846.72,1267.99c2.61,1.91,3.18,5.58,1.28,8.19l-206.1,281.08c-1.91,2.61-5.57,3.19-8.19,1.28-2.61-1.91-3.19-5.57-1.28-8.19l206.1-281.08c1.91-2.61,5.58-3.19,8.19-1.28Z"/>
        <path class="cls-3" d="M822.19,1440.51c-1.88-2.64-1.27-6.3,1.36-8.18,2.64-1.88,6.3-1.27,8.18,1.36l122.98,172.44v-333.42c0-3.24,2.62-5.86,5.86-5.86,3.24,0,5.86,2.62,5.86,5.86v351.71c0,2.55-1.65,4.81-4.08,5.59-2.43.78-5.08-.1-6.56-2.18l-133.61-187.33Z"/>
        <path class="cls-3" d="M681.6,1629.17c-2.61-1.91-3.18-5.58-1.28-8.19l206.1-281.08c1.91-2.61,5.57-3.19,8.19-1.28,2.61,1.91,3.19,5.57,1.28,8.19l-206.1,281.08c-1.91,2.61-5.58,3.19-8.19,1.28Z"/>
        <path class="cls-3" d="M706.13,1456.65c1.88,2.64,1.27,6.3-1.36,8.18-2.64,1.88-6.3,1.27-8.18-1.36l-122.98-172.44v333.42c0,3.24-2.62,5.86-5.86,5.86-3.24,0-5.86-2.62-5.86-5.86v-351.71c0-2.55,1.65-4.81,4.08-5.59,2.43-.78,5.08.1,6.56,2.18l133.61,187.33Z"/>
        <path class="cls-3" d="M846.72,1267.99c2.61,1.91,3.18,5.58,1.28,8.19l-206.1,281.08c-1.91,2.61-5.57,3.19-8.19,1.28-2.61-1.91-3.19-5.57-1.28-8.19l206.1-281.08c1.91-2.61,5.58-3.19,8.19-1.28Z"/>
        <path class="cls-3" d="M822.19,1440.51c-1.88-2.64-1.27-6.3,1.36-8.18,2.64-1.88,6.3-1.27,8.18,1.36l122.98,172.44v-333.42c0-3.24,2.62-5.86,5.86-5.86,3.24,0,5.86,2.62,5.86,5.86v351.71c0,2.55-1.65,4.81-4.08,5.59-2.43.78-5.08-.1-6.56-2.18l-133.61-187.33Z"/>
        <path class="cls-3" d="M681.6,1629.17c-2.61-1.91-3.18-5.58-1.28-8.19l206.1-281.08c1.91-2.61,5.57-3.19,8.19-1.28,2.61,1.91,3.19,5.57,1.28,8.19l-206.1,281.08c-1.91,2.61-5.58,3.19-8.19,1.28Z"/>
        <path class="cls-3" d="M706.13,1808.46c1.88,2.64,1.27,6.3-1.36,8.18-2.64,1.88-6.3,1.27-8.18-1.36l-122.98-172.44v333.42c0,3.24-2.62,5.86-5.86,5.86-3.24,0-5.86-2.62-5.86-5.86v-351.71c0-2.55,1.65-4.81,4.08-5.59,2.43-.78,5.08.1,6.56,2.18l133.61,187.33Z"/>
        <path class="cls-3" d="M846.72,1619.8c2.61,1.91,3.18,5.58,1.28,8.19l-206.1,281.08c-1.91,2.61-5.57,3.19-8.19,1.28-2.61-1.91-3.19-5.57-1.28-8.19l206.1-281.08c1.91-2.61,5.58-3.19,8.19-1.28Z"/>
        <path class="cls-3" d="M822.19,1792.32c-1.88-2.64-1.27-6.3,1.36-8.18,2.64-1.88,6.3-1.27,8.18,1.36l122.98,172.44v-333.42c0-3.24,2.62-5.86,5.86-5.86,3.24,0,5.86,2.62,5.86,5.86v351.71c0,2.55-1.65,4.81-4.08,5.59-2.43.78-5.08-.1-6.56-2.18l-133.61-187.33Z"/>
        <path class="cls-3" d="M681.6,1980.98c-2.61-1.91-3.18-5.58-1.28-8.19l206.1-281.08c1.91-2.61,5.57-3.19,8.19-1.28,2.61,1.91,3.19,5.57,1.28,8.19l-206.1,281.08c-1.91,2.61-5.58,3.19-8.19,1.28Z"/>
        <path class="cls-3" d="M706.13,1808.46c1.88,2.64,1.27,6.3-1.36,8.18-2.64,1.88-6.3,1.27-8.18-1.36l-122.98-172.44v333.42c0,3.24-2.62,5.86-5.86,5.86-3.24,0-5.86-2.62-5.86-5.86v-351.71c0-2.55,1.65-4.81,4.08-5.59,2.43-.78,5.08.1,6.56,2.18l133.61,187.33Z"/>
        <path class="cls-3" d="M846.72,1619.8c2.61,1.91,3.18,5.58,1.28,8.19l-206.1,281.08c-1.91,2.61-5.57,3.19-8.19,1.28-2.61-1.91-3.19-5.57-1.28-8.19l206.1-281.08c1.91-2.61,5.58-3.19,8.19-1.28Z"/>
        <path class="cls-3" d="M822.19,1792.32c-1.88-2.64-1.27-6.3,1.36-8.18,2.64-1.88,6.3-1.27,8.18,1.36l122.98,172.44v-333.42c0-3.24,2.62-5.86,5.86-5.86,3.24,0,5.86,2.62,5.86,5.86v351.71c0,2.55-1.65,4.81-4.08,5.59-2.43.78-5.08-.1-6.56-2.18l-133.61-187.33Z"/>
        <path class="cls-3" d="M681.6,1980.98c-2.61-1.91-3.18-5.58-1.28-8.19l206.1-281.08c1.91-2.61,5.57-3.19,8.19-1.28,2.61,1.91,3.19,5.57,1.28,8.19l-206.1,281.08c-1.91,2.61-5.58,3.19-8.19,1.28Z"/>
        <path class="cls-3" d="M706.13,2160.26c1.88,2.64,1.27,6.3-1.36,8.18-2.64,1.88-6.3,1.27-8.18-1.36l-122.98-172.44v333.42c0,3.24-2.62,5.86-5.86,5.86-3.24,0-5.86-2.62-5.86-5.86v-351.71c0-2.55,1.65-4.81,4.08-5.59,2.43-.78,5.08.1,6.56,2.18l133.61,187.33Z"/>
        <path class="cls-3" d="M846.72,1971.6c2.61,1.91,3.18,5.58,1.28,8.19l-206.1,281.08c-1.91,2.61-5.57,3.19-8.19,1.28-2.61-1.91-3.19-5.57-1.28-8.19l206.1-281.08c1.91-2.61,5.58-3.19,8.19-1.28Z"/>
        <path class="cls-3" d="M822.19,2144.13c-1.88-2.64-1.27-6.3,1.36-8.18,2.64-1.88,6.3-1.27,8.18,1.36l122.98,172.44v-333.42c0-3.24,2.62-5.86,5.86-5.86,3.24,0,5.86,2.62,5.86,5.86v351.71c0,2.55-1.65,4.81-4.08,5.59-2.43.78-5.08-.1-6.56-2.18l-133.61-187.33Z"/>
        <path class="cls-3" d="M681.6,2332.79c-2.61-1.91-3.18-5.58-1.28-8.19l206.1-281.08c1.91-2.61,5.57-3.19,8.19-1.28,2.61,1.91,3.19,5.57,1.28,8.19l-206.1,281.08c-1.91,2.61-5.58,3.19-8.19,1.28Z"/>
        <path class="cls-3" d="M706.13,2160.26c1.88,2.64,1.27,6.3-1.36,8.18-2.64,1.88-6.3,1.27-8.18-1.36l-122.98-172.44v333.42c0,3.24-2.62,5.86-5.86,5.86-3.24,0-5.86-2.62-5.86-5.86v-351.71c0-2.55,1.65-4.81,4.08-5.59,2.43-.78,5.08.1,6.56,2.18l133.61,187.33Z"/>
        <path class="cls-3" d="M846.72,1971.6c2.61,1.91,3.18,5.58,1.28,8.19l-206.1,281.08c-1.91,2.61-5.57,3.19-8.19,1.28-2.61-1.91-3.19-5.57-1.28-8.19l206.1-281.08c1.91-2.61,5.58-3.19,8.19-1.28Z"/>
        <path class="cls-3" d="M822.19,2144.13c-1.88-2.64-1.27-6.3,1.36-8.18,2.64-1.88,6.3-1.27,8.18,1.36l122.98,172.44v-333.42c0-3.24,2.62-5.86,5.86-5.86,3.24,0,5.86,2.62,5.86,5.86v351.71c0,2.55-1.65,4.81-4.08,5.59-2.43.78-5.08-.1-6.56-2.18l-133.61-187.33Z"/>
        <path class="cls-3" d="M681.6,2332.79c-2.61-1.91-3.18-5.58-1.28-8.19l206.1-281.08c1.91-2.61,5.57-3.19,8.19-1.28,2.61,1.91,3.19,5.57,1.28,8.19l-206.1,281.08c-1.91,2.61-5.58,3.19-8.19,1.28Z"/>
        <path class="cls-3" d="M706.13,2512.07c1.88,2.64,1.27,6.3-1.36,8.18-2.64,1.88-6.3,1.27-8.18-1.36l-122.98-172.44v333.42c0,3.24-2.62,5.86-5.86,5.86-3.24,0-5.86-2.62-5.86-5.86v-351.71c0-2.55,1.65-4.81,4.08-5.59,2.43-.78,5.08.1,6.56,2.18l133.61,187.33Z"/>
        <path class="cls-3" d="M846.72,2323.41c2.61,1.91,3.18,5.58,1.28,8.19l-206.1,281.08c-1.91,2.61-5.57,3.19-8.19,1.28-2.61-1.91-3.19-5.57-1.28-8.19l206.1-281.08c1.91-2.61,5.58-3.19,8.19-1.28Z"/>
        <path class="cls-3" d="M822.19,2495.93c-1.88-2.64-1.27-6.3,1.36-8.18,2.64-1.88,6.3-1.27,8.18,1.36l122.98,172.44v-333.42c0-3.24,2.62-5.86,5.86-5.86,3.24,0,5.86,2.62,5.86,5.86v351.71c0,2.55-1.65,4.81-4.08,5.59-2.43.78-5.08-.1-6.56-2.18l-133.61-187.33Z"/>
        <path class="cls-3" d="M681.6,2684.59c-2.61-1.91-3.18-5.58-1.28-8.19l206.1-281.08c1.91-2.61,5.57-3.19,8.19-1.28,2.61,1.91,3.19,5.57,1.28,8.19l-206.1,281.08c-1.91,2.61-5.58,3.19-8.19,1.28Z"/>
        <path class="cls-3" d="M706.13,2512.07c1.88,2.64,1.27,6.3-1.36,8.18-2.64,1.88-6.3,1.27-8.18-1.36l-122.98-172.44v333.42c0,3.24-2.62,5.86-5.86,5.86-3.24,0-5.86-2.62-5.86-5.86v-351.71c0-2.55,1.65-4.81,4.08-5.59,2.43-.78,5.08.1,6.56,2.18l133.61,187.33Z"/>
        <path class="cls-3" d="M846.72,2323.41c2.61,1.91,3.18,5.58,1.28,8.19l-206.1,281.08c-1.91,2.61-5.57,3.19-8.19,1.28-2.61-1.91-3.19-5.57-1.28-8.19l206.1-281.08c1.91-2.61,5.58-3.19,8.19-1.28Z"/>
        <path class="cls-3" d="M822.19,2495.93c-1.88-2.64-1.27-6.3,1.36-8.18,2.64-1.88,6.3-1.27,8.18,1.36l122.98,172.44v-333.42c0-3.24,2.62-5.86,5.86-5.86,3.24,0,5.86,2.62,5.86,5.86v351.71c0,2.55-1.65,4.81-4.08,5.59-2.43.78-5.08-.1-6.56-2.18l-133.61-187.33Z"/>
        <path class="cls-3" d="M681.6,2684.59c-2.61-1.91-3.18-5.58-1.28-8.19l206.1-281.08c1.91-2.61,5.57-3.19,8.19-1.28,2.61,1.91,3.19,5.57,1.28,8.19l-206.1,281.08c-1.91,2.61-5.58,3.19-8.19,1.28Z"/>
        <path class="cls-3" d="M706.13,2863.88c1.88,2.64,1.27,6.3-1.36,8.18-2.64,1.88-6.3,1.27-8.18-1.36l-122.98-172.44v333.42c0,3.24-2.62,5.86-5.86,5.86-3.24,0-5.86-2.62-5.86-5.86v-351.71c0-2.55,1.65-4.81,4.08-5.59,2.43-.78,5.08.1,6.56,2.18l133.61,187.33Z"/>
        <path class="cls-3" d="M846.72,2675.22c2.61,1.91,3.18,5.58,1.28,8.19l-206.1,281.08c-1.91,2.61-5.57,3.19-8.19,1.28-2.61-1.91-3.19-5.57-1.28-8.19l206.1-281.08c1.91-2.61,5.58-3.19,8.19-1.28Z"/>
        <path class="cls-3" d="M822.19,2847.74c-1.88-2.64-1.27-6.3,1.36-8.18,2.64-1.88,6.3-1.27,8.18,1.36l122.98,172.44v-333.42c0-3.24,2.62-5.86,5.86-5.86,3.24,0,5.86,2.62,5.86,5.86v351.71c0,2.55-1.65,4.81-4.08,5.59-2.43.78-5.08-.1-6.56-2.18l-133.61-187.33Z"/>
        <path class="cls-3" d="M681.6,3036.4c-2.61-1.91-3.18-5.58-1.28-8.19l206.1-281.08c1.91-2.61,5.57-3.19,8.19-1.28,2.61,1.91,3.19,5.57,1.28,8.19l-206.1,281.08c-1.91,2.61-5.58,3.19-8.19,1.28Z"/>
        <path class="cls-3" d="M706.13,2863.88c1.88,2.64,1.27,6.3-1.36,8.18-2.64,1.88-6.3,1.27-8.18-1.36l-122.98-172.44v333.42c0,3.24-2.62,5.86-5.86,5.86-3.24,0-5.86-2.62-5.86-5.86v-351.71c0-2.55,1.65-4.81,4.08-5.59,2.43-.78,5.08.1,6.56,2.18l133.61,187.33Z"/>
        <path class="cls-3" d="M846.72,2675.22c2.61,1.91,3.18,5.58,1.28,8.19l-206.1,281.08c-1.91,2.61-5.57,3.19-8.19,1.28-2.61-1.91-3.19-5.57-1.28-8.19l206.1-281.08c1.91-2.61,5.58-3.19,8.19-1.28Z"/>
        <path class="cls-3" d="M822.19,2847.74c-1.88-2.64-1.27-6.3,1.36-8.18,2.64-1.88,6.3-1.27,8.18,1.36l122.98,172.44v-333.42c0-3.24,2.62-5.86,5.86-5.86,3.24,0,5.86,2.62,5.86,5.86v351.71c0,2.55-1.65,4.81-4.08,5.59-2.43.78-5.08-.1-6.56-2.18l-133.61-187.33Z"/>
        <path class="cls-3" d="M681.6,3036.4c-2.61-1.91-3.18-5.58-1.28-8.19l206.1-281.08c1.91-2.61,5.57-3.19,8.19-1.28,2.61,1.91,3.19,5.57,1.28,8.19l-206.1,281.08c-1.91,2.61-5.58,3.19-8.19,1.28Z"/>
        <path class="cls-3" d="M706.13,3215.68c1.88,2.64,1.27,6.3-1.36,8.18-2.64,1.88-6.3,1.27-8.18-1.36l-122.98-172.44v333.42c0,3.24-2.62,5.86-5.86,5.86s-5.86-2.62-5.86-5.86v-351.71c0-2.55,1.65-4.81,4.08-5.59,2.43-.78,5.08.1,6.56,2.18l133.61,187.33Z"/>
        <path class="cls-3" d="M846.72,3027.02c2.61,1.91,3.18,5.58,1.28,8.19l-206.1,281.08c-1.91,2.61-5.57,3.19-8.19,1.28-2.61-1.91-3.19-5.57-1.28-8.19l206.1-281.08c1.91-2.61,5.58-3.19,8.19-1.28Z"/>
        <path class="cls-3" d="M822.19,3199.55c-1.88-2.64-1.27-6.3,1.36-8.18,2.64-1.88,6.3-1.27,8.18,1.36l122.98,172.44v-333.42c0-3.24,2.62-5.86,5.86-5.86,3.24,0,5.86,2.62,5.86,5.86v351.71c0,2.55-1.65,4.81-4.08,5.59-2.43.78-5.08-.1-6.56-2.18l-133.61-187.33Z"/>
        <path class="cls-3" d="M681.6,3388.21c-2.61-1.91-3.18-5.58-1.28-8.19l206.1-281.08c1.91-2.61,5.57-3.19,8.19-1.28,2.61,1.91,3.19,5.57,1.28,8.19l-206.1,281.08c-1.91,2.61-5.58,3.19-8.19,1.28Z"/>
        <path class="cls-3" d="M706.13,3215.68c1.88,2.64,1.27,6.3-1.36,8.18-2.64,1.88-6.3,1.27-8.18-1.36l-122.98-172.44v333.42c0,3.24-2.62,5.86-5.86,5.86s-5.86-2.62-5.86-5.86v-351.71c0-2.55,1.65-4.81,4.08-5.59,2.43-.78,5.08.1,6.56,2.18l133.61,187.33Z"/>
        <path class="cls-3" d="M846.72,3027.02c2.61,1.91,3.18,5.58,1.28,8.19l-206.1,281.08c-1.91,2.61-5.57,3.19-8.19,1.28-2.61-1.91-3.19-5.57-1.28-8.19l206.1-281.08c1.91-2.61,5.58-3.19,8.19-1.28Z"/>
        <path class="cls-3" d="M822.19,3199.55c-1.88-2.64-1.27-6.3,1.36-8.18,2.64-1.88,6.3-1.27,8.18,1.36l122.98,172.44v-333.42c0-3.24,2.62-5.86,5.86-5.86,3.24,0,5.86,2.62,5.86,5.86v351.71c0,2.55-1.65,4.81-4.08,5.59-2.43.78-5.08-.1-6.56-2.18l-133.61-187.33Z"/>
        <path class="cls-3" d="M681.6,3388.21c-2.61-1.91-3.18-5.58-1.28-8.19l206.1-281.08c1.91-2.61,5.57-3.19,8.19-1.28,2.61,1.91,3.19,5.57,1.28,8.19l-206.1,281.08c-1.91,2.61-5.58,3.19-8.19,1.28Z"/>
        <path class="cls-3" d="M706.13,3567.49c1.88,2.64,1.27,6.3-1.36,8.18-2.64,1.88-6.3,1.27-8.18-1.36l-122.98-172.44v333.42c0,3.24-2.62,5.86-5.86,5.86s-5.86-2.62-5.86-5.86v-351.71c0-2.55,1.65-4.81,4.08-5.59,2.43-.78,5.08.1,6.56,2.18l133.61,187.33Z"/>
        <path class="cls-3" d="M846.72,3378.83c2.61,1.91,3.18,5.58,1.28,8.19l-206.1,281.08c-1.91,2.61-5.57,3.19-8.19,1.28-2.61-1.91-3.19-5.57-1.28-8.19l206.1-281.08c1.91-2.61,5.58-3.19,8.19-1.28Z"/>
        <path class="cls-3" d="M822.19,3551.35c-1.88-2.64-1.27-6.3,1.36-8.18,2.64-1.88,6.3-1.27,8.18,1.36l122.98,172.44v-333.42c0-3.24,2.62-5.86,5.86-5.86,3.24,0,5.86,2.62,5.86,5.86v351.71c0,2.55-1.65,4.81-4.08,5.59-2.43.78-5.08-.1-6.56-2.18l-133.61-187.33Z"/>
        <path class="cls-3" d="M681.6,3740.01c-2.61-1.91-3.18-5.58-1.28-8.19l206.1-281.08c1.91-2.61,5.57-3.19,8.19-1.28,2.61,1.91,3.19,5.57,1.28,8.19l-206.1,281.08c-1.91,2.61-5.58,3.19-8.19,1.28Z"/>
        <path class="cls-3" d="M706.13,3567.49c1.88,2.64,1.27,6.3-1.36,8.18-2.64,1.88-6.3,1.27-8.18-1.36l-122.98-172.44v333.42c0,3.24-2.62,5.86-5.86,5.86s-5.86-2.62-5.86-5.86v-351.71c0-2.55,1.65-4.81,4.08-5.59,2.43-.78,5.08.1,6.56,2.18l133.61,187.33Z"/>
        <path class="cls-3" d="M846.72,3378.83c2.61,1.91,3.18,5.58,1.28,8.19l-206.1,281.08c-1.91,2.61-5.57,3.19-8.19,1.28-2.61-1.91-3.19-5.57-1.28-8.19l206.1-281.08c1.91-2.61,5.58-3.19,8.19-1.28Z"/>
        <path class="cls-3" d="M822.19,3551.35c-1.88-2.64-1.27-6.3,1.36-8.18,2.64-1.88,6.3-1.27,8.18,1.36l122.98,172.44v-333.42c0-3.24,2.62-5.86,5.86-5.86,3.24,0,5.86,2.62,5.86,5.86v351.71c0,2.55-1.65,4.81-4.08,5.59-2.43.78-5.08-.1-6.56-2.18l-133.61-187.33Z"/>
        <path class="cls-3" d="M681.6,3740.01c-2.61-1.91-3.18-5.58-1.28-8.19l206.1-281.08c1.91-2.61,5.57-3.19,8.19-1.28,2.61,1.91,3.19,5.57,1.28,8.19l-206.1,281.08c-1.91,2.61-5.58,3.19-8.19,1.28Z"/>
        <path class="cls-3" d="M706.13,3919.3c1.88,2.64,1.27,6.3-1.36,8.18-2.64,1.88-6.3,1.27-8.18-1.36l-122.98-172.44v333.42c0,3.24-2.62,5.86-5.86,5.86-3.24,0-5.86-2.62-5.86-5.86v-351.71c0-2.55,1.65-4.81,4.08-5.59,2.43-.78,5.08.1,6.56,2.18l133.61,187.33Z"/>
        <path class="cls-3" d="M846.72,3730.64c2.61,1.91,3.18,5.58,1.28,8.19l-206.1,281.08c-1.91,2.61-5.57,3.19-8.19,1.28-2.61-1.91-3.19-5.57-1.28-8.19l206.1-281.08c1.91-2.61,5.58-3.19,8.19-1.28Z"/>
        <path class="cls-3" d="M822.19,3903.16c-1.88-2.64-1.27-6.3,1.36-8.18,2.64-1.88,6.3-1.27,8.18,1.36l122.98,172.44v-333.42c0-3.24,2.62-5.86,5.86-5.86,3.24,0,5.86,2.62,5.86,5.86v351.71c0,2.55-1.65,4.81-4.08,5.59-2.43.78-5.08-.1-6.56-2.18l-133.61-187.33Z"/>
        <path class="cls-3" d="M681.6,4091.82c-2.61-1.91-3.18-5.58-1.28-8.19l206.1-281.08c1.91-2.61,5.57-3.19,8.19-1.28,2.61,1.91,3.19,5.57,1.28,8.19l-206.1,281.08c-1.91,2.61-5.58,3.19-8.19,1.28Z"/>
        <path class="cls-3" d="M706.13,3919.3c1.88,2.64,1.27,6.3-1.36,8.18-2.64,1.88-6.3,1.27-8.18-1.36l-122.98-172.44v333.42c0,3.24-2.62,5.86-5.86,5.86-3.24,0-5.86-2.62-5.86-5.86v-351.71c0-2.55,1.65-4.81,4.08-5.59,2.43-.78,5.08.1,6.56,2.18l133.61,187.33Z"/>
        <path class="cls-3" d="M846.72,3730.64c2.61,1.91,3.18,5.58,1.28,8.19l-206.1,281.08c-1.91,2.61-5.57,3.19-8.19,1.28-2.61-1.91-3.19-5.57-1.28-8.19l206.1-281.08c1.91-2.61,5.58-3.19,8.19-1.28Z"/>
        <path class="cls-3" d="M822.19,3903.16c-1.88-2.64-1.27-6.3,1.36-8.18,2.64-1.88,6.3-1.27,8.18,1.36l122.98,172.44v-333.42c0-3.24,2.62-5.86,5.86-5.86,3.24,0,5.86,2.62,5.86,5.86v351.71c0,2.55-1.65,4.81-4.08,5.59-2.43.78-5.08-.1-6.56-2.18l-133.61-187.33Z"/>
        <path class="cls-3" d="M681.6,4091.82c-2.61-1.91-3.18-5.58-1.28-8.19l206.1-281.08c1.91-2.61,5.57-3.19,8.19-1.28,2.61,1.91,3.19,5.57,1.28,8.19l-206.1,281.08c-1.91,2.61-5.58,3.19-8.19,1.28Z"/>
      </g>
      <g>
        <rect class="cls-6" x="1.66" y="533.16" width="1525" height="878.59" rx="439.29" ry="439.29"/>
        <rect class="cls-3" x="24.88" y="551.86" width="1478.56" height="841.2" rx="420.6" ry="420.6"/>
        <g>
          <path class="cls-5" d="M497.99,654.53v-1.1c2.63-.25,2.94-.51,2.94-3.4v-8.32c0-2.6-.14-2.8-2.63-3.23v-.99c2.26-.37,4.39-.85,6.28-1.59v14.12c0,2.86.28,3.09,2.97,3.4v1.1h-9.57ZM500.2,630.24c0-1.33,1.08-2.32,2.32-2.32s2.21.99,2.21,2.32c0,1.19-.96,2.24-2.26,2.24-1.19,0-2.26-1.05-2.26-2.24Z"/>
          <path class="cls-5" d="M526.99,654.53v-1.1c2.41-.25,2.69-.59,2.69-3.51v-6.74c0-2.89-1.16-4.61-3.74-4.61-1.58,0-3.14.99-4.42,2.04v9.57c0,2.83.23,3,2.66,3.25v1.1h-9.34v-1.1c2.8-.34,3.03-.54,3.03-3.31v-8.32c0-2.69-.28-2.86-2.49-3.26v-1.05c2.01-.31,4.19-.85,6.14-1.64v3.34c.85-.62,1.75-1.27,2.83-1.98,1.19-.76,2.24-1.22,3.48-1.22,3.34,0,5.46,2.35,5.46,6.45v7.73c0,2.83.25,2.94,2.69,3.25v1.1h-9Z"/>
          <path class="cls-5" d="M554.52,641.51c-.82-2.43-2.29-4.16-4.36-4.16-1.53,0-2.6,1.13-2.6,2.75,0,1.7,1.58,2.69,3.48,3.42,3.2,1.27,5.38,2.77,5.38,5.69,0,3.88-3.57,5.8-7.05,5.8-2.18,0-4.16-.76-4.87-1.36-.28-.54-.68-3.45-.74-5.09l1.16-.17c.79,2.77,2.69,5.24,5.18,5.24,1.53,0,2.89-1.16,2.89-2.8s-1.1-2.63-3.25-3.59c-2.43-1.1-5.35-2.52-5.35-5.8,0-2.94,2.55-5.43,6.51-5.43,1.81,0,2.94.37,3.79.74.37.91.88,3.45.96,4.44l-1.13.34Z"/>
          <path class="cls-5" d="M572.74,654.44c-.76.42-1.42.57-1.78.57-2.8,0-4.36-1.58-4.36-4.92v-11.89h-2.86l-.2-.48,1.16-1.25h1.9v-3l3.08-2.89.57.11v5.77h4.7c.42.45.28,1.36-.28,1.73h-4.42v10.44c0,3.34,1.44,3.91,2.49,3.91.99,0,1.92-.4,2.55-.71l.37,1.13-2.92,1.47Z"/>
          <path class="cls-5" d="M596.36,655.01c-.79,0-1.7-.37-2.15-.82-.57-.54-.82-1.1-1.02-1.75-1.7,1.08-3.68,2.58-4.87,2.58-3.14,0-5.21-2.49-5.21-5.09,0-2.07,1.13-3.31,3.42-4.05,2.69-.85,5.6-1.92,6.51-2.69v-.74c0-2.97-1.36-4.56-3.37-4.56-.74,0-1.36.28-1.78.74-.54.54-.91,1.47-1.27,2.8-.25.74-.71,1.02-1.36,1.02-.82,0-1.92-.85-1.92-1.84,0-.62.54-1.13,1.36-1.7,1.22-.88,4.08-2.46,6.43-2.92,1.33,0,2.55.31,3.51,1.05,1.56,1.3,2.01,3.03,2.01,5.24v7.44c0,1.84.74,2.46,1.5,2.46.48,0,1.05-.2,1.5-.45l.42,1.1-3.71,2.18ZM593.05,644.62c-.85.42-2.55,1.22-3.42,1.61-1.64.71-2.55,1.53-2.55,3.06,0,2.18,1.64,3.14,2.89,3.14.99,0,2.35-.62,3.09-1.36v-6.45Z"/>
          <path class="cls-5" d="M610.55,637.55c1.42,0,2.43,1.02,2.43,2.52s-1.02,2.52-2.46,2.52-2.43-1.05-2.43-2.52,1.02-2.52,2.43-2.52h.03ZM610.53,655.01c-1.42,0-2.43-.96-2.43-2.49,0-1.44,1.02-2.52,2.46-2.52s2.49,1.08,2.49,2.52c0,1.53-1.05,2.49-2.49,2.49h-.03Z"/>
          <path class="cls-5" d="M655.82,654.53v-1.19c2.63-.37,3-.74,2.43-2.41-.59-1.64-1.36-3.71-2.26-6.09h-9.09c-.71,1.9-1.27,3.51-1.81,5.15-.91,2.52-.57,3,2.63,3.34v1.19h-9.34v-1.19c2.75-.42,3.34-.71,4.84-4.39l8.89-21.6,1.47-.37c2.72,7.33,5.43,14.69,8.24,21.96,1.36,3.65,1.95,4.1,4.7,4.39v1.19h-10.7ZM651.65,632.68h-.08c-1.36,3.43-2.69,6.96-3.96,10.3h7.76l-3.71-10.3Z"/>
          <path class="cls-5" d="M697.27,654.53v-1.1c2.35-.25,2.83-.45,2.83-3.4v-6.68c0-3.11-1.19-4.78-3.62-4.78-1.36,0-2.89.79-4.47,2.07.06.51.11.99.11,1.73v7.95c0,2.6.4,2.86,2.69,3.11v1.1h-9.26v-1.1c2.52-.25,2.89-.45,2.89-3.17v-6.99c0-3.11-1.16-4.7-3.57-4.7-1.58,0-3.14,1.05-4.42,2.04v9.65c0,2.66.37,2.92,2.29,3.17v1.1h-9.06v-1.1c2.72-.25,3.11-.51,3.11-3.23v-8.41c0-2.63-.14-2.89-2.55-3.26v-1.05c1.81-.28,4.16-.82,6.14-1.64v3.4c.91-.59,1.81-1.36,3.08-2.12,1.13-.68,2.15-1.13,3.48-1.13,2.01,0,3.82,1.27,4.7,3.4,1.25-.91,2.43-1.67,3.45-2.35.91-.57,1.98-1.05,3.17-1.05,3.34,0,5.49,2.29,5.49,6.45v7.81c0,2.75.28,2.86,2.72,3.17v1.1h-9.23Z"/>
          <path class="cls-5" d="M714.05,654.53v-1.1c2.63-.25,2.94-.51,2.94-3.4v-8.32c0-2.6-.14-2.8-2.63-3.23v-.99c2.26-.37,4.39-.85,6.28-1.59v14.12c0,2.86.28,3.09,2.97,3.4v1.1h-9.57ZM716.25,630.24c0-1.33,1.08-2.32,2.32-2.32s2.21.99,2.21,2.32c0,1.19-.96,2.24-2.26,2.24-1.19,0-2.26-1.05-2.26-2.24Z"/>
          <path class="cls-5" d="M737.67,640.46c1.39-2.26,3.11-4.47,5.07-4.47,1.53,0,2.55,1.1,2.55,2.12,0,.96-.57,1.81-1.47,2.24-.51.2-.88.11-1.13-.11-.65-.59-1.13-.85-1.84-.85-1.08,0-2.35,1.22-3.25,3.43v7.39c0,2.72.2,2.97,3.48,3.23v1.1h-10.05v-1.1c2.55-.25,2.92-.51,2.92-3.23v-8.58c0-2.63-.23-2.8-2.58-3.14v-.93c2.09-.34,4.08-.82,6.23-1.7v4.61h.08Z"/>
          <path class="cls-5" d="M765.9,655.01c-.79,0-1.7-.37-2.15-.82-.57-.54-.82-1.1-1.02-1.75-1.7,1.08-3.68,2.58-4.87,2.58-3.14,0-5.21-2.49-5.21-5.09,0-2.07,1.13-3.31,3.42-4.05,2.69-.85,5.6-1.92,6.51-2.69v-.74c0-2.97-1.36-4.56-3.37-4.56-.74,0-1.36.28-1.78.74-.54.54-.91,1.47-1.27,2.8-.25.74-.71,1.02-1.36,1.02-.82,0-1.92-.85-1.92-1.84,0-.62.54-1.13,1.36-1.7,1.22-.88,4.08-2.46,6.43-2.92,1.33,0,2.55.31,3.51,1.05,1.56,1.3,2.01,3.03,2.01,5.24v7.44c0,1.84.74,2.46,1.5,2.46.48,0,1.05-.2,1.5-.45l.42,1.1-3.71,2.18ZM762.59,644.62c-.85.42-2.55,1.22-3.42,1.61-1.64.71-2.55,1.53-2.55,3.06,0,2.18,1.64,3.14,2.89,3.14.99,0,2.35-.62,3.09-1.36v-6.45Z"/>
          <path class="cls-5" d="M788.25,654.53v-1.1c2.41-.25,2.69-.59,2.69-3.51v-6.74c0-2.89-1.16-4.61-3.74-4.61-1.58,0-3.14.99-4.42,2.04v9.57c0,2.83.23,3,2.66,3.25v1.1h-9.34v-1.1c2.8-.34,3.03-.54,3.03-3.31v-8.32c0-2.69-.28-2.86-2.49-3.26v-1.05c2.01-.31,4.19-.85,6.14-1.64v3.34c.85-.62,1.75-1.27,2.83-1.98,1.19-.76,2.24-1.22,3.48-1.22,3.34,0,5.46,2.35,5.46,6.45v7.73c0,2.83.25,2.94,2.69,3.25v1.1h-9Z"/>
          <path class="cls-5" d="M840.37,636.81c-.31.65-1.19,1.75-1.9,2.12l-2.38-.11c.71.88,1.19,2.15,1.19,3.62,0,4.42-3.82,6.59-7.53,6.59-.79,0-1.53-.11-2.21-.2-.54.37-1.08,1.02-1.08,1.56,0,.79.76,1.61,2.66,1.61,1.47,0,2.92-.08,4.36-.08,2.55,0,6.14.79,6.14,4.95s-5.04,8.32-10.67,8.32c-4.78,0-7.33-2.72-7.39-5.07,0-.99.42-1.78,1.1-2.38.93-.88,2.41-1.95,3.4-2.75-1.56-.45-2.6-1.36-3.14-2.26-.4-.59-.57-1.39-.48-1.84,1.73-.62,3.08-1.7,3.74-2.49-1.98-.82-3.71-2.8-3.71-5.55,0-4.76,4.33-6.88,7.67-6.88h.06c1.39,0,2.75.37,4.08,1.05,2.15-.11,4.33-.37,5.89-.57l.2.34ZM830.52,655.15c-1.92,0-2.89.25-3.62.85-1.02.88-1.78,1.95-1.78,3.06,0,2.18,2.32,4.02,5.58,4.02,3.79,0,5.86-1.98,5.86-4.5,0-1.44-.74-2.49-1.95-2.94-1.1-.4-2.29-.48-4.02-.48h-.06ZM829.75,637.29c-1.7,0-3.34,1.64-3.34,4.9s1.5,5.49,3.79,5.49c1.81-.03,3.37-1.64,3.37-4.9s-1.44-5.49-3.79-5.49h-.03Z"/>
          <path class="cls-5" d="M853.97,640.46c1.39-2.26,3.11-4.47,5.07-4.47,1.53,0,2.55,1.1,2.55,2.12,0,.96-.57,1.81-1.47,2.24-.51.2-.88.11-1.13-.11-.65-.59-1.13-.85-1.84-.85-1.08,0-2.35,1.22-3.25,3.43v7.39c0,2.72.2,2.97,3.48,3.23v1.1h-10.05v-1.1c2.55-.25,2.92-.51,2.92-3.23v-8.58c0-2.63-.23-2.8-2.58-3.14v-.93c2.09-.34,4.08-.82,6.23-1.7v4.61h.08Z"/>
          <path class="cls-5" d="M877.85,635.99c5.38,0,9.34,4.16,9.34,9.17,0,6.68-5.09,9.85-9.37,9.85-6.03,0-9.54-4.53-9.54-9.09,0-6.76,5.55-9.94,9.54-9.94h.03ZM877.31,637.38c-2.43,0-4.7,2.46-4.7,7.13,0,5.24,2.26,9.06,5.66,9.06,2.43,0,4.61-1.64,4.61-7.44,0-4.95-1.98-8.75-5.52-8.75h-.06Z"/>
          <path class="cls-5" d="M915.88,653.54c-.96.11-2.15.37-3.31.65-1.16.31-2.29.59-3.17.82l-.28-.23v-2.94c-.96.71-1.78,1.42-2.97,2.12-1.25.68-2.15,1.05-3.34,1.05-2.94,0-5.32-1.75-5.32-6.2v-7.9c0-2.26-.34-2.46-1.42-2.72l-1.13-.28v-.99c.85-.03,1.98-.17,3.17-.28,1.19-.14,2.43-.34,3.17-.45-.11,1.27-.11,3.26-.11,6v5.58c0,3.45,1.75,4.53,3.62,4.53,1.47,0,2.97-.57,4.33-1.84v-9.54c0-2.26-.37-2.52-1.73-2.75l-1.5-.25v-.99c1.19-.03,2.69-.17,3.96-.34,1.25-.08,2.26-.28,2.92-.4v13.64c0,2.15.34,2.43,1.98,2.55l1.13.06v1.1Z"/>
          <path class="cls-5" d="M932.54,636.67c.82-.48,1.64-.68,2.18-.68,4.75,0,7.56,3.71,7.56,7.87,0,6.14-5.07,10.13-10.5,11.15-1.25-.03-2.38-.4-2.97-.68v5.46c0,3.03.31,3.28,3.57,3.57v1.13h-10.3v-1.13c2.72-.25,3.08-.54,3.08-3.23v-18.68c0-2.6-.23-2.72-2.75-3.06v-1.02c1.78-.28,4.27-1.02,6.4-1.81v3.28l3.74-2.18ZM928.8,651.36c.93.91,2.55,1.61,3.93,1.61,3.51,0,5.69-3.14,5.69-7.47s-2.66-6.93-5.6-6.93c-1.27,0-2.92.88-4.02,1.7v11.1Z"/>
          <path class="cls-5" d="M952.82,655.01c-1.39,0-2.43-.96-2.43-2.55,0-1.39,1.05-2.46,2.49-2.46s2.46,1.08,2.46,2.46c0,1.59-1.02,2.55-2.46,2.55h-.06Z"/>
          <path class="cls-5" d="M980.54,650.71c-1.9,2.46-4.75,4.3-7.22,4.3-5.49,0-8.66-4.25-8.66-8.63,0-3.14,1.44-5.94,4.27-8.04,2.32-1.7,4.87-2.35,6.48-2.35h.06c1.73,0,3.11.51,3.79,1.1.57.45.68.82.68,1.27,0,.96-.93,1.9-1.47,1.9-.25,0-.45-.11-.82-.48-1.36-1.22-2.8-1.78-4.3-1.78-2.6,0-4.98,2.09-4.98,6.48,0,5.69,4.13,7.53,6.4,7.53,1.75,0,3.17-.48,5.07-2.24l.71.93Z"/>
          <path class="cls-5" d="M997.63,635.99c5.38,0,9.34,4.16,9.34,9.17,0,6.68-5.09,9.85-9.37,9.85-6.03,0-9.54-4.53-9.54-9.09,0-6.76,5.55-9.94,9.54-9.94h.03ZM997.09,637.38c-2.43,0-4.7,2.46-4.7,7.13,0,5.24,2.26,9.06,5.66,9.06,2.43,0,4.61-1.64,4.61-7.44,0-4.95-1.98-8.75-5.52-8.75h-.06Z"/>
          <path class="cls-5" d="M553.77,707.15c-2.12.34-2.49.82-3.37,3.03-1.27,3.26-3.17,8.8-5.15,14.38h-1.25c-1.75-4.44-3.51-8.52-5.18-12.62-1.61,4.13-3.31,8.21-4.95,12.62h-1.33c-1.53-4.9-3.17-9.77-4.9-14.72-.74-2.09-1.1-2.43-3.08-2.69v-1.1h8.97v1.1c-2.52.42-2.72.68-2.09,2.52.93,3.06,1.98,6.23,3,9.23h.08c1.58-3.85,3.14-8.04,4.87-12.65h1.19c1.58,4.16,3.31,8.49,5.07,12.82h.08c.82-2.58,2.07-6.31,2.8-9.23.54-2.01.25-2.32-2.43-2.69v-1.1h7.67v1.1Z"/>
          <path class="cls-5" d="M569.82,720.42c-2.72,3.42-5.75,4.16-7.1,4.16-5.18,0-8.24-4.16-8.24-8.77,0-2.75.99-5.24,2.69-7.08,1.81-1.98,4.1-3.17,6.34-3.17h.03c3.59,0,6.45,3.09,6.45,6.37,0,.79-.23,1.16-.99,1.33-.76.11-6.03.54-10.9.71.08,5.35,3.23,7.61,6.14,7.61,1.73,0,3.34-.65,4.87-2.07l.71.91ZM562.52,707.12c-1.81,0-3.62,1.61-4.22,5.07,2.24,0,4.47,0,6.82-.08.74-.03.99-.25.99-.79,0-2.18-1.36-4.19-3.57-4.19h-.03Z"/>
          <path class="cls-5" d="M580.69,706.04c.79-.34,1.42-.48,1.9-.48,4.61,0,8.46,3.82,8.46,8.69,0,6.03-5.01,10.33-10.73,10.33-1.81,0-3.99-.4-6.43-1.47v-22.87c0-2.6-.14-2.89-2.77-3.14v-.99c1.98-.25,4.75-.88,6.42-1.44v12.71l3.14-1.33ZM577.55,719.23c0,.62.08,1.05.25,1.42.28.85,1.53,2.29,3.62,2.29,3.34,0,5.55-2.75,5.55-7.59s-2.97-7.42-6.31-7.42c-1.13,0-2.32.34-3.11.71v10.59Z"/>
          <path class="cls-5" d="M597.48,707.12c1.42,0,2.43,1.02,2.43,2.52s-1.02,2.52-2.46,2.52-2.43-1.05-2.43-2.52,1.02-2.52,2.43-2.52h.03ZM597.45,724.58c-1.42,0-2.43-.96-2.43-2.49,0-1.44,1.02-2.52,2.46-2.52s2.49,1.08,2.49,2.52c0,1.53-1.05,2.49-2.49,2.49h-.03Z"/>
          <path class="cls-5" d="M643.19,707.15c-2.12.34-2.49.82-3.37,3.03-1.27,3.26-3.17,8.8-5.15,14.38h-1.25c-1.75-4.44-3.51-8.52-5.18-12.62-1.61,4.13-3.31,8.21-4.95,12.62h-1.33c-1.53-4.9-3.17-9.77-4.9-14.72-.74-2.09-1.1-2.43-3.08-2.69v-1.1h8.97v1.1c-2.52.42-2.72.68-2.09,2.52.93,3.06,1.98,6.23,3,9.23h.08c1.58-3.85,3.14-8.04,4.87-12.65h1.19c1.58,4.16,3.31,8.49,5.07,12.82h.08c.82-2.58,2.07-6.31,2.8-9.23.54-2.01.25-2.32-2.43-2.69v-1.1h7.67v1.1Z"/>
          <path class="cls-5" d="M672.75,707.15c-2.12.34-2.49.82-3.37,3.03-1.27,3.26-3.17,8.8-5.15,14.38h-1.25c-1.75-4.44-3.51-8.52-5.18-12.62-1.61,4.13-3.31,8.21-4.95,12.62h-1.33c-1.53-4.9-3.17-9.77-4.9-14.72-.74-2.09-1.1-2.43-3.08-2.69v-1.1h8.97v1.1c-2.52.42-2.72.68-2.09,2.52.93,3.06,1.98,6.23,3,9.23h.08c1.58-3.85,3.14-8.04,4.87-12.65h1.19c1.58,4.16,3.31,8.49,5.07,12.82h.08c.82-2.58,2.07-6.31,2.8-9.23.54-2.01.25-2.32-2.43-2.69v-1.1h7.67v1.1Z"/>
          <path class="cls-5" d="M702.3,707.15c-2.12.34-2.49.82-3.37,3.03-1.27,3.26-3.17,8.8-5.15,14.38h-1.25c-1.75-4.44-3.51-8.52-5.18-12.62-1.61,4.13-3.31,8.21-4.95,12.62h-1.33c-1.53-4.9-3.17-9.77-4.9-14.72-.74-2.09-1.1-2.43-3.08-2.69v-1.1h8.97v1.1c-2.52.42-2.72.68-2.09,2.52.93,3.06,1.98,6.23,3,9.23h.08c1.58-3.85,3.14-8.04,4.87-12.65h1.19c1.58,4.16,3.31,8.49,5.07,12.82h.08c.82-2.58,2.07-6.31,2.8-9.23.54-2.01.25-2.32-2.43-2.69v-1.1h7.67v1.1Z"/>
          <path class="cls-5" d="M703.44,724.58c-1.39,0-2.43-.96-2.43-2.55,0-1.39,1.05-2.46,2.49-2.46s2.46,1.08,2.46,2.46c0,1.59-1.02,2.55-2.46,2.55h-.06Z"/>
          <path class="cls-5" d="M723.17,724.58c-.79,0-1.7-.37-2.15-.82-.57-.54-.82-1.1-1.02-1.75-1.7,1.08-3.68,2.58-4.87,2.58-3.14,0-5.21-2.49-5.21-5.09,0-2.07,1.13-3.31,3.42-4.05,2.69-.85,5.6-1.92,6.51-2.69v-.74c0-2.97-1.36-4.56-3.37-4.56-.74,0-1.36.28-1.78.74-.54.54-.91,1.47-1.27,2.8-.25.74-.71,1.02-1.36,1.02-.82,0-1.92-.85-1.92-1.84,0-.62.54-1.13,1.36-1.7,1.22-.88,4.08-2.46,6.43-2.92,1.33,0,2.55.31,3.51,1.05,1.56,1.3,2.01,3.03,2.01,5.24v7.44c0,1.84.74,2.46,1.5,2.46.48,0,1.05-.2,1.5-.45l.42,1.1-3.71,2.18ZM719.85,714.19c-.85.42-2.55,1.22-3.42,1.61-1.64.71-2.55,1.53-2.55,3.06,0,2.18,1.64,3.14,2.89,3.14.99,0,2.35-.62,3.09-1.36v-6.45Z"/>
          <path class="cls-5" d="M751.47,724.1v-1.1c2.35-.25,2.83-.45,2.83-3.4v-6.68c0-3.11-1.19-4.78-3.62-4.78-1.36,0-2.89.79-4.47,2.07.06.51.11.99.11,1.73v7.95c0,2.6.4,2.86,2.69,3.11v1.1h-9.26v-1.1c2.52-.25,2.89-.45,2.89-3.17v-6.99c0-3.11-1.16-4.7-3.57-4.7-1.58,0-3.14,1.05-4.42,2.04v9.65c0,2.66.37,2.92,2.29,3.17v1.1h-9.06v-1.1c2.72-.25,3.11-.51,3.11-3.23v-8.41c0-2.63-.14-2.89-2.55-3.25v-1.05c1.81-.28,4.16-.82,6.14-1.64v3.4c.91-.59,1.81-1.36,3.08-2.12,1.13-.68,2.15-1.13,3.48-1.13,2.01,0,3.82,1.27,4.7,3.4,1.25-.91,2.43-1.67,3.45-2.35.91-.57,1.98-1.05,3.17-1.05,3.34,0,5.49,2.29,5.49,6.45v7.81c0,2.75.28,2.86,2.72,3.17v1.1h-9.23Z"/>
          <path class="cls-5" d="M762.86,724.1v-1.1c2.63-.25,2.94-.51,2.94-3.4v-8.32c0-2.6-.14-2.8-2.63-3.23v-.99c2.26-.37,4.39-.85,6.28-1.58v14.12c0,2.86.28,3.09,2.97,3.4v1.1h-9.57ZM765.06,699.81c0-1.33,1.08-2.32,2.32-2.32s2.21.99,2.21,2.32c0,1.19-.96,2.24-2.26,2.24-1.19,0-2.26-1.05-2.26-2.24Z"/>
          <path class="cls-5" d="M781.09,710.03c1.39-2.26,3.11-4.47,5.07-4.47,1.53,0,2.55,1.1,2.55,2.12,0,.96-.57,1.81-1.47,2.24-.51.2-.88.11-1.13-.11-.65-.59-1.13-.85-1.84-.85-1.08,0-2.35,1.22-3.25,3.42v7.39c0,2.72.2,2.97,3.48,3.23v1.1h-10.05v-1.1c2.55-.25,2.92-.51,2.92-3.23v-8.58c0-2.63-.23-2.8-2.58-3.14v-.93c2.09-.34,4.08-.82,6.23-1.7v4.61h.08Z"/>
          <path class="cls-5" d="M803.93,724.58c-.79,0-1.7-.37-2.15-.82-.57-.54-.82-1.1-1.02-1.75-1.7,1.08-3.68,2.58-4.87,2.58-3.14,0-5.21-2.49-5.21-5.09,0-2.07,1.13-3.31,3.42-4.05,2.69-.85,5.6-1.92,6.51-2.69v-.74c0-2.97-1.36-4.56-3.37-4.56-.74,0-1.36.28-1.78.74-.54.54-.91,1.47-1.27,2.8-.25.74-.71,1.02-1.36,1.02-.82,0-1.92-.85-1.92-1.84,0-.62.54-1.13,1.36-1.7,1.22-.88,4.08-2.46,6.43-2.92,1.33,0,2.55.31,3.51,1.05,1.56,1.3,2.01,3.03,2.01,5.24v7.44c0,1.84.74,2.46,1.5,2.46.48,0,1.05-.2,1.5-.45l.42,1.1-3.71,2.18ZM800.62,714.19c-.85.42-2.55,1.22-3.42,1.61-1.64.71-2.55,1.53-2.55,3.06,0,2.18,1.64,3.14,2.89,3.14.99,0,2.35-.62,3.09-1.36v-6.45Z"/>
          <path class="cls-5" d="M820.89,724.1v-1.1c2.41-.25,2.69-.59,2.69-3.51v-6.74c0-2.89-1.16-4.61-3.74-4.61-1.58,0-3.14.99-4.42,2.04v9.57c0,2.83.23,3,2.66,3.25v1.1h-9.34v-1.1c2.8-.34,3.03-.54,3.03-3.31v-8.32c0-2.69-.28-2.86-2.49-3.25v-1.05c2.01-.31,4.19-.85,6.14-1.64v3.34c.85-.62,1.75-1.27,2.83-1.98,1.19-.76,2.24-1.22,3.48-1.22,3.34,0,5.46,2.35,5.46,6.45v7.73c0,2.83.25,2.94,2.69,3.25v1.1h-9Z"/>
          <path class="cls-5" d="M850.55,706.38c-.31.65-1.19,1.75-1.9,2.12l-2.38-.11c.71.88,1.19,2.15,1.19,3.62,0,4.42-3.82,6.6-7.53,6.6-.79,0-1.53-.11-2.21-.2-.54.37-1.08,1.02-1.08,1.56,0,.79.76,1.61,2.66,1.61,1.47,0,2.92-.08,4.36-.08,2.55,0,6.14.79,6.14,4.95s-5.04,8.32-10.67,8.32c-4.78,0-7.33-2.72-7.39-5.07,0-.99.42-1.78,1.1-2.38.93-.88,2.41-1.95,3.4-2.75-1.56-.45-2.6-1.36-3.14-2.26-.4-.59-.57-1.39-.48-1.84,1.73-.62,3.08-1.7,3.74-2.49-1.98-.82-3.71-2.8-3.71-5.55,0-4.76,4.33-6.88,7.67-6.88h.06c1.39,0,2.75.37,4.08,1.05,2.15-.11,4.33-.37,5.89-.57l.2.34ZM840.7,724.72c-1.92,0-2.89.25-3.62.85-1.02.88-1.78,1.95-1.78,3.06,0,2.18,2.32,4.02,5.58,4.02,3.79,0,5.86-1.98,5.86-4.5,0-1.44-.74-2.49-1.95-2.94-1.1-.4-2.29-.48-4.02-.48h-.06ZM839.94,706.86c-1.7,0-3.34,1.64-3.34,4.9s1.5,5.49,3.79,5.49c1.81-.03,3.37-1.64,3.37-4.9s-1.44-5.49-3.79-5.49h-.03Z"/>
          <path class="cls-5" d="M858.76,710.03c1.39-2.26,3.11-4.47,5.07-4.47,1.53,0,2.55,1.1,2.55,2.12,0,.96-.57,1.81-1.47,2.24-.51.2-.88.11-1.13-.11-.65-.59-1.13-.85-1.84-.85-1.08,0-2.35,1.22-3.25,3.42v7.39c0,2.72.2,2.97,3.48,3.23v1.1h-10.05v-1.1c2.55-.25,2.92-.51,2.92-3.23v-8.58c0-2.63-.23-2.8-2.58-3.14v-.93c2.09-.34,4.08-.82,6.23-1.7v4.61h.08Z"/>
          <path class="cls-5" d="M877.25,705.56c5.38,0,9.34,4.16,9.34,9.17,0,6.68-5.09,9.85-9.37,9.85-6.03,0-9.54-4.53-9.54-9.09,0-6.76,5.55-9.94,9.54-9.94h.03ZM876.71,706.95c-2.43,0-4.7,2.46-4.7,7.13,0,5.24,2.26,9.06,5.66,9.06,2.43,0,4.61-1.64,4.61-7.44,0-4.95-1.98-8.75-5.52-8.75h-.06Z"/>
          <path class="cls-5" d="M909.89,723.11c-.96.11-2.15.37-3.31.65-1.16.31-2.29.59-3.17.82l-.28-.23v-2.94c-.96.71-1.78,1.42-2.97,2.12-1.25.68-2.15,1.05-3.34,1.05-2.94,0-5.32-1.75-5.32-6.2v-7.9c0-2.26-.34-2.46-1.42-2.72l-1.13-.28v-.99c.85-.03,1.98-.17,3.17-.28,1.19-.14,2.43-.34,3.17-.45-.11,1.27-.11,3.26-.11,6v5.58c0,3.45,1.75,4.53,3.62,4.53,1.47,0,2.97-.57,4.33-1.84v-9.54c0-2.26-.37-2.52-1.73-2.75l-1.5-.25v-.99c1.19-.03,2.69-.17,3.96-.34,1.25-.08,2.26-.28,2.92-.4v13.64c0,2.15.34,2.43,1.98,2.55l1.13.06v1.1Z"/>
          <path class="cls-5" d="M921.16,706.24c.82-.48,1.64-.68,2.18-.68,4.75,0,7.56,3.71,7.56,7.87,0,6.14-5.07,10.13-10.5,11.15-1.25-.03-2.38-.4-2.97-.68v5.46c0,3.03.31,3.28,3.57,3.57v1.13h-10.3v-1.13c2.72-.25,3.08-.54,3.08-3.23v-18.68c0-2.6-.23-2.72-2.75-3.06v-1.02c1.78-.28,4.27-1.02,6.4-1.81v3.28l3.74-2.18ZM917.42,720.93c.93.91,2.55,1.61,3.93,1.61,3.51,0,5.69-3.14,5.69-7.47s-2.66-6.93-5.6-6.93c-1.27,0-2.92.88-4.02,1.7v11.1Z"/>
          <path class="cls-5" d="M936.05,724.58c-1.39,0-2.43-.96-2.43-2.55,0-1.39,1.05-2.46,2.49-2.46s2.46,1.08,2.46,2.46c0,1.59-1.02,2.55-2.46,2.55h-.06Z"/>
          <path class="cls-5" d="M958.38,720.28c-1.9,2.46-4.75,4.3-7.22,4.3-5.49,0-8.66-4.25-8.66-8.63,0-3.14,1.44-5.94,4.27-8.04,2.32-1.7,4.87-2.35,6.48-2.35h.06c1.73,0,3.11.51,3.79,1.1.57.45.68.82.68,1.27,0,.96-.93,1.9-1.47,1.9-.25,0-.45-.11-.82-.48-1.36-1.22-2.8-1.78-4.3-1.78-2.6,0-4.98,2.09-4.98,6.48,0,5.69,4.13,7.53,6.4,7.53,1.75,0,3.17-.48,5.07-2.24l.71.93Z"/>
          <path class="cls-5" d="M970.07,705.56c5.38,0,9.34,4.16,9.34,9.17,0,6.68-5.09,9.85-9.37,9.85-6.03,0-9.54-4.53-9.54-9.09,0-6.76,5.55-9.94,9.54-9.94h.03ZM969.54,706.95c-2.43,0-4.7,2.46-4.7,7.13,0,5.24,2.26,9.06,5.66,9.06,2.43,0,4.61-1.64,4.61-7.44,0-4.95-1.98-8.75-5.52-8.75h-.06Z"/>
          <path class="cls-5" d="M280.75,871.97v10.7h-2.87v-10.7h-9.8v-2.48h9.8v-9.67h2.87v9.67h9.76v2.48h-9.76Z"/>
          <path class="cls-5" d="M304.7,852.86c6.12,0,9.67,5.41,9.67,11.79,0,8.67-5,14.7-11.47,17.27-2.48.93-5.64,1.45-6.99,1.48l-.29-1.45c6.96-1.13,12.18-5.96,13.73-12.83l-3.09,1.64c-1.1.58-2,.77-2.87.77-5.22,0-8.73-3.71-8.73-8.64,0-4.51,3.67-10.05,9.99-10.05h.06ZM303.93,854.5c-3.45,0-4.83,3.9-4.83,6.7,0,4.06,2.42,7.57,6.38,7.57,1.61,0,3.13-.58,4.06-1.22.13-1.1.16-2.19.16-3.16,0-4.25-1.19-9.89-5.7-9.89h-.06Z"/>
          <path class="cls-5" d="M328.29,852.86c4.61,0,7.93,3.16,7.93,6.99,0,1.35-.48,2.74-1.42,3.77-.42.45-1.64,1.48-3.71,2.84,3.38,1.9,6.35,4.09,6.35,8.22,0,5.54-5.54,8.54-9.76,8.54-5.35,0-9.38-2.93-9.38-7.93,0-2.16,1.13-3.45,2.16-4.42.77-.74,2.61-1.97,4.22-2.9-3.06-1.68-5.22-4-5.22-7.32,0-4.03,3.51-7.8,8.77-7.8h.06ZM328.22,881.64c2.77,0,5.03-2.13,5.03-5.64s-3.22-5.35-7.12-7.28c-2.16,1.39-3.71,3.67-3.71,6.25,0,4.38,2.87,6.67,5.77,6.67h.03ZM327.68,854.47c-2.67,0-4.29,2.32-4.29,4.67,0,3.45,2.77,4.93,6.25,6.64,1.51-1.19,2.77-2.87,2.77-5.64,0-4.03-2.55-5.67-4.71-5.67h-.03Z"/>
          <path class="cls-5" d="M364.12,852.86c6.12,0,9.67,5.41,9.67,11.79,0,8.67-5,14.7-11.47,17.27-2.48.93-5.64,1.45-6.99,1.48l-.29-1.45c6.96-1.13,12.18-5.96,13.73-12.83l-3.09,1.64c-1.1.58-2,.77-2.87.77-5.22,0-8.73-3.71-8.73-8.64,0-4.51,3.67-10.05,9.99-10.05h.06ZM363.35,854.5c-3.45,0-4.83,3.9-4.83,6.7,0,4.06,2.42,7.57,6.38,7.57,1.61,0,3.13-.58,4.06-1.22.13-1.1.16-2.19.16-3.16,0-4.25-1.19-9.89-5.7-9.89h-.06Z"/>
          <path class="cls-5" d="M380.82,882.67v-1.35c4.25-.29,4.54-.77,4.54-4.19v-17.79c0-2.45-.19-2.67-2.19-2.8l-2.51-.1v-1.13c3.16-.52,6.12-1.42,9.02-2.45v24.27c0,3.42.32,3.9,4.61,4.19v1.35h-13.47Z"/>
          <path class="cls-5" d="M420.33,876.16c-.68,2.16-1.19,4.38-1.74,6.51h-18.18v-1.13c2.64-2.58,5.41-5.22,7.73-7.93,2.96-3.42,5.93-7.22,5.93-11.21s-2.06-6.16-5.54-6.16c-3.29,0-5.32,2.55-6.61,4.45l-1.13-1.03,2.87-4c1.55-1.58,3.8-2.8,6.54-2.8,4.38,0,8.22,3.06,8.22,8.02,0,4.03-1.77,6.7-6.38,11.38l-6.61,6.64h8.73c2.67,0,3.22-.13,4.74-3.19l1.42.45Z"/>
          <path class="cls-5" d="M456.49,876.16c-.68,2.16-1.19,4.38-1.74,6.51h-18.18v-1.13c2.64-2.58,5.41-5.22,7.73-7.93,2.96-3.42,5.93-7.22,5.93-11.21s-2.06-6.16-5.54-6.16c-3.29,0-5.32,2.55-6.61,4.45l-1.13-1.03,2.87-4c1.55-1.58,3.8-2.8,6.54-2.8,4.38,0,8.22,3.06,8.22,8.02,0,4.03-1.77,6.7-6.38,11.38l-6.61,6.64h8.73c2.67,0,3.22-.13,4.74-3.19l1.42.45Z"/>
          <path class="cls-5" d="M464.35,865.62c1.97-.74,4.32-1.48,5.58-1.48,6.12,0,9.31,4.03,9.31,7.93,0,2.87-1.39,5.48-4.38,7.9-2.61,2-5.87,3.25-8.44,3.25-2.16,0-4.19-.93-4.96-1.64-.71-.68-.97-1.06-.87-1.68,0-.52.48-1.26,1.1-1.74.45-.32.84-.32,1.32.06,1.06.93,3.09,2.58,6.09,2.58,3.9,0,5.77-3.35,5.77-6.77,0-4.19-2.61-7.09-7.73-7.09-2.06,0-3.9.58-5.03.93l1.93-14.44h14.02l.29.35-1.32,3.38h-11.41l-1.26,8.44Z"/>
          <path class="cls-5" d="M503.02,876.16c-.68,2.16-1.19,4.38-1.74,6.51h-18.18v-1.13c2.64-2.58,5.41-5.22,7.73-7.93,2.96-3.42,5.93-7.22,5.93-11.21s-2.06-6.16-5.54-6.16c-3.29,0-5.32,2.55-6.61,4.45l-1.13-1.03,2.87-4c1.55-1.58,3.8-2.8,6.54-2.8,4.38,0,8.22,3.06,8.22,8.02,0,4.03-1.77,6.7-6.38,11.38l-6.61,6.64h8.73c2.67,0,3.22-.13,4.74-3.19l1.42.45Z"/>
          <path class="cls-5" d="M539.18,876.16c-.68,2.16-1.19,4.38-1.74,6.51h-18.18v-1.13c2.64-2.58,5.41-5.22,7.73-7.93,2.96-3.42,5.93-7.22,5.93-11.21s-2.06-6.16-5.54-6.16c-3.29,0-5.32,2.55-6.61,4.45l-1.13-1.03,2.87-4c1.55-1.58,3.8-2.8,6.54-2.8,4.38,0,8.22,3.06,8.22,8.02,0,4.03-1.77,6.7-6.38,11.38l-6.61,6.64h8.73c2.67,0,3.22-.13,4.74-3.19l1.42.45Z"/>
          <path class="cls-5" d="M553.1,852.86c4.61,0,7.93,3.16,7.93,6.99,0,1.35-.48,2.74-1.42,3.77-.42.45-1.64,1.48-3.71,2.84,3.38,1.9,6.35,4.09,6.35,8.22,0,5.54-5.54,8.54-9.76,8.54-5.35,0-9.38-2.93-9.38-7.93,0-2.16,1.13-3.45,2.16-4.42.77-.74,2.61-1.97,4.22-2.9-3.06-1.68-5.22-4-5.22-7.32,0-4.03,3.51-7.8,8.77-7.8h.06ZM553.04,881.64c2.77,0,5.03-2.13,5.03-5.64s-3.22-5.35-7.12-7.28c-2.16,1.39-3.71,3.67-3.71,6.25,0,4.38,2.87,6.67,5.77,6.67h.03ZM552.49,854.47c-2.67,0-4.29,2.32-4.29,4.67,0,3.45,2.77,4.93,6.25,6.64,1.51-1.19,2.77-2.87,2.77-5.64,0-4.03-2.55-5.67-4.71-5.67h-.03Z"/>
          <path class="cls-5" d="M575.95,852.86c7.25,0,9.86,7.93,9.86,15.18,0,6.83-2.61,15.18-9.93,15.18s-9.96-7.73-9.96-15.15c0-6.86,2.64-15.21,9.96-15.21h.06ZM575.85,854.5c-4.19,0-5.25,6.96-5.25,13.47s1.26,13.6,5.35,13.6,5.19-7.03,5.19-13.6-1.13-13.47-5.25-13.47h-.03Z"/>
          <path class="cls-5" d="M593.58,865.62c1.97-.74,4.32-1.48,5.58-1.48,6.12,0,9.31,4.03,9.31,7.93,0,2.87-1.39,5.48-4.38,7.9-2.61,2-5.87,3.25-8.44,3.25-2.16,0-4.19-.93-4.96-1.64-.71-.68-.97-1.06-.87-1.68,0-.52.48-1.26,1.1-1.74.45-.32.84-.32,1.32.06,1.06.93,3.09,2.58,6.09,2.58,3.9,0,5.77-3.35,5.77-6.77,0-4.19-2.61-7.09-7.73-7.09-2.06,0-3.9.58-5.03.93l1.93-14.44h14.02l.29.35-1.32,3.38h-11.41l-1.26,8.44Z"/>
          <path class="cls-5" d="M744.5,894.4v-46.92h3.22v46.92h-3.22Z"/>
          <path class="cls-5" d="M909.43,871.97v10.7h-2.87v-10.7h-9.8v-2.48h9.8v-9.67h2.87v9.67h9.76v2.48h-9.76Z"/>
          <path class="cls-5" d="M933.37,852.86c6.12,0,9.67,5.41,9.67,11.79,0,8.67-5,14.7-11.47,17.27-2.48.93-5.64,1.45-6.99,1.48l-.29-1.45c6.96-1.13,12.18-5.96,13.73-12.83l-3.09,1.64c-1.1.58-2,.77-2.87.77-5.22,0-8.73-3.71-8.73-8.64,0-4.51,3.67-10.05,9.99-10.05h.06ZM932.6,854.5c-3.45,0-4.83,3.9-4.83,6.7,0,4.06,2.42,7.57,6.38,7.57,1.61,0,3.13-.58,4.06-1.22.13-1.1.16-2.19.16-3.16,0-4.25-1.19-9.89-5.7-9.89h-.06Z"/>
          <path class="cls-5" d="M956.96,852.86c4.61,0,7.93,3.16,7.93,6.99,0,1.35-.48,2.74-1.42,3.77-.42.45-1.64,1.48-3.71,2.84,3.38,1.9,6.35,4.09,6.35,8.22,0,5.54-5.54,8.54-9.76,8.54-5.35,0-9.38-2.93-9.38-7.93,0-2.16,1.13-3.45,2.16-4.42.77-.74,2.61-1.97,4.22-2.9-3.06-1.68-5.22-4-5.22-7.32,0-4.03,3.51-7.8,8.77-7.8h.06ZM956.9,881.64c2.77,0,5.03-2.13,5.03-5.64s-3.22-5.35-7.12-7.28c-2.16,1.39-3.71,3.67-3.71,6.25,0,4.38,2.87,6.67,5.77,6.67h.03ZM956.35,854.47c-2.67,0-4.29,2.32-4.29,4.67,0,3.45,2.77,4.93,6.25,6.64,1.51-1.19,2.77-2.87,2.77-5.64,0-4.03-2.55-5.67-4.71-5.67h-.03Z"/>
          <path class="cls-5" d="M992.8,852.86c6.12,0,9.67,5.41,9.67,11.79,0,8.67-5,14.7-11.47,17.27-2.48.93-5.64,1.45-6.99,1.48l-.29-1.45c6.96-1.13,12.18-5.96,13.73-12.83l-3.09,1.64c-1.1.58-2,.77-2.87.77-5.22,0-8.73-3.71-8.73-8.64,0-4.51,3.67-10.05,9.99-10.05h.06ZM992.03,854.5c-3.45,0-4.83,3.9-4.83,6.7,0,4.06,2.42,7.57,6.38,7.57,1.61,0,3.13-.58,4.06-1.22.13-1.1.16-2.19.16-3.16,0-4.25-1.19-9.89-5.7-9.89h-.06Z"/>
          <path class="cls-5" d="M1009.49,882.67v-1.35c4.25-.29,4.54-.77,4.54-4.19v-17.79c0-2.45-.19-2.67-2.19-2.8l-2.51-.1v-1.13c3.16-.52,6.12-1.42,9.02-2.45v24.27c0,3.42.32,3.9,4.61,4.19v1.35h-13.47Z"/>
          <path class="cls-5" d="M1039.24,852.86c7.25,0,9.86,7.93,9.86,15.18,0,6.83-2.61,15.18-9.93,15.18s-9.96-7.73-9.96-15.15c0-6.86,2.64-15.21,9.96-15.21h.06ZM1039.14,854.5c-4.19,0-5.25,6.96-5.25,13.47s1.26,13.6,5.35,13.6,5.19-7.03,5.19-13.6-1.13-13.47-5.25-13.47h-.03Z"/>
          <path class="cls-5" d="M1068.92,882.67v-1.35c4.25-.29,4.54-.77,4.54-4.19v-17.79c0-2.45-.19-2.67-2.19-2.8l-2.51-.1v-1.13c3.16-.52,6.12-1.42,9.02-2.45v24.27c0,3.42.32,3.9,4.61,4.19v1.35h-13.47Z"/>
          <path class="cls-5" d="M1100.95,864.98c4.29.74,6.7,3.71,6.67,7.19,0,7.8-9.54,11.05-12.67,11.05-2.26,0-4.29-.97-5-1.64-.71-.58-.87-1.16-.81-1.77s.71-1.32,1.19-1.64c.39-.32.81-.32,1.22,0,1.16,1.03,3.29,2.58,6.06,2.58,3.22,0,5.54-2.42,5.54-7.03,0-4.32-3.35-6.03-6.03-6.03-1.06,0-2.26.26-3,.48l-.29-1.42c4.29-1.35,7.48-3.13,7.48-6.51,0-2.93-2.03-4.38-4.51-4.38-2.64,0-4.54,1.93-5.77,3.77l-1.03-1,2.16-3.03c1.35-1.51,3.54-2.74,6.19-2.74h.03c4.42,0,7.25,2.67,7.25,6.25,0,1.32-.48,2.35-1.42,3.29-.81.71-1.93,1.58-3.29,2.48v.1Z"/>
          <path class="cls-5" d="M1120.32,864.98c1.1-.48,2.03-.81,2.96-.81,5.25,0,8.77,3.8,8.77,8.7,0,5.61-4.22,10.34-10.02,10.34s-10.12-4.54-10.12-11.76c0-10.28,7.38-15.6,12.54-17.37,1.93-.64,4.48-1.22,6.35-1.51l.32,1.55c-1.55.29-3.48.87-5.19,1.64-2.87,1.32-7.35,4.29-8.8,10.76l3.19-1.55ZM1121.26,866.94c-1.74,0-3.22.61-4.35,1.16-.23.87-.29,2.16-.29,3.25,0,5.67,2.45,10.18,6.19,10.18s4.8-3.9,4.8-6.96c0-3.93-2.13-7.64-6.28-7.64h-.06Z"/>
          <path class="cls-5" d="M1167.86,876.16c-.68,2.16-1.19,4.38-1.74,6.51h-18.18v-1.13c2.64-2.58,5.41-5.22,7.73-7.93,2.96-3.42,5.93-7.22,5.93-11.21s-2.06-6.16-5.54-6.16c-3.29,0-5.32,2.55-6.61,4.45l-1.13-1.03,2.87-4c1.55-1.58,3.8-2.8,6.54-2.8,4.38,0,8.22,3.06,8.22,8.02,0,4.03-1.77,6.7-6.38,11.38l-6.61,6.64h8.73c2.67,0,3.22-.13,4.74-3.19l1.42.45Z"/>
          <path class="cls-5" d="M1174.88,882.67v-1.35c4.25-.29,4.54-.77,4.54-4.19v-17.79c0-2.45-.19-2.67-2.19-2.8l-2.51-.1v-1.13c3.16-.52,6.12-1.42,9.02-2.45v24.27c0,3.42.32,3.9,4.61,4.19v1.35h-13.47Z"/>
          <path class="cls-5" d="M1203.01,864.98c1.1-.48,2.03-.81,2.96-.81,5.25,0,8.77,3.8,8.77,8.7,0,5.61-4.22,10.34-10.02,10.34s-10.12-4.54-10.12-11.76c0-10.28,7.38-15.6,12.54-17.37,1.93-.64,4.48-1.22,6.35-1.51l.32,1.55c-1.55.29-3.48.87-5.19,1.64-2.87,1.32-7.35,4.29-8.8,10.76l3.19-1.55ZM1203.95,866.94c-1.74,0-3.22.61-4.35,1.16-.23.87-.29,2.16-.29,3.25,0,5.67,2.45,10.18,6.19,10.18s4.8-3.9,4.8-6.96c0-3.93-2.13-7.64-6.28-7.64h-.06Z"/>
          <path class="cls-5" d="M1227.89,852.86c7.25,0,9.86,7.93,9.86,15.18,0,6.83-2.61,15.18-9.93,15.18s-9.96-7.73-9.96-15.15c0-6.86,2.64-15.21,9.96-15.21h.06ZM1227.8,854.5c-4.19,0-5.25,6.96-5.25,13.47s1.26,13.6,5.35,13.6,5.19-7.03,5.19-13.6-1.13-13.47-5.25-13.47h-.03Z"/>
          <path class="cls-5" d="M258.56,960.97v10.7h-2.87v-10.7h-9.8v-2.48h9.8v-9.67h2.87v9.67h9.76v2.48h-9.76Z"/>
          <path class="cls-5" d="M282.5,941.86c6.12,0,9.67,5.41,9.67,11.79,0,8.67-5,14.7-11.47,17.27-2.48.93-5.64,1.45-6.99,1.48l-.29-1.45c6.96-1.13,12.18-5.96,13.73-12.83l-3.09,1.64c-1.1.58-2,.77-2.87.77-5.22,0-8.73-3.71-8.73-8.64,0-4.51,3.67-10.05,9.99-10.05h.06ZM281.73,943.5c-3.45,0-4.83,3.9-4.83,6.7,0,4.06,2.42,7.57,6.38,7.57,1.61,0,3.13-.58,4.06-1.22.13-1.1.16-2.19.16-3.16,0-4.25-1.19-9.89-5.7-9.89h-.06Z"/>
          <path class="cls-5" d="M306.09,941.86c4.61,0,7.93,3.16,7.93,6.99,0,1.35-.48,2.74-1.42,3.77-.42.45-1.64,1.48-3.71,2.84,3.38,1.9,6.35,4.09,6.35,8.22,0,5.54-5.54,8.54-9.76,8.54-5.35,0-9.38-2.93-9.38-7.93,0-2.16,1.13-3.45,2.16-4.42.77-.74,2.61-1.97,4.22-2.9-3.06-1.68-5.22-4-5.22-7.32,0-4.03,3.51-7.8,8.77-7.8h.06ZM306.03,970.64c2.77,0,5.03-2.13,5.03-5.64s-3.22-5.35-7.12-7.28c-2.16,1.39-3.71,3.67-3.71,6.25,0,4.38,2.87,6.67,5.77,6.67h.03ZM305.48,943.47c-2.67,0-4.29,2.32-4.29,4.67,0,3.45,2.77,4.93,6.25,6.64,1.51-1.19,2.77-2.87,2.77-5.64,0-4.03-2.55-5.67-4.71-5.67h-.03Z"/>
          <path class="cls-5" d="M341.93,941.86c6.12,0,9.67,5.41,9.67,11.79,0,8.67-5,14.7-11.47,17.27-2.48.93-5.64,1.45-6.99,1.48l-.29-1.45c6.96-1.13,12.18-5.96,13.73-12.83l-3.09,1.64c-1.1.58-2,.77-2.87.77-5.22,0-8.73-3.71-8.73-8.64,0-4.51,3.67-10.05,9.99-10.05h.06ZM341.16,943.5c-3.45,0-4.83,3.9-4.83,6.7,0,4.06,2.42,7.57,6.38,7.57,1.61,0,3.13-.58,4.06-1.22.13-1.1.16-2.19.16-3.16,0-4.25-1.19-9.89-5.7-9.89h-.06Z"/>
          <path class="cls-5" d="M358.62,971.67v-1.35c4.25-.29,4.54-.77,4.54-4.19v-17.79c0-2.45-.19-2.67-2.19-2.8l-2.51-.1v-1.13c3.16-.52,6.12-1.42,9.02-2.45v24.27c0,3.42.32,3.9,4.61,4.19v1.35h-13.47Z"/>
          <path class="cls-5" d="M388.37,941.86c7.25,0,9.86,7.93,9.86,15.18,0,6.83-2.61,15.18-9.93,15.18s-9.96-7.73-9.96-15.15c0-6.86,2.64-15.21,9.96-15.21h.06ZM388.27,943.5c-4.19,0-5.25,6.96-5.25,13.47s1.26,13.6,5.35,13.6,5.19-7.03,5.19-13.6-1.13-13.47-5.25-13.47h-.03Z"/>
          <path class="cls-5" d="M418.05,971.67v-1.35c4.25-.29,4.54-.77,4.54-4.19v-17.79c0-2.45-.19-2.67-2.19-2.8l-2.51-.1v-1.13c3.16-.52,6.12-1.42,9.02-2.45v24.27c0,3.42.32,3.9,4.61,4.19v1.35h-13.47Z"/>
          <path class="cls-5" d="M450.08,953.98c4.29.74,6.7,3.71,6.67,7.19,0,7.8-9.54,11.05-12.67,11.05-2.26,0-4.29-.97-5-1.64-.71-.58-.87-1.16-.81-1.77s.71-1.32,1.19-1.64c.39-.32.81-.32,1.22,0,1.16,1.03,3.29,2.58,6.06,2.58,3.22,0,5.54-2.42,5.54-7.03,0-4.32-3.35-6.03-6.03-6.03-1.06,0-2.26.26-3,.48l-.29-1.42c4.29-1.35,7.48-3.13,7.48-6.51,0-2.93-2.03-4.38-4.51-4.38-2.64,0-4.54,1.93-5.77,3.77l-1.03-1,2.16-3.03c1.35-1.51,3.54-2.74,6.19-2.74h.03c4.42,0,7.25,2.67,7.25,6.25,0,1.32-.48,2.35-1.42,3.29-.81.71-1.93,1.58-3.29,2.48v.1Z"/>
          <path class="cls-5" d="M469.45,953.98c1.1-.48,2.03-.81,2.96-.81,5.25,0,8.77,3.8,8.77,8.7,0,5.61-4.22,10.34-10.02,10.34s-10.12-4.54-10.12-11.76c0-10.28,7.38-15.6,12.54-17.37,1.93-.64,4.48-1.22,6.35-1.51l.32,1.55c-1.55.29-3.48.87-5.19,1.64-2.87,1.32-7.35,4.29-8.8,10.76l3.19-1.55ZM470.39,955.94c-1.74,0-3.22.61-4.35,1.16-.23.87-.29,2.16-.29,3.25,0,5.67,2.45,10.18,6.19,10.18s4.8-3.9,4.8-6.96c0-3.93-2.13-7.64-6.28-7.64h-.06Z"/>
          <path class="cls-5" d="M516.99,965.16c-.68,2.16-1.19,4.38-1.74,6.51h-18.18v-1.13c2.64-2.58,5.41-5.22,7.73-7.93,2.96-3.42,5.93-7.22,5.93-11.21s-2.06-6.16-5.54-6.16c-3.29,0-5.32,2.55-6.61,4.45l-1.13-1.03,2.87-4c1.55-1.58,3.8-2.8,6.54-2.8,4.38,0,8.22,3.06,8.22,8.02,0,4.03-1.77,6.7-6.38,11.38l-6.61,6.64h8.73c2.67,0,3.22-.13,4.74-3.19l1.42.45Z"/>
          <path class="cls-5" d="M524.01,971.67v-1.35c4.25-.29,4.54-.77,4.54-4.19v-17.79c0-2.45-.19-2.67-2.19-2.8l-2.51-.1v-1.13c3.16-.52,6.12-1.42,9.02-2.45v24.27c0,3.42.32,3.9,4.61,4.19v1.35h-13.47Z"/>
          <path class="cls-5" d="M552.14,953.98c1.1-.48,2.03-.81,2.96-.81,5.25,0,8.77,3.8,8.77,8.7,0,5.61-4.22,10.34-10.02,10.34s-10.12-4.54-10.12-11.76c0-10.28,7.38-15.6,12.54-17.37,1.93-.64,4.48-1.22,6.35-1.51l.32,1.55c-1.55.29-3.48.87-5.19,1.64-2.87,1.32-7.35,4.29-8.8,10.76l3.19-1.55ZM553.08,955.94c-1.74,0-3.22.61-4.35,1.16-.23.87-.29,2.16-.29,3.25,0,5.67,2.45,10.18,6.19,10.18s4.8-3.9,4.8-6.96c0-3.93-2.13-7.64-6.28-7.64h-.06Z"/>
          <path class="cls-5" d="M582.92,963.36v3.19c0,3.16.26,3.45,4.09,3.8v1.32h-12.73v-1.32c4.29-.35,4.48-.74,4.48-3.83v-3.16h-12.5v-1.48c4.8-6.86,9.64-13.57,14.5-19.88h2.16v19.01h4.61v2.35h-4.61ZM578.76,947.44h-.1c-2.96,3.9-6.06,8.38-9.31,13.57h9.41v-13.57Z"/>
          <path class="cls-5" d="M735.19,983.4v-46.92h3.22v46.92h-3.22Z"/>
          <path class="cls-5" d="M900.13,960.97v10.7h-2.87v-10.7h-9.8v-2.48h9.8v-9.67h2.87v9.67h9.76v2.48h-9.76Z"/>
          <path class="cls-5" d="M923.02,941.86c6.12,0,9.67,5.41,9.67,11.79,0,8.67-5,14.7-11.47,17.27-2.48.93-5.64,1.45-6.99,1.48l-.29-1.45c6.96-1.13,12.18-5.96,13.73-12.83l-3.09,1.64c-1.1.58-2,.77-2.87.77-5.22,0-8.73-3.71-8.73-8.64,0-4.51,3.67-10.05,9.99-10.05h.06ZM922.24,943.5c-3.45,0-4.83,3.9-4.83,6.7,0,4.06,2.42,7.57,6.38,7.57,1.61,0,3.13-.58,4.06-1.22.13-1.1.16-2.19.16-3.16,0-4.25-1.19-9.89-5.7-9.89h-.06Z"/>
          <path class="cls-5" d="M945.55,941.86c4.61,0,7.93,3.16,7.93,6.99,0,1.35-.48,2.74-1.42,3.77-.42.45-1.64,1.48-3.71,2.84,3.38,1.9,6.35,4.09,6.35,8.22,0,5.54-5.54,8.54-9.76,8.54-5.35,0-9.38-2.93-9.38-7.93,0-2.16,1.13-3.45,2.16-4.42.77-.74,2.61-1.97,4.22-2.9-3.06-1.68-5.22-4-5.22-7.32,0-4.03,3.51-7.8,8.77-7.8h.06ZM945.48,970.64c2.77,0,5.03-2.13,5.03-5.64s-3.22-5.35-7.12-7.28c-2.16,1.39-3.71,3.67-3.71,6.25,0,4.38,2.87,6.67,5.77,6.67h.03ZM944.94,943.47c-2.67,0-4.29,2.32-4.29,4.67,0,3.45,2.77,4.93,6.25,6.64,1.51-1.19,2.77-2.87,2.77-5.64,0-4.03-2.55-5.67-4.71-5.67h-.03Z"/>
          <path class="cls-5" d="M979.18,941.86c7.25,0,9.86,7.93,9.86,15.18,0,6.83-2.61,15.18-9.93,15.18s-9.96-7.73-9.96-15.15c0-6.86,2.64-15.21,9.96-15.21h.06ZM979.08,943.5c-4.19,0-5.25,6.96-5.25,13.47s1.26,13.6,5.35,13.6,5.19-7.03,5.19-13.6-1.13-13.47-5.25-13.47h-.03Z"/>
          <path class="cls-5" d="M1011.15,965.16c-.68,2.16-1.19,4.38-1.74,6.51h-18.18v-1.13c2.64-2.58,5.41-5.22,7.73-7.93,2.96-3.42,5.93-7.22,5.93-11.21s-2.06-6.16-5.54-6.16c-3.29,0-5.32,2.55-6.61,4.45l-1.13-1.03,2.87-4c1.55-1.58,3.8-2.8,6.54-2.8,4.38,0,8.22,3.06,8.22,8.02,0,4.03-1.77,6.7-6.38,11.38l-6.61,6.64h8.73c2.67,0,3.22-.13,4.74-3.19l1.42.45Z"/>
          <path class="cls-5" d="M1017.96,954.62c1.97-.74,4.32-1.48,5.58-1.48,6.12,0,9.31,4.03,9.31,7.93,0,2.87-1.39,5.48-4.38,7.9-2.61,2-5.87,3.25-8.44,3.25-2.16,0-4.19-.93-4.96-1.64-.71-.68-.97-1.06-.87-1.68,0-.52.48-1.26,1.1-1.74.45-.32.84-.32,1.32.06,1.06.93,3.09,2.58,6.09,2.58,3.9,0,5.77-3.35,5.77-6.77,0-4.19-2.61-7.09-7.73-7.09-2.06,0-3.9.58-5.03.93l1.93-14.44h14.02l.29.35-1.32,3.38h-11.41l-1.26,8.44Z"/>
          <path class="cls-5" d="M1071.77,953.98c4.29.74,6.7,3.71,6.67,7.19,0,7.8-9.54,11.05-12.67,11.05-2.26,0-4.29-.97-5-1.64-.71-.58-.87-1.16-.81-1.77s.71-1.32,1.19-1.64c.39-.32.81-.32,1.22,0,1.16,1.03,3.29,2.58,6.06,2.58,3.22,0,5.54-2.42,5.54-7.03,0-4.32-3.35-6.03-6.03-6.03-1.06,0-2.26.26-3,.48l-.29-1.42c4.29-1.35,7.48-3.13,7.48-6.51,0-2.93-2.03-4.38-4.51-4.38-2.64,0-4.54,1.93-5.77,3.77l-1.03-1,2.16-3.03c1.35-1.51,3.54-2.74,6.19-2.74h.03c4.42,0,7.25,2.67,7.25,6.25,0,1.32-.48,2.35-1.42,3.29-.81.71-1.93,1.58-3.29,2.48v.1Z"/>
          <path class="cls-5" d="M1101.46,965.16c-.68,2.16-1.19,4.38-1.74,6.51h-18.18v-1.13c2.64-2.58,5.41-5.22,7.73-7.93,2.96-3.42,5.93-7.22,5.93-11.21s-2.06-6.16-5.54-6.16c-3.29,0-5.32,2.55-6.61,4.45l-1.13-1.03,2.87-4c1.55-1.58,3.8-2.8,6.54-2.8,4.38,0,8.22,3.06,8.22,8.02,0,4.03-1.77,6.7-6.38,11.38l-6.61,6.64h8.73c2.67,0,3.22-.13,4.74-3.19l1.42.45Z"/>
          <path class="cls-5" d="M1161.34,941.86c6.12,0,9.67,5.41,9.67,11.79,0,8.67-5,14.7-11.47,17.27-2.48.93-5.64,1.45-6.99,1.48l-.29-1.45c6.96-1.13,12.18-5.96,13.73-12.83l-3.09,1.64c-1.1.58-2,.77-2.87.77-5.22,0-8.73-3.71-8.73-8.64,0-4.51,3.67-10.05,9.99-10.05h.06ZM1160.57,943.5c-3.45,0-4.83,3.9-4.83,6.7,0,4.06,2.42,7.57,6.38,7.57,1.61,0,3.13-.58,4.06-1.22.13-1.1.16-2.19.16-3.16,0-4.25-1.19-9.89-5.7-9.89h-.06Z"/>
          <path class="cls-5" d="M1176.98,971.67v-1.35c4.25-.29,4.54-.77,4.54-4.19v-17.79c0-2.45-.19-2.67-2.19-2.8l-2.51-.1v-1.13c3.16-.52,6.12-1.42,9.02-2.45v24.27c0,3.42.32,3.9,4.61,4.19v1.35h-13.47Z"/>
          <path class="cls-5" d="M1211.56,963.36v3.19c0,3.16.26,3.45,4.09,3.8v1.32h-12.73v-1.32c4.29-.35,4.48-.74,4.48-3.83v-3.16h-12.5v-1.48c4.8-6.86,9.64-13.57,14.5-19.88h2.16v19.01h4.61v2.35h-4.61ZM1207.41,947.44h-.1c-2.96,3.9-6.06,8.38-9.31,13.57h9.41v-13.57Z"/>
          <path class="cls-5" d="M1228.3,941.86c4.61,0,7.93,3.16,7.93,6.99,0,1.35-.48,2.74-1.42,3.77-.42.45-1.64,1.48-3.71,2.84,3.38,1.9,6.35,4.09,6.35,8.22,0,5.54-5.54,8.54-9.76,8.54-5.35,0-9.38-2.93-9.38-7.93,0-2.16,1.13-3.45,2.16-4.42.77-.74,2.61-1.97,4.22-2.9-3.06-1.68-5.22-4-5.22-7.32,0-4.03,3.51-7.8,8.77-7.8h.06ZM1228.23,970.64c2.77,0,5.03-2.13,5.03-5.64s-3.22-5.35-7.12-7.28c-2.16,1.39-3.71,3.67-3.71,6.25,0,4.38,2.87,6.67,5.77,6.67h.03ZM1227.68,943.47c-2.67,0-4.29,2.32-4.29,4.67,0,3.45,2.77,4.93,6.25,6.64,1.51-1.19,2.77-2.87,2.77-5.64,0-4.03-2.55-5.67-4.71-5.67h-.03Z"/>
          <path class="cls-5" d="M1259.85,965.16c-.68,2.16-1.19,4.38-1.74,6.51h-18.18v-1.13c2.64-2.58,5.41-5.22,7.73-7.93,2.96-3.42,5.93-7.22,5.93-11.21s-2.06-6.16-5.54-6.16c-3.29,0-5.32,2.55-6.61,4.45l-1.13-1.03,2.87-4c1.55-1.58,3.8-2.8,6.54-2.8,4.38,0,8.22,3.06,8.22,8.02,0,4.03-1.77,6.7-6.38,11.38l-6.61,6.64h8.73c2.67,0,3.22-.13,4.74-3.19l1.42.45Z"/>
          <path class="cls-5" d="M525.45,1049.97v10.7h-2.87v-10.7h-9.8v-2.48h9.8v-9.67h2.87v9.67h9.76v2.48h-9.76Z"/>
          <path class="cls-5" d="M549.4,1030.86c6.12,0,9.67,5.41,9.67,11.79,0,8.67-5,14.7-11.47,17.27-2.48.93-5.64,1.45-6.99,1.48l-.29-1.45c6.96-1.13,12.18-5.96,13.73-12.83l-3.09,1.64c-1.1.58-2,.77-2.87.77-5.22,0-8.73-3.71-8.73-8.64,0-4.51,3.67-10.05,9.99-10.05h.06ZM548.62,1032.5c-3.45,0-4.83,3.9-4.83,6.7,0,4.06,2.42,7.57,6.38,7.57,1.61,0,3.13-.58,4.06-1.22.13-1.1.16-2.19.16-3.16,0-4.25-1.19-9.89-5.7-9.89h-.06Z"/>
          <path class="cls-5" d="M572.99,1030.86c4.61,0,7.93,3.16,7.93,6.99,0,1.35-.48,2.74-1.42,3.77-.42.45-1.64,1.48-3.71,2.84,3.38,1.9,6.35,4.09,6.35,8.22,0,5.54-5.54,8.54-9.76,8.54-5.35,0-9.38-2.93-9.38-7.93,0-2.16,1.13-3.45,2.16-4.42.77-.74,2.61-1.97,4.22-2.9-3.06-1.68-5.22-4-5.22-7.32,0-4.03,3.51-7.8,8.77-7.8h.06ZM572.92,1059.64c2.77,0,5.03-2.13,5.03-5.64s-3.22-5.35-7.12-7.28c-2.16,1.39-3.71,3.67-3.71,6.25,0,4.38,2.87,6.67,5.77,6.67h.03ZM572.37,1032.47c-2.67,0-4.29,2.32-4.29,4.67,0,3.45,2.77,4.93,6.25,6.64,1.51-1.19,2.77-2.87,2.77-5.64,0-4.03-2.55-5.67-4.71-5.67h-.03Z"/>
          <path class="cls-5" d="M608.72,1030.86c7.25,0,9.86,7.93,9.86,15.18,0,6.83-2.61,15.18-9.93,15.18s-9.96-7.73-9.96-15.15c0-6.86,2.64-15.21,9.96-15.21h.06ZM608.63,1032.5c-4.19,0-5.25,6.96-5.25,13.47s1.26,13.6,5.35,13.6,5.19-7.03,5.19-13.6-1.13-13.47-5.25-13.47h-.03Z"/>
          <path class="cls-5" d="M641.76,1054.16c-.68,2.16-1.19,4.38-1.74,6.51h-18.18v-1.13c2.64-2.58,5.41-5.22,7.73-7.93,2.96-3.42,5.93-7.22,5.93-11.21s-2.06-6.16-5.54-6.16c-3.29,0-5.32,2.55-6.61,4.45l-1.13-1.03,2.87-4c1.55-1.58,3.8-2.8,6.54-2.8,4.38,0,8.22,3.06,8.22,8.02,0,4.03-1.77,6.7-6.38,11.38l-6.61,6.64h8.73c2.67,0,3.22-.13,4.74-3.19l1.42.45Z"/>
          <path class="cls-5" d="M649.62,1043.62c1.97-.74,4.32-1.48,5.58-1.48,6.12,0,9.31,4.03,9.31,7.93,0,2.87-1.39,5.48-4.38,7.9-2.61,2-5.87,3.25-8.44,3.25-2.16,0-4.19-.93-4.96-1.64-.71-.68-.97-1.06-.87-1.68,0-.52.48-1.26,1.1-1.74.45-.32.84-.32,1.32.06,1.06.93,3.09,2.58,6.09,2.58,3.9,0,5.77-3.35,5.77-6.77,0-4.19-2.61-7.09-7.73-7.09-2.06,0-3.9.58-5.03.93l1.93-14.44h14.02l.29.35-1.32,3.38h-11.41l-1.26,8.44Z"/>
          <path class="cls-5" d="M706.6,1042.98c4.29.74,6.7,3.71,6.67,7.19,0,7.8-9.54,11.05-12.67,11.05-2.26,0-4.29-.97-5-1.64-.71-.58-.87-1.16-.81-1.77s.71-1.32,1.19-1.64c.39-.32.81-.32,1.22,0,1.16,1.03,3.29,2.58,6.06,2.58,3.22,0,5.54-2.42,5.54-7.03,0-4.32-3.35-6.03-6.03-6.03-1.06,0-2.26.26-3,.48l-.29-1.42c4.29-1.35,7.48-3.13,7.48-6.51,0-2.93-2.03-4.38-4.51-4.38-2.64,0-4.54,1.93-5.77,3.77l-1.03-1,2.16-3.03c1.35-1.51,3.54-2.74,6.19-2.74h.03c4.42,0,7.25,2.67,7.25,6.25,0,1.32-.48,2.35-1.42,3.29-.81.71-1.93,1.58-3.29,2.48v.1Z"/>
          <path class="cls-5" d="M737.34,1054.16c-.68,2.16-1.19,4.38-1.74,6.51h-18.18v-1.13c2.64-2.58,5.41-5.22,7.73-7.93,2.96-3.42,5.93-7.22,5.93-11.21s-2.06-6.16-5.54-6.16c-3.29,0-5.32,2.55-6.61,4.45l-1.13-1.03,2.87-4c1.55-1.58,3.8-2.8,6.54-2.8,4.38,0,8.22,3.06,8.22,8.02,0,4.03-1.77,6.7-6.38,11.38l-6.61,6.64h8.73c2.67,0,3.22-.13,4.74-3.19l1.42.45Z"/>
          <path class="cls-5" d="M802.5,1030.86c6.12,0,9.67,5.41,9.67,11.79,0,8.67-5,14.7-11.47,17.27-2.48.93-5.64,1.45-6.99,1.48l-.29-1.45c6.96-1.13,12.18-5.96,13.73-12.83l-3.09,1.64c-1.1.58-2,.77-2.87.77-5.22,0-8.73-3.71-8.73-8.64,0-4.51,3.67-10.05,9.99-10.05h.06ZM801.73,1032.5c-3.45,0-4.83,3.9-4.83,6.7,0,4.06,2.42,7.57,6.38,7.57,1.61,0,3.13-.58,4.06-1.22.13-1.1.16-2.19.16-3.16,0-4.25-1.19-9.89-5.7-9.89h-.06Z"/>
          <path class="cls-5" d="M840.85,1042.98c4.29.74,6.7,3.71,6.67,7.19,0,7.8-9.54,11.05-12.67,11.05-2.26,0-4.29-.97-5-1.64-.71-.58-.87-1.16-.81-1.77s.71-1.32,1.19-1.64c.39-.32.81-.32,1.22,0,1.16,1.03,3.29,2.58,6.06,2.58,3.22,0,5.54-2.42,5.54-7.03,0-4.32-3.35-6.03-6.03-6.03-1.06,0-2.26.26-3,.48l-.29-1.42c4.29-1.35,7.48-3.13,7.48-6.51,0-2.93-2.03-4.38-4.51-4.38-2.64,0-4.54,1.93-5.77,3.77l-1.03-1,2.16-3.03c1.35-1.51,3.54-2.74,6.19-2.74h.03c4.42,0,7.25,2.67,7.25,6.25,0,1.32-.48,2.35-1.42,3.29-.81.71-1.93,1.58-3.29,2.48v.1Z"/>
          <path class="cls-5" d="M906.92,1060.67v-1.35c4.25-.29,4.54-.77,4.54-4.19v-17.79c0-2.45-.19-2.67-2.19-2.8l-2.51-.1v-1.13c3.16-.52,6.12-1.42,9.02-2.45v24.27c0,3.42.32,3.9,4.61,4.19v1.35h-13.47Z"/>
          <path class="cls-5" d="M942.56,1052.36v3.19c0,3.16.26,3.45,4.09,3.8v1.32h-12.73v-1.32c4.29-.35,4.48-.74,4.48-3.83v-3.16h-12.5v-1.48c4.8-6.86,9.64-13.57,14.5-19.88h2.16v19.01h4.61v2.35h-4.61ZM938.4,1036.44h-.1c-2.96,3.9-6.06,8.38-9.31,13.57h9.41v-13.57Z"/>
          <path class="cls-5" d="M960.35,1030.86c4.61,0,7.93,3.16,7.93,6.99,0,1.35-.48,2.74-1.42,3.77-.42.45-1.64,1.48-3.71,2.84,3.38,1.9,6.35,4.09,6.35,8.22,0,5.54-5.54,8.54-9.76,8.54-5.35,0-9.38-2.93-9.38-7.93,0-2.16,1.13-3.45,2.16-4.42.77-.74,2.61-1.97,4.22-2.9-3.06-1.68-5.22-4-5.22-7.32,0-4.03,3.51-7.8,8.77-7.8h.06ZM960.28,1059.64c2.77,0,5.03-2.13,5.03-5.64s-3.22-5.35-7.12-7.28c-2.16,1.39-3.71,3.67-3.71,6.25,0,4.38,2.87,6.67,5.77,6.67h.03ZM959.74,1032.47c-2.67,0-4.29,2.32-4.29,4.67,0,3.45,2.77,4.93,6.25,6.64,1.51-1.19,2.77-2.87,2.77-5.64,0-4.03-2.55-5.67-4.71-5.67h-.03Z"/>
          <path class="cls-5" d="M985.49,1042.98c4.29.74,6.7,3.71,6.67,7.19,0,7.8-9.54,11.05-12.67,11.05-2.26,0-4.29-.97-5-1.64-.71-.58-.87-1.16-.81-1.77s.71-1.32,1.19-1.64c.39-.32.81-.32,1.22,0,1.16,1.03,3.29,2.58,6.06,2.58,3.22,0,5.54-2.42,5.54-7.03,0-4.32-3.35-6.03-6.03-6.03-1.06,0-2.26.26-3,.48l-.29-1.42c4.29-1.35,7.48-3.13,7.48-6.51,0-2.93-2.03-4.38-4.51-4.38-2.64,0-4.54,1.93-5.77,3.77l-1.03-1,2.16-3.03c1.35-1.51,3.54-2.74,6.19-2.74h.03c4.42,0,7.25,2.67,7.25,6.25,0,1.32-.48,2.35-1.42,3.29-.81.71-1.93,1.58-3.29,2.48v.1Z"/>
          <path class="cls-5" d="M460.01,1199.81v-1.19c2.63-.37,3-.74,2.43-2.41-.59-1.64-1.36-3.71-2.26-6.09h-9.09c-.71,1.9-1.27,3.51-1.81,5.15-.91,2.52-.57,3,2.63,3.34v1.19h-9.34v-1.19c2.75-.42,3.34-.71,4.84-4.39l8.89-21.6,1.47-.37c2.72,7.33,5.43,14.69,8.24,21.96,1.36,3.65,1.95,4.1,4.7,4.39v1.19h-10.7ZM455.85,1177.96h-.08c-1.36,3.42-2.69,6.96-3.96,10.3h7.76l-3.71-10.3Z"/>
          <path class="cls-5" d="M493.67,1198.74c-.91.17-4.19.71-6.85,1.56v-2.66l-2.49,1.47c-1.67.96-2.77,1.19-3.23,1.19-3.51,0-8.01-3-8.01-8.8s5.15-10.22,11.01-10.22c.59,0,1.7.11,2.72.45v-5.83c0-2.69-.28-2.8-3.26-3v-1.08c2.35-.28,5.24-.91,6.91-1.44v24.54c0,2.26.31,2.46,2.01,2.63l1.19.11v1.08ZM486.82,1185.01c-1.02-1.44-2.66-2.15-4.27-2.15-1.78,0-5.29,1.5-5.29,7.5,0,4.95,3.14,7.22,5.75,7.22,1.39,0,2.8-.62,3.82-1.3v-11.27Z"/>
          <path class="cls-5" d="M517.39,1198.74c-.91.17-4.19.71-6.85,1.56v-2.66l-2.49,1.47c-1.67.96-2.77,1.19-3.23,1.19-3.51,0-8.01-3-8.01-8.8s5.15-10.22,11.01-10.22c.59,0,1.7.11,2.72.45v-5.83c0-2.69-.28-2.8-3.26-3v-1.08c2.35-.28,5.24-.91,6.91-1.44v24.54c0,2.26.31,2.46,2.01,2.63l1.19.11v1.08ZM510.54,1185.01c-1.02-1.44-2.66-2.15-4.27-2.15-1.78,0-5.29,1.5-5.29,7.5,0,4.95,3.14,7.22,5.75,7.22,1.39,0,2.8-.62,3.82-1.3v-11.27Z"/>
          <path class="cls-5" d="M526.99,1185.75c1.39-2.26,3.11-4.47,5.07-4.47,1.53,0,2.55,1.1,2.55,2.12,0,.96-.57,1.81-1.47,2.24-.51.2-.88.11-1.13-.11-.65-.59-1.13-.85-1.84-.85-1.08,0-2.35,1.22-3.25,3.42v7.39c0,2.72.2,2.97,3.48,3.23v1.1h-10.05v-1.1c2.55-.25,2.92-.51,2.92-3.23v-8.58c0-2.63-.23-2.8-2.58-3.14v-.93c2.09-.34,4.08-.82,6.23-1.7v4.61h.08Z"/>
          <path class="cls-5" d="M552.46,1196.13c-2.72,3.42-5.75,4.16-7.1,4.16-5.18,0-8.24-4.16-8.24-8.77,0-2.75.99-5.24,2.69-7.08,1.81-1.98,4.1-3.17,6.34-3.17h.03c3.59,0,6.45,3.09,6.45,6.37,0,.79-.23,1.16-.99,1.33-.76.11-6.03.54-10.9.71.08,5.35,3.23,7.61,6.14,7.61,1.73,0,3.34-.65,4.87-2.07l.71.91ZM545.16,1182.83c-1.81,0-3.62,1.61-4.22,5.07,2.24,0,4.47,0,6.82-.08.74-.03.99-.25.99-.79,0-2.18-1.36-4.19-3.57-4.19h-.03Z"/>
          <path class="cls-5" d="M567.18,1186.79c-.82-2.43-2.29-4.16-4.36-4.16-1.53,0-2.6,1.13-2.6,2.75,0,1.7,1.58,2.69,3.48,3.42,3.2,1.27,5.38,2.77,5.38,5.69,0,3.88-3.57,5.8-7.05,5.8-2.18,0-4.16-.76-4.87-1.36-.28-.54-.68-3.45-.74-5.09l1.16-.17c.79,2.77,2.69,5.24,5.18,5.24,1.53,0,2.89-1.16,2.89-2.8s-1.1-2.63-3.25-3.59c-2.43-1.1-5.35-2.52-5.35-5.8,0-2.94,2.55-5.43,6.51-5.43,1.81,0,2.94.37,3.79.74.37.91.88,3.45.96,4.44l-1.13.34Z"/>
          <path class="cls-5" d="M583.71,1186.79c-.82-2.43-2.29-4.16-4.36-4.16-1.53,0-2.6,1.13-2.6,2.75,0,1.7,1.58,2.69,3.48,3.42,3.2,1.27,5.38,2.77,5.38,5.69,0,3.88-3.57,5.8-7.05,5.8-2.18,0-4.16-.76-4.87-1.36-.28-.54-.68-3.45-.74-5.09l1.16-.17c.79,2.77,2.69,5.24,5.18,5.24,1.53,0,2.89-1.16,2.89-2.8s-1.1-2.63-3.25-3.59c-2.43-1.1-5.35-2.52-5.35-5.8,0-2.94,2.55-5.43,6.51-5.43,1.81,0,2.94.37,3.79.74.37.91.88,3.45.96,4.44l-1.13.34Z"/>
          <path class="cls-5" d="M592.8,1182.83c1.42,0,2.43,1.02,2.43,2.52s-1.02,2.52-2.46,2.52-2.43-1.05-2.43-2.52,1.02-2.52,2.43-2.52h.03ZM592.77,1200.29c-1.42,0-2.43-.96-2.43-2.49,0-1.44,1.02-2.52,2.46-2.52s2.49,1.08,2.49,2.52c0,1.53-1.05,2.49-2.49,2.49h-.03Z"/>
          <path class="cls-5" d="M642.36,1174.14c-2.35.11-3.37.59-3.57,2.49-.14,1.33-.25,3.2-.25,7.05v16.56h-1.36l-18.6-21.57h-.06l-.03,10.1c0,3.82.17,5.77.28,6.96.2,2.15,1.16,2.66,4.08,2.89v1.19h-10.13v-1.19c2.43-.17,3.51-.71,3.71-2.77.17-1.3.34-3.25.34-7.08v-8.89c0-3.03-.14-3.25-.91-4.25-.88-1.02-1.78-1.36-3.76-1.5v-1.25h6.51l18.03,20.44h.11v-9.65c0-3.85-.17-5.72-.28-6.91-.2-1.95-1.19-2.49-4.22-2.63v-1.25h10.11v1.25Z"/>
          <path class="cls-5" d="M654.51,1181.27c5.38,0,9.34,4.16,9.34,9.17,0,6.68-5.09,9.85-9.37,9.85-6.03,0-9.54-4.53-9.54-9.09,0-6.77,5.55-9.94,9.54-9.94h.03ZM653.97,1182.66c-2.43,0-4.7,2.46-4.7,7.13,0,5.24,2.26,9.06,5.66,9.06,2.43,0,4.61-1.64,4.61-7.44,0-4.95-1.98-8.75-5.52-8.75h-.06Z"/>
          <path class="cls-5" d="M670.16,1200.29c-1.39,0-2.43-.96-2.43-2.55,0-1.39,1.05-2.46,2.49-2.46s2.46,1.08,2.46,2.46c0,1.59-1.02,2.55-2.46,2.55h-.06Z"/>
          <path class="cls-5" d="M693.32,1199.81v-1.19c3.74-.25,3.99-.68,3.99-3.68v-15.62c0-2.15-.17-2.35-1.92-2.46l-2.21-.08v-.99c2.77-.45,5.38-1.25,7.92-2.15v21.31c0,3,.28,3.43,4.05,3.68v1.19h-11.83Z"/>
          <path class="cls-5" d="M720.61,1173.63c6.37,0,8.66,6.96,8.66,13.33,0,6-2.29,13.33-8.72,13.33s-8.75-6.79-8.75-13.3c0-6.03,2.32-13.36,8.75-13.36h.06ZM720.52,1175.07c-3.68,0-4.61,6.11-4.61,11.83s1.1,11.94,4.7,11.94,4.56-6.17,4.56-11.94-.99-11.83-4.61-11.83h-.03Z"/>
          <path class="cls-5" d="M742.2,1173.63c6.37,0,8.66,6.96,8.66,13.33,0,6-2.29,13.33-8.72,13.33s-8.75-6.79-8.75-13.3c0-6.03,2.32-13.36,8.75-13.36h.06ZM742.12,1175.07c-3.68,0-4.61,6.11-4.61,11.83s1.1,11.94,4.7,11.94,4.56-6.17,4.56-11.94-.99-11.83-4.61-11.83h-.03Z"/>
          <path class="cls-5" d="M757.58,1194.24c1.56,0,3.99,1.7,3.99,4.61,0,3.34-3.06,5.18-5.8,5.94l-.45-1.27c2.12-.85,3.34-1.98,3.34-3.54s-1.16-2.49-2.75-2.86c-.2,0-.51-.37-.51-1.1,0-1.08,1.05-1.78,2.12-1.78h.06Z"/>
          <path class="cls-5" d="M795.22,1199.81v-1.19c2.63-.37,3-.74,2.43-2.41-.59-1.64-1.36-3.71-2.26-6.09h-9.09c-.71,1.9-1.27,3.51-1.81,5.15-.91,2.52-.57,3,2.63,3.34v1.19h-9.34v-1.19c2.75-.42,3.34-.71,4.84-4.39l8.89-21.6,1.47-.37c2.72,7.33,5.43,14.69,8.24,21.96,1.36,3.65,1.95,4.1,4.7,4.39v1.19h-10.7ZM791.06,1177.96h-.08c-1.36,3.42-2.69,6.96-3.96,10.3h7.76l-3.71-10.3Z"/>
          <path class="cls-5" d="M808.58,1199.81v-1.1c2.63-.31,3-.54,3-3.31v-19.42c0-2.8-.28-2.89-2.89-3.14v-1.02c2.26-.25,4.98-.96,6.51-1.44v25.02c0,2.8.37,3.06,3.11,3.31v1.1h-9.74Z"/>
          <path class="cls-5" d="M820.93,1199.81v-1.1c2.63-.31,3-.54,3-3.31v-19.42c0-2.8-.28-2.89-2.89-3.14v-1.02c2.26-.25,4.98-.96,6.51-1.44v25.02c0,2.8.37,3.06,3.11,3.31v1.1h-9.74Z"/>
          <path class="cls-5" d="M849.23,1196.13c-2.72,3.42-5.75,4.16-7.1,4.16-5.18,0-8.24-4.16-8.24-8.77,0-2.75.99-5.24,2.69-7.08,1.81-1.98,4.1-3.17,6.34-3.17h.03c3.59,0,6.45,3.09,6.45,6.37,0,.79-.23,1.16-.99,1.33-.76.11-6.03.54-10.9.71.08,5.35,3.23,7.61,6.14,7.61,1.73,0,3.34-.65,4.87-2.07l.71.91ZM841.93,1182.83c-1.81,0-3.62,1.61-4.22,5.07,2.24,0,4.47,0,6.82-.08.74-.03.99-.25.99-.79,0-2.18-1.36-4.19-3.57-4.19h-.03Z"/>
          <path class="cls-5" d="M872.33,1182.86c-2.24.34-2.6.68-3.74,3.06-1.05,2.09-2.41,5.58-5.32,12.28-2.86,6.59-3.76,8.94-4.47,11.29-.2.79-.74.99-1.3.99-1.22,0-2.52-1.02-2.52-2.12,0-.68.37-1.05,1.08-1.53,1.44-.85,2.26-1.78,3.28-3.65.74-1.36,1.08-2.18,1.25-2.66.25-.62.17-1.19-.08-1.87-1.78-4.9-3.74-10.05-4.9-12.77-.91-2.15-1.36-2.69-3.62-3.03v-1.1h8.89l.06,1.1c-1.95.34-2.21.71-1.67,2.21l3.79,10.13c1.13-2.6,2.94-7.5,3.76-9.99.54-1.53.2-2.01-2.15-2.35v-1.1h7.67v1.1Z"/>
          <path class="cls-5" d="M877.23,1199.81v-1.19c3.74-.25,3.99-.68,3.99-3.68v-15.62c0-2.15-.17-2.35-1.92-2.46l-2.21-.08v-.99c2.77-.45,5.38-1.25,7.92-2.15v21.31c0,3,.28,3.43,4.05,3.68v1.19h-11.83Z"/>
          <path class="cls-5" d="M898.83,1199.81v-1.19c3.74-.25,3.99-.68,3.99-3.68v-15.62c0-2.15-.17-2.35-1.92-2.46l-2.21-.08v-.99c2.77-.45,5.38-1.25,7.92-2.15v21.31c0,3,.28,3.43,4.05,3.68v1.19h-11.83Z"/>
          <path class="cls-5" d="M919.89,1194.24c1.56,0,3.99,1.7,3.99,4.61,0,3.34-3.06,5.18-5.8,5.94l-.45-1.27c2.12-.85,3.34-1.98,3.34-3.54s-1.16-2.49-2.75-2.86c-.2,0-.51-.37-.51-1.1,0-1.08,1.05-1.78,2.12-1.78h.06Z"/>
          <path class="cls-5" d="M955.55,1179.38c-.74-2.66-2.04-5.66-5.6-5.66-3.17,0-4.67,2.24-4.67,4.5,0,2.92,1.95,4.33,5.41,6,3.59,1.75,7.33,3.71,7.33,8.27s-3.79,7.98-9.57,7.98c-1.75,0-3.17-.31-4.25-.68-1.08-.34-1.67-.68-2.09-.88-.28-.82-.91-4.59-1.16-6.6l1.27-.37c.71,2.63,2.77,6.96,7.1,6.96,3.09,0,4.9-1.9,4.9-4.87s-2.26-4.42-5.49-6.11c-2.94-1.47-6.99-3.54-6.99-8.1,0-4.13,3.34-7.56,8.86-7.56,2.01,0,3.91.48,5.49.99.17,1.47.37,3.17.74,5.89l-1.27.23Z"/>
          <path class="cls-5" d="M973.22,1199.81v-1.1c2.38-.25,2.72-.54,2.72-3.23v-6.71c0-3.42-1.42-5.04-4.02-5.04-1.53,0-3.09.74-4.25,2.01v9.74c0,2.63.25,2.97,2.66,3.23v1.1h-9.17v-1.1c2.52-.25,2.89-.51,2.89-3.23v-19.67c0-2.6-.11-2.75-2.8-3v-.99c1.98-.28,4.7-.91,6.42-1.44v13.9c1.58-1.53,3.79-3,6.03-3,3.45,0,5.89,2.09,5.89,7.16v7.05c0,2.77.31,2.97,2.72,3.23v1.1h-9.09Z"/>
          <path class="cls-5" d="M999.03,1200.29c-.79,0-1.7-.37-2.15-.82-.57-.54-.82-1.1-1.02-1.75-1.7,1.08-3.68,2.58-4.87,2.58-3.14,0-5.21-2.49-5.21-5.09,0-2.07,1.13-3.31,3.42-4.05,2.69-.85,5.6-1.92,6.51-2.69v-.74c0-2.97-1.36-4.56-3.37-4.56-.74,0-1.36.28-1.78.74-.54.54-.91,1.47-1.27,2.8-.25.74-.71,1.02-1.36,1.02-.82,0-1.92-.85-1.92-1.84,0-.62.54-1.13,1.36-1.7,1.22-.88,4.08-2.46,6.43-2.92,1.33,0,2.55.31,3.51,1.05,1.56,1.3,2.01,3.03,2.01,5.24v7.44c0,1.84.74,2.46,1.5,2.46.48,0,1.05-.2,1.5-.45l.42,1.1-3.71,2.18ZM995.72,1189.91c-.85.42-2.55,1.22-3.42,1.61-1.64.71-2.55,1.53-2.55,3.06,0,2.18,1.64,3.14,2.89,3.14.99,0,2.35-.62,3.09-1.36v-6.45Z"/>
          <path class="cls-5" d="M1017.09,1199.81v-1.1c2.38-.25,2.72-.54,2.72-3.23v-6.71c0-3.42-1.42-5.04-4.02-5.04-1.53,0-3.09.74-4.25,2.01v9.74c0,2.63.25,2.97,2.66,3.23v1.1h-9.17v-1.1c2.52-.25,2.89-.51,2.89-3.23v-19.67c0-2.6-.11-2.75-2.8-3v-.99c1.98-.28,4.7-.91,6.42-1.44v13.9c1.58-1.53,3.79-3,6.03-3,3.45,0,5.89,2.09,5.89,7.16v7.05c0,2.77.31,2.97,2.72,3.23v1.1h-9.09Z"/>
          <path class="cls-5" d="M1029.46,1199.81v-1.1c2.63-.25,2.94-.51,2.94-3.4v-8.32c0-2.6-.14-2.8-2.63-3.23v-.99c2.26-.37,4.39-.85,6.28-1.58v14.12c0,2.86.28,3.09,2.97,3.4v1.1h-9.57ZM1031.67,1175.53c0-1.33,1.08-2.32,2.32-2.32s2.21.99,2.21,2.32c0,1.19-.96,2.24-2.26,2.24-1.19,0-2.26-1.05-2.26-2.24Z"/>
          <path class="cls-5" d="M1062.98,1198.74c-.91.17-4.19.71-6.85,1.56v-2.66l-2.49,1.47c-1.67.96-2.77,1.19-3.23,1.19-3.51,0-8.01-3-8.01-8.8s5.15-10.22,11.01-10.22c.59,0,1.7.11,2.72.45v-5.83c0-2.69-.28-2.8-3.26-3v-1.08c2.35-.28,5.24-.91,6.91-1.44v24.54c0,2.26.31,2.46,2.01,2.63l1.19.11v1.08ZM1056.13,1185.01c-1.02-1.44-2.66-2.15-4.27-2.15-1.78,0-5.29,1.5-5.29,7.5,0,4.95,3.14,7.22,5.75,7.22,1.39,0,2.8-.62,3.82-1.3v-11.27Z"/>
          <path class="cls-5" d="M479.66,1248.95c-.74-2.66-2.04-5.66-5.6-5.66-3.17,0-4.67,2.24-4.67,4.5,0,2.92,1.95,4.33,5.41,6,3.59,1.75,7.33,3.71,7.33,8.27s-3.79,7.98-9.57,7.98c-1.75,0-3.17-.31-4.25-.68-1.08-.34-1.67-.68-2.09-.88-.28-.82-.91-4.59-1.16-6.6l1.27-.37c.71,2.63,2.77,6.96,7.1,6.96,3.09,0,4.9-1.9,4.9-4.87s-2.26-4.42-5.49-6.11c-2.94-1.47-6.99-3.54-6.99-8.1,0-4.13,3.34-7.56,8.86-7.56,2.01,0,3.91.48,5.49.99.17,1.47.37,3.17.74,5.89l-1.27.23Z"/>
          <path class="cls-5" d="M498.54,1269.86c-.79,0-1.7-.37-2.15-.82-.57-.54-.82-1.1-1.02-1.75-1.7,1.08-3.68,2.58-4.87,2.58-3.14,0-5.21-2.49-5.21-5.09,0-2.07,1.13-3.31,3.42-4.05,2.69-.85,5.6-1.92,6.51-2.69v-.74c0-2.97-1.36-4.56-3.37-4.56-.74,0-1.36.28-1.78.74-.54.54-.91,1.47-1.27,2.8-.25.74-.71,1.02-1.36,1.02-.82,0-1.92-.85-1.92-1.84,0-.62.54-1.13,1.36-1.7,1.22-.88,4.08-2.46,6.43-2.92,1.33,0,2.55.31,3.51,1.05,1.56,1.3,2.01,3.03,2.01,5.24v7.44c0,1.84.74,2.46,1.5,2.46.48,0,1.05-.2,1.5-.45l.42,1.1-3.71,2.18ZM495.23,1259.48c-.85.42-2.55,1.22-3.42,1.61-1.64.71-2.55,1.53-2.55,3.06,0,2.18,1.64,3.14,2.89,3.14.99,0,2.35-.62,3.09-1.36v-6.45Z"/>
          <path class="cls-5" d="M524.58,1268.31c-.91.17-4.19.71-6.85,1.56v-2.66l-2.49,1.47c-1.67.96-2.77,1.19-3.23,1.19-3.51,0-8.01-3-8.01-8.8s5.15-10.22,11.01-10.22c.59,0,1.7.11,2.72.45v-5.83c0-2.69-.28-2.8-3.26-3v-1.08c2.35-.28,5.24-.91,6.91-1.44v24.54c0,2.26.31,2.46,2.01,2.63l1.19.11v1.08ZM517.73,1254.58c-1.02-1.44-2.66-2.15-4.27-2.15-1.78,0-5.29,1.5-5.29,7.5,0,4.95,3.14,7.22,5.75,7.22,1.39,0,2.8-.62,3.82-1.3v-11.27Z"/>
          <path class="cls-5" d="M536.05,1250.84c5.38,0,9.34,4.16,9.34,9.17,0,6.68-5.09,9.85-9.37,9.85-6.03,0-9.54-4.53-9.54-9.09,0-6.76,5.55-9.94,9.54-9.94h.03ZM535.51,1252.23c-2.43,0-4.7,2.46-4.7,7.13,0,5.24,2.26,9.06,5.66,9.06,2.43,0,4.61-1.64,4.61-7.44,0-4.95-1.98-8.75-5.52-8.75h-.06Z"/>
          <path class="cls-5" d="M568.69,1268.39c-.96.11-2.15.37-3.31.65-1.16.31-2.29.59-3.17.82l-.28-.23v-2.94c-.96.71-1.78,1.42-2.97,2.12-1.25.68-2.15,1.05-3.34,1.05-2.94,0-5.32-1.75-5.32-6.2v-7.9c0-2.26-.34-2.46-1.42-2.72l-1.13-.28v-.99c.85-.03,1.98-.17,3.17-.28,1.19-.14,2.43-.34,3.17-.45-.11,1.27-.11,3.26-.11,6v5.58c0,3.45,1.75,4.53,3.62,4.53,1.47,0,2.97-.57,4.33-1.84v-9.54c0-2.26-.37-2.52-1.73-2.75l-1.5-.25v-.99c1.19-.03,2.69-.17,3.96-.34,1.25-.08,2.26-.28,2.92-.4v13.64c0,2.15.34,2.43,1.98,2.55l1.13.06v1.1Z"/>
          <path class="cls-5" d="M589.29,1251.67c-.31.65-1.19,1.75-1.9,2.12l-2.38-.11c.71.88,1.19,2.15,1.19,3.62,0,4.42-3.82,6.6-7.53,6.6-.79,0-1.53-.11-2.21-.2-.54.37-1.08,1.02-1.08,1.56,0,.79.76,1.61,2.66,1.61,1.47,0,2.92-.08,4.36-.08,2.55,0,6.14.79,6.14,4.95s-5.04,8.32-10.67,8.32c-4.78,0-7.33-2.72-7.39-5.07,0-.99.42-1.78,1.1-2.38.93-.88,2.41-1.95,3.4-2.75-1.56-.45-2.6-1.36-3.14-2.26-.4-.59-.57-1.39-.48-1.84,1.73-.62,3.08-1.7,3.74-2.49-1.98-.82-3.71-2.8-3.71-5.55,0-4.76,4.33-6.88,7.67-6.88h.06c1.39,0,2.75.37,4.08,1.05,2.15-.11,4.33-.37,5.89-.57l.2.34ZM579.44,1270.01c-1.92,0-2.89.25-3.62.85-1.02.88-1.78,1.95-1.78,3.06,0,2.18,2.32,4.02,5.58,4.02,3.79,0,5.86-1.98,5.86-4.5,0-1.44-.74-2.49-1.95-2.94-1.1-.4-2.29-.48-4.02-.48h-.06ZM578.68,1252.15c-1.7,0-3.34,1.64-3.34,4.9s1.5,5.49,3.79,5.49c1.81-.03,3.37-1.64,3.37-4.9s-1.44-5.49-3.79-5.49h-.03Z"/>
          <path class="cls-5" d="M602.34,1269.38v-1.1c2.38-.25,2.72-.54,2.72-3.23v-6.71c0-3.42-1.42-5.04-4.02-5.04-1.53,0-3.09.74-4.25,2.01v9.74c0,2.63.25,2.97,2.66,3.23v1.1h-9.17v-1.1c2.52-.25,2.89-.51,2.89-3.23v-19.67c0-2.6-.11-2.75-2.8-3v-.99c1.98-.28,4.7-.91,6.42-1.44v13.9c1.58-1.53,3.79-3,6.03-3,3.45,0,5.89,2.09,5.89,7.16v7.05c0,2.77.31,2.97,2.72,3.23v1.1h-9.09Z"/>
          <path class="cls-5" d="M613.56,1269.38v-1.1c2.63-.25,2.94-.51,2.94-3.4v-8.32c0-2.6-.14-2.8-2.63-3.23v-.99c2.26-.37,4.39-.85,6.28-1.58v14.12c0,2.86.28,3.09,2.97,3.4v1.1h-9.57ZM615.76,1245.1c0-1.33,1.08-2.32,2.32-2.32s2.21.99,2.21,2.32c0,1.19-.96,2.24-2.26,2.24-1.19,0-2.26-1.05-2.26-2.24Z"/>
          <path class="cls-5" d="M662.5,1254.92c4.33.57,7.64,2.38,7.64,6.54,0,2.77-1.53,4.92-4.02,6.28-2.18,1.16-5.07,1.64-8.43,1.64h-9.74v-1.19c3.62-.25,3.91-.54,3.91-4.02v-16.45c0-3.54-.2-3.79-3.54-4.02v-1.25h11.21c3.23,0,5.07.48,6.48,1.44,1.47.99,2.38,2.8,2.38,4.73,0,3.93-3.42,5.55-5.89,6.14v.14ZM657.63,1254.38c4.58,0,6.51-1.78,6.51-5.21,0-2.97-1.67-5.32-5.52-5.32-1.02,0-1.98.23-2.35.51-.37.25-.48.74-.48,2.01v8.01h1.84ZM655.79,1264.06c0,3.08.82,3.88,3.48,3.85,3.31-.06,6.31-1.75,6.31-6.03s-2.89-6.06-8.04-6.06h-1.75v8.24Z"/>
          <path class="cls-5" d="M683.68,1250.84c5.38,0,9.34,4.16,9.34,9.17,0,6.68-5.09,9.85-9.37,9.85-6.03,0-9.54-4.53-9.54-9.09,0-6.76,5.55-9.94,9.54-9.94h.03ZM683.14,1252.23c-2.43,0-4.7,2.46-4.7,7.13,0,5.24,2.26,9.06,5.66,9.06,2.43,0,4.61-1.64,4.61-7.44,0-4.95-1.98-8.75-5.52-8.75h-.06Z"/>
          <path class="cls-5" d="M716.31,1268.39c-.96.11-2.15.37-3.31.65-1.16.31-2.29.59-3.17.82l-.28-.23v-2.94c-.96.71-1.78,1.42-2.97,2.12-1.25.68-2.15,1.05-3.34,1.05-2.94,0-5.32-1.75-5.32-6.2v-7.9c0-2.26-.34-2.46-1.42-2.72l-1.13-.28v-.99c.85-.03,1.98-.17,3.17-.28,1.19-.14,2.43-.34,3.17-.45-.11,1.27-.11,3.26-.11,6v5.58c0,3.45,1.75,4.53,3.62,4.53,1.47,0,2.97-.57,4.33-1.84v-9.54c0-2.26-.37-2.52-1.73-2.75l-1.5-.25v-.99c1.19-.03,2.69-.17,3.96-.34,1.25-.08,2.26-.28,2.92-.4v13.64c0,2.15.34,2.43,1.98,2.55l1.13.06v1.1Z"/>
          <path class="cls-5" d="M717.76,1269.38v-1.1c2.63-.31,3-.54,3-3.31v-19.42c0-2.8-.28-2.89-2.89-3.14v-1.02c2.26-.25,4.98-.96,6.51-1.44v25.02c0,2.8.37,3.06,3.11,3.31v1.1h-9.74Z"/>
          <path class="cls-5" d="M744.91,1265.7c-2.72,3.42-5.75,4.16-7.1,4.16-5.18,0-8.24-4.16-8.24-8.77,0-2.75.99-5.24,2.69-7.08,1.81-1.98,4.1-3.17,6.34-3.17h.03c3.59,0,6.45,3.09,6.45,6.37,0,.79-.23,1.16-.99,1.33-.76.11-6.03.54-10.9.71.08,5.35,3.23,7.61,6.14,7.61,1.73,0,3.34-.65,4.87-2.07l.71.91ZM737.6,1252.4c-1.81,0-3.62,1.61-4.22,5.07,2.24,0,4.47,0,6.82-.08.74-.03.99-.25.99-.79,0-2.18-1.36-4.19-3.57-4.19h-.03Z"/>
          <path class="cls-5" d="M766.85,1252.43c-2.24.31-2.6.71-3.71,3.11-1.44,3.03-3.68,8.15-6.06,14.29h-1.19c-1.98-4.98-3.93-9.65-5.94-14.44-.96-2.26-1.36-2.6-3.59-2.97v-1.1h9.03v1.1c-2.26.34-2.38.62-1.7,2.41,1.05,2.75,2.77,7.13,3.93,9.85,1.36-3.14,2.75-6.93,3.65-9.6.62-1.87.4-2.35-1.95-2.66v-1.1h7.53v1.1Z"/>
          <path class="cls-5" d="M781.11,1269.86c-.79,0-1.7-.37-2.15-.82-.57-.54-.82-1.1-1.02-1.75-1.7,1.08-3.68,2.58-4.87,2.58-3.14,0-5.21-2.49-5.21-5.09,0-2.07,1.13-3.31,3.42-4.05,2.69-.85,5.6-1.92,6.51-2.69v-.74c0-2.97-1.36-4.56-3.37-4.56-.74,0-1.36.28-1.78.74-.54.54-.91,1.47-1.27,2.8-.25.74-.71,1.02-1.36,1.02-.82,0-1.92-.85-1.92-1.84,0-.62.54-1.13,1.36-1.7,1.22-.88,4.08-2.46,6.43-2.92,1.33,0,2.55.31,3.51,1.05,1.56,1.3,2.01,3.03,2.01,5.24v7.44c0,1.84.74,2.46,1.5,2.46.48,0,1.05-.2,1.5-.45l.42,1.1-3.71,2.18ZM777.8,1259.48c-.85.42-2.55,1.22-3.42,1.61-1.64.71-2.55,1.53-2.55,3.06,0,2.18,1.64,3.14,2.89,3.14.99,0,2.35-.62,3.09-1.36v-6.45Z"/>
          <path class="cls-5" d="M792.69,1255.32c1.39-2.26,3.11-4.47,5.07-4.47,1.53,0,2.55,1.1,2.55,2.12,0,.96-.57,1.81-1.47,2.24-.51.2-.88.11-1.13-.11-.65-.59-1.13-.85-1.84-.85-1.08,0-2.35,1.22-3.25,3.42v7.39c0,2.72.2,2.97,3.48,3.23v1.1h-10.05v-1.1c2.55-.25,2.92-.51,2.92-3.23v-8.58c0-2.63-.23-2.8-2.58-3.14v-.93c2.09-.34,4.08-.82,6.23-1.7v4.61h.08Z"/>
          <path class="cls-5" d="M808.83,1255.32c1.39-2.26,3.11-4.47,5.07-4.47,1.53,0,2.55,1.1,2.55,2.12,0,.96-.57,1.81-1.47,2.24-.51.2-.88.11-1.13-.11-.65-.59-1.13-.85-1.84-.85-1.08,0-2.35,1.22-3.25,3.42v7.39c0,2.72.2,2.97,3.48,3.23v1.1h-10.05v-1.1c2.55-.25,2.92-.51,2.92-3.23v-8.58c0-2.63-.23-2.8-2.58-3.14v-.93c2.09-.34,4.08-.82,6.23-1.7v4.61h.08Z"/>
          <path class="cls-5" d="M838.41,1268.31c-.91.17-4.19.71-6.85,1.56v-2.66l-2.49,1.47c-1.67.96-2.77,1.19-3.23,1.19-3.51,0-8.01-3-8.01-8.8s5.15-10.22,11.01-10.22c.59,0,1.7.11,2.72.45v-5.83c0-2.69-.28-2.8-3.26-3v-1.08c2.35-.28,5.24-.91,6.91-1.44v24.54c0,2.26.31,2.46,2.01,2.63l1.19.11v1.08ZM831.56,1254.58c-1.02-1.44-2.66-2.15-4.27-2.15-1.78,0-5.29,1.5-5.29,7.5,0,4.95,3.14,7.22,5.75,7.22,1.39,0,2.8-.62,3.82-1.3v-11.27Z"/>
          <path class="cls-5" d="M842.6,1263.81c1.56,0,3.99,1.7,3.99,4.61,0,3.34-3.06,5.18-5.8,5.94l-.45-1.27c2.12-.85,3.34-1.98,3.34-3.54s-1.16-2.49-2.75-2.86c-.2,0-.51-.37-.51-1.1,0-1.08,1.05-1.78,2.12-1.78h.06Z"/>
          <path class="cls-5" d="M890.78,1276.18c-2.15.08-4.42-.2-5.72-.57-1.36-.37-4.75-1.95-9.99-5.66-2.52-.08-6.34-1.05-9.11-3.57-2.63-2.41-4.47-5.94-4.47-10.02,0-7.73,5.6-14.52,15-14.52,7.42,0,14.04,5.52,14.04,13.84,0,7.27-4.81,12.09-9.94,13.61,2.52,1.64,6.48,4.13,10.53,5.94l-.34.93ZM877.96,1267.37c.42.23.82.48,1.19.76,3.31-.91,6.74-4.56,6.74-11.29,0-8.52-4.61-13.44-10.47-13.44-4.84,0-9.28,4.13-9.28,11.83,0,6.99,3.71,12.06,8.78,13.08l3.06-.93Z"/>
          <path class="cls-5" d="M903.58,1250.84c5.38,0,9.34,4.16,9.34,9.17,0,6.68-5.09,9.85-9.37,9.85-6.03,0-9.54-4.53-9.54-9.09,0-6.76,5.55-9.94,9.54-9.94h.03ZM903.04,1252.23c-2.43,0-4.7,2.46-4.7,7.13,0,5.24,2.26,9.06,5.66,9.06,2.43,0,4.61-1.64,4.61-7.44,0-4.95-1.98-8.75-5.52-8.75h-.06Z"/>
          <path class="cls-5" d="M938.65,1269.38v-1.1c2.35-.25,2.83-.45,2.83-3.4v-6.68c0-3.11-1.19-4.78-3.62-4.78-1.36,0-2.89.79-4.47,2.07.06.51.11.99.11,1.73v7.95c0,2.6.4,2.86,2.69,3.11v1.1h-9.26v-1.1c2.52-.25,2.89-.45,2.89-3.17v-6.99c0-3.11-1.16-4.7-3.57-4.7-1.58,0-3.14,1.05-4.42,2.04v9.65c0,2.66.37,2.92,2.29,3.17v1.1h-9.06v-1.1c2.72-.25,3.11-.51,3.11-3.23v-8.41c0-2.63-.14-2.89-2.55-3.25v-1.05c1.81-.28,4.16-.82,6.14-1.64v3.4c.91-.59,1.81-1.36,3.08-2.12,1.13-.68,2.15-1.13,3.48-1.13,2.01,0,3.82,1.27,4.7,3.4,1.25-.91,2.43-1.67,3.45-2.35.91-.57,1.98-1.05,3.17-1.05,3.34,0,5.49,2.29,5.49,6.45v7.81c0,2.75.28,2.86,2.72,3.17v1.1h-9.23Z"/>
          <path class="cls-5" d="M952.83,1263.81c1.56,0,3.99,1.7,3.99,4.61,0,3.34-3.06,5.18-5.8,5.94l-.45-1.27c2.12-.85,3.34-1.98,3.34-3.54s-1.16-2.49-2.75-2.86c-.2,0-.51-.37-.51-1.1,0-1.08,1.05-1.78,2.12-1.78h.06Z"/>
          <path class="cls-5" d="M971.46,1269.38v-1.19c3.45-.25,3.82-.51,3.82-4.08v-16.33c0-3.59-.37-3.85-3.82-4.08v-1.25h11.55v1.25c-3.42.23-3.79.48-3.79,4.08v16.33c0,3.57.37,3.82,3.79,4.08v1.19h-11.55Z"/>
          <path class="cls-5" d="M992.04,1255.32c1.39-2.26,3.11-4.47,5.07-4.47,1.53,0,2.55,1.1,2.55,2.12,0,.96-.57,1.81-1.47,2.24-.51.2-.88.11-1.13-.11-.65-.59-1.13-.85-1.84-.85-1.08,0-2.35,1.22-3.25,3.42v7.39c0,2.72.2,2.97,3.48,3.23v1.1h-10.05v-1.1c2.55-.25,2.92-.51,2.92-3.23v-8.58c0-2.63-.23-2.8-2.58-3.14v-.93c2.09-.34,4.08-.82,6.23-1.7v4.61h.08Z"/>
          <path class="cls-5" d="M1014.89,1269.86c-.79,0-1.7-.37-2.15-.82-.57-.54-.82-1.1-1.02-1.75-1.7,1.08-3.68,2.58-4.87,2.58-3.14,0-5.21-2.49-5.21-5.09,0-2.07,1.13-3.31,3.42-4.05,2.69-.85,5.6-1.92,6.51-2.69v-.74c0-2.97-1.36-4.56-3.37-4.56-.74,0-1.36.28-1.78.74-.54.54-.91,1.47-1.27,2.8-.25.74-.71,1.02-1.36,1.02-.82,0-1.92-.85-1.92-1.84,0-.62.54-1.13,1.36-1.7,1.22-.88,4.08-2.46,6.43-2.92,1.33,0,2.55.31,3.51,1.05,1.56,1.3,2.01,3.03,2.01,5.24v7.44c0,1.84.74,2.46,1.5,2.46.48,0,1.05-.2,1.5-.45l.42,1.1-3.71,2.18ZM1011.57,1259.48c-.85.42-2.55,1.22-3.42,1.61-1.64.71-2.55,1.53-2.55,3.06,0,2.18,1.64,3.14,2.89,3.14.99,0,2.35-.62,3.09-1.36v-6.45Z"/>
          <path class="cls-5" d="M1031.84,1269.38v-1.1c2.41-.25,2.69-.59,2.69-3.51v-6.74c0-2.89-1.16-4.61-3.74-4.61-1.58,0-3.14.99-4.42,2.04v9.57c0,2.83.23,3,2.66,3.25v1.1h-9.34v-1.1c2.8-.34,3.03-.54,3.03-3.31v-8.32c0-2.69-.28-2.86-2.49-3.25v-1.05c2.01-.31,4.19-.85,6.14-1.64v3.34c.85-.62,1.75-1.27,2.83-1.98,1.19-.76,2.24-1.22,3.48-1.22,3.34,0,5.46,2.35,5.46,6.45v7.73c0,2.83.25,2.94,2.69,3.25v1.1h-9Z"/>
        </g>
      </g>
    </g>
  </g>
</svg>