<svg width="2344" height="9932" viewBox="0 0 2344 9932" fill="none" xmlns="http://www.w3.org/2000/svg">
<path d="M1134.11 375.168C1133.48 373.221 1132.64 371.476 1131.6 369.934C1130.58 368.373 1129.35 367.042 1127.93 365.944C1126.52 364.845 1124.92 364.006 1123.12 363.426C1121.33 362.849 1119.36 362.559 1117.23 362.559C1113.72 362.559 1110.52 363.465 1107.65 365.278C1104.78 367.09 1102.49 369.76 1100.8 373.288C1099.1 376.817 1098.25 381.145 1098.25 386.275C1098.25 391.403 1099.11 395.731 1100.83 399.259C1102.54 402.787 1104.87 405.457 1107.8 407.27C1110.73 409.082 1114.02 409.988 1117.69 409.988C1121.08 409.988 1124.07 409.266 1126.65 407.818C1129.25 406.354 1131.28 404.29 1132.72 401.63C1134.19 398.95 1134.92 395.799 1134.92 392.174L1137.12 392.635H1119.31V386.275H1141.86V392.635C1141.86 397.514 1140.82 401.755 1138.74 405.361C1136.68 408.966 1133.82 411.762 1130.18 413.749C1126.56 415.713 1122.39 416.697 1117.69 416.697C1112.44 416.697 1107.83 415.464 1103.86 412.995C1099.91 410.527 1096.83 407.018 1094.61 402.468C1092.41 397.92 1091.31 392.522 1091.31 386.275C1091.31 381.589 1091.94 377.377 1093.19 373.636C1094.47 369.876 1096.26 366.677 1098.57 364.035C1100.88 361.394 1103.62 359.369 1106.79 357.963C1109.95 356.554 1113.43 355.851 1117.23 355.851C1120.35 355.851 1123.26 356.324 1125.96 357.267C1128.68 358.192 1131.1 359.514 1133.22 361.23C1135.36 362.926 1137.14 364.961 1138.57 367.332C1139.99 369.683 1140.98 372.295 1141.52 375.168H1134.11ZM1154.15 415.887V356.66H1174.16C1178.79 356.66 1182.58 357.45 1185.55 359.031C1188.52 360.594 1190.72 362.743 1192.15 365.481C1193.57 368.218 1194.29 371.333 1194.29 374.823C1194.29 378.312 1193.57 381.406 1192.15 384.105C1190.72 386.804 1188.53 388.926 1185.58 390.468C1182.63 391.99 1178.86 392.751 1174.27 392.751H1158.08V386.275H1174.04C1177.21 386.275 1179.75 385.811 1181.68 384.885C1183.63 383.96 1185.03 382.65 1185.9 380.954C1186.79 379.238 1187.23 377.194 1187.23 374.823C1187.23 372.45 1186.79 370.379 1185.9 368.605C1185.01 366.831 1183.6 365.461 1181.65 364.497C1179.7 363.513 1177.13 363.023 1173.93 363.023H1161.32V415.887H1154.15ZM1182.03 389.281L1196.6 415.887H1188.27L1173.93 389.281H1182.03ZM1256.21 386.275C1256.21 392.522 1255.08 397.92 1252.83 402.468C1250.57 407.018 1247.48 410.527 1243.54 412.995C1239.61 415.464 1235.12 416.697 1230.07 416.697C1225.02 416.697 1220.52 415.464 1216.59 412.995C1212.66 410.527 1209.56 407.018 1207.31 402.468C1205.05 397.92 1203.92 392.522 1203.92 386.275C1203.92 380.028 1205.05 374.63 1207.31 370.079C1209.56 365.529 1212.66 362.02 1216.59 359.553C1220.52 357.085 1225.02 355.851 1230.07 355.851C1235.12 355.851 1239.61 357.085 1243.54 359.553C1247.48 362.02 1250.57 365.529 1252.83 370.079C1255.08 374.63 1256.21 380.028 1256.21 386.275ZM1249.27 386.275C1249.27 381.145 1248.41 376.817 1246.7 373.288C1245 369.76 1242.69 367.09 1239.78 365.278C1236.89 363.465 1233.65 362.559 1230.07 362.559C1226.48 362.559 1223.23 363.465 1220.32 365.278C1217.43 367.09 1215.12 369.76 1213.41 373.288C1211.71 376.817 1210.86 381.145 1210.86 386.275C1210.86 391.403 1211.71 395.731 1213.41 399.259C1215.12 402.787 1217.43 405.457 1220.32 407.27C1223.23 409.082 1226.48 409.988 1230.07 409.988C1233.65 409.988 1236.89 409.082 1239.78 407.27C1242.69 405.457 1245 402.787 1246.7 399.259C1248.41 395.731 1249.27 391.403 1249.27 386.275ZM1307.14 356.66H1314.31V395.876C1314.31 399.924 1313.35 403.539 1311.44 406.721C1309.56 409.882 1306.89 412.378 1303.43 414.21C1299.98 416.023 1295.93 416.929 1291.29 416.929C1286.64 416.929 1282.59 416.023 1279.14 414.21C1275.69 412.378 1273.01 409.882 1271.1 406.721C1269.21 403.539 1268.27 399.924 1268.27 395.876V356.66H1275.44V395.296C1275.44 398.188 1276.08 400.762 1277.35 403.019C1278.62 405.254 1280.43 407.018 1282.79 408.311C1285.16 409.582 1287.99 410.22 1291.29 410.22C1294.58 410.22 1297.42 409.582 1299.79 408.311C1302.16 407.018 1303.97 405.254 1305.23 403.019C1306.5 400.762 1307.14 398.188 1307.14 395.296V356.66ZM1328.63 415.887V356.66H1348.64C1353.29 356.66 1357.09 357.499 1360.04 359.176C1363 360.834 1365.2 363.081 1366.63 365.915C1368.06 368.748 1368.77 371.911 1368.77 375.4C1368.77 378.89 1368.06 382.06 1366.63 384.914C1365.22 387.768 1363.04 390.042 1360.09 391.739C1357.14 393.418 1353.37 394.257 1348.76 394.257H1334.41V387.894H1348.53C1351.71 387.894 1354.26 387.343 1356.19 386.246C1358.12 385.146 1359.52 383.663 1360.38 381.792C1361.27 379.902 1361.71 377.771 1361.71 375.4C1361.71 373.03 1361.27 370.908 1360.38 369.038C1359.52 367.167 1358.11 365.703 1356.16 364.642C1354.21 363.562 1351.63 363.023 1348.41 363.023H1335.8V415.887H1328.63Z" fill="#1E353C"/>
<path opacity="0.2" d="M1068.09 129.286C1068.09 70.9628 1020.87 23.6826 962.611 23.6826C904.356 23.6826 857.131 70.9628 857.131 129.286V338.8C857.131 397.123 904.356 444.403 962.611 444.403C1020.87 444.403 1068.09 397.123 1068.09 338.8V129.286Z" fill="#1E353C"/>
<path d="M835.38 193.324V333.483C835.38 335.417 833.93 336.866 831.997 336.866C830.064 336.866 828.614 335.417 828.614 333.483V193.324C828.614 162.634 805.174 137.743 776.417 137.743H746.697C717.941 137.743 694.498 162.634 694.498 193.324V333.483C694.498 335.417 693.048 336.866 691.115 336.866C689.182 336.866 687.734 335.417 687.734 333.483V193.324C687.734 159.009 714.074 131.218 746.697 131.218H776.417C808.798 131.218 835.38 159.009 835.38 193.324ZM783.425 220.631C783.425 222.564 781.978 224.014 780.044 224.014H738.237C736.304 224.014 734.854 222.564 734.854 220.631C734.854 218.697 736.304 217.248 738.237 217.248H780.044C781.978 217.248 783.425 218.697 783.425 220.631Z" fill="#1E353C"/>
<path d="M964.423 238.271C965.39 239.721 965.148 241.896 963.698 242.863C962.248 243.829 960.073 243.588 959.107 242.138L889.512 144.509V333.242C889.512 335.175 888.062 336.625 886.129 336.625C884.195 336.625 882.746 335.175 882.746 333.242V134.118C882.746 132.669 883.712 131.46 885.162 130.977C886.612 130.493 888.062 130.977 888.787 132.185L964.423 238.271Z" fill="#1E353C"/>
<path d="M1095.15 134.36V333.483C1095.15 335.416 1093.7 336.866 1091.77 336.866C1089.84 336.866 1088.39 335.416 1088.39 333.483V134.36C1088.39 132.426 1089.84 130.977 1091.77 130.977C1093.7 130.977 1095.15 132.426 1095.15 134.36Z" fill="#1E353C"/>
<path d="M1281.95 332.033C1282.67 333.725 1281.95 335.658 1280.5 336.383C1280.02 336.383 1279.53 336.625 1279.05 336.625C1277.84 336.625 1276.63 335.9 1276.15 334.691L1222.02 226.43H1141.55V333.241C1141.55 335.175 1140.1 336.625 1138.17 336.625C1136.23 336.625 1134.79 335.175 1134.79 333.241V223.047C1134.79 221.114 1136.23 219.664 1138.17 219.664H1234.83C1257.54 219.664 1275.91 201.298 1275.91 178.582C1275.91 155.867 1257.54 137.501 1234.83 137.501H1138.17C1136.23 137.501 1134.79 136.051 1134.79 134.118C1134.79 132.185 1136.23 130.735 1138.17 130.735H1234.83C1261.17 130.735 1282.68 152.242 1282.68 178.582C1282.68 204.923 1261.17 226.43 1234.83 226.43H1229.51L1282.19 331.791L1281.95 332.033Z" fill="#1E353C"/>
<path d="M1463.19 193.324V333.483C1463.19 335.417 1461.74 336.866 1459.8 336.866C1457.87 336.866 1456.42 335.417 1456.42 333.483V193.324C1456.42 162.634 1432.98 137.743 1404.22 137.743H1374.5C1345.74 137.743 1322.3 162.634 1322.3 193.324V333.483C1322.3 335.417 1320.86 336.866 1318.92 336.866C1316.99 336.866 1315.54 335.417 1315.54 333.483V193.324C1315.54 159.009 1341.88 131.218 1374.5 131.218H1404.22C1436.6 131.218 1463.19 159.009 1463.19 193.324ZM1411.47 220.631C1411.47 222.564 1410.02 224.014 1408.09 224.014H1366.28C1364.35 224.014 1362.9 222.564 1362.9 220.631C1362.9 218.697 1364.35 217.248 1366.28 217.248H1408.09C1410.02 217.248 1411.47 218.697 1411.47 220.631Z" fill="#1E353C"/>
<path d="M1618.57 283.461C1619.53 284.911 1619.29 287.086 1617.6 288.052C1616.15 289.019 1613.97 288.777 1613.01 287.086L1514.66 144.51L1510.79 333.242C1510.79 334.933 1509.34 336.383 1507.41 336.383C1505.47 336.383 1504.02 334.933 1504.27 333L1508.37 133.877C1508.37 132.427 1509.34 131.219 1510.79 130.735C1512.24 130.252 1513.69 130.736 1514.41 131.944L1618.57 282.978V283.461ZM1651.91 134.36V333.483C1651.91 334.933 1650.95 336.142 1649.5 336.625C1649.26 336.625 1648.77 336.625 1648.53 336.625C1647.56 336.625 1646.36 336.142 1645.87 335.175L1597.06 264.37C1596.09 262.92 1596.33 260.745 1598.03 259.779C1599.48 258.812 1601.65 259.054 1602.61 260.745L1645.39 322.851V134.36C1645.39 132.427 1646.84 130.977 1648.77 130.977C1650.71 130.977 1652.16 132.427 1652.16 134.36H1651.91Z" fill="#1E353C"/>
<path d="M1044.17 131.46C1045.62 132.427 1045.86 134.602 1044.89 136.052L928.176 295.06C927.209 296.51 925.034 296.752 923.584 295.785C922.134 294.818 921.893 292.644 922.859 291.194L1039.58 132.185C1040.54 130.735 1042.72 130.494 1044.17 131.46Z" fill="#1E353C"/>
<g opacity="0.2">
<path d="M1033.3 993.2C1037.89 999.483 1036.44 1008.42 1029.91 1013.02C1023.63 1017.61 1014.69 1016.16 1010.09 1009.63L712.868 593.02V1398.7C712.868 1406.43 706.583 1412.95 698.609 1412.95C690.634 1412.95 684.354 1406.67 684.354 1398.7V548.797C684.354 542.514 688.459 537.198 694.259 535.264C700.059 533.331 706.586 535.506 710.21 540.581L1033.05 993.2H1033.3Z" fill="#1E353C"/>
<path d="M1373.05 537.198C1379.34 541.789 1380.79 550.73 1376.19 557.013L878.154 1236.3C873.563 1242.59 864.622 1244.04 858.339 1239.45C852.056 1234.85 850.606 1225.91 855.197 1219.63L1353.24 540.339C1357.83 534.056 1366.77 532.606 1373.05 537.198Z" fill="#1E353C"/>
<path d="M1313.85 954.052C1309.26 947.769 1310.71 938.827 1317.23 934.236C1323.52 929.645 1332.46 931.094 1337.05 937.619L1634.28 1354.23V548.555C1634.28 540.823 1640.56 534.298 1648.54 534.298C1656.51 534.298 1662.8 540.581 1662.8 548.555V1398.45C1662.8 1404.74 1658.68 1410.05 1652.88 1411.99C1647.09 1413.92 1640.56 1411.75 1636.94 1406.67L1314.09 954.052H1313.85Z" fill="#1E353C"/>
<path d="M974.092 1410.05C967.809 1405.46 966.359 1396.52 970.95 1390.24L1468.99 710.947C1473.58 704.664 1482.52 703.214 1488.8 707.806C1495.09 712.397 1496.54 721.338 1491.95 727.621L993.907 1406.91C989.316 1413.2 980.374 1414.65 974.092 1410.05Z" fill="#1E353C"/>
<path d="M1033.3 1843.34C1037.89 1849.62 1036.44 1858.56 1029.91 1863.16C1023.63 1867.75 1014.69 1866.3 1010.09 1859.77L712.868 1443.16V2248.84C712.868 2256.57 706.583 2263.09 698.609 2263.09C690.634 2263.09 684.354 2256.81 684.354 2248.84V1398.94C684.354 1392.65 688.459 1387.34 694.259 1385.41C700.059 1383.47 706.586 1385.65 710.21 1390.72L1033.05 1843.34H1033.3Z" fill="#1E353C"/>
<path d="M1373.05 1387.34C1379.34 1391.93 1380.79 1400.87 1376.19 1407.15L878.154 2086.44C873.563 2092.73 864.622 2094.18 858.339 2089.59C852.056 2084.99 850.606 2076.05 855.197 2069.77L1353.24 1390.48C1357.83 1384.2 1366.77 1382.75 1373.05 1387.34Z" fill="#1E353C"/>
<path d="M1313.85 1804.43C1309.26 1798.15 1310.71 1789.21 1317.23 1784.62C1323.52 1780.03 1332.46 1781.48 1337.05 1788L1634.28 2204.61V1398.94C1634.28 1391.2 1640.56 1384.68 1648.54 1384.68C1656.51 1384.68 1662.8 1390.96 1662.8 1398.94V2248.84C1662.8 2255.12 1658.68 2260.44 1652.88 2262.37C1647.09 2264.3 1640.56 2262.13 1636.94 2257.05L1314.09 1804.43H1313.85Z" fill="#1E353C"/>
<path d="M974.092 2260.19C967.809 2255.6 966.359 2246.66 970.95 2240.38L1468.99 1561.09C1473.58 1554.8 1482.52 1553.35 1488.8 1557.95C1495.09 1562.54 1496.54 1571.48 1491.95 1577.76L993.907 2257.05C989.316 2263.34 980.374 2264.79 974.092 2260.19Z" fill="#1E353C"/>
<path d="M1033.3 1843.34C1037.89 1849.62 1036.44 1858.56 1029.91 1863.16C1023.63 1867.75 1014.69 1866.3 1010.09 1859.77L712.868 1443.16V2248.84C712.868 2256.57 706.583 2263.09 698.609 2263.09C690.634 2263.09 684.354 2256.81 684.354 2248.84V1398.94C684.354 1392.65 688.459 1387.34 694.259 1385.41C700.059 1383.47 706.586 1385.65 710.21 1390.72L1033.05 1843.34H1033.3Z" fill="#1E353C"/>
<path d="M1373.05 1387.34C1379.34 1391.93 1380.79 1400.87 1376.19 1407.15L878.154 2086.44C873.563 2092.73 864.622 2094.18 858.339 2089.59C852.056 2084.99 850.606 2076.05 855.197 2069.77L1353.24 1390.48C1357.83 1384.2 1366.77 1382.75 1373.05 1387.34Z" fill="#1E353C"/>
<path d="M1313.85 1804.43C1309.26 1798.15 1310.71 1789.21 1317.23 1784.62C1323.52 1780.03 1332.46 1781.48 1337.05 1788L1634.28 2204.61V1398.94C1634.28 1391.2 1640.56 1384.68 1648.54 1384.68C1656.51 1384.68 1662.8 1390.96 1662.8 1398.94V2248.84C1662.8 2255.12 1658.68 2260.44 1652.88 2262.37C1647.09 2264.3 1640.56 2262.13 1636.94 2257.05L1314.09 1804.43H1313.85Z" fill="#1E353C"/>
<path d="M974.092 2260.19C967.809 2255.6 966.359 2246.66 970.95 2240.38L1468.99 1561.09C1473.58 1554.8 1482.52 1553.35 1488.8 1557.95C1495.09 1562.54 1496.54 1571.48 1491.95 1577.76L993.907 2257.05C989.316 2263.34 980.374 2264.79 974.092 2260.19Z" fill="#1E353C"/>
<path d="M1033.3 2693.48C1037.89 2699.76 1036.44 2708.71 1029.91 2713.3C1023.63 2717.89 1014.69 2716.44 1010.09 2709.91L712.868 2293.3V3098.98C712.868 3106.71 706.583 3113.23 698.609 3113.23C690.634 3113.23 684.354 3106.95 684.354 3098.98V2249.08C684.354 2242.8 688.459 2237.48 694.259 2235.55C700.059 2233.61 706.586 2235.79 710.21 2240.86L1033.05 2693.48H1033.3Z" fill="#1E353C"/>
<path d="M1373.05 2237.48C1379.34 2242.07 1380.79 2251.01 1376.19 2257.29L878.154 2936.58C873.563 2942.87 864.622 2944.32 858.339 2939.73C852.056 2935.14 850.606 2926.19 855.197 2919.91L1353.24 2240.62C1357.83 2234.34 1366.77 2232.89 1373.05 2237.48Z" fill="#1E353C"/>
<path d="M1313.85 2654.57C1309.26 2648.29 1310.71 2639.35 1317.23 2634.76C1323.52 2630.17 1332.46 2631.62 1337.05 2638.14L1634.28 3054.75V2249.08C1634.28 2241.35 1640.56 2234.82 1648.54 2234.82C1656.51 2234.82 1662.8 2241.1 1662.8 2249.08V3098.98C1662.8 3105.26 1658.68 3110.58 1652.88 3112.51C1647.09 3114.44 1640.56 3112.27 1636.94 3107.19L1314.09 2654.57H1313.85Z" fill="#1E353C"/>
<path d="M974.092 3110.34C967.809 3105.74 966.359 3096.8 970.95 3090.52L1468.99 2411.23C1473.58 2404.95 1482.52 2403.5 1488.8 2408.09C1495.09 2412.68 1496.54 2421.62 1491.95 2427.9L993.907 3107.19C989.316 3113.48 980.374 3114.93 974.092 3110.34Z" fill="#1E353C"/>
<path d="M1033.3 2693.48C1037.89 2699.76 1036.44 2708.71 1029.91 2713.3C1023.63 2717.89 1014.69 2716.44 1010.09 2709.91L712.868 2293.3V3098.98C712.868 3106.71 706.583 3113.23 698.609 3113.23C690.634 3113.23 684.354 3106.95 684.354 3098.98V2249.08C684.354 2242.8 688.459 2237.48 694.259 2235.55C700.059 2233.61 706.586 2235.79 710.21 2240.86L1033.05 2693.48H1033.3Z" fill="#1E353C"/>
<path d="M1373.05 2237.48C1379.34 2242.07 1380.79 2251.01 1376.19 2257.29L878.154 2936.58C873.563 2942.87 864.622 2944.32 858.339 2939.73C852.056 2935.14 850.606 2926.19 855.197 2919.91L1353.24 2240.62C1357.83 2234.34 1366.77 2232.89 1373.05 2237.48Z" fill="#1E353C"/>
<path d="M1313.85 2654.57C1309.26 2648.29 1310.71 2639.35 1317.23 2634.76C1323.52 2630.17 1332.46 2631.62 1337.05 2638.14L1634.28 3054.75V2249.08C1634.28 2241.35 1640.56 2234.82 1648.54 2234.82C1656.51 2234.82 1662.8 2241.1 1662.8 2249.08V3098.98C1662.8 3105.26 1658.68 3110.58 1652.88 3112.51C1647.09 3114.44 1640.56 3112.27 1636.94 3107.19L1314.09 2654.57H1313.85Z" fill="#1E353C"/>
<path d="M974.092 3110.34C967.809 3105.74 966.359 3096.8 970.95 3090.52L1468.99 2411.23C1473.58 2404.95 1482.52 2403.5 1488.8 2408.09C1495.09 2412.68 1496.54 2421.62 1491.95 2427.9L993.907 3107.19C989.316 3113.48 980.374 3114.93 974.092 3110.34Z" fill="#1E353C"/>
<path d="M1033.3 3543.62C1037.89 3549.9 1036.44 3558.85 1029.91 3563.44C1023.63 3568.03 1014.69 3566.58 1010.09 3560.05L712.868 3143.44V3949.12C712.868 3956.85 706.583 3963.38 698.609 3963.38C690.634 3963.38 684.354 3957.09 684.354 3949.12V3099.22C684.354 3092.94 688.459 3087.62 694.259 3085.69C700.059 3083.75 706.586 3085.93 710.21 3091L1033.05 3543.62H1033.3Z" fill="#1E353C"/>
<path d="M1373.05 3087.62C1379.34 3092.21 1380.79 3101.15 1376.19 3107.43L878.154 3786.73C873.563 3793.01 864.622 3794.46 858.339 3789.87C852.056 3785.28 850.606 3776.33 855.197 3770.05L1353.24 3090.76C1357.83 3084.48 1366.77 3083.03 1373.05 3087.62Z" fill="#1E353C"/>
<path d="M1313.85 3504.71C1309.26 3498.43 1310.71 3489.49 1317.23 3484.9C1323.52 3480.31 1332.46 3481.76 1337.05 3488.28L1634.28 3904.89V3099.22C1634.28 3091.49 1640.56 3084.96 1648.54 3084.96C1656.51 3084.96 1662.8 3091.24 1662.8 3099.22V3949.12C1662.8 3955.4 1658.68 3960.72 1652.88 3962.65C1647.09 3964.58 1640.56 3962.41 1636.94 3957.33L1314.09 3504.71H1313.85Z" fill="#1E353C"/>
<path d="M974.092 3960.48C967.809 3955.88 966.359 3946.94 970.95 3940.66L1468.99 3261.37C1473.58 3255.09 1482.52 3253.64 1488.8 3258.23C1495.09 3262.82 1496.54 3271.76 1491.95 3278.04L993.907 3957.33C989.316 3963.62 980.374 3965.07 974.092 3960.48Z" fill="#1E353C"/>
<path d="M1033.3 3543.62C1037.89 3549.9 1036.44 3558.85 1029.91 3563.44C1023.63 3568.03 1014.69 3566.58 1010.09 3560.05L712.868 3143.44V3949.12C712.868 3956.85 706.583 3963.38 698.609 3963.38C690.634 3963.38 684.354 3957.09 684.354 3949.12V3099.22C684.354 3092.94 688.459 3087.62 694.259 3085.69C700.059 3083.75 706.586 3085.93 710.21 3091L1033.05 3543.62H1033.3Z" fill="#1E353C"/>
<path d="M1373.05 3087.62C1379.34 3092.21 1380.79 3101.15 1376.19 3107.43L878.154 3786.73C873.563 3793.01 864.622 3794.46 858.339 3789.87C852.056 3785.28 850.606 3776.33 855.197 3770.05L1353.24 3090.76C1357.83 3084.48 1366.77 3083.03 1373.05 3087.62Z" fill="#1E353C"/>
<path d="M1313.85 3504.71C1309.26 3498.43 1310.71 3489.49 1317.23 3484.9C1323.52 3480.31 1332.46 3481.76 1337.05 3488.28L1634.28 3904.89V3099.22C1634.28 3091.49 1640.56 3084.96 1648.54 3084.96C1656.51 3084.96 1662.8 3091.24 1662.8 3099.22V3949.12C1662.8 3955.4 1658.68 3960.72 1652.88 3962.65C1647.09 3964.58 1640.56 3962.41 1636.94 3957.33L1314.09 3504.71H1313.85Z" fill="#1E353C"/>
<path d="M974.092 3960.48C967.809 3955.88 966.359 3946.94 970.95 3940.66L1468.99 3261.37C1473.58 3255.09 1482.52 3253.64 1488.8 3258.23C1495.09 3262.82 1496.54 3271.76 1491.95 3278.04L993.907 3957.33C989.316 3963.62 980.374 3965.07 974.092 3960.48Z" fill="#1E353C"/>
<path d="M1033.3 4393.76C1037.89 4400.05 1036.44 4408.99 1029.91 4413.58C1023.63 4418.17 1014.69 4416.72 1010.09 4410.19L712.868 3993.58V4799.26C712.868 4806.99 706.583 4813.52 698.609 4813.52C690.634 4813.52 684.354 4807.23 684.354 4799.26V3949.36C684.354 3943.08 688.459 3937.76 694.259 3935.83C700.059 3933.89 706.586 3936.07 710.21 3941.14L1033.05 4393.76H1033.3Z" fill="#1E353C"/>
<path d="M1373.05 3937.76C1379.34 3942.35 1380.79 3951.29 1376.19 3957.58L878.154 4636.87C873.563 4643.15 864.622 4644.6 858.339 4640.01C852.056 4635.42 850.606 4626.48 855.197 4620.19L1353.24 3940.9C1357.83 3934.62 1366.77 3933.17 1373.05 3937.76Z" fill="#1E353C"/>
<path d="M1313.85 4354.86C1309.26 4348.57 1310.71 4339.63 1317.23 4335.04C1323.52 4330.45 1332.46 4331.9 1337.05 4338.42L1634.28 4755.04V3949.36C1634.28 3941.63 1640.56 3935.1 1648.54 3935.1C1656.51 3935.1 1662.8 3941.38 1662.8 3949.36V4799.26C1662.8 4805.54 1658.68 4810.86 1652.88 4812.79C1647.09 4814.72 1640.56 4812.55 1636.94 4807.47L1314.09 4354.86H1313.85Z" fill="#1E353C"/>
<path d="M974.092 4810.62C967.809 4806.02 966.359 4797.08 970.95 4790.8L1468.99 4111.51C1473.58 4105.23 1482.52 4103.78 1488.8 4108.37C1495.09 4112.96 1496.54 4121.9 1491.95 4128.18L993.907 4807.47C989.316 4813.76 980.374 4815.21 974.092 4810.62Z" fill="#1E353C"/>
<path d="M1033.3 4393.76C1037.89 4400.05 1036.44 4408.99 1029.91 4413.58C1023.63 4418.17 1014.69 4416.72 1010.09 4410.19L712.868 3993.58V4799.26C712.868 4806.99 706.583 4813.52 698.609 4813.52C690.634 4813.52 684.354 4807.23 684.354 4799.26V3949.36C684.354 3943.08 688.459 3937.76 694.259 3935.83C700.059 3933.89 706.586 3936.07 710.21 3941.14L1033.05 4393.76H1033.3Z" fill="#1E353C"/>
<path d="M1373.05 3937.76C1379.34 3942.35 1380.79 3951.29 1376.19 3957.58L878.154 4636.87C873.563 4643.15 864.622 4644.6 858.339 4640.01C852.056 4635.42 850.606 4626.48 855.197 4620.19L1353.24 3940.9C1357.83 3934.62 1366.77 3933.17 1373.05 3937.76Z" fill="#1E353C"/>
<path d="M1313.85 4354.86C1309.26 4348.57 1310.71 4339.63 1317.23 4335.04C1323.52 4330.45 1332.46 4331.9 1337.05 4338.42L1634.28 4755.04V3949.36C1634.28 3941.63 1640.56 3935.1 1648.54 3935.1C1656.51 3935.1 1662.8 3941.38 1662.8 3949.36V4799.26C1662.8 4805.54 1658.68 4810.86 1652.88 4812.79C1647.09 4814.72 1640.56 4812.55 1636.94 4807.47L1314.09 4354.86H1313.85Z" fill="#1E353C"/>
<path d="M974.092 4810.62C967.809 4806.02 966.359 4797.08 970.95 4790.8L1468.99 4111.51C1473.58 4105.23 1482.52 4103.78 1488.8 4108.37C1495.09 4112.96 1496.54 4121.9 1491.95 4128.18L993.907 4807.47C989.316 4813.76 980.374 4815.21 974.092 4810.62Z" fill="#1E353C"/>
<path d="M1033.3 5243.9C1037.89 5250.19 1036.44 5259.13 1029.91 5263.72C1023.63 5268.31 1014.69 5266.86 1010.09 5260.34L712.868 4843.72V5649.4C712.868 5657.13 706.583 5663.66 698.609 5663.66C690.634 5663.66 684.354 5657.37 684.354 5649.4V4799.5C684.354 4793.22 688.459 4787.9 694.259 4785.97C700.059 4784.03 706.586 4786.21 710.21 4791.28L1033.05 5243.9H1033.3Z" fill="#1E353C"/>
<path d="M1373.05 4788.14C1379.34 4792.73 1380.79 4801.67 1376.19 4807.96L878.154 5487.25C873.563 5493.53 864.622 5494.98 858.339 5490.39C852.056 5485.8 850.606 5476.86 855.197 5470.57L1353.24 4791.28C1357.83 4785 1366.77 4783.55 1373.05 4788.14Z" fill="#1E353C"/>
<path d="M1313.85 5205C1309.26 5198.71 1310.71 5189.77 1317.23 5185.18C1323.52 5180.59 1332.46 5182.04 1337.05 5188.56L1634.28 5605.18V4799.5C1634.28 4791.77 1640.56 4785.24 1648.54 4785.24C1656.51 4785.24 1662.8 4791.53 1662.8 4799.5V5649.4C1662.8 5655.68 1658.68 5661 1652.88 5662.93C1647.09 5664.86 1640.56 5662.69 1636.94 5657.61L1314.09 5205H1313.85Z" fill="#1E353C"/>
<path d="M974.092 5660.76C967.809 5656.17 966.359 5647.22 970.95 5640.94L1468.99 4961.65C1473.58 4955.37 1482.52 4953.92 1488.8 4958.51C1495.09 4963.1 1496.54 4972.04 1491.95 4978.32L993.907 5657.62C989.316 5663.9 980.374 5665.35 974.092 5660.76Z" fill="#1E353C"/>
<path d="M1033.3 5243.9C1037.89 5250.19 1036.44 5259.13 1029.91 5263.72C1023.63 5268.31 1014.69 5266.86 1010.09 5260.34L712.868 4843.72V5649.4C712.868 5657.13 706.583 5663.66 698.609 5663.66C690.634 5663.66 684.354 5657.37 684.354 5649.4V4799.5C684.354 4793.22 688.459 4787.9 694.259 4785.97C700.059 4784.03 706.586 4786.21 710.21 4791.28L1033.05 5243.9H1033.3Z" fill="#1E353C"/>
<path d="M1373.05 4788.14C1379.34 4792.73 1380.79 4801.67 1376.19 4807.96L878.154 5487.25C873.563 5493.53 864.622 5494.98 858.339 5490.39C852.056 5485.8 850.606 5476.86 855.197 5470.57L1353.24 4791.28C1357.83 4785 1366.77 4783.55 1373.05 4788.14Z" fill="#1E353C"/>
<path d="M1313.85 5205C1309.26 5198.71 1310.71 5189.77 1317.23 5185.18C1323.52 5180.59 1332.46 5182.04 1337.05 5188.56L1634.28 5605.18V4799.5C1634.28 4791.77 1640.56 4785.24 1648.54 4785.24C1656.51 4785.24 1662.8 4791.53 1662.8 4799.5V5649.4C1662.8 5655.68 1658.68 5661 1652.88 5662.93C1647.09 5664.86 1640.56 5662.69 1636.94 5657.61L1314.09 5205H1313.85Z" fill="#1E353C"/>
<path d="M974.092 5660.76C967.809 5656.17 966.359 5647.22 970.95 5640.94L1468.99 4961.65C1473.58 4955.37 1482.52 4953.92 1488.8 4958.51C1495.09 4963.1 1496.54 4972.04 1491.95 4978.32L993.907 5657.62C989.316 5663.9 980.374 5665.35 974.092 5660.76Z" fill="#1E353C"/>
<path d="M1033.3 6094.04C1037.89 6100.33 1036.44 6109.27 1029.91 6113.86C1023.63 6118.45 1014.69 6117 1010.09 6110.48L712.868 5693.86V6499.54C712.868 6507.27 706.583 6513.8 698.609 6513.8C690.634 6513.8 684.354 6507.51 684.354 6499.54V5649.64C684.354 5643.36 688.459 5638.04 694.259 5636.11C700.059 5634.17 706.586 5636.35 710.21 5641.42L1033.05 6094.04H1033.3Z" fill="#1E353C"/>
<path d="M1373.05 5638.28C1379.34 5642.87 1380.79 5651.82 1376.19 5658.1L878.154 6337.39C873.563 6343.67 864.622 6345.12 858.339 6340.53C852.056 6335.94 850.606 6327 855.197 6320.71L1353.24 5641.42C1357.83 5635.14 1366.77 5633.69 1373.05 5638.28Z" fill="#1E353C"/>
<path d="M1313.85 6055.14C1309.26 6048.85 1310.71 6039.91 1317.23 6035.32C1323.52 6030.73 1332.46 6032.18 1337.05 6038.7L1634.28 6455.32V5649.64C1634.28 5641.91 1640.56 5635.38 1648.54 5635.38C1656.51 5635.38 1662.8 5641.67 1662.8 5649.64V6499.54C1662.8 6505.82 1658.68 6511.14 1652.88 6513.07C1647.09 6515 1640.56 6512.83 1636.94 6507.76L1314.09 6055.14H1313.85Z" fill="#1E353C"/>
<path d="M974.092 6510.9C967.809 6506.31 966.359 6497.36 970.95 6491.08L1468.99 5811.79C1473.58 5805.51 1482.52 5804.06 1488.8 5808.65C1495.09 5813.24 1496.54 5822.18 1491.95 5828.46L993.907 6507.76C989.316 6514.04 980.374 6515.49 974.092 6510.9Z" fill="#1E353C"/>
<path d="M1033.3 6094.04C1037.89 6100.33 1036.44 6109.27 1029.91 6113.86C1023.63 6118.45 1014.69 6117 1010.09 6110.48L712.868 5693.86V6499.54C712.868 6507.27 706.583 6513.8 698.609 6513.8C690.634 6513.8 684.354 6507.51 684.354 6499.54V5649.64C684.354 5643.36 688.459 5638.04 694.259 5636.11C700.059 5634.17 706.586 5636.35 710.21 5641.42L1033.05 6094.04H1033.3Z" fill="#1E353C"/>
<path d="M1373.05 5638.28C1379.34 5642.87 1380.79 5651.82 1376.19 5658.1L878.154 6337.39C873.563 6343.67 864.622 6345.12 858.339 6340.53C852.056 6335.94 850.606 6327 855.197 6320.71L1353.24 5641.42C1357.83 5635.14 1366.77 5633.69 1373.05 5638.28Z" fill="#1E353C"/>
<path d="M1313.85 6055.14C1309.26 6048.85 1310.71 6039.91 1317.23 6035.32C1323.52 6030.73 1332.46 6032.18 1337.05 6038.7L1634.28 6455.32V5649.64C1634.28 5641.91 1640.56 5635.38 1648.54 5635.38C1656.51 5635.38 1662.8 5641.67 1662.8 5649.64V6499.54C1662.8 6505.82 1658.68 6511.14 1652.88 6513.07C1647.09 6515 1640.56 6512.83 1636.94 6507.76L1314.09 6055.14H1313.85Z" fill="#1E353C"/>
<path d="M974.092 6510.9C967.809 6506.31 966.359 6497.36 970.95 6491.08L1468.99 5811.79C1473.58 5805.51 1482.52 5804.06 1488.8 5808.65C1495.09 5813.24 1496.54 5822.18 1491.95 5828.46L993.907 6507.76C989.316 6514.04 980.374 6515.49 974.092 6510.9Z" fill="#1E353C"/>
<path d="M1033.3 6944.18C1037.89 6950.47 1036.44 6959.41 1029.91 6964C1023.63 6968.59 1014.69 6967.14 1010.09 6960.62L712.868 6544V7349.68C712.868 7357.41 706.583 7363.94 698.609 7363.94C690.634 7363.94 684.354 7357.65 684.354 7349.68V6499.78C684.354 6493.5 688.459 6488.18 694.259 6486.25C700.059 6484.32 706.586 6486.49 710.21 6491.56L1033.05 6944.18H1033.3Z" fill="#1E353C"/>
<path d="M1373.05 6488.42C1379.34 6493.01 1380.79 6501.96 1376.19 6508.24L878.154 7187.53C873.563 7193.81 864.622 7195.26 858.339 7190.67C852.056 7186.08 850.606 7177.14 855.197 7170.86L1353.24 6491.56C1357.83 6485.28 1366.77 6483.83 1373.05 6488.42Z" fill="#1E353C"/>
<path d="M1313.85 6905.28C1309.26 6898.99 1310.71 6890.05 1317.23 6885.46C1323.52 6880.87 1332.46 6882.32 1337.05 6888.84L1634.28 7305.46V6499.78C1634.28 6492.05 1640.56 6485.52 1648.54 6485.52C1656.51 6485.52 1662.8 6491.81 1662.8 6499.78V7349.68C1662.8 7355.96 1658.68 7361.28 1652.88 7363.21C1647.09 7365.15 1640.56 7362.97 1636.94 7357.9L1314.09 6905.28H1313.85Z" fill="#1E353C"/>
<path d="M974.092 7361.28C967.809 7356.69 966.359 7347.75 970.95 7341.46L1468.99 6662.17C1473.58 6655.89 1482.52 6654.44 1488.8 6659.03C1495.09 6663.62 1496.54 6672.56 1491.95 6678.85L993.907 7358.14C989.316 7364.42 980.374 7365.87 974.092 7361.28Z" fill="#1E353C"/>
<path d="M1033.3 6944.18C1037.89 6950.47 1036.44 6959.41 1029.91 6964C1023.63 6968.59 1014.69 6967.14 1010.09 6960.62L712.868 6544V7349.68C712.868 7357.41 706.583 7363.94 698.609 7363.94C690.634 7363.94 684.354 7357.65 684.354 7349.68V6499.78C684.354 6493.5 688.459 6488.18 694.259 6486.25C700.059 6484.32 706.586 6486.49 710.21 6491.56L1033.05 6944.18H1033.3Z" fill="#1E353C"/>
<path d="M1373.05 6488.42C1379.34 6493.01 1380.79 6501.96 1376.19 6508.24L878.154 7187.53C873.563 7193.81 864.622 7195.26 858.339 7190.67C852.056 7186.08 850.606 7177.14 855.197 7170.86L1353.24 6491.56C1357.83 6485.28 1366.77 6483.83 1373.05 6488.42Z" fill="#1E353C"/>
<path d="M1313.85 6905.28C1309.26 6898.99 1310.71 6890.05 1317.23 6885.46C1323.52 6880.87 1332.46 6882.32 1337.05 6888.84L1634.28 7305.46V6499.78C1634.28 6492.05 1640.56 6485.52 1648.54 6485.52C1656.51 6485.52 1662.8 6491.81 1662.8 6499.78V7349.68C1662.8 7355.96 1658.68 7361.28 1652.88 7363.21C1647.09 7365.15 1640.56 7362.97 1636.94 7357.9L1314.09 6905.28H1313.85Z" fill="#1E353C"/>
<path d="M974.092 7361.28C967.809 7356.69 966.359 7347.75 970.95 7341.46L1468.99 6662.17C1473.58 6655.89 1482.52 6654.44 1488.8 6659.03C1495.09 6663.62 1496.54 6672.56 1491.95 6678.85L993.907 7358.14C989.316 7364.42 980.374 7365.87 974.092 7361.28Z" fill="#1E353C"/>
<path d="M1033.3 7794.32C1037.89 7800.61 1036.44 7809.55 1029.91 7814.14C1023.63 7818.73 1014.69 7817.28 1010.09 7810.76L712.868 7394.14V8199.82C712.868 8207.55 706.583 8214.08 698.609 8214.08C690.634 8214.08 684.354 8207.79 684.354 8199.82V7349.92C684.354 7343.64 688.459 7338.32 694.259 7336.39C700.059 7334.45 706.586 7336.63 710.21 7341.7L1033.05 7794.32H1033.3Z" fill="#1E353C"/>
<path d="M1373.05 7338.56C1379.34 7343.16 1380.79 7352.1 1376.19 7358.38L878.154 8037.67C873.563 8043.95 864.622 8045.4 858.339 8040.81C852.056 8036.22 850.606 8027.28 855.197 8021L1353.24 7341.71C1357.83 7335.42 1366.77 7333.97 1373.05 7338.56Z" fill="#1E353C"/>
<path d="M1313.85 7755.42C1309.26 7749.13 1310.71 7740.19 1317.23 7735.6C1323.52 7731.01 1332.46 7732.46 1337.05 7738.99L1634.28 8155.6V7349.92C1634.28 7342.19 1640.56 7335.66 1648.54 7335.66C1656.51 7335.66 1662.8 7341.95 1662.8 7349.92V8199.82C1662.8 8206.1 1658.68 8211.42 1652.88 8213.35C1647.09 8215.29 1640.56 8213.11 1636.94 8208.04L1314.09 7755.42H1313.85Z" fill="#1E353C"/>
<path d="M974.092 8211.42C967.809 8206.83 966.359 8197.89 970.95 8191.6L1468.99 7512.31C1473.58 7506.03 1482.52 7504.58 1488.8 7509.17C1495.09 7513.76 1496.54 7522.7 1491.95 7528.99L993.907 8208.28C989.316 8214.56 980.374 8216.01 974.092 8211.42Z" fill="#1E353C"/>
<path d="M1033.3 7794.32C1037.89 7800.61 1036.44 7809.55 1029.91 7814.14C1023.63 7818.73 1014.69 7817.28 1010.09 7810.76L712.868 7394.14V8199.82C712.868 8207.55 706.583 8214.08 698.609 8214.08C690.634 8214.08 684.354 8207.79 684.354 8199.82V7349.92C684.354 7343.64 688.459 7338.32 694.259 7336.39C700.059 7334.45 706.586 7336.63 710.21 7341.7L1033.05 7794.32H1033.3Z" fill="#1E353C"/>
<path d="M1373.05 7338.56C1379.34 7343.16 1380.79 7352.1 1376.19 7358.38L878.154 8037.67C873.563 8043.95 864.622 8045.4 858.339 8040.81C852.056 8036.22 850.606 8027.28 855.197 8021L1353.24 7341.71C1357.83 7335.42 1366.77 7333.97 1373.05 7338.56Z" fill="#1E353C"/>
<path d="M1313.85 7755.42C1309.26 7749.13 1310.71 7740.19 1317.23 7735.6C1323.52 7731.01 1332.46 7732.46 1337.05 7738.99L1634.28 8155.6V7349.92C1634.28 7342.19 1640.56 7335.66 1648.54 7335.66C1656.51 7335.66 1662.8 7341.95 1662.8 7349.92V8199.82C1662.8 8206.1 1658.68 8211.42 1652.88 8213.35C1647.09 8215.29 1640.56 8213.11 1636.94 8208.04L1314.09 7755.42H1313.85Z" fill="#1E353C"/>
<path d="M974.092 8211.42C967.809 8206.83 966.359 8197.89 970.95 8191.6L1468.99 7512.31C1473.58 7506.03 1482.52 7504.58 1488.8 7509.17C1495.09 7513.76 1496.54 7522.7 1491.95 7528.99L993.907 8208.28C989.316 8214.56 980.374 8216.01 974.092 8211.42Z" fill="#1E353C"/>
<path d="M1033.3 8644.46C1037.89 8650.75 1036.44 8659.69 1029.91 8664.28C1023.63 8668.87 1014.69 8667.42 1010.09 8660.9L712.868 8244.28V9049.96C712.868 9057.69 706.583 9064.22 698.609 9064.22C690.634 9064.22 684.354 9057.93 684.354 9049.96V8200.06C684.354 8193.78 688.459 8188.46 694.259 8186.53C700.059 8184.6 706.586 8186.77 710.21 8191.84L1033.05 8644.46H1033.3Z" fill="#1E353C"/>
<path d="M1373.05 8188.7C1379.34 8193.3 1380.79 8202.24 1376.19 8208.52L878.154 8887.81C873.563 8894.09 864.622 8895.54 858.339 8890.95C852.056 8886.36 850.606 8877.42 855.197 8871.14L1353.24 8191.85C1357.83 8185.56 1366.77 8184.11 1373.05 8188.7Z" fill="#1E353C"/>
<path d="M1313.85 8605.56C1309.26 8599.28 1310.71 8590.33 1317.23 8585.74C1323.52 8581.15 1332.46 8582.6 1337.05 8589.13L1634.28 9005.74V8200.06C1634.28 8192.33 1640.56 8185.8 1648.54 8185.8C1656.51 8185.8 1662.8 8192.09 1662.8 8200.06V9049.96C1662.8 9056.24 1658.68 9061.56 1652.88 9063.49C1647.09 9065.43 1640.56 9063.25 1636.94 9058.18L1314.09 8605.56H1313.85Z" fill="#1E353C"/>
<path d="M974.092 9061.56C967.809 9056.97 966.359 9048.03 970.95 9041.74L1468.99 8362.45C1473.58 8356.17 1482.52 8354.72 1488.8 8359.31C1495.09 8363.9 1496.54 8372.84 1491.95 8379.13L993.907 9058.42C989.316 9064.7 980.374 9066.15 974.092 9061.56Z" fill="#1E353C"/>
<path d="M1033.3 8644.46C1037.89 8650.75 1036.44 8659.69 1029.91 8664.28C1023.63 8668.87 1014.69 8667.42 1010.09 8660.9L712.868 8244.28V9049.96C712.868 9057.69 706.583 9064.22 698.609 9064.22C690.634 9064.22 684.354 9057.93 684.354 9049.96V8200.06C684.354 8193.78 688.459 8188.46 694.259 8186.53C700.059 8184.6 706.586 8186.77 710.21 8191.84L1033.05 8644.46H1033.3Z" fill="#1E353C"/>
<path d="M1373.05 8188.7C1379.34 8193.3 1380.79 8202.24 1376.19 8208.52L878.154 8887.81C873.563 8894.09 864.622 8895.54 858.339 8890.95C852.056 8886.36 850.606 8877.42 855.197 8871.14L1353.24 8191.85C1357.83 8185.56 1366.77 8184.11 1373.05 8188.7Z" fill="#1E353C"/>
<path d="M1313.85 8605.56C1309.26 8599.28 1310.71 8590.33 1317.23 8585.74C1323.52 8581.15 1332.46 8582.6 1337.05 8589.13L1634.28 9005.74V8200.06C1634.28 8192.33 1640.56 8185.8 1648.54 8185.8C1656.51 8185.8 1662.8 8192.09 1662.8 8200.06V9049.96C1662.8 9056.24 1658.68 9061.56 1652.88 9063.49C1647.09 9065.43 1640.56 9063.25 1636.94 9058.18L1314.09 8605.56H1313.85Z" fill="#1E353C"/>
<path d="M974.092 9061.56C967.809 9056.97 966.359 9048.03 970.95 9041.74L1468.99 8362.45C1473.58 8356.17 1482.52 8354.72 1488.8 8359.31C1495.09 8363.9 1496.54 8372.84 1491.95 8379.13L993.907 9058.42C989.316 9064.7 980.374 9066.15 974.092 9061.56Z" fill="#1E353C"/>
<path d="M1033.3 9494.85C1037.89 9501.13 1036.44 9510.07 1029.91 9514.66C1023.63 9519.25 1014.69 9517.8 1010.09 9511.28L712.868 9094.67V9900.34C712.868 9908.08 706.583 9914.6 698.609 9914.6C690.634 9914.6 684.354 9908.32 684.354 9900.34V9050.44C684.354 9044.16 688.459 9038.84 694.259 9036.91C700.059 9034.98 706.586 9037.15 710.21 9042.23L1033.05 9494.85H1033.3Z" fill="#1E353C"/>
<path d="M1373.05 9038.84C1379.34 9043.44 1380.79 9052.38 1376.19 9058.66L878.154 9737.95C873.563 9744.23 864.622 9745.68 858.339 9741.09C852.056 9736.5 850.606 9727.56 855.197 9721.28L1353.24 9041.99C1357.83 9035.7 1366.77 9034.25 1373.05 9038.84Z" fill="#1E353C"/>
<path d="M1313.85 9455.7C1309.26 9449.42 1310.71 9440.47 1317.23 9435.88C1323.52 9431.29 1332.46 9432.74 1337.05 9439.27L1634.28 9855.88V9050.2C1634.28 9042.47 1640.56 9035.94 1648.54 9035.94C1656.51 9035.94 1662.8 9042.23 1662.8 9050.2V9900.1C1662.8 9906.38 1658.68 9911.7 1652.88 9913.63C1647.09 9915.57 1640.56 9913.39 1636.94 9908.32L1314.09 9455.7H1313.85Z" fill="#1E353C"/>
<path d="M974.092 9911.7C967.809 9907.11 966.359 9898.17 970.95 9891.89L1468.99 9212.59C1473.58 9206.31 1482.52 9204.86 1488.8 9209.45C1495.09 9214.04 1496.54 9222.99 1491.95 9229.27L993.907 9908.56C989.316 9914.84 980.374 9916.29 974.092 9911.7Z" fill="#1E353C"/>
<path d="M1033.3 9494.85C1037.89 9501.13 1036.44 9510.07 1029.91 9514.66C1023.63 9519.25 1014.69 9517.8 1010.09 9511.28L712.868 9094.67V9900.34C712.868 9908.08 706.583 9914.6 698.609 9914.6C690.634 9914.6 684.354 9908.32 684.354 9900.34V9050.44C684.354 9044.16 688.459 9038.84 694.259 9036.91C700.059 9034.98 706.586 9037.15 710.21 9042.23L1033.05 9494.85H1033.3Z" fill="#1E353C"/>
<path d="M1373.05 9038.84C1379.34 9043.44 1380.79 9052.38 1376.19 9058.66L878.154 9737.95C873.563 9744.23 864.622 9745.68 858.339 9741.09C852.056 9736.5 850.606 9727.56 855.197 9721.28L1353.24 9041.99C1357.83 9035.7 1366.77 9034.25 1373.05 9038.84Z" fill="#1E353C"/>
<path d="M1313.85 9455.7C1309.26 9449.42 1310.71 9440.47 1317.23 9435.88C1323.52 9431.29 1332.46 9432.74 1337.05 9439.27L1634.28 9855.88V9050.2C1634.28 9042.47 1640.56 9035.94 1648.54 9035.94C1656.51 9035.94 1662.8 9042.23 1662.8 9050.2V9900.1C1662.8 9906.38 1658.68 9911.7 1652.88 9913.63C1647.09 9915.57 1640.56 9913.39 1636.94 9908.32L1314.09 9455.7H1313.85Z" fill="#1E353C"/>
<path d="M974.092 9911.7C967.809 9907.11 966.359 9898.17 970.95 9891.89L1468.99 9212.59C1473.58 9206.31 1482.52 9204.86 1488.8 9209.45C1495.09 9214.04 1496.54 9222.99 1491.95 9229.27L993.907 9908.56C989.316 9914.84 980.374 9916.29 974.092 9911.7Z" fill="#1E353C"/>
</g>
<path opacity="0.3" d="M2325.39 2416.06C2325.39 1779.98 1809.76 1264.34 1173.69 1264.34C537.624 1264.34 21.988 1779.98 21.988 2416.06V3687.65C21.988 4323.73 537.624 4839.37 1173.69 4839.37C1809.76 4839.37 2325.39 4323.73 2325.39 3687.65V2416.06Z" stroke="#1E353C" stroke-width="0.34" stroke-miterlimit="10"/>
<path d="M2286.97 2425.97C2286.97 1811.11 1788.54 1312.67 1173.69 1312.67C558.843 1312.67 60.4124 1811.11 60.4124 2425.97V3677.26C60.4124 4292.12 558.843 4790.56 1173.69 4790.56C1788.54 4790.56 2286.97 4292.12 2286.97 3677.26V2425.97Z" fill="#1E353C"/>
<path d="M470.5 2213H509.5C542 2213 555 2200 555 2167.5V2128.5C555 2096 542 2083 509.5 2083H470.5C438 2083 425 2096 425 2128.5V2167.5C425 2200 438 2213 470.5 2213Z" stroke="#D2D7D8" stroke-width="15" stroke-linecap="round" stroke-linejoin="round"/>
<path d="M490 2170.75C502.564 2170.75 512.75 2160.56 512.75 2148C512.75 2135.44 502.564 2125.25 490 2125.25C477.436 2125.25 467.25 2135.44 467.25 2148C467.25 2160.56 477.436 2170.75 490 2170.75Z" stroke="#D2D7D8" stroke-width="15" stroke-linecap="round" stroke-linejoin="round"/>
<path d="M526.635 2115.5H526.71" stroke="#D2D7D8" stroke-width="15" stroke-linecap="round" stroke-linejoin="round"/>
<path d="M669.75 2179.1H622.05L612.9 2204H601.8L640.05 2100.5H651.9L690 2204H678.9L669.75 2179.1ZM666.6 2170.4L645.9 2113.7L625.2 2170.4H666.6ZM809.302 2100.5V2204H798.802V2121.35L761.902 2204H754.252L717.352 2121.65V2204H706.852V2100.5H717.952L758.002 2190.2L798.052 2100.5H809.302ZM843.621 2099.15V2204H833.121V2099.15H843.621ZM923.198 2204L897.248 2160.2H877.898V2204H867.398V2099.15H898.898C910.598 2099.15 919.448 2101.95 925.448 2107.55C931.548 2113.15 934.598 2120.5 934.598 2129.6C934.598 2137.2 932.398 2143.7 927.998 2149.1C923.698 2154.4 917.298 2157.85 908.798 2159.45L935.798 2204H923.198ZM877.898 2151.65H899.048C907.248 2151.65 913.398 2149.65 917.498 2145.65C921.698 2141.65 923.798 2136.3 923.798 2129.6C923.798 2122.7 921.798 2117.4 917.798 2113.7C913.798 2109.9 907.498 2108 898.898 2108H877.898V2151.65ZM1016.19 2179.1H968.486L959.336 2204H948.236L986.486 2100.5H998.336L1036.44 2204H1025.34L1016.19 2179.1ZM1013.04 2170.4L992.336 2113.7L971.636 2170.4H1013.04ZM1132.34 2204H1121.84L1063.79 2115.8V2204H1053.29V2099.15H1063.79L1121.84 2187.2V2099.15H1132.34V2204ZM1238.62 2129.75C1235.62 2122.85 1231.02 2117.45 1224.82 2113.55C1218.72 2109.55 1211.52 2107.55 1203.22 2107.55C1195.42 2107.55 1188.42 2109.35 1182.22 2112.95C1176.02 2116.55 1171.12 2121.7 1167.52 2128.4C1163.92 2135 1162.12 2142.7 1162.12 2151.5C1162.12 2160.3 1163.92 2168.05 1167.52 2174.75C1171.12 2181.45 1176.02 2186.6 1182.22 2190.2C1188.42 2193.8 1195.42 2195.6 1203.22 2195.6C1210.52 2195.6 1217.07 2194.05 1222.87 2190.95C1228.77 2187.75 1233.47 2183.25 1236.97 2177.45C1240.57 2171.55 1242.62 2164.7 1243.12 2156.9H1199.02V2148.35H1254.22V2156C1253.72 2165.2 1251.22 2173.55 1246.72 2181.05C1242.22 2188.45 1236.17 2194.3 1228.57 2198.6C1221.07 2202.9 1212.62 2205.05 1203.22 2205.05C1193.52 2205.05 1184.72 2202.8 1176.82 2198.3C1168.92 2193.7 1162.67 2187.35 1158.07 2179.25C1153.57 2171.05 1151.32 2161.8 1151.32 2151.5C1151.32 2141.2 1153.57 2132 1158.07 2123.9C1162.67 2115.7 1168.92 2109.35 1176.82 2104.85C1184.72 2100.25 1193.52 2097.95 1203.22 2097.95C1214.42 2097.95 1224.22 2100.75 1232.62 2106.35C1241.02 2111.95 1247.12 2119.75 1250.92 2129.75H1238.62ZM1329.25 2204L1303.3 2160.2H1283.95V2204H1273.45V2099.15H1304.95C1316.65 2099.15 1325.5 2101.95 1331.5 2107.55C1337.6 2113.15 1340.65 2120.5 1340.65 2129.6C1340.65 2137.2 1338.45 2143.7 1334.05 2149.1C1329.75 2154.4 1323.35 2157.85 1314.85 2159.45L1341.85 2204H1329.25ZM1283.95 2151.65H1305.1C1313.3 2151.65 1319.45 2149.65 1323.55 2145.65C1327.75 2141.65 1329.85 2136.3 1329.85 2129.6C1329.85 2122.7 1327.85 2117.4 1323.85 2113.7C1319.85 2109.9 1313.55 2108 1304.95 2108H1283.95V2151.65ZM1408.59 2205.05C1398.89 2205.05 1390.09 2202.8 1382.19 2198.3C1374.29 2193.7 1368.04 2187.35 1363.44 2179.25C1358.94 2171.05 1356.69 2161.8 1356.69 2151.5C1356.69 2141.2 1358.94 2132 1363.44 2123.9C1368.04 2115.7 1374.29 2109.35 1382.19 2104.85C1390.09 2100.25 1398.89 2097.95 1408.59 2097.95C1418.39 2097.95 1427.24 2100.25 1435.14 2104.85C1443.04 2109.35 1449.24 2115.7 1453.74 2123.9C1458.24 2132 1460.49 2141.2 1460.49 2151.5C1460.49 2161.8 1458.24 2171.05 1453.74 2179.25C1449.24 2187.35 1443.04 2193.7 1435.14 2198.3C1427.24 2202.8 1418.39 2205.05 1408.59 2205.05ZM1408.59 2195.9C1416.39 2195.9 1423.39 2194.1 1429.59 2190.5C1435.79 2186.9 1440.69 2181.75 1444.29 2175.05C1447.89 2168.25 1449.69 2160.4 1449.69 2151.5C1449.69 2142.6 1447.89 2134.8 1444.29 2128.1C1440.69 2121.4 1435.79 2116.25 1429.59 2112.65C1423.39 2109.05 1416.39 2107.25 1408.59 2107.25C1400.79 2107.25 1393.79 2109.05 1387.59 2112.65C1381.39 2116.25 1376.49 2121.4 1372.89 2128.1C1369.29 2134.8 1367.49 2142.6 1367.49 2151.5C1367.49 2160.4 1369.29 2168.25 1372.89 2175.05C1376.49 2181.75 1381.39 2186.9 1387.59 2190.5C1393.79 2194.1 1400.79 2195.9 1408.59 2195.9ZM1489.75 2099.15V2165.15C1489.75 2175.55 1492.2 2183.25 1497.1 2188.25C1502.1 2193.25 1508.9 2195.75 1517.5 2195.75C1526.1 2195.75 1532.8 2193.3 1537.6 2188.4C1542.5 2183.4 1544.95 2175.65 1544.95 2165.15V2099.15H1555.45V2165C1555.45 2178.3 1551.9 2188.3 1544.8 2195C1537.8 2201.7 1528.65 2205.05 1517.35 2205.05C1506.05 2205.05 1496.85 2201.7 1489.75 2195C1482.75 2188.3 1479.25 2178.3 1479.25 2165V2099.15H1489.75ZM1645.92 2129.3C1645.92 2138.3 1642.97 2145.55 1637.07 2151.05C1631.17 2156.55 1622.32 2159.3 1610.52 2159.3H1589.37V2204H1578.87V2099.15H1610.52C1622.22 2099.15 1631.02 2101.9 1636.92 2107.4C1642.92 2112.9 1645.92 2120.2 1645.92 2129.3ZM1610.52 2150.3C1626.92 2150.3 1635.12 2143.3 1635.12 2129.3C1635.12 2122.3 1633.17 2117 1629.27 2113.4C1625.37 2109.8 1619.12 2108 1610.52 2108H1589.37V2150.3H1610.52ZM1665.34 2204.75C1663.14 2204.75 1661.29 2204 1659.79 2202.5C1658.39 2201 1657.69 2199.15 1657.69 2196.95C1657.69 2194.75 1658.39 2192.95 1659.79 2191.55C1661.29 2190.05 1663.14 2189.3 1665.34 2189.3C1667.44 2189.3 1669.19 2190.05 1670.59 2191.55C1672.09 2192.95 1672.84 2194.75 1672.84 2196.95C1672.84 2199.15 1672.09 2201 1670.59 2202.5C1669.19 2204 1667.44 2204.75 1665.34 2204.75ZM1685.99 2151.5C1685.99 2141.2 1688.24 2132 1692.74 2123.9C1697.24 2115.7 1703.39 2109.35 1711.19 2104.85C1718.99 2100.25 1727.69 2097.95 1737.29 2097.95C1748.99 2097.95 1758.99 2100.75 1767.29 2106.35C1775.69 2111.85 1781.79 2119.65 1785.59 2129.75H1773.29C1770.29 2122.65 1765.69 2117.1 1759.49 2113.1C1753.39 2109.1 1745.99 2107.1 1737.29 2107.1C1729.59 2107.1 1722.64 2108.9 1716.44 2112.5C1710.34 2116.1 1705.54 2121.3 1702.04 2128.1C1698.54 2134.8 1696.79 2142.6 1696.79 2151.5C1696.79 2160.4 1698.54 2168.2 1702.04 2174.9C1705.54 2181.6 1710.34 2186.75 1716.44 2190.35C1722.64 2193.95 1729.59 2195.75 1737.29 2195.75C1745.99 2195.75 1753.39 2193.8 1759.49 2189.9C1765.69 2185.9 1770.29 2180.4 1773.29 2173.4H1785.59C1781.79 2183.4 1775.69 2191.15 1767.29 2196.65C1758.89 2202.15 1748.89 2204.9 1737.29 2204.9C1727.69 2204.9 1718.99 2202.65 1711.19 2198.15C1703.39 2193.55 1697.24 2187.2 1692.74 2179.1C1688.24 2171 1685.99 2161.8 1685.99 2151.5ZM1853.61 2205.05C1843.91 2205.05 1835.11 2202.8 1827.21 2198.3C1819.31 2193.7 1813.06 2187.35 1808.46 2179.25C1803.96 2171.05 1801.71 2161.8 1801.71 2151.5C1801.71 2141.2 1803.96 2132 1808.46 2123.9C1813.06 2115.7 1819.31 2109.35 1827.21 2104.85C1835.11 2100.25 1843.91 2097.95 1853.61 2097.95C1863.41 2097.95 1872.26 2100.25 1880.16 2104.85C1888.06 2109.35 1894.26 2115.7 1898.76 2123.9C1903.26 2132 1905.51 2141.2 1905.51 2151.5C1905.51 2161.8 1903.26 2171.05 1898.76 2179.25C1894.26 2187.35 1888.06 2193.7 1880.16 2198.3C1872.26 2202.8 1863.41 2205.05 1853.61 2205.05ZM1853.61 2195.9C1861.41 2195.9 1868.41 2194.1 1874.61 2190.5C1880.81 2186.9 1885.71 2181.75 1889.31 2175.05C1892.91 2168.25 1894.71 2160.4 1894.71 2151.5C1894.71 2142.6 1892.91 2134.8 1889.31 2128.1C1885.71 2121.4 1880.81 2116.25 1874.61 2112.65C1868.41 2109.05 1861.41 2107.25 1853.61 2107.25C1845.81 2107.25 1838.81 2109.05 1832.61 2112.65C1826.41 2116.25 1821.51 2121.4 1817.91 2128.1C1814.31 2134.8 1812.51 2142.6 1812.51 2151.5C1812.51 2160.4 1814.31 2168.25 1817.91 2175.05C1821.51 2181.75 1826.41 2186.9 1832.61 2190.5C1838.81 2194.1 1845.81 2195.9 1853.61 2195.9Z" fill="#D2D7D8"/>
<path d="M542.158 4032.92C542.158 4035.02 541.692 4037.18 540.7 4039.28C539.708 4041.38 538.425 4043.37 536.733 4045.23C533.875 4048.38 530.725 4050.66 527.167 4052.12C523.667 4053.57 519.875 4054.33 515.792 4054.33C509.842 4054.33 503.483 4052.93 496.775 4050.07C490.067 4047.22 483.358 4043.37 476.708 4038.52C470 4033.62 463.642 4028.2 457.575 4022.19C451.567 4016.12 446.142 4009.77 441.3 4003.12C436.517 3996.47 432.667 3989.82 429.867 3983.22C427.067 3976.57 425.667 3970.22 425.667 3964.15C425.667 3960.18 426.367 3956.39 427.767 3952.89C429.167 3949.33 431.383 3946.07 434.475 3943.15C438.208 3939.47 442.292 3937.67 446.608 3937.67C448.242 3937.67 449.875 3938.02 451.333 3938.72C452.85 3939.42 454.192 3940.47 455.242 3941.98L468.775 3961.06C469.825 3962.52 470.583 3963.86 471.108 3965.14C471.633 3966.37 471.925 3967.59 471.925 3968.7C471.925 3970.1 471.517 3971.5 470.7 3972.84C469.942 3974.18 468.833 3975.58 467.433 3976.98L463 3981.59C462.358 3982.23 462.067 3982.99 462.067 3983.92C462.067 3984.39 462.125 3984.8 462.242 3985.27C462.417 3985.73 462.592 3986.08 462.708 3986.43C463.758 3988.36 465.567 3990.87 468.133 3993.9C470.758 3996.93 473.558 4000.02 476.592 4003.12C479.742 4006.21 482.775 4009.07 485.867 4011.69C488.9 4014.26 491.408 4016.01 493.392 4017.06C493.683 4017.17 494.033 4017.35 494.442 4017.52C494.908 4017.7 495.375 4017.76 495.9 4017.76C496.892 4017.76 497.65 4017.41 498.292 4016.77L502.725 4012.39C504.183 4010.93 505.583 4009.82 506.925 4009.12C508.267 4008.31 509.608 4007.9 511.067 4007.9C512.175 4007.9 513.342 4008.13 514.625 4008.66C515.908 4009.18 517.25 4009.94 518.708 4010.93L538.017 4024.64C539.533 4025.69 540.583 4026.92 541.225 4028.37C541.808 4029.83 542.158 4031.29 542.158 4032.92Z" stroke="#D2D7D8" stroke-width="10" stroke-miterlimit="10"/>
<path d="M649.45 3997H616V4030.75H606.25V3997H572.95V3988H606.25V3954.25H616V3988H649.45V3997ZM683.991 4019.35C685.091 4025.85 687.591 4030.85 691.491 4034.35C695.391 4037.85 700.741 4039.6 707.541 4039.6C716.941 4039.6 723.891 4035.95 728.391 4028.65C732.991 4021.25 735.091 4009.05 734.691 3992.05C732.791 3997.55 729.141 4001.9 723.741 4005.1C718.441 4008.2 712.341 4009.75 705.441 4009.75C694.941 4009.75 686.491 4006.6 680.091 4000.3C673.791 3994 670.641 3985.25 670.641 3974.05C670.641 3967.35 671.941 3961.3 674.541 3955.9C677.141 3950.5 681.091 3946.25 686.391 3943.15C691.691 3940.05 698.191 3938.5 705.891 3938.5C720.091 3938.5 729.991 3943.15 735.591 3952.45C741.191 3961.65 743.991 3974.9 743.991 3992.2C743.991 4010.9 741.191 4024.95 735.591 4034.35C730.091 4043.75 720.591 4048.45 707.091 4048.45C697.191 4048.45 689.491 4045.8 683.991 4040.5C678.491 4035.1 675.241 4028.05 674.241 4019.35H683.991ZM707.091 4000.75C711.791 4000.75 716.091 3999.8 719.991 3997.9C723.991 3995.9 727.191 3993 729.591 3989.2C731.991 3985.4 733.191 3980.85 733.191 3975.55C733.191 3967.35 730.841 3960.6 726.141 3955.3C721.541 3950 714.891 3947.35 706.191 3947.35C698.491 3947.35 692.291 3949.75 687.591 3954.55C682.991 3959.35 680.691 3965.75 680.691 3973.75C680.691 3982.15 682.991 3988.75 687.591 3993.55C692.191 3998.35 698.691 4000.75 707.091 4000.75ZM784.641 3992.2C778.441 3990.2 773.691 3987.05 770.391 3982.75C767.191 3978.45 765.591 3973.25 765.591 3967.15C765.591 3961.75 766.941 3956.95 769.641 3952.75C772.441 3948.45 776.491 3945.1 781.791 3942.7C787.091 3940.2 793.441 3938.95 800.841 3938.95C808.241 3938.95 814.591 3940.2 819.891 3942.7C825.191 3945.1 829.191 3948.45 831.891 3952.75C834.691 3956.95 836.091 3961.75 836.091 3967.15C836.091 3973.15 834.441 3978.35 831.141 3982.75C827.941 3987.15 823.241 3990.3 817.041 3992.2C823.841 3993.9 829.191 3997.15 833.091 4001.95C836.991 4006.75 838.941 4012.6 838.941 4019.5C838.941 4025.9 837.341 4031.5 834.141 4036.3C831.041 4041 826.591 4044.65 820.791 4047.25C815.091 4049.85 808.441 4051.15 800.841 4051.15C793.241 4051.15 786.541 4049.85 780.741 4047.25C775.041 4044.65 770.591 4041 767.391 4036.3C764.291 4031.5 762.741 4025.9 762.741 4019.5C762.741 4012.6 764.691 4006.75 768.591 4001.95C772.491 3997.15 777.841 3993.9 784.641 3992.2ZM825.891 3968.35C825.891 3961.75 823.641 3956.65 819.141 3953.05C814.641 3949.45 808.541 3947.65 800.841 3947.65C793.141 3947.65 787.041 3949.45 782.541 3953.05C778.041 3956.55 775.791 3961.65 775.791 3968.35C775.791 3974.55 778.091 3979.5 782.691 3983.2C787.291 3986.9 793.341 3988.75 800.841 3988.75C808.341 3988.75 814.391 3986.9 818.991 3983.2C823.591 3979.5 825.891 3974.55 825.891 3968.35ZM800.841 3996.85C792.641 3996.85 785.941 3998.7 780.741 4002.4C775.541 4006.1 772.941 4011.7 772.941 4019.2C772.941 4026.4 775.441 4032.05 780.441 4036.15C785.441 4040.25 792.241 4042.3 800.841 4042.3C809.341 4042.3 816.091 4040.25 821.091 4036.15C826.091 4031.95 828.591 4026.3 828.591 4019.2C828.591 4011.8 825.991 4006.25 820.791 4002.55C815.691 3998.75 809.041 3996.85 800.841 3996.85ZM910.495 3988V3996.85H852.145V3988H910.495ZM935.178 3993.25C935.178 3976.05 937.828 3962.7 943.128 3953.2C948.428 3943.7 957.928 3938.95 971.628 3938.95C985.328 3938.95 994.828 3943.7 1000.13 3953.2C1005.43 3962.7 1008.08 3976.05 1008.08 3993.25C1008.08 4010.75 1005.43 4024.3 1000.13 4033.9C994.828 4043.5 985.328 4048.3 971.628 4048.3C957.828 4048.3 948.278 4043.5 942.978 4033.9C937.778 4024.3 935.178 4010.75 935.178 3993.25ZM997.728 3993.25C997.728 3983.95 997.078 3976.1 995.778 3969.7C994.478 3963.3 991.928 3958.15 988.128 3954.25C984.328 3950.35 978.828 3948.4 971.628 3948.4C964.428 3948.4 958.928 3950.35 955.128 3954.25C951.328 3958.15 948.778 3963.3 947.478 3969.7C946.178 3976.1 945.528 3983.95 945.528 3993.25C945.528 4002.85 946.178 4010.9 947.478 4017.4C948.778 4023.8 951.328 4028.95 955.128 4032.85C958.928 4036.75 964.428 4038.7 971.628 4038.7C978.828 4038.7 984.328 4036.75 988.128 4032.85C991.928 4028.95 994.478 4023.8 995.778 4017.4C997.078 4010.9 997.728 4002.85 997.728 3993.25ZM1025.51 4039.75C1043.91 4025.95 1058.11 4013.6 1068.11 4002.7C1078.21 3991.7 1083.26 3980.95 1083.26 3970.45C1083.26 3963.55 1081.51 3958.05 1078.01 3953.95C1074.61 3949.75 1069.01 3947.65 1061.21 3947.65C1053.61 3947.65 1047.71 3950.05 1043.51 3954.85C1039.41 3959.55 1037.11 3965.85 1036.61 3973.75H1026.41C1027.01 3962.65 1030.41 3954.05 1036.61 3947.95C1042.91 3941.75 1051.11 3938.65 1061.21 3938.65C1070.91 3938.65 1078.76 3941.4 1084.76 3946.9C1090.76 3952.3 1093.76 3960 1093.76 3970C1093.76 3982.1 1088.71 3993.85 1078.61 4005.25C1068.61 4016.55 1056.26 4027.6 1041.56 4038.4H1097.06V4047.25H1025.51V4039.75ZM1181.25 3949.45H1126.35V3987.85C1128.85 3984.35 1132.5 3981.5 1137.3 3979.3C1142.1 3977 1147.3 3975.85 1152.9 3975.85C1161.1 3975.85 1167.8 3977.55 1173 3980.95C1178.2 3984.25 1181.95 3988.6 1184.25 3994C1186.55 3999.3 1187.7 4005 1187.7 4011.1C1187.7 4018.1 1186.35 4024.45 1183.65 4030.15C1181.05 4035.75 1177 4040.2 1171.5 4043.5C1166.1 4046.8 1159.35 4048.45 1151.25 4048.45C1140.95 4048.45 1132.6 4045.8 1126.2 4040.5C1119.8 4035.1 1115.9 4027.85 1114.5 4018.75H1124.85C1126.15 4025.35 1129.15 4030.45 1133.85 4034.05C1138.55 4037.65 1144.35 4039.45 1151.25 4039.45C1159.95 4039.45 1166.5 4036.9 1170.9 4031.8C1175.4 4026.6 1177.65 4019.75 1177.65 4011.25C1177.65 4002.95 1175.4 3996.5 1170.9 3991.9C1166.4 3987.2 1159.95 3984.85 1151.55 3984.85C1145.75 3984.85 1140.65 3986.2 1136.25 3988.9C1131.85 3991.6 1128.6 3995.25 1126.5 3999.85H1116.6V3940.3H1181.25V3949.45ZM1205.58 3967.9C1206.28 3958.8 1209.78 3951.65 1216.08 3946.45C1222.48 3941.15 1230.73 3938.5 1240.83 3938.5C1247.53 3938.5 1253.28 3939.7 1258.08 3942.1C1262.88 3944.5 1266.48 3947.8 1268.88 3952C1271.38 3956.1 1272.63 3960.75 1272.63 3965.95C1272.63 3972.25 1270.78 3977.7 1267.08 3982.3C1263.38 3986.9 1258.13 3989.75 1251.33 3990.85V3991.6C1258.43 3993 1264.08 3996.1 1268.28 4000.9C1272.48 4005.6 1274.58 4011.8 1274.58 4019.5C1274.58 4028.1 1271.68 4035.15 1265.88 4040.65C1260.18 4046.05 1251.88 4048.75 1240.98 4048.75C1230.58 4048.75 1222.03 4046.05 1215.33 4040.65C1208.63 4035.15 1204.78 4027.4 1203.78 4017.4H1213.98C1214.88 4024.1 1217.68 4029.55 1222.38 4033.75C1227.08 4037.85 1233.28 4039.9 1240.98 4039.9C1248.58 4039.9 1254.38 4037.9 1258.38 4033.9C1262.48 4029.9 1264.53 4024.8 1264.53 4018.6C1264.53 4003.4 1253.58 3995.8 1231.68 3995.8H1228.38V3986.95H1231.83C1252.23 3986.95 1262.43 3980.3 1262.43 3967C1262.43 3961.2 1260.53 3956.55 1256.73 3953.05C1252.93 3949.45 1247.53 3947.65 1240.53 3947.65C1233.73 3947.65 1228.08 3949.45 1223.58 3953.05C1219.18 3956.55 1216.58 3961.5 1215.78 3967.9H1205.58ZM1291.67 4039.75C1310.07 4025.95 1324.27 4013.6 1334.27 4002.7C1344.37 3991.7 1349.42 3980.95 1349.42 3970.45C1349.42 3963.55 1347.67 3958.05 1344.17 3953.95C1340.77 3949.75 1335.17 3947.65 1327.37 3947.65C1319.77 3947.65 1313.87 3950.05 1309.67 3954.85C1305.57 3959.55 1303.27 3965.85 1302.77 3973.75H1292.57C1293.17 3962.65 1296.57 3954.05 1302.77 3947.95C1309.07 3941.75 1317.27 3938.65 1327.37 3938.65C1337.07 3938.65 1344.92 3941.4 1350.92 3946.9C1356.92 3952.3 1359.92 3960 1359.92 3970C1359.92 3982.1 1354.87 3993.85 1344.77 4005.25C1334.77 4016.55 1322.42 4027.6 1307.72 4038.4H1363.22V4047.25H1291.67V4039.75ZM1393.56 4019.35C1394.66 4025.85 1397.16 4030.85 1401.06 4034.35C1404.96 4037.85 1410.31 4039.6 1417.11 4039.6C1426.51 4039.6 1433.46 4035.95 1437.96 4028.65C1442.56 4021.25 1444.66 4009.05 1444.26 3992.05C1442.36 3997.55 1438.71 4001.9 1433.31 4005.1C1428.01 4008.2 1421.91 4009.75 1415.01 4009.75C1404.51 4009.75 1396.06 4006.6 1389.66 4000.3C1383.36 3994 1380.21 3985.25 1380.21 3974.05C1380.21 3967.35 1381.51 3961.3 1384.11 3955.9C1386.71 3950.5 1390.66 3946.25 1395.96 3943.15C1401.26 3940.05 1407.76 3938.5 1415.46 3938.5C1429.66 3938.5 1439.56 3943.15 1445.16 3952.45C1450.76 3961.65 1453.56 3974.9 1453.56 3992.2C1453.56 4010.9 1450.76 4024.95 1445.16 4034.35C1439.66 4043.75 1430.16 4048.45 1416.66 4048.45C1406.76 4048.45 1399.06 4045.8 1393.56 4040.5C1388.06 4035.1 1384.81 4028.05 1383.81 4019.35H1393.56ZM1416.66 4000.75C1421.36 4000.75 1425.66 3999.8 1429.56 3997.9C1433.56 3995.9 1436.76 3993 1439.16 3989.2C1441.56 3985.4 1442.76 3980.85 1442.76 3975.55C1442.76 3967.35 1440.41 3960.6 1435.71 3955.3C1431.11 3950 1424.46 3947.35 1415.76 3947.35C1408.06 3947.35 1401.86 3949.75 1397.16 3954.55C1392.56 3959.35 1390.26 3965.75 1390.26 3973.75C1390.26 3982.15 1392.56 3988.75 1397.16 3993.55C1401.76 3998.35 1408.26 4000.75 1416.66 4000.75ZM1468.71 4022.5V4014.55L1523.31 3941.05H1535.76V4013.35H1551.81V4022.5H1535.76V4048H1525.41V4022.5H1468.71ZM1525.86 3952.6L1480.86 4013.35H1525.86V3952.6ZM1564.9 3967.9C1565.6 3958.8 1569.1 3951.65 1575.4 3946.45C1581.8 3941.15 1590.05 3938.5 1600.15 3938.5C1606.85 3938.5 1612.6 3939.7 1617.4 3942.1C1622.2 3944.5 1625.8 3947.8 1628.2 3952C1630.7 3956.1 1631.95 3960.75 1631.95 3965.95C1631.95 3972.25 1630.1 3977.7 1626.4 3982.3C1622.7 3986.9 1617.45 3989.75 1610.65 3990.85V3991.6C1617.75 3993 1623.4 3996.1 1627.6 4000.9C1631.8 4005.6 1633.9 4011.8 1633.9 4019.5C1633.9 4028.1 1631 4035.15 1625.2 4040.65C1619.5 4046.05 1611.2 4048.75 1600.3 4048.75C1589.9 4048.75 1581.35 4046.05 1574.65 4040.65C1567.95 4035.15 1564.1 4027.4 1563.1 4017.4H1573.3C1574.2 4024.1 1577 4029.55 1581.7 4033.75C1586.4 4037.85 1592.6 4039.9 1600.3 4039.9C1607.9 4039.9 1613.7 4037.9 1617.7 4033.9C1621.8 4029.9 1623.85 4024.8 1623.85 4018.6C1623.85 4003.4 1612.9 3995.8 1591 3995.8H1587.7V3986.95H1591.15C1611.55 3986.95 1621.75 3980.3 1621.75 3967C1621.75 3961.2 1619.85 3956.55 1616.05 3953.05C1612.25 3949.45 1606.85 3947.65 1599.85 3947.65C1593.05 3947.65 1587.4 3949.45 1582.9 3953.05C1578.5 3956.55 1575.9 3961.5 1575.1 3967.9H1564.9ZM1648.45 4022.5V4014.55L1703.05 3941.05H1715.5V4013.35H1731.55V4022.5H1715.5V4048H1705.15V4022.5H1648.45ZM1705.6 3952.6L1660.6 4013.35H1705.6V3952.6ZM1742.99 4039.75C1761.39 4025.95 1775.59 4013.6 1785.59 4002.7C1795.69 3991.7 1800.74 3980.95 1800.74 3970.45C1800.74 3963.55 1798.99 3958.05 1795.49 3953.95C1792.09 3949.75 1786.49 3947.65 1778.69 3947.65C1771.09 3947.65 1765.19 3950.05 1760.99 3954.85C1756.89 3959.55 1754.59 3965.85 1754.09 3973.75H1743.89C1744.49 3962.65 1747.89 3954.05 1754.09 3947.95C1760.39 3941.75 1768.59 3938.65 1778.69 3938.65C1788.39 3938.65 1796.24 3941.4 1802.24 3946.9C1808.24 3952.3 1811.24 3960 1811.24 3970C1811.24 3982.1 1806.19 3993.85 1796.09 4005.25C1786.09 4016.55 1773.74 4027.6 1759.04 4038.4H1814.54V4047.25H1742.99V4039.75ZM1892.73 3966.7C1890.53 3953.7 1882.98 3947.2 1870.08 3947.2C1860.28 3947.2 1852.93 3951 1848.03 3958.6C1843.13 3966.2 1840.88 3978.65 1841.28 3995.95C1843.28 3989.95 1847.08 3985.25 1852.68 3981.85C1858.38 3978.35 1864.88 3976.6 1872.18 3976.6C1882.68 3976.6 1890.98 3979.85 1897.08 3986.35C1903.28 3992.75 1906.38 4001.6 1906.38 4012.9C1906.38 4019.5 1905.08 4025.5 1902.48 4030.9C1899.98 4036.2 1896.08 4040.45 1890.78 4043.65C1885.58 4046.85 1879.08 4048.45 1871.28 4048.45C1856.38 4048.45 1846.08 4043.7 1840.38 4034.2C1834.78 4024.7 1831.98 4011.25 1831.98 3993.85C1831.98 3956.85 1844.68 3938.35 1870.08 3938.35C1879.68 3938.35 1887.23 3941 1892.73 3946.3C1898.23 3951.5 1901.48 3958.3 1902.48 3966.7H1892.73ZM1870.23 3985.6C1865.53 3985.6 1861.08 3986.55 1856.88 3988.45C1852.68 3990.35 1849.23 3993.25 1846.53 3997.15C1843.93 4000.95 1842.63 4005.65 1842.63 4011.25C1842.63 4019.35 1845.03 4026.1 1849.83 4031.5C1854.63 4036.9 1861.63 4039.6 1870.83 4039.6C1878.53 4039.6 1884.68 4037.25 1889.28 4032.55C1893.88 4027.85 1896.18 4021.45 1896.18 4013.35C1896.18 4004.65 1893.93 3997.85 1889.43 3992.95C1884.93 3988.05 1878.53 3985.6 1870.23 3985.6Z" fill="#D2D7D8"/>
<path d="M542.158 3818.92C542.158 3821.02 541.692 3823.18 540.7 3825.28C539.708 3827.38 538.425 3829.37 536.733 3831.23C533.875 3834.38 530.725 3836.66 527.167 3838.12C523.667 3839.57 519.875 3840.33 515.792 3840.33C509.842 3840.33 503.483 3838.93 496.775 3836.07C490.067 3833.22 483.358 3829.37 476.708 3824.52C470 3819.62 463.642 3814.2 457.575 3808.19C451.567 3802.12 446.142 3795.77 441.3 3789.12C436.517 3782.47 432.667 3775.82 429.867 3769.22C427.067 3762.57 425.667 3756.22 425.667 3750.15C425.667 3746.18 426.367 3742.39 427.767 3738.89C429.167 3735.33 431.383 3732.07 434.475 3729.15C438.208 3725.47 442.292 3723.67 446.608 3723.67C448.242 3723.67 449.875 3724.02 451.333 3724.72C452.85 3725.42 454.192 3726.47 455.242 3727.98L468.775 3747.06C469.825 3748.52 470.583 3749.86 471.108 3751.14C471.633 3752.37 471.925 3753.59 471.925 3754.7C471.925 3756.1 471.517 3757.5 470.7 3758.84C469.942 3760.18 468.833 3761.58 467.433 3762.98L463 3767.59C462.358 3768.23 462.067 3768.99 462.067 3769.92C462.067 3770.39 462.125 3770.8 462.242 3771.27C462.417 3771.73 462.592 3772.08 462.708 3772.43C463.758 3774.36 465.567 3776.87 468.133 3779.9C470.758 3782.93 473.558 3786.02 476.592 3789.12C479.742 3792.21 482.775 3795.07 485.867 3797.69C488.9 3800.26 491.408 3802.01 493.392 3803.06C493.683 3803.17 494.033 3803.35 494.442 3803.52C494.908 3803.7 495.375 3803.76 495.9 3803.76C496.892 3803.76 497.65 3803.41 498.292 3802.77L502.725 3798.39C504.183 3796.93 505.583 3795.82 506.925 3795.12C508.267 3794.31 509.608 3793.9 511.067 3793.9C512.175 3793.9 513.342 3794.13 514.625 3794.66C515.908 3795.18 517.25 3795.94 518.708 3796.93L538.017 3810.64C539.533 3811.69 540.583 3812.92 541.225 3814.37C541.808 3815.83 542.158 3817.29 542.158 3818.92Z" stroke="#D2D7D8" stroke-width="10" stroke-miterlimit="10"/>
<path d="M649.45 3783H616V3816.75H606.25V3783H572.95V3774H606.25V3740.25H616V3774H649.45V3783ZM683.991 3805.35C685.091 3811.85 687.591 3816.85 691.491 3820.35C695.391 3823.85 700.741 3825.6 707.541 3825.6C716.941 3825.6 723.891 3821.95 728.391 3814.65C732.991 3807.25 735.091 3795.05 734.691 3778.05C732.791 3783.55 729.141 3787.9 723.741 3791.1C718.441 3794.2 712.341 3795.75 705.441 3795.75C694.941 3795.75 686.491 3792.6 680.091 3786.3C673.791 3780 670.641 3771.25 670.641 3760.05C670.641 3753.35 671.941 3747.3 674.541 3741.9C677.141 3736.5 681.091 3732.25 686.391 3729.15C691.691 3726.05 698.191 3724.5 705.891 3724.5C720.091 3724.5 729.991 3729.15 735.591 3738.45C741.191 3747.65 743.991 3760.9 743.991 3778.2C743.991 3796.9 741.191 3810.95 735.591 3820.35C730.091 3829.75 720.591 3834.45 707.091 3834.45C697.191 3834.45 689.491 3831.8 683.991 3826.5C678.491 3821.1 675.241 3814.05 674.241 3805.35H683.991ZM707.091 3786.75C711.791 3786.75 716.091 3785.8 719.991 3783.9C723.991 3781.9 727.191 3779 729.591 3775.2C731.991 3771.4 733.191 3766.85 733.191 3761.55C733.191 3753.35 730.841 3746.6 726.141 3741.3C721.541 3736 714.891 3733.35 706.191 3733.35C698.491 3733.35 692.291 3735.75 687.591 3740.55C682.991 3745.35 680.691 3751.75 680.691 3759.75C680.691 3768.15 682.991 3774.75 687.591 3779.55C692.191 3784.35 698.691 3786.75 707.091 3786.75ZM784.641 3778.2C778.441 3776.2 773.691 3773.05 770.391 3768.75C767.191 3764.45 765.591 3759.25 765.591 3753.15C765.591 3747.75 766.941 3742.95 769.641 3738.75C772.441 3734.45 776.491 3731.1 781.791 3728.7C787.091 3726.2 793.441 3724.95 800.841 3724.95C808.241 3724.95 814.591 3726.2 819.891 3728.7C825.191 3731.1 829.191 3734.45 831.891 3738.75C834.691 3742.95 836.091 3747.75 836.091 3753.15C836.091 3759.15 834.441 3764.35 831.141 3768.75C827.941 3773.15 823.241 3776.3 817.041 3778.2C823.841 3779.9 829.191 3783.15 833.091 3787.95C836.991 3792.75 838.941 3798.6 838.941 3805.5C838.941 3811.9 837.341 3817.5 834.141 3822.3C831.041 3827 826.591 3830.65 820.791 3833.25C815.091 3835.85 808.441 3837.15 800.841 3837.15C793.241 3837.15 786.541 3835.85 780.741 3833.25C775.041 3830.65 770.591 3827 767.391 3822.3C764.291 3817.5 762.741 3811.9 762.741 3805.5C762.741 3798.6 764.691 3792.75 768.591 3787.95C772.491 3783.15 777.841 3779.9 784.641 3778.2ZM825.891 3754.35C825.891 3747.75 823.641 3742.65 819.141 3739.05C814.641 3735.45 808.541 3733.65 800.841 3733.65C793.141 3733.65 787.041 3735.45 782.541 3739.05C778.041 3742.55 775.791 3747.65 775.791 3754.35C775.791 3760.55 778.091 3765.5 782.691 3769.2C787.291 3772.9 793.341 3774.75 800.841 3774.75C808.341 3774.75 814.391 3772.9 818.991 3769.2C823.591 3765.5 825.891 3760.55 825.891 3754.35ZM800.841 3782.85C792.641 3782.85 785.941 3784.7 780.741 3788.4C775.541 3792.1 772.941 3797.7 772.941 3805.2C772.941 3812.4 775.441 3818.05 780.441 3822.15C785.441 3826.25 792.241 3828.3 800.841 3828.3C809.341 3828.3 816.091 3826.25 821.091 3822.15C826.091 3817.95 828.591 3812.3 828.591 3805.2C828.591 3797.8 825.991 3792.25 820.791 3788.55C815.691 3784.75 809.041 3782.85 800.841 3782.85ZM910.495 3774V3782.85H852.145V3774H910.495ZM935.178 3779.25C935.178 3762.05 937.828 3748.7 943.128 3739.2C948.428 3729.7 957.928 3724.95 971.628 3724.95C985.328 3724.95 994.828 3729.7 1000.13 3739.2C1005.43 3748.7 1008.08 3762.05 1008.08 3779.25C1008.08 3796.75 1005.43 3810.3 1000.13 3819.9C994.828 3829.5 985.328 3834.3 971.628 3834.3C957.828 3834.3 948.278 3829.5 942.978 3819.9C937.778 3810.3 935.178 3796.75 935.178 3779.25ZM997.728 3779.25C997.728 3769.95 997.078 3762.1 995.778 3755.7C994.478 3749.3 991.928 3744.15 988.128 3740.25C984.328 3736.35 978.828 3734.4 971.628 3734.4C964.428 3734.4 958.928 3736.35 955.128 3740.25C951.328 3744.15 948.778 3749.3 947.478 3755.7C946.178 3762.1 945.528 3769.95 945.528 3779.25C945.528 3788.85 946.178 3796.9 947.478 3803.4C948.778 3809.8 951.328 3814.95 955.128 3818.85C958.928 3822.75 964.428 3824.7 971.628 3824.7C978.828 3824.7 984.328 3822.75 988.128 3818.85C991.928 3814.95 994.478 3809.8 995.778 3803.4C997.078 3796.9 997.728 3788.85 997.728 3779.25ZM1041.56 3805.35C1042.66 3811.85 1045.16 3816.85 1049.06 3820.35C1052.96 3823.85 1058.31 3825.6 1065.11 3825.6C1074.51 3825.6 1081.46 3821.95 1085.96 3814.65C1090.56 3807.25 1092.66 3795.05 1092.26 3778.05C1090.36 3783.55 1086.71 3787.9 1081.31 3791.1C1076.01 3794.2 1069.91 3795.75 1063.01 3795.75C1052.51 3795.75 1044.06 3792.6 1037.66 3786.3C1031.36 3780 1028.21 3771.25 1028.21 3760.05C1028.21 3753.35 1029.51 3747.3 1032.11 3741.9C1034.71 3736.5 1038.66 3732.25 1043.96 3729.15C1049.26 3726.05 1055.76 3724.5 1063.46 3724.5C1077.66 3724.5 1087.56 3729.15 1093.16 3738.45C1098.76 3747.65 1101.56 3760.9 1101.56 3778.2C1101.56 3796.9 1098.76 3810.95 1093.16 3820.35C1087.66 3829.75 1078.16 3834.45 1064.66 3834.45C1054.76 3834.45 1047.06 3831.8 1041.56 3826.5C1036.06 3821.1 1032.81 3814.05 1031.81 3805.35H1041.56ZM1064.66 3786.75C1069.36 3786.75 1073.66 3785.8 1077.56 3783.9C1081.56 3781.9 1084.76 3779 1087.16 3775.2C1089.56 3771.4 1090.76 3766.85 1090.76 3761.55C1090.76 3753.35 1088.41 3746.6 1083.71 3741.3C1079.11 3736 1072.46 3733.35 1063.76 3733.35C1056.06 3733.35 1049.86 3735.75 1045.16 3740.55C1040.56 3745.35 1038.26 3751.75 1038.26 3759.75C1038.26 3768.15 1040.56 3774.75 1045.16 3779.55C1049.76 3784.35 1056.26 3786.75 1064.66 3786.75ZM1116.26 3735.9V3726.45H1141.76V3834H1131.11V3735.9H1116.26ZM1165.16 3779.25C1165.16 3762.05 1167.81 3748.7 1173.11 3739.2C1178.41 3729.7 1187.91 3724.95 1201.61 3724.95C1215.31 3724.95 1224.81 3729.7 1230.11 3739.2C1235.41 3748.7 1238.06 3762.05 1238.06 3779.25C1238.06 3796.75 1235.41 3810.3 1230.11 3819.9C1224.81 3829.5 1215.31 3834.3 1201.61 3834.3C1187.81 3834.3 1178.26 3829.5 1172.96 3819.9C1167.76 3810.3 1165.16 3796.75 1165.16 3779.25ZM1227.71 3779.25C1227.71 3769.95 1227.06 3762.1 1225.76 3755.7C1224.46 3749.3 1221.91 3744.15 1218.11 3740.25C1214.31 3736.35 1208.81 3734.4 1201.61 3734.4C1194.41 3734.4 1188.91 3736.35 1185.11 3740.25C1181.31 3744.15 1178.76 3749.3 1177.46 3755.7C1176.16 3762.1 1175.51 3769.95 1175.51 3779.25C1175.51 3788.85 1176.16 3796.9 1177.46 3803.4C1178.76 3809.8 1181.31 3814.95 1185.11 3818.85C1188.91 3822.75 1194.41 3824.7 1201.61 3824.7C1208.81 3824.7 1214.31 3822.75 1218.11 3818.85C1221.91 3814.95 1224.46 3809.8 1225.76 3803.4C1227.06 3796.9 1227.71 3788.85 1227.71 3779.25ZM1252.49 3735.9V3726.45H1277.99V3834H1267.34V3735.9H1252.49ZM1300.94 3753.9C1301.64 3744.8 1305.14 3737.65 1311.44 3732.45C1317.84 3727.15 1326.09 3724.5 1336.19 3724.5C1342.89 3724.5 1348.64 3725.7 1353.44 3728.1C1358.24 3730.5 1361.84 3733.8 1364.24 3738C1366.74 3742.1 1367.99 3746.75 1367.99 3751.95C1367.99 3758.25 1366.14 3763.7 1362.44 3768.3C1358.74 3772.9 1353.49 3775.75 1346.69 3776.85V3777.6C1353.79 3779 1359.44 3782.1 1363.64 3786.9C1367.84 3791.6 1369.94 3797.8 1369.94 3805.5C1369.94 3814.1 1367.04 3821.15 1361.24 3826.65C1355.54 3832.05 1347.24 3834.75 1336.34 3834.75C1325.94 3834.75 1317.39 3832.05 1310.69 3826.65C1303.99 3821.15 1300.14 3813.4 1299.14 3803.4H1309.34C1310.24 3810.1 1313.04 3815.55 1317.74 3819.75C1322.44 3823.85 1328.64 3825.9 1336.34 3825.9C1343.94 3825.9 1349.74 3823.9 1353.74 3819.9C1357.84 3815.9 1359.89 3810.8 1359.89 3804.6C1359.89 3789.4 1348.94 3781.8 1327.04 3781.8H1323.74V3772.95H1327.19C1347.59 3772.95 1357.79 3766.3 1357.79 3753C1357.79 3747.2 1355.89 3742.55 1352.09 3739.05C1348.29 3735.45 1342.89 3733.65 1335.89 3733.65C1329.09 3733.65 1323.44 3735.45 1318.94 3739.05C1314.54 3742.55 1311.94 3747.5 1311.14 3753.9H1300.94ZM1450.93 3752.7C1448.73 3739.7 1441.18 3733.2 1428.28 3733.2C1418.48 3733.2 1411.13 3737 1406.23 3744.6C1401.33 3752.2 1399.08 3764.65 1399.48 3781.95C1401.48 3775.95 1405.28 3771.25 1410.88 3767.85C1416.58 3764.35 1423.08 3762.6 1430.38 3762.6C1440.88 3762.6 1449.18 3765.85 1455.28 3772.35C1461.48 3778.75 1464.58 3787.6 1464.58 3798.9C1464.58 3805.5 1463.28 3811.5 1460.68 3816.9C1458.18 3822.2 1454.28 3826.45 1448.98 3829.65C1443.78 3832.85 1437.28 3834.45 1429.48 3834.45C1414.58 3834.45 1404.28 3829.7 1398.58 3820.2C1392.98 3810.7 1390.18 3797.25 1390.18 3779.85C1390.18 3742.85 1402.88 3724.35 1428.28 3724.35C1437.88 3724.35 1445.43 3727 1450.93 3732.3C1456.43 3737.5 1459.68 3744.3 1460.68 3752.7H1450.93ZM1428.43 3771.6C1423.73 3771.6 1419.28 3772.55 1415.08 3774.45C1410.88 3776.35 1407.43 3779.25 1404.73 3783.15C1402.13 3786.95 1400.83 3791.65 1400.83 3797.25C1400.83 3805.35 1403.23 3812.1 1408.03 3817.5C1412.83 3822.9 1419.83 3825.6 1429.03 3825.6C1436.73 3825.6 1442.88 3823.25 1447.48 3818.55C1452.08 3813.85 1454.38 3807.45 1454.38 3799.35C1454.38 3790.65 1452.13 3783.85 1447.63 3778.95C1443.13 3774.05 1436.73 3771.6 1428.43 3771.6ZM1481.37 3825.75C1499.77 3811.95 1513.97 3799.6 1523.97 3788.7C1534.07 3777.7 1539.12 3766.95 1539.12 3756.45C1539.12 3749.55 1537.37 3744.05 1533.87 3739.95C1530.47 3735.75 1524.87 3733.65 1517.07 3733.65C1509.47 3733.65 1503.57 3736.05 1499.37 3740.85C1495.27 3745.55 1492.97 3751.85 1492.47 3759.75H1482.27C1482.87 3748.65 1486.27 3740.05 1492.47 3733.95C1498.77 3727.75 1506.97 3724.65 1517.07 3724.65C1526.77 3724.65 1534.62 3727.4 1540.62 3732.9C1546.62 3738.3 1549.62 3746 1549.62 3756C1549.62 3768.1 1544.57 3779.85 1534.47 3791.25C1524.47 3802.55 1512.12 3813.6 1497.42 3824.4H1552.92V3833.25H1481.37V3825.75ZM1564.21 3735.9V3726.45H1589.71V3834H1579.06V3735.9H1564.21ZM1674.91 3752.7C1672.71 3739.7 1665.16 3733.2 1652.26 3733.2C1642.46 3733.2 1635.11 3737 1630.21 3744.6C1625.31 3752.2 1623.06 3764.65 1623.46 3781.95C1625.46 3775.95 1629.26 3771.25 1634.86 3767.85C1640.56 3764.35 1647.06 3762.6 1654.36 3762.6C1664.86 3762.6 1673.16 3765.85 1679.26 3772.35C1685.46 3778.75 1688.56 3787.6 1688.56 3798.9C1688.56 3805.5 1687.26 3811.5 1684.66 3816.9C1682.16 3822.2 1678.26 3826.45 1672.96 3829.65C1667.76 3832.85 1661.26 3834.45 1653.46 3834.45C1638.56 3834.45 1628.26 3829.7 1622.56 3820.2C1616.96 3810.7 1614.16 3797.25 1614.16 3779.85C1614.16 3742.85 1626.86 3724.35 1652.26 3724.35C1661.86 3724.35 1669.41 3727 1674.91 3732.3C1680.41 3737.5 1683.66 3744.3 1684.66 3752.7H1674.91ZM1652.41 3771.6C1647.71 3771.6 1643.26 3772.55 1639.06 3774.45C1634.86 3776.35 1631.41 3779.25 1628.71 3783.15C1626.11 3786.95 1624.81 3791.65 1624.81 3797.25C1624.81 3805.35 1627.21 3812.1 1632.01 3817.5C1636.81 3822.9 1643.81 3825.6 1653.01 3825.6C1660.71 3825.6 1666.86 3823.25 1671.46 3818.55C1676.06 3813.85 1678.36 3807.45 1678.36 3799.35C1678.36 3790.65 1676.11 3783.85 1671.61 3778.95C1667.11 3774.05 1660.71 3771.6 1652.41 3771.6ZM1707.44 3779.25C1707.44 3762.05 1710.09 3748.7 1715.39 3739.2C1720.69 3729.7 1730.19 3724.95 1743.89 3724.95C1757.59 3724.95 1767.09 3729.7 1772.39 3739.2C1777.69 3748.7 1780.34 3762.05 1780.34 3779.25C1780.34 3796.75 1777.69 3810.3 1772.39 3819.9C1767.09 3829.5 1757.59 3834.3 1743.89 3834.3C1730.09 3834.3 1720.54 3829.5 1715.24 3819.9C1710.04 3810.3 1707.44 3796.75 1707.44 3779.25ZM1769.99 3779.25C1769.99 3769.95 1769.34 3762.1 1768.04 3755.7C1766.74 3749.3 1764.19 3744.15 1760.39 3740.25C1756.59 3736.35 1751.09 3734.4 1743.89 3734.4C1736.69 3734.4 1731.19 3736.35 1727.39 3740.25C1723.59 3744.15 1721.04 3749.3 1719.74 3755.7C1718.44 3762.1 1717.79 3769.95 1717.79 3779.25C1717.79 3788.85 1718.44 3796.9 1719.74 3803.4C1721.04 3809.8 1723.59 3814.95 1727.39 3818.85C1731.19 3822.75 1736.69 3824.7 1743.89 3824.7C1751.09 3824.7 1756.59 3822.75 1760.39 3818.85C1764.19 3814.95 1766.74 3809.8 1768.04 3803.4C1769.34 3796.9 1769.99 3788.85 1769.99 3779.25Z" fill="#D2D7D8"/>
<path d="M701.489 2840H690.989L632.939 2751.8V2840H622.439V2735.15H632.939L690.989 2823.2V2735.15H701.489V2840ZM772.371 2841.05C762.671 2841.05 753.871 2838.8 745.971 2834.3C738.071 2829.7 731.821 2823.35 727.221 2815.25C722.721 2807.05 720.471 2797.8 720.471 2787.5C720.471 2777.2 722.721 2768 727.221 2759.9C731.821 2751.7 738.071 2745.35 745.971 2740.85C753.871 2736.25 762.671 2733.95 772.371 2733.95C782.171 2733.95 791.021 2736.25 798.921 2740.85C806.821 2745.35 813.021 2751.7 817.521 2759.9C822.021 2768 824.271 2777.2 824.271 2787.5C824.271 2797.8 822.021 2807.05 817.521 2815.25C813.021 2823.35 806.821 2829.7 798.921 2834.3C791.021 2838.8 782.171 2841.05 772.371 2841.05ZM772.371 2831.9C780.171 2831.9 787.171 2830.1 793.371 2826.5C799.571 2822.9 804.471 2817.75 808.071 2811.05C811.671 2804.25 813.471 2796.4 813.471 2787.5C813.471 2778.6 811.671 2770.8 808.071 2764.1C804.471 2757.4 799.571 2752.25 793.371 2748.65C787.171 2745.05 780.171 2743.25 772.371 2743.25C764.571 2743.25 757.571 2745.05 751.371 2748.65C745.171 2752.25 740.271 2757.4 736.671 2764.1C733.071 2770.8 731.271 2778.6 731.271 2787.5C731.271 2796.4 733.071 2804.25 736.671 2811.05C740.271 2817.75 745.171 2822.9 751.371 2826.5C757.571 2830.1 764.571 2831.9 772.371 2831.9ZM845.284 2840.75C843.084 2840.75 841.234 2840 839.734 2838.5C838.334 2837 837.634 2835.15 837.634 2832.95C837.634 2830.75 838.334 2828.95 839.734 2827.55C841.234 2826.05 843.084 2825.3 845.284 2825.3C847.384 2825.3 849.134 2826.05 850.534 2827.55C852.034 2828.95 852.784 2830.75 852.784 2832.95C852.784 2835.15 852.034 2837 850.534 2838.5C849.134 2840 847.384 2840.75 845.284 2840.75ZM904.543 2741.9V2732.45H930.043V2840H919.393V2741.9H904.543ZM953.441 2785.25C953.441 2768.05 956.091 2754.7 961.391 2745.2C966.691 2735.7 976.191 2730.95 989.891 2730.95C1003.59 2730.95 1013.09 2735.7 1018.39 2745.2C1023.69 2754.7 1026.34 2768.05 1026.34 2785.25C1026.34 2802.75 1023.69 2816.3 1018.39 2825.9C1013.09 2835.5 1003.59 2840.3 989.891 2840.3C976.091 2840.3 966.541 2835.5 961.241 2825.9C956.041 2816.3 953.441 2802.75 953.441 2785.25ZM1015.99 2785.25C1015.99 2775.95 1015.34 2768.1 1014.04 2761.7C1012.74 2755.3 1010.19 2750.15 1006.39 2746.25C1002.59 2742.35 997.091 2740.4 989.891 2740.4C982.691 2740.4 977.191 2742.35 973.391 2746.25C969.591 2750.15 967.041 2755.3 965.741 2761.7C964.441 2768.1 963.791 2775.95 963.791 2785.25C963.791 2794.85 964.441 2802.9 965.741 2809.4C967.041 2815.8 969.591 2820.95 973.391 2824.85C977.191 2828.75 982.691 2830.7 989.891 2830.7C997.091 2830.7 1002.59 2828.75 1006.39 2824.85C1010.19 2820.95 1012.74 2815.8 1014.04 2809.4C1015.34 2802.9 1015.99 2794.85 1015.99 2785.25ZM1045.87 2785.25C1045.87 2768.05 1048.52 2754.7 1053.82 2745.2C1059.12 2735.7 1068.62 2730.95 1082.32 2730.95C1096.02 2730.95 1105.52 2735.7 1110.82 2745.2C1116.12 2754.7 1118.77 2768.05 1118.77 2785.25C1118.77 2802.75 1116.12 2816.3 1110.82 2825.9C1105.52 2835.5 1096.02 2840.3 1082.32 2840.3C1068.52 2840.3 1058.97 2835.5 1053.67 2825.9C1048.47 2816.3 1045.87 2802.75 1045.87 2785.25ZM1108.42 2785.25C1108.42 2775.95 1107.77 2768.1 1106.47 2761.7C1105.17 2755.3 1102.62 2750.15 1098.82 2746.25C1095.02 2742.35 1089.52 2740.4 1082.32 2740.4C1075.12 2740.4 1069.62 2742.35 1065.82 2746.25C1062.02 2750.15 1059.47 2755.3 1058.17 2761.7C1056.87 2768.1 1056.22 2775.95 1056.22 2785.25C1056.22 2794.85 1056.87 2802.9 1058.17 2809.4C1059.47 2815.8 1062.02 2820.95 1065.82 2824.85C1069.62 2828.75 1075.12 2830.7 1082.32 2830.7C1089.52 2830.7 1095.02 2828.75 1098.82 2824.85C1102.62 2820.95 1105.17 2815.8 1106.47 2809.4C1107.77 2802.9 1108.42 2794.85 1108.42 2785.25ZM1150.15 2822.6L1134.55 2861.9H1127.35L1138.45 2822.6H1150.15ZM1268.39 2815.1H1220.69L1211.54 2840H1200.44L1238.69 2736.5H1250.54L1288.64 2840H1277.54L1268.39 2815.1ZM1265.24 2806.4L1244.54 2749.7L1223.84 2806.4H1265.24ZM1316 2831.45H1353.65V2840H1305.5V2735.15H1316V2831.45ZM1379.13 2831.45H1416.78V2840H1368.63V2735.15H1379.13V2831.45ZM1442.27 2743.7V2782.85H1482.02V2791.55H1442.27V2831.3H1486.52V2840H1431.77V2735H1486.52V2743.7H1442.27ZM1576.51 2735.15L1542.91 2799.2V2840H1532.41V2799.2L1498.51 2735.15H1510.36L1537.66 2789.6L1564.81 2735.15H1576.51ZM1625.69 2741.9V2732.45H1651.19V2840H1640.54V2741.9H1625.69ZM1669.48 2741.9V2732.45H1694.98V2840H1684.33V2741.9H1669.48ZM1730.23 2822.6L1714.63 2861.9H1707.43L1718.53 2822.6H1730.23ZM542.252 3066.05C535.352 3066.05 529.252 3064.85 523.952 3062.45C518.752 3060.05 514.652 3056.7 511.652 3052.4C508.652 3048.1 507.052 3043.3 506.852 3038H517.952C518.452 3043.1 520.702 3047.6 524.702 3051.5C528.702 3055.3 534.552 3057.2 542.252 3057.2C549.352 3057.2 554.952 3055.4 559.052 3051.8C563.252 3048.1 565.352 3043.45 565.352 3037.85C565.352 3033.35 564.202 3029.75 561.902 3027.05C559.602 3024.25 556.752 3022.2 553.352 3020.9C549.952 3019.5 545.252 3018 539.252 3016.4C532.252 3014.5 526.702 3012.65 522.602 3010.85C518.502 3009.05 515.002 3006.25 512.102 3002.45C509.202 2998.65 507.752 2993.5 507.752 2987C507.752 2981.6 509.152 2976.8 511.952 2972.6C514.752 2968.3 518.702 2964.95 523.802 2962.55C528.902 2960.15 534.752 2958.95 541.352 2958.95C551.052 2958.95 558.852 2961.35 564.752 2966.15C570.752 2970.85 574.202 2976.95 575.102 2984.45H563.702C563.002 2980.15 560.652 2976.35 556.652 2973.05C552.652 2969.65 547.252 2967.95 540.452 2967.95C534.152 2967.95 528.902 2969.65 524.702 2973.05C520.502 2976.35 518.402 2980.9 518.402 2986.7C518.402 2991.1 519.552 2994.65 521.852 2997.35C524.152 3000.05 527.002 3002.1 530.402 3003.5C533.902 3004.9 538.602 3006.4 544.502 3008C551.302 3009.9 556.802 3011.8 561.002 3013.7C565.202 3015.5 568.752 3018.3 571.652 3022.1C574.552 3025.9 576.002 3031 576.002 3037.4C576.002 3042.3 574.702 3046.95 572.102 3051.35C569.502 3055.75 565.652 3059.3 560.552 3062C555.452 3064.7 549.352 3066.05 542.252 3066.05ZM674.142 2960.15V3065H663.642V3015.95H606.792V3065H596.292V2960.15H606.792V3007.25H663.642V2960.15H674.142ZM758.849 3040.1H711.149L701.999 3065H690.899L729.149 2961.5H740.999L779.099 3065H767.999L758.849 3040.1ZM755.699 3031.4L734.999 2974.7L714.299 3031.4H755.699ZM873.8 2960.15V3065H863.3V3015.95H806.45V3065H795.95V2960.15H806.45V3007.25H863.3V2960.15H873.8ZM908.257 2960.15V3065H897.757V2960.15H908.257ZM963.084 2960.15C974.684 2960.15 984.634 2962.25 992.934 2966.45C1001.23 2970.65 1007.58 2976.7 1011.98 2984.6C1016.38 2992.5 1018.58 3001.9 1018.58 3012.8C1018.58 3023.6 1016.38 3032.95 1011.98 3040.85C1007.58 3048.65 1001.23 3054.65 992.934 3058.85C984.634 3062.95 974.684 3065 963.084 3065H932.034V2960.15H963.084ZM963.084 3056.3C977.684 3056.3 988.784 3052.5 996.384 3044.9C1004.08 3037.2 1007.93 3026.5 1007.93 3012.8C1007.93 2999 1004.08 2988.25 996.384 2980.55C988.784 2972.75 977.684 2968.85 963.084 2968.85H942.534V3056.3H963.084ZM1110.9 3066.05C1104 3066.05 1097.9 3064.85 1092.6 3062.45C1087.4 3060.05 1083.3 3056.7 1080.3 3052.4C1077.3 3048.1 1075.7 3043.3 1075.5 3038H1086.6C1087.1 3043.1 1089.35 3047.6 1093.35 3051.5C1097.35 3055.3 1103.2 3057.2 1110.9 3057.2C1118 3057.2 1123.6 3055.4 1127.7 3051.8C1131.9 3048.1 1134 3043.45 1134 3037.85C1134 3033.35 1132.85 3029.75 1130.55 3027.05C1128.25 3024.25 1125.4 3022.2 1122 3020.9C1118.6 3019.5 1113.9 3018 1107.9 3016.4C1100.9 3014.5 1095.35 3012.65 1091.25 3010.85C1087.15 3009.05 1083.65 3006.25 1080.75 3002.45C1077.85 2998.65 1076.4 2993.5 1076.4 2987C1076.4 2981.6 1077.8 2976.8 1080.6 2972.6C1083.4 2968.3 1087.35 2964.95 1092.45 2962.55C1097.55 2960.15 1103.4 2958.95 1110 2958.95C1119.7 2958.95 1127.5 2961.35 1133.4 2966.15C1139.4 2970.85 1142.85 2976.95 1143.75 2984.45H1132.35C1131.65 2980.15 1129.3 2976.35 1125.3 2973.05C1121.3 2969.65 1115.9 2967.95 1109.1 2967.95C1102.8 2967.95 1097.55 2969.65 1093.35 2973.05C1089.15 2976.35 1087.05 2980.9 1087.05 2986.7C1087.05 2991.1 1088.2 2994.65 1090.5 2997.35C1092.8 3000.05 1095.65 3002.1 1099.05 3003.5C1102.55 3004.9 1107.25 3006.4 1113.15 3008C1119.95 3009.9 1125.45 3011.8 1129.65 3013.7C1133.85 3015.5 1137.4 3018.3 1140.3 3022.1C1143.2 3025.9 1144.65 3031 1144.65 3037.4C1144.65 3042.3 1143.35 3046.95 1140.75 3051.35C1138.15 3055.75 1134.3 3059.3 1129.2 3062C1124.1 3064.7 1118 3066.05 1110.9 3066.05ZM1225.69 3040.1H1177.99L1168.84 3065H1157.74L1195.99 2961.5H1207.84L1245.94 3065H1234.84L1225.69 3040.1ZM1222.54 3031.4L1201.84 2974.7L1181.14 3031.4H1222.54ZM1293.85 2960.15C1305.45 2960.15 1315.4 2962.25 1323.7 2966.45C1332 2970.65 1338.35 2976.7 1342.75 2984.6C1347.15 2992.5 1349.35 3001.9 1349.35 3012.8C1349.35 3023.6 1347.15 3032.95 1342.75 3040.85C1338.35 3048.65 1332 3054.65 1323.7 3058.85C1315.4 3062.95 1305.45 3065 1293.85 3065H1262.8V2960.15H1293.85ZM1293.85 3056.3C1308.45 3056.3 1319.55 3052.5 1327.15 3044.9C1334.85 3037.2 1338.7 3026.5 1338.7 3012.8C1338.7 2999 1334.85 2988.25 1327.15 2980.55C1319.55 2972.75 1308.45 2968.85 1293.85 2968.85H1273.3V3056.3H1293.85ZM1415.8 3066.05C1406.1 3066.05 1397.3 3063.8 1389.4 3059.3C1381.5 3054.7 1375.25 3048.35 1370.65 3040.25C1366.15 3032.05 1363.9 3022.8 1363.9 3012.5C1363.9 3002.2 1366.15 2993 1370.65 2984.9C1375.25 2976.7 1381.5 2970.35 1389.4 2965.85C1397.3 2961.25 1406.1 2958.95 1415.8 2958.95C1425.6 2958.95 1434.45 2961.25 1442.35 2965.85C1450.25 2970.35 1456.45 2976.7 1460.95 2984.9C1465.45 2993 1467.7 3002.2 1467.7 3012.5C1467.7 3022.8 1465.45 3032.05 1460.95 3040.25C1456.45 3048.35 1450.25 3054.7 1442.35 3059.3C1434.45 3063.8 1425.6 3066.05 1415.8 3066.05ZM1415.8 3056.9C1423.6 3056.9 1430.6 3055.1 1436.8 3051.5C1443 3047.9 1447.9 3042.75 1451.5 3036.05C1455.1 3029.25 1456.9 3021.4 1456.9 3012.5C1456.9 3003.6 1455.1 2995.8 1451.5 2989.1C1447.9 2982.4 1443 2977.25 1436.8 2973.65C1430.6 2970.05 1423.6 2968.25 1415.8 2968.25C1408 2968.25 1401 2970.05 1394.8 2973.65C1388.6 2977.25 1383.7 2982.4 1380.1 2989.1C1376.5 2995.8 1374.7 3003.6 1374.7 3012.5C1374.7 3021.4 1376.5 3029.25 1380.1 3036.05C1383.7 3042.75 1388.6 3047.9 1394.8 3051.5C1401 3055.1 1408 3056.9 1415.8 3056.9ZM1534.02 3066.05C1524.32 3066.05 1515.52 3063.8 1507.62 3059.3C1499.72 3054.7 1493.47 3048.35 1488.87 3040.25C1484.37 3032.05 1482.12 3022.8 1482.12 3012.5C1482.12 3002.2 1484.37 2993 1488.87 2984.9C1493.47 2976.7 1499.72 2970.35 1507.62 2965.85C1515.52 2961.25 1524.32 2958.95 1534.02 2958.95C1543.82 2958.95 1552.67 2961.25 1560.57 2965.85C1568.47 2970.35 1574.67 2976.7 1579.17 2984.9C1583.67 2993 1585.92 3002.2 1585.92 3012.5C1585.92 3022.8 1583.67 3032.05 1579.17 3040.25C1574.67 3048.35 1568.47 3054.7 1560.57 3059.3C1552.67 3063.8 1543.82 3066.05 1534.02 3066.05ZM1534.02 3056.9C1541.82 3056.9 1548.82 3055.1 1555.02 3051.5C1561.22 3047.9 1566.12 3042.75 1569.72 3036.05C1573.32 3029.25 1575.12 3021.4 1575.12 3012.5C1575.12 3003.6 1573.32 2995.8 1569.72 2989.1C1566.12 2982.4 1561.22 2977.25 1555.02 2973.65C1548.82 2970.05 1541.82 2968.25 1534.02 2968.25C1526.22 2968.25 1519.22 2970.05 1513.02 2973.65C1506.82 2977.25 1501.92 2982.4 1498.32 2989.1C1494.72 2995.8 1492.92 3003.6 1492.92 3012.5C1492.92 3021.4 1494.72 3029.25 1498.32 3036.05C1501.92 3042.75 1506.82 3047.9 1513.02 3051.5C1519.22 3055.1 1526.22 3056.9 1534.02 3056.9ZM1687.63 2990.75C1684.63 2983.85 1680.03 2978.45 1673.83 2974.55C1667.73 2970.55 1660.53 2968.55 1652.23 2968.55C1644.43 2968.55 1637.43 2970.35 1631.23 2973.95C1625.03 2977.55 1620.13 2982.7 1616.53 2989.4C1612.93 2996 1611.13 3003.7 1611.13 3012.5C1611.13 3021.3 1612.93 3029.05 1616.53 3035.75C1620.13 3042.45 1625.03 3047.6 1631.23 3051.2C1637.43 3054.8 1644.43 3056.6 1652.23 3056.6C1659.53 3056.6 1666.08 3055.05 1671.88 3051.95C1677.78 3048.75 1682.48 3044.25 1685.98 3038.45C1689.58 3032.55 1691.63 3025.7 1692.13 3017.9H1648.03V3009.35H1703.23V3017C1702.73 3026.2 1700.23 3034.55 1695.73 3042.05C1691.23 3049.45 1685.18 3055.3 1677.58 3059.6C1670.08 3063.9 1661.63 3066.05 1652.23 3066.05C1642.53 3066.05 1633.73 3063.8 1625.83 3059.3C1617.93 3054.7 1611.68 3048.35 1607.08 3040.25C1602.58 3032.05 1600.33 3022.8 1600.33 3012.5C1600.33 3002.2 1602.58 2993 1607.08 2984.9C1611.68 2976.7 1617.93 2970.35 1625.83 2965.85C1633.73 2961.25 1642.53 2958.95 1652.23 2958.95C1663.43 2958.95 1673.23 2961.75 1681.63 2967.35C1690.03 2972.95 1696.13 2980.75 1699.93 2990.75H1687.63ZM1800.31 2960.15V3065H1789.81V3015.95H1732.96V3065H1722.46V2960.15H1732.96V3007.25H1789.81V2960.15H1800.31ZM1834.77 2960.15V3065H1824.27V2960.15H1834.77ZM631.206 3235.85C637.106 3236.95 642.106 3239.95 646.206 3244.85C650.306 3249.75 652.356 3255.45 652.356 3261.95C652.356 3267.25 651.006 3272.05 648.306 3276.35C645.706 3280.55 641.856 3283.9 636.756 3286.4C631.656 3288.8 625.556 3290 618.456 3290H582.156V3185.15H617.406C628.006 3185.15 636.056 3187.6 641.556 3192.5C647.156 3197.4 649.956 3203.75 649.956 3211.55C649.956 3218.05 648.206 3223.35 644.706 3227.45C641.206 3231.45 636.706 3234.25 631.206 3235.85ZM592.656 3231.5H617.106C624.206 3231.5 629.656 3229.85 633.456 3226.55C637.356 3223.15 639.306 3218.5 639.306 3212.6C639.306 3206.8 637.356 3202.25 633.456 3198.95C629.656 3195.65 624.056 3194 616.656 3194H592.656V3231.5ZM617.706 3281.15C625.306 3281.15 631.206 3279.35 635.406 3275.75C639.706 3272.15 641.856 3267.2 641.856 3260.9C641.856 3254.6 639.606 3249.6 635.106 3245.9C630.706 3242.1 624.756 3240.2 617.256 3240.2H592.656V3281.15H617.706ZM682.158 3281.45H719.808V3290H671.658V3185.15H682.158V3281.45ZM817.893 3185.15L778.143 3290H766.143L726.393 3185.15H737.793L772.143 3278.6L806.793 3185.15H817.893ZM864.72 3185.15C876.32 3185.15 886.27 3187.25 894.57 3191.45C902.87 3195.65 909.22 3201.7 913.62 3209.6C918.02 3217.5 920.22 3226.9 920.22 3237.8C920.22 3248.6 918.02 3257.95 913.62 3265.85C909.22 3273.65 902.87 3279.65 894.57 3283.85C886.27 3287.95 876.32 3290 864.72 3290H833.67V3185.15H864.72ZM864.72 3281.3C879.32 3281.3 890.42 3277.5 898.02 3269.9C905.72 3262.2 909.57 3251.5 909.57 3237.8C909.57 3224 905.72 3213.25 898.02 3205.55C890.42 3197.75 879.32 3193.85 864.72 3193.85H844.17V3281.3H864.72ZM941.378 3290.75C939.178 3290.75 937.328 3290 935.828 3288.5C934.428 3287 933.728 3285.15 933.728 3282.95C933.728 3280.75 934.428 3278.95 935.828 3277.55C937.328 3276.05 939.178 3275.3 941.378 3275.3C943.478 3275.3 945.228 3276.05 946.628 3277.55C948.128 3278.95 948.878 3280.75 948.878 3282.95C948.878 3285.15 948.128 3287 946.628 3288.5C945.228 3290 943.478 3290.75 941.378 3290.75ZM976.424 3272.6L960.824 3311.9H953.624L964.724 3272.6H976.424ZM1120.46 3310.55L1097.06 3288.8C1091.96 3290.3 1086.61 3291.05 1081.01 3291.05C1071.31 3291.05 1062.51 3288.8 1054.61 3284.3C1046.71 3279.7 1040.46 3273.35 1035.86 3265.25C1031.36 3257.05 1029.11 3247.8 1029.11 3237.5C1029.11 3227.2 1031.36 3218 1035.86 3209.9C1040.46 3201.7 1046.71 3195.35 1054.61 3190.85C1062.51 3186.25 1071.31 3183.95 1081.01 3183.95C1090.81 3183.95 1099.66 3186.25 1107.56 3190.85C1115.46 3195.35 1121.66 3201.7 1126.16 3209.9C1130.66 3218 1132.91 3227.2 1132.91 3237.5C1132.91 3248.1 1130.56 3257.55 1125.86 3265.85C1121.16 3274.05 1114.71 3280.35 1106.51 3284.75L1134.56 3310.55H1120.46ZM1039.91 3237.5C1039.91 3246.4 1041.71 3254.25 1045.31 3261.05C1048.91 3267.75 1053.81 3272.9 1060.01 3276.5C1066.21 3280.1 1073.21 3281.9 1081.01 3281.9C1088.81 3281.9 1095.81 3280.1 1102.01 3276.5C1108.21 3272.9 1113.11 3267.75 1116.71 3261.05C1120.31 3254.25 1122.11 3246.4 1122.11 3237.5C1122.11 3228.6 1120.31 3220.8 1116.71 3214.1C1113.11 3207.4 1108.21 3202.25 1102.01 3198.65C1095.81 3195.05 1088.81 3193.25 1081.01 3193.25C1073.21 3193.25 1066.21 3195.05 1060.01 3198.65C1053.81 3202.25 1048.91 3207.4 1045.31 3214.1C1041.71 3220.8 1039.91 3228.6 1039.91 3237.5ZM1199.37 3291.05C1189.67 3291.05 1180.87 3288.8 1172.97 3284.3C1165.07 3279.7 1158.82 3273.35 1154.22 3265.25C1149.72 3257.05 1147.47 3247.8 1147.47 3237.5C1147.47 3227.2 1149.72 3218 1154.22 3209.9C1158.82 3201.7 1165.07 3195.35 1172.97 3190.85C1180.87 3186.25 1189.67 3183.95 1199.37 3183.95C1209.17 3183.95 1218.02 3186.25 1225.92 3190.85C1233.82 3195.35 1240.02 3201.7 1244.52 3209.9C1249.02 3218 1251.27 3227.2 1251.27 3237.5C1251.27 3247.8 1249.02 3257.05 1244.52 3265.25C1240.02 3273.35 1233.82 3279.7 1225.92 3284.3C1218.02 3288.8 1209.17 3291.05 1199.37 3291.05ZM1199.37 3281.9C1207.17 3281.9 1214.17 3280.1 1220.37 3276.5C1226.57 3272.9 1231.47 3267.75 1235.07 3261.05C1238.67 3254.25 1240.47 3246.4 1240.47 3237.5C1240.47 3228.6 1238.67 3220.8 1235.07 3214.1C1231.47 3207.4 1226.57 3202.25 1220.37 3198.65C1214.17 3195.05 1207.17 3193.25 1199.37 3193.25C1191.57 3193.25 1184.57 3195.05 1178.37 3198.65C1172.17 3202.25 1167.27 3207.4 1163.67 3214.1C1160.07 3220.8 1158.27 3228.6 1158.27 3237.5C1158.27 3246.4 1160.07 3254.25 1163.67 3261.05C1167.27 3267.75 1172.17 3272.9 1178.37 3276.5C1184.57 3280.1 1191.57 3281.9 1199.37 3281.9ZM1372.94 3186.5V3290H1362.44V3207.35L1325.54 3290H1317.89L1280.99 3207.65V3290H1270.49V3186.5H1281.59L1321.64 3276.2L1361.69 3186.5H1372.94ZM1406.36 3272.6L1390.76 3311.9H1383.56L1394.66 3272.6H1406.36ZM1474.35 3185.15V3290H1463.85V3185.15H1474.35ZM1553.92 3290L1527.97 3246.2H1508.62V3290H1498.12V3185.15H1529.62C1541.32 3185.15 1550.17 3187.95 1556.17 3193.55C1562.27 3199.15 1565.32 3206.5 1565.32 3215.6C1565.32 3223.2 1563.12 3229.7 1558.72 3235.1C1554.42 3240.4 1548.02 3243.85 1539.52 3245.45L1566.52 3290H1553.92ZM1508.62 3237.65H1529.77C1537.97 3237.65 1544.12 3235.65 1548.22 3231.65C1552.42 3227.65 1554.52 3222.3 1554.52 3215.6C1554.52 3208.7 1552.52 3203.4 1548.52 3199.7C1544.52 3195.9 1538.22 3194 1529.62 3194H1508.62V3237.65ZM1646.91 3265.1H1599.21L1590.06 3290H1578.96L1617.21 3186.5H1629.06L1667.16 3290H1656.06L1646.91 3265.1ZM1643.76 3256.4L1623.06 3199.7L1602.36 3256.4H1643.76ZM1763.06 3290H1752.56L1694.51 3201.8V3290H1684.01V3185.15H1694.51L1752.56 3273.2V3185.15H1763.06V3290Z" fill="#D2D7D8"/>
</svg>
