<svg width="12" height="13" viewBox="0 0 12 13" fill="none" xmlns="http://www.w3.org/2000/svg">
<path d="M10.2349 2.90747C9.14288 1.83195 7.64446 1.18164 5.99366 1.18164C4.34287 1.18164 2.83175 1.84446 1.75238 2.90747C0.660319 3.98299 0 5.45869 0 7.08447C0 10.3485 2.67935 12.9998 6.00634 12.9998C7.65713 12.9998 9.16825 12.337 10.2476 11.274C11.3397 10.1985 12 8.72276 12 7.09698C12 5.4712 11.327 3.983 10.2476 2.91999L10.2349 2.90747ZM5.99366 10.8613C3.88572 10.8613 2.17142 9.17297 2.17142 7.09698C2.17142 5.02098 3.88572 3.33267 5.99366 3.33267C8.1016 3.33267 9.81587 5.02098 9.81587 7.09698C9.81587 9.17297 8.1016 10.8613 5.99366 10.8613Z" fill="#1E353C"/>
<path d="M6.41542 4.02833H6.41C6.36484 4.0211 6.31969 4.01748 6.27453 4.01206L6.22757 4.00845L6.12824 4.00302H5.85732L5.7941 4.00664L5.73811 4.01025L5.6749 4.01748L5.61891 4.02291L5.5575 4.03194L5.50331 4.04098L5.4419 4.05182L5.38772 4.06267L5.32631 4.07532L5.27393 4.08797L5.21433 4.10424L5.16195 4.1187L5.10235 4.13677L5.05178 4.15304L4.99398 4.17292L4.94341 4.19099L4.88561 4.21449L4.83685 4.23437L4.77905 4.25968L4.73209 4.27956L4.67429 4.30848L4.62914 4.33016L4.57315 4.36089L4.5298 4.38439L4.47201 4.41873L4.43227 4.44222L4.37086 4.48018L4.24443 4.56694C4.24443 4.56694 3.69717 4.15123 3.47863 4.03736C3.42871 4.01119 3.37288 3.99838 3.31656 4.00016C3.26024 4.00195 3.20533 4.01827 3.15717 4.04756C3.10901 4.07684 3.06923 4.11808 3.04169 4.16728C3.01415 4.21648 2.99979 4.27197 3 4.32836V7.00152C2.99977 7.76361 3.28935 8.49724 3.80995 9.05346C4.33056 9.60969 5.04318 9.94682 5.80313 9.99639H5.83023L5.92053 10H6.14269C6.16978 10 6.19506 9.99639 6.22216 9.9946L6.29621 9.98916L6.37387 9.98014L6.44612 9.97108L6.52198 9.95845L6.59421 9.94399C6.61952 9.94038 6.6448 9.93315 6.67008 9.92771L6.74052 9.91146L6.81458 9.89156L6.88319 9.87166L6.95546 9.84819L7.02408 9.82467L7.09452 9.79758L7.15956 9.77045L7.22818 9.74154L7.29318 9.71083L7.36001 9.6783L7.42323 9.64576L7.48827 9.60779L7.54967 9.57347L7.61288 9.53371L7.67249 9.49574L7.7321 9.45236L7.78988 9.41078C7.8099 9.39675 7.82921 9.38165 7.8477 9.36561L7.90366 9.32224L7.95965 9.27342L8.01386 9.22826L8.06803 9.17583L8.11681 9.12884L8.16919 9.07462L8.21793 9.02401L8.2667 8.96797L8.31186 8.91557L8.35881 8.85591L8.40218 8.80169L8.44552 8.74024L8.48524 8.6842C8.49969 8.66251 8.51235 8.64082 8.52679 8.62096L8.56473 8.5613C8.57735 8.53961 8.59001 8.51793 8.60085 8.49624C8.61168 8.47455 8.62613 8.45648 8.63696 8.43661L8.67129 8.3679L8.70379 8.30645C8.71462 8.28297 8.72546 8.25946 8.73451 8.23598C8.74352 8.21247 8.75435 8.1944 8.7634 8.17271C8.77244 8.15102 8.78328 8.12393 8.79229 8.10042L8.81757 8.03714C8.82662 8.01184 8.83384 7.98654 8.84288 7.96124L8.86455 7.89617C8.87356 7.87087 8.879 7.84378 8.88801 7.81847C8.89706 7.79317 8.90067 7.7751 8.90607 7.75341C8.9115 7.73172 8.91872 7.69919 8.92416 7.67385C8.92956 7.64855 8.93499 7.63048 8.93861 7.60879L8.95484 7.52386L8.96567 7.4606C8.97111 7.42987 8.9729 7.40095 8.97651 7.37023C8.98012 7.3395 8.98194 7.33046 8.98555 7.30877C8.98917 7.28709 8.99095 7.2419 8.99278 7.20756C8.99489 7.19077 8.99607 7.17387 8.99639 7.15695C8.99821 7.10815 9 7.05935 9 7.01055V7.00152C9 6.27732 8.7384 5.57754 8.26344 5.03115C7.78845 4.48477 7.13213 4.12861 6.41542 4.02833ZM7.75194 6.61834L6.00903 8.36067C5.89931 8.4704 5.75054 8.53203 5.59543 8.53203C5.44032 8.53203 5.29155 8.4704 5.18182 8.36067L4.24805 7.42806C4.14736 7.31625 4.09339 7.17003 4.0973 7.01957C4.1012 6.86911 4.16267 6.72589 4.26903 6.61946C4.37538 6.51303 4.5185 6.45152 4.66886 6.44761C4.81922 6.4437 4.96533 6.4977 5.07707 6.59846L5.59543 7.11899L6.92296 5.78874C7.03466 5.68798 7.1808 5.63398 7.33116 5.63789C7.48151 5.6418 7.62461 5.70331 7.73099 5.80974C7.83733 5.91617 7.8988 6.05939 7.90269 6.20985C7.90663 6.36031 7.85263 6.50654 7.75194 6.61834Z" fill="#1E353C"/>
</svg>
