<svg width="24" height="25" viewBox="0 0 24 25" fill="none" xmlns="http://www.w3.org/2000/svg">
<g clip-path="url(#clip0_8_90)">
<path d="M12.0399 23.5899C18.2255 23.5899 23.2399 18.5755 23.2399 12.3899C23.2399 6.20435 18.2255 1.18994 12.0399 1.18994C5.85425 1.18994 0.839844 6.20435 0.839844 12.3899C0.839844 18.5755 5.85425 23.5899 12.0399 23.5899Z" fill="white"/>
<path d="M12.0402 24.25C18.5903 24.25 23.9002 18.9401 23.9002 12.39C23.9002 5.83993 18.5903 0.530029 12.0402 0.530029C5.49008 0.530029 0.180176 5.83993 0.180176 12.39C0.180176 18.9401 5.49008 24.25 12.0402 24.25Z" stroke="#99999A" stroke-width="0.14" stroke-miterlimit="10"/>
<path d="M6.9126 9.82779V14.9326C6.9126 16.6342 7.76297 17.485 9.46372 17.485H14.566C16.2667 17.485 17.1171 16.6342 17.1171 14.9326V12.3802C17.1171 11.8697 16.7769 11.5294 16.2667 11.5294C15.7565 11.5294 15.4163 11.1891 15.4163 10.6786V9.82779C15.4163 8.12619 14.566 7.27539 12.8652 7.27539H9.46372C7.76297 7.27539 6.9126 8.12619 6.9126 9.82779Z" stroke="#D2D7D8" stroke-miterlimit="10"/>
<path d="M10.314 10.6787H12.0147M10.314 14.0819H13.7155" stroke="#D2D7D8" stroke-miterlimit="10" stroke-linecap="round" stroke-linejoin="round"/>
</g>
<defs>
<clipPath id="clip0_8_90">
<rect width="24" height="25" fill="white"/>
</clipPath>
</defs>
</svg>
