<svg width="24" height="25" viewBox="0 0 24 25" fill="none" xmlns="http://www.w3.org/2000/svg">
<path d="M11.96 23.59C18.1456 23.59 23.16 18.5756 23.16 12.39C23.16 6.20441 18.1456 1.19 11.96 1.19C5.7744 1.19 0.76001 6.20441 0.76001 12.39C0.76001 18.5756 5.7744 23.59 11.96 23.59Z" fill="white"/>
<path d="M11.96 24.25C18.5101 24.25 23.82 18.9401 23.82 12.39C23.82 5.8399 18.5101 0.529999 11.96 0.529999C5.40986 0.529999 0.0999756 5.8399 0.0999756 12.39C0.0999756 18.9401 5.40986 24.25 11.96 24.25Z" stroke="#99999A" stroke-width="0.14" stroke-miterlimit="10"/>
<path opacity="0.2" d="M15.45 7.56001C14.8 6.91001 13.91 6.51001 12.93 6.51001C10.96 6.51001 9.35999 8.11001 9.35999 10.08V17.76H11.51C14.26 17.76 16.5 15.53 16.5 12.77V10.08C16.5 9.09001 16.1 8.20001 15.45 7.56001ZM14.35 13.09C14.35 13.87 13.72 14.5 12.94 14.5C12.16 14.5 11.53 13.87 11.53 13.09V10.39C11.53 9.61001 12.16 8.98001 12.94 8.98001C13.33 8.98001 13.68 9.14001 13.94 9.39001C14.2 9.65001 14.35 10 14.35 10.39V13.09Z" fill="#1E353C"/>
</svg>
