<svg width="10" height="11" viewBox="0 0 10 11" fill="none" xmlns="http://www.w3.org/2000/svg">
<path d="M5 4.63C4.39 4.81 3.66001 4.9 2.82001 4.91C2.99001 4.2 3.46999 3.61 4.10999 3.28C4.43999 3.72 4.74 4.17 5 4.63Z" fill="#1E353C"/>
<path d="M3.32001 7.07998C2.96001 6.64998 2.73999 6.08997 2.73999 5.48997C2.73999 5.46997 2.73999 5.44998 2.73999 5.42998C3.70999 5.42998 4.53999 5.31998 5.23999 5.09998C5.29999 5.21998 5.35 5.33998 5.41 5.45998C4.56 5.72998 3.86001 6.26997 3.32001 7.08997V7.07998Z" fill="#1E353C"/>
<path d="M5.60999 5.94C5.83999 6.55 6.01 7.17 6.12 7.81C5.84 7.92 5.54001 7.98 5.23001 7.98C4.65001 7.98 4.12001 7.78 3.70001 7.45C4.19001 6.68 4.82999 6.17 5.60999 5.94Z" fill="#1E353C"/>
<path d="M5.5 4.45C5.24 3.98 4.95 3.53 4.62 3.08C4.82 3.03 5.02001 3 5.23001 3C5.80001 3 6.33 3.19 6.75 3.52C6.45 3.91 6.03 4.22 5.5 4.44V4.45Z" fill="#1E353C"/>
<path d="M7.67999 5.87998C7.56999 6.57998 7.16999 7.17998 6.60999 7.55998C6.49999 6.96998 6.34 6.38999 6.13 5.82999C6.6 5.75999 7.12 5.77998 7.69 5.87998H7.67999Z" fill="#1E353C"/>
<path d="M7.13 3.88998C7.47 4.28998 7.67999 4.79999 7.70999 5.35999C7.05999 5.24999 6.46999 5.24998 5.92999 5.33998C5.86999 5.19998 5.80999 5.05998 5.73999 4.91998C6.31999 4.66998 6.79 4.32999 7.13 3.89999V3.88998Z" fill="#1E353C"/>
<path d="M8.57001 2.14999C7.71001 1.28999 6.53001 0.769989 5.23001 0.769989C3.93001 0.769989 2.74001 1.29999 1.89001 2.14999C1.03001 3.00999 0.51001 4.18999 0.51001 5.48999C0.51001 8.09999 2.61999 10.22 5.23999 10.22C6.53999 10.22 7.72999 9.68999 8.57999 8.83999C9.43999 7.97999 9.95999 6.79999 9.95999 5.49999C9.95999 4.19999 9.42999 3.01 8.57999 2.16L8.57001 2.14999ZM5.23001 8.50999C3.57001 8.50999 2.22 7.15999 2.22 5.49999C2.22 3.83999 3.57001 2.48999 5.23001 2.48999C6.89001 2.48999 8.23999 3.83999 8.23999 5.49999C8.23999 7.15999 6.89001 8.50999 5.23001 8.50999Z" fill="#1E353C"/>
</svg>
