<svg width="12" height="13" viewBox="0 0 12 13" fill="none" xmlns="http://www.w3.org/2000/svg">
<path d="M10.2349 2.90747C9.14288 1.83195 7.64446 1.18164 5.99366 1.18164C4.34287 1.18164 2.83175 1.84446 1.75238 2.90747C0.660319 3.98299 0 5.45869 0 7.08447C0 10.3485 2.67935 12.9998 6.00634 12.9998C7.65713 12.9998 9.16825 12.337 10.2476 11.274C11.3397 10.1985 12 8.72276 12 7.09698C12 5.4712 11.327 3.983 10.2476 2.91999L10.2349 2.90747ZM5.99366 10.8613C3.88572 10.8613 2.17142 9.17297 2.17142 7.09698C2.17142 5.02098 3.88572 3.33267 5.99366 3.33267C8.1016 3.33267 9.81587 5.02098 9.81587 7.09698C9.81587 9.17297 8.1016 10.8613 5.99366 10.8613Z" fill="#1E353C"/>
<g clip-path="url(#clip0_52_15)">
<path d="M4.49434 9.89306C4.28882 9.86164 4.09116 9.79235 3.91171 9.68883C3.50696 9.46024 3.2049 9.0508 3.10797 8.59978C3.07025 8.42336 3.06549 8.20043 3.07049 6.82645C3.07524 5.34789 3.07173 5.42417 3.1432 5.18058C3.17867 5.05927 3.27736 4.85086 3.34881 4.74579C3.6124 4.35948 4.00015 4.11145 4.4806 4.02165C4.57654 4.00369 4.71545 4.00196 5.99365 4.00196C7.55542 4.00196 7.50395 3.99974 7.75903 4.07923C8.00671 4.15814 8.23268 4.292 8.41955 4.47049C8.60642 4.64898 8.74918 4.86733 8.83685 5.10873C8.9193 5.33928 8.92329 5.37619 8.92904 5.98346L8.93404 6.53217L8.83636 6.59811C8.69695 6.69185 8.51406 6.85892 8.25772 7.12713C7.96241 7.43618 7.6641 7.72259 7.51269 7.84242C7.18565 8.10102 6.88609 8.24866 6.58178 8.30107C6.42339 8.32814 6.16154 8.31755 6.00665 8.27769C5.86849 8.24225 5.87748 8.23635 5.82526 8.39186C5.78283 8.51492 5.75614 8.6427 5.74581 8.77226L5.73807 8.87241L5.70159 8.86503C5.39803 8.80573 5.09723 8.54885 4.98105 8.24989C4.94177 8.15442 4.91978 8.0529 4.91609 7.94995L4.91209 7.86629L4.83489 7.79641C4.67399 7.65123 4.56931 7.47359 4.53633 7.28929C4.48336 6.99574 4.62128 6.66381 4.9206 6.3651C5.23639 6.0494 5.70185 5.80163 6.15806 5.70567C6.32246 5.67122 6.61228 5.66212 6.75844 5.68721C7.04275 5.73593 7.27486 5.87742 7.41927 6.0905C7.46475 6.15718 7.46799 6.16677 7.4635 6.22706C7.46234 6.27137 7.44625 6.31404 7.41777 6.34836C7.3016 6.50854 6.95607 6.68004 6.5843 6.76174C5.92846 6.90568 5.51148 6.7268 5.57669 6.32893C5.58319 6.28882 5.58668 6.25413 5.58443 6.25192C5.57643 6.24404 5.51122 6.27751 5.44077 6.32573C5.32109 6.40791 5.21516 6.56785 5.17843 6.72115C5.16944 6.75953 5.16594 6.82104 5.16994 6.88109C5.17494 6.96253 5.18319 6.9928 5.21791 7.06218C5.2409 7.10795 5.28662 7.17291 5.31985 7.20711L5.37981 7.26887L5.35583 7.29889C5.28509 7.39017 5.22812 7.49103 5.18668 7.59835C5.13966 7.74262 5.13064 7.89629 5.16044 8.04494C5.18617 8.15838 5.26562 8.31438 5.34507 8.40615C5.40554 8.47628 5.5442 8.59414 5.56643 8.59414C5.57243 8.59414 5.57743 8.58233 5.57743 8.56806C5.57767 8.51147 5.62339 8.32865 5.65888 8.24155C5.76456 7.98122 5.99641 7.75928 6.36344 7.56736C6.42465 7.53537 6.60128 7.45171 6.75619 7.3811C7.09597 7.22608 7.28161 7.13135 7.38354 7.05999C7.67736 6.85502 7.85899 6.55189 7.9182 6.16804C7.93969 6.02779 7.93969 5.76598 7.9182 5.62499C7.82625 5.0251 7.36979 4.61714 6.71446 4.54972C5.98367 4.47418 5.05351 5.03027 4.48037 5.88507C4.20154 6.3009 4.01316 6.76226 3.93396 7.22435C3.90323 7.40348 3.89174 7.73615 3.91072 7.90101C3.95894 8.32029 4.1161 8.65837 4.38617 8.92362C4.52142 9.05751 4.67957 9.16688 4.85337 9.2467C5.445 9.52474 6.10008 9.53089 6.67598 9.26417C6.92482 9.14877 7.16917 8.96988 7.43125 8.71054C7.68609 8.45833 7.85848 8.24795 8.32868 7.61362C8.58852 7.26349 8.79439 7.03096 8.89632 6.97265L8.9338 6.95148L8.92906 7.71204C8.92456 8.44849 8.92356 8.47654 8.89832 8.58825C8.74842 9.24719 8.26372 9.72896 7.60039 9.87807L7.48346 9.90441L6.04062 9.90686C4.85787 9.90884 4.57905 9.90637 4.4941 9.89308L4.49434 9.89306Z" fill="#1E353C"/>
</g>
<defs>
<clipPath id="clip0_52_15">
<rect width="6" height="5.90909" fill="white" transform="translate(3 4)"/>
</clipPath>
</defs>
</svg>
