<svg width="10" height="11" viewBox="0 0 10 11" fill="none" xmlns="http://www.w3.org/2000/svg">
<path d="M5.57999 5.62999C5.57999 6.10999 5.18999 6.48999 4.71999 6.48999C4.24999 6.48999 3.85999 6.09999 3.85999 5.62999C3.85999 5.15999 4.24999 4.76999 4.71999 4.76999C5.18999 4.76999 5.57999 5.15999 5.57999 5.62999Z" fill="#1E353C"/>
<path d="M6.81999 4.58C6.80999 4.33 6.76998 4.19 6.72998 4.1C6.67998 3.98 6.62998 3.89 6.53998 3.8C6.44998 3.71 6.35999 3.65 6.23999 3.61C6.14999 3.57 6.00998 3.53 5.75998 3.52C5.48998 3.51 5.39999 3.5 4.70999 3.5C4.01999 3.5 3.93999 3.5 3.65999 3.52C3.40999 3.53 3.26998 3.57 3.17998 3.61C3.05998 3.66 2.96999 3.71 2.87999 3.8C2.78999 3.89 2.72999 3.98 2.68999 4.1C2.64999 4.19 2.60999 4.33 2.59999 4.58C2.58999 4.85 2.57999 4.94 2.57999 5.63C2.57999 6.32 2.57999 6.4 2.59999 6.68C2.60999 6.93 2.64999 7.07 2.68999 7.16C2.73999 7.28 2.78999 7.37 2.87999 7.46C2.96999 7.55 3.05998 7.61 3.17998 7.65C3.26998 7.69 3.40999 7.73 3.65999 7.74C3.92999 7.75 4.01999 7.75 4.70999 7.75C5.39999 7.75 5.47998 7.75 5.75998 7.74C6.00998 7.73 6.14999 7.69 6.23999 7.65C6.35999 7.6 6.44998 7.55 6.53998 7.46C6.62998 7.37 6.68998 7.28 6.72998 7.16C6.76998 7.07 6.80999 6.93 6.81999 6.68C6.82999 6.41 6.83998 6.32 6.83998 5.63C6.83998 4.94 6.83999 4.86 6.81999 4.58ZM4.70999 6.96C3.97999 6.96 3.37999 6.36 3.37999 5.63C3.37999 4.9 3.97999 4.3 4.70999 4.3C5.43999 4.3 6.03998 4.9 6.03998 5.63C6.03998 6.36 5.43999 6.96 4.70999 6.96ZM6.09999 4.56C5.92999 4.56 5.78998 4.42 5.78998 4.25C5.78998 4.08 5.92999 3.94 6.09999 3.94C6.26999 3.94 6.40999 4.08 6.40999 4.25C6.40999 4.42 6.26999 4.56 6.09999 4.56Z" fill="#1E353C"/>
<path d="M8.04999 2.29C7.18999 1.43 6.00999 0.910004 4.70999 0.910004C3.40999 0.910004 2.21998 1.44 1.36998 2.29C0.50998 3.15 -0.0100098 4.33 -0.0100098 5.63C-0.0100098 8.24 2.09999 10.36 4.70999 10.36C6.01999 10.36 7.19999 9.83 8.04999 8.98C8.90999 8.12 9.42998 6.94 9.42998 5.64C9.42998 4.34 8.89999 3.15 8.04999 2.3V2.29ZM7.28998 6.7C7.27998 6.98 7.22998 7.16 7.16998 7.33C7.09998 7.5 7.00998 7.65 6.86998 7.79C6.72998 7.93 6.57999 8.02 6.40999 8.09C6.24999 8.15 6.05998 8.2 5.77998 8.21C5.49998 8.22 5.41999 8.22 4.70999 8.22C3.99999 8.22 3.91998 8.22 3.63998 8.21C3.35998 8.2 3.17998 8.15 3.00998 8.09C2.83998 8.02 2.69999 7.93 2.54999 7.79C2.40999 7.65 2.31998 7.5 2.24998 7.33C2.18998 7.17 2.13999 6.98 2.12999 6.7C2.11999 6.42 2.10999 6.34 2.10999 5.63C2.10999 4.92 2.10999 4.84 2.12999 4.56C2.13999 4.28 2.18998 4.1 2.24998 3.93C2.31998 3.76 2.40999 3.62 2.54999 3.47C2.68999 3.33 2.83998 3.24 3.00998 3.17C3.17998 3.11 3.35998 3.06 3.63998 3.05C3.91998 3.04 3.99999 3.03 4.70999 3.03C5.41999 3.03 5.49998 3.03 5.77998 3.05C6.05998 3.06 6.23999 3.11 6.40999 3.17C6.57999 3.24 6.72998 3.33 6.86998 3.47C7.00998 3.61 7.09998 3.76 7.16998 3.93C7.22998 4.1 7.27998 4.28 7.28998 4.56C7.29998 4.84 7.30998 4.92 7.30998 5.63C7.30998 6.34 7.30998 6.42 7.28998 6.7Z" fill="#1E353C"/>
</svg>
