<svg width="11" height="11" viewBox="0 0 11 11" fill="none" xmlns="http://www.w3.org/2000/svg">
<path d="M8.94 2.1C8.09 1.24 6.90001 0.720001 5.60001 0.720001C4.30001 0.720001 3.11001 1.25 2.26001 2.1C1.40001 2.95 0.880005 4.14 0.880005 5.44C0.880005 8.05 2.99999 10.17 5.60999 10.17C6.90999 10.17 8.10001 9.64 8.95001 8.79C9.81001 7.93 10.33 6.75 10.33 5.45C10.33 4.15 9.80001 2.96 8.95001 2.11L8.94 2.1ZM4.42999 7.55H3.45001V4.39H4.42999V7.55ZM3.94 3.97C3.62 3.97 3.35999 3.71 3.35999 3.39C3.35999 3.07 3.62 2.81 3.94 2.81C4.26 2.81 4.51999 3.07 4.51999 3.39C4.51999 3.71 4.26 3.97 3.94 3.97ZM8.10001 7.55H7.13V5.89C7.13 5.44 6.96001 5.18 6.60001 5.18C6.21001 5.18 6 5.44 6 5.89V7.55H5.06V4.39H6V4.82C6 4.82 6.28001 4.3 6.95001 4.3C7.62001 4.3 8.10001 4.71 8.10001 5.55V7.55Z" fill="#1E353C"/>
</svg>
