<svg width="25" height="25" viewBox="0 0 25 25" fill="none" xmlns="http://www.w3.org/2000/svg">
<path opacity="0.2" d="M12.15 23.79C18.4018 23.79 23.47 18.7219 23.47 12.47C23.47 6.21813 18.4018 1.14999 12.15 1.14999C5.89812 1.14999 0.829987 6.21813 0.829987 12.47C0.829987 18.7219 5.89812 23.79 12.15 23.79Z" fill="#1E353C"/>
<path d="M12.15 24.45C18.7663 24.45 24.13 19.0864 24.13 12.47C24.13 5.85362 18.7663 0.48999 12.15 0.48999C5.53361 0.48999 0.169983 5.85362 0.169983 12.47C0.169983 19.0864 5.53361 24.45 12.15 24.45Z" stroke="#99999A" stroke-width="0.14" stroke-miterlimit="10"/>
<path d="M11.79 6.91998V18.15H7.78998V10.92C7.78998 8.70998 9.57998 6.91998 11.79 6.91998Z" fill="white"/>
<path d="M16.61 13.19V18.15H12.61V9.17999C14.82 9.17999 16.61 10.97 16.61 13.18V13.19Z" fill="white"/>
</svg>
