<svg width="25" height="25" viewBox="0 0 25 25" fill="none" xmlns="http://www.w3.org/2000/svg">
<path d="M12.94 23.79C19.1919 23.79 24.26 18.7219 24.26 12.47C24.26 6.21813 19.1919 1.14999 12.94 1.14999C6.68814 1.14999 1.62 6.21813 1.62 12.47C1.62 18.7219 6.68814 23.79 12.94 23.79Z" fill="white"/>
<path d="M12.94 24.45C19.5563 24.45 24.92 19.0864 24.92 12.47C24.92 5.85362 19.5563 0.48999 12.94 0.48999C6.3236 0.48999 0.959961 5.85362 0.959961 12.47C0.959961 19.0864 6.3236 24.45 12.94 24.45Z" stroke="#99999A" stroke-width="0.14" stroke-miterlimit="10"/>
<g opacity="0.2">
<path d="M14.23 8.54999C13.67 7.98999 12.9 7.64999 12.05 7.64999C11.89 7.64999 11.73 7.65999 11.58 7.68999C11.46 7.70999 11.35 7.72999 11.24 7.75999C11.22 7.75999 11.19 7.76999 11.17 7.77999C9.89998 8.15999 8.96997 9.32999 8.96997 10.72V16.84C8.96997 18.54 10.35 19.92 12.05 19.92C12.16 19.92 12.28 19.92 12.39 19.9C13.24 19.81 13.98 19.37 14.47 18.74C14.51 18.69 14.55 18.63 14.59 18.58C14.63 18.52 14.67 18.46 14.71 18.39C14.98 17.94 15.13 17.41 15.13 16.84V10.72C15.13 9.86999 14.78 9.1 14.23 8.54V8.54999ZM10.7 15.61V11.28C10.99 11.43 11.26 11.62 11.49 11.84C11.61 11.96 11.72 12.09 11.82 12.23C11.84 12.26 11.86 12.29 11.88 12.31C12.19 12.78 12.38 13.33 12.39 13.93C12.39 13.96 12.39 13.98 12.39 14.01V18.34C11.39 17.84 10.7 16.79 10.7 15.59V15.61Z" fill="#1E353C"/>
</g>
<g opacity="0.2">
<path d="M16.2 7.16998C15.59 6.55998 14.78 6.22998 13.92 6.22998C12.86 6.22998 11.86 6.75998 11.26 7.63998C11.23 7.68998 11.2 7.73998 11.17 7.78998C10.86 8.28998 10.7 8.85998 10.7 9.45998V11.29C10.99 11.44 11.26 11.63 11.49 11.85C11.61 11.97 11.72 12.1 11.82 12.24C11.84 12.27 11.86 12.3 11.88 12.32C12.21 12.8 12.39 13.36 12.39 13.94C12.39 13.95 12.39 13.96 12.39 13.98V18.4L12.47 18.44C12.92 18.67 13.42 18.79 13.93 18.79C14.12 18.79 14.3 18.77 14.48 18.74C14.58 18.72 14.68 18.7 14.78 18.67C16.18 18.29 17.15 17.01 17.15 15.56V9.43998C17.15 8.57998 16.81 7.76998 16.21 7.15998L16.2 7.16998ZM16.86 15.56C16.86 16.88 15.98 18.04 14.71 18.39C14.71 18.39 14.71 18.39 14.7 18.39C14.04 18.58 13.3 18.51 12.68 18.22V13.98C12.68 13.12 12.34 12.31 11.73 11.7C11.51 11.48 11.26 11.29 10.99 11.15V9.44998C10.99 8.84998 11.17 8.27998 11.5 7.79998C11.53 7.75998 11.55 7.71998 11.58 7.68998C12.13 6.94998 13 6.51998 13.92 6.51998C14.71 6.51998 15.44 6.82998 16 7.37998C16.55 7.92998 16.86 8.66998 16.86 9.44998V15.57V15.56Z" fill="#1E353C"/>
</g>
</svg>
