<svg width="25" height="25" viewBox="0 0 25 25" fill="none" xmlns="http://www.w3.org/2000/svg">
<path opacity="0.2" d="M12.74 23.79C18.9918 23.79 24.06 18.7219 24.06 12.47C24.06 6.21813 18.9918 1.14999 12.74 1.14999C6.4881 1.14999 1.41998 6.21813 1.41998 12.47C1.41998 18.7219 6.4881 23.79 12.74 23.79Z" fill="#1E353C"/>
<path d="M12.74 24.45C19.3564 24.45 24.72 19.0864 24.72 12.47C24.72 5.85362 19.3564 0.48999 12.74 0.48999C6.12362 0.48999 0.76001 5.85362 0.76001 12.47C0.76001 19.0864 6.12362 24.45 12.74 24.45Z" stroke="#99999A" stroke-width="0.14" stroke-miterlimit="10"/>
<path d="M12.96 5.82999C10.89 5.70999 9.17999 7.33999 9.17999 9.38999V15.45C9.17999 15.45 9.18001 15.47 9.20001 15.47H9.64001C10.86 15.47 12.02 15.83 13 16.46C13.98 17.09 14.78 18 15.29 19.11C15.29 19.12 15.31 19.13 15.32 19.11C15.93 18.47 16.31 17.61 16.31 16.65V9.51999C16.31 7.60999 14.87 5.93999 12.97 5.82999H12.96ZM12.74 14.58C12.49 14.58 12.29 14.38 12.29 14.13C12.29 13.88 12.49 13.68 12.74 13.68C12.99 13.68 13.19 13.88 13.19 14.13C13.19 14.38 12.99 14.58 12.74 14.58ZM13.25 12.73C13.25 13.01 13.02 13.24 12.74 13.24C12.6 13.24 12.47 13.18 12.38 13.09C12.29 13 12.23 12.87 12.23 12.73V8.18999C12.23 7.90999 12.46 7.67999 12.74 7.67999C13.02 7.67999 13.25 7.90999 13.25 8.18999V12.73Z" fill="white"/>
</svg>
