<svg width="12" height="13" viewBox="0 0 12 13" fill="none" xmlns="http://www.w3.org/2000/svg">
<g clip-path="url(#clip0_65_80)">
<path d="M6 13C9.31371 13 12 10.3137 12 7C12 3.68629 9.31371 1 6 1C2.68629 1 0 3.68629 0 7C0 10.3137 2.68629 13 6 13Z" fill="#1E353C"/>
<path d="M4.06152 7.43867L4.77337 9.40897C4.77337 9.40897 4.86237 9.59332 4.95767 9.59332C5.05297 9.59332 6.47042 8.11872 6.47042 8.11872L8.04667 5.07422L4.08692 6.93007L4.06152 7.43867Z" fill="#C8DAEA"/>
<path d="M5.00525 7.94434L4.8686 9.39664C4.8686 9.39664 4.8114 9.84164 5.2563 9.39664C5.7012 8.95164 6.12705 8.60849 6.12705 8.60849" fill="#A9C6D8"/>
<path d="M4.07411 7.50914L2.60981 7.03204C2.60981 7.03204 2.43481 6.96104 2.49116 6.80004C2.50276 6.76684 2.52616 6.73859 2.59616 6.69004C2.92061 6.46389 8.60146 4.42204 8.60146 4.42204C8.60146 4.42204 8.76186 4.36799 8.85646 4.40394C8.87986 4.41118 8.90092 4.42452 8.91748 4.44257C8.93404 4.46062 8.94551 4.48275 8.95071 4.50669C8.96093 4.54897 8.96521 4.59248 8.96341 4.63594C8.96296 4.67354 8.95841 4.70839 8.95496 4.76304C8.92036 5.32129 7.88496 9.48769 7.88496 9.48769C7.88496 9.48769 7.82301 9.73149 7.60106 9.73984C7.54652 9.7416 7.49218 9.73236 7.44128 9.71267C7.39038 9.69299 7.34397 9.66325 7.30481 9.62524C6.86926 9.25059 5.36386 8.23889 5.03121 8.01639C5.02371 8.01128 5.01739 8.00461 5.01268 7.99685C5.00797 7.98909 5.00498 7.98041 5.00391 7.97139C4.99926 7.94794 5.02476 7.91889 5.02476 7.91889C5.02476 7.91889 7.64606 5.58889 7.71581 5.34429C7.72121 5.32534 7.70081 5.31599 7.67341 5.32429C7.49931 5.38834 4.48121 7.29429 4.14811 7.50464C4.12413 7.51189 4.09879 7.51344 4.07411 7.50914Z" fill="white"/>
</g>
<defs>
<clipPath id="clip0_65_80">
<rect width="12" height="12" fill="white" transform="translate(0 1)"/>
</clipPath>
</defs>
</svg>
