<svg width="10" height="11" viewBox="0 0 10 11" fill="none" xmlns="http://www.w3.org/2000/svg">
<path d="M8.24001 2.29C7.38001 1.43 6.19999 0.910004 4.89999 0.910004C3.59999 0.910004 2.41 1.44 1.56 2.29C0.709998 3.14 0.179993 4.33 0.179993 5.63C0.179993 8.24 2.29 10.36 4.91 10.36C6.21 10.36 7.4 9.83 8.25 8.98C9.11 8.12 9.63 6.94 9.63 5.64C9.63 4.34 9.1 3.15 8.25 2.3L8.24001 2.29ZM6.89999 4.6C6.95999 6.05 5.88001 7.67 3.96001 7.67C3.38001 7.67 2.83 7.5 2.38 7.2C2.93 7.26 3.48 7.11 3.91 6.77C3.46 6.77 3.08 6.46 2.95 6.05C3.11 6.08 3.27 6.07 3.42 6.03C2.92 5.93 2.58 5.48 2.59 5.01C2.73 5.09 2.89 5.13 3.06 5.14C2.6 4.83 2.47001 4.23 2.74001 3.76C3.25001 4.38 4.00999 4.8 4.87 4.84C4.72 4.19 5.21 3.57 5.88 3.57C6.18001 3.57 6.45001 3.7 6.63 3.9C6.86 3.85 7.08999 3.77 7.28999 3.65C7.20999 3.89 7.05 4.09 6.84 4.22C7.05 4.19 7.24999 4.14 7.42999 4.06C7.28999 4.27 7.12 4.45 6.91 4.6H6.89999Z" fill="#1E353C"/>
</svg>
