<svg width="11" height="11" viewBox="0 0 11 11" fill="none" xmlns="http://www.w3.org/2000/svg">
<path d="M7.59 5.32999C7.5 4.23999 6.57999 3.37 5.45999 3.37C4.33999 3.37 3.43999 4.20999 3.32999 5.28999C3.32999 5.35999 3.32001 5.42999 3.32001 5.49999C3.32001 5.95999 3.47001 6.38999 3.73001 6.74999L3.45999 7.53999L4.28 7.27999C4.62 7.49999 5.01999 7.62999 5.45999 7.62999C6.63999 7.62999 7.60001 6.67999 7.60001 5.50999C7.60001 5.44999 7.60001 5.39999 7.60001 5.33999L7.59 5.32999ZM6.70999 6.37C6.65999 6.52 6.40001 6.66 6.29001 6.66C6.18001 6.67 6.18001 6.74999 5.54001 6.50999C4.91001 6.25999 4.51 5.61999 4.47 5.57999C4.45 5.54999 4.31 5.36999 4.25 5.14999C4.23 5.07999 4.22 5.00999 4.22 4.93999C4.22 4.63999 4.38 4.48999 4.44 4.41999C4.5 4.35999 4.55999 4.33999 4.60999 4.33999C4.65999 4.33999 4.69001 4.33999 4.73001 4.33999C4.77001 4.33999 4.82 4.31999 4.87 4.43999C4.92 4.55999 5.05 4.86999 5.06 4.89999C5.08 4.92999 5.09 4.96999 5.06 5.00999C5.05 5.03999 5.03999 5.05999 5.01999 5.07999C5.01999 5.07999 5.01 5.09999 5 5.10999C4.97 5.14999 4.93 5.18999 4.91 5.21999C4.88 5.24999 4.85 5.27999 4.88 5.34999C4.92 5.40999 5.04001 5.61999 5.23001 5.77999C5.47001 5.98999 5.67001 6.05999 5.73001 6.08999C5.79001 6.11999 5.83 6.11999 5.87 6.06999C5.91 6.02999 6.03001 5.88999 6.07001 5.82999C6.11001 5.76999 6.14999 5.78 6.20999 5.8C6.26999 5.82 6.57001 5.96999 6.64001 5.99999C6.70001 6.02999 6.74001 6.04999 6.76001 6.06999C6.78001 6.09999 6.78 6.21999 6.72 6.35999L6.70999 6.37Z" fill="#1E353C"/>
<path d="M5.41 0.839996C2.8 0.839996 0.679993 2.96 0.679993 5.57C0.679993 8.18 2.8 10.3 5.41 10.3C8.02 10.3 10.14 8.18 10.14 5.57C10.14 2.96 8.02 0.839996 5.41 0.839996ZM5.45999 8.02C5.00999 8.02 4.60001 7.9 4.23001 7.7L2.82001 8.15L3.28 6.8C3.05 6.42 2.92001 5.97 2.92001 5.5C2.92001 5.46 2.92001 5.43 2.92001 5.39C2.98001 4.05 4.08999 2.98 5.45999 2.98C6.82999 2.98 7.97 4.08 8 5.44C8 5.46 8 5.48 8 5.5C8 6.89 6.86001 8.03 5.45001 8.03L5.45999 8.02Z" fill="#1E353C"/>
</svg>
