<svg width="25" height="25" viewBox="0 0 25 25" fill="none" xmlns="http://www.w3.org/2000/svg">
<path opacity="0.2" d="M12.7 23.59C18.8856 23.59 23.9 18.5756 23.9 12.39C23.9 6.20441 18.8856 1.19 12.7 1.19C6.51442 1.19 1.5 6.20441 1.5 12.39C1.5 18.5756 6.51442 23.59 12.7 23.59Z" fill="#1E353C"/>
<path d="M12.7 24.25C19.2501 24.25 24.56 18.9401 24.56 12.39C24.56 5.8399 19.2501 0.529999 12.7 0.529999C6.14988 0.529999 0.839966 5.8399 0.839966 12.39C0.839966 18.9401 6.14988 24.25 12.7 24.25Z" stroke="#99999A" stroke-width="0.14" stroke-miterlimit="10"/>
<path d="M16.63 14.86H15.02V12.52C15.02 11.43 15.91 10.55 16.99 10.55C18.07 10.55 18.96 11.44 18.96 12.52C18.96 13.81 17.91 14.86 16.62 14.86H16.63ZM15.38 14.51H16.63C17.73 14.51 18.62 13.62 18.62 12.52C18.62 11.63 17.89 10.9 17 10.9C16.11 10.9 15.38 11.63 15.38 12.52V14.51Z" fill="white"/>
<path d="M11.04 14.86H9.42996C8.13996 14.86 7.08997 13.81 7.08997 12.52C7.08997 11.43 7.97997 10.55 9.05997 10.55C10.14 10.55 11.03 11.44 11.03 12.52V14.86H11.04ZM9.06998 10.9C8.17998 10.9 7.44998 11.63 7.44998 12.52C7.44998 13.62 8.33997 14.51 9.43997 14.51H10.69V12.52C10.69 11.63 9.95998 10.9 9.06998 10.9Z" fill="white"/>
<path d="M13.08 9.43C12.5 9.43 12.02 8.95 12.02 8.37C12.02 7.79 12.5 7.31 13.08 7.31C13.66 7.31 14.14 7.79 14.14 8.37C14.14 8.95 13.66 9.43 13.08 9.43ZM13.08 7.68C12.7 7.68 12.39 7.99 12.39 8.37C12.39 8.75 12.7 9.06 13.08 9.06C13.46 9.06 13.77 8.75 13.77 8.37C13.77 7.99 13.46 7.68 13.08 7.68Z" fill="white"/>
<path d="M16.58 10.26C16 10.26 15.52 9.78001 15.52 9.20001C15.52 8.62001 16 8.14001 16.58 8.14001C17.16 8.14001 17.64 8.62001 17.64 9.20001C17.64 9.78001 17.16 10.26 16.58 10.26ZM16.58 8.51002C16.2 8.51002 15.89 8.82001 15.89 9.20001C15.89 9.58001 16.2 9.89001 16.58 9.89001C16.96 9.89001 17.27 9.58001 17.27 9.20001C17.27 8.82001 16.96 8.51002 16.58 8.51002Z" fill="white"/>
<path d="M9.56998 10.26C8.98998 10.26 8.50998 9.78001 8.50998 9.20001C8.50998 8.62001 8.98998 8.14001 9.56998 8.14001C10.15 8.14001 10.63 8.62001 10.63 9.20001C10.63 9.78001 10.15 10.26 9.56998 10.26ZM9.56998 8.51002C9.18998 8.51002 8.87997 8.82001 8.87997 9.20001C8.87997 9.58001 9.18998 9.89001 9.56998 9.89001C9.94998 9.89001 10.26 9.58001 10.26 9.20001C10.26 8.82001 9.94998 8.51002 9.56998 8.51002Z" fill="white"/>
<path d="M13.03 18.83C12.14 18.83 11.42 18.11 11.42 17.23V11.61C11.42 10.72 12.14 10 13.02 10C13.9 10 14.63 10.72 14.63 11.6V17.22C14.63 18.11 13.91 18.83 13.03 18.83ZM13.03 10.34C12.34 10.34 11.78 10.9 11.78 11.59V17.21C11.78 17.9 12.34 18.46 13.03 18.46C13.72 18.46 14.28 17.9 14.28 17.21V11.59C14.28 10.9 13.72 10.34 13.03 10.34Z" fill="white"/>
</svg>
