<svg width="24" height="25" viewBox="0 0 24 25" fill="none" xmlns="http://www.w3.org/2000/svg">
<path d="M12.04 23.59C18.2256 23.59 23.24 18.5756 23.24 12.39C23.24 6.20441 18.2256 1.19 12.04 1.19C5.85437 1.19 0.839966 6.20441 0.839966 12.39C0.839966 18.5756 5.85437 23.59 12.04 23.59Z" fill="white"/>
<path d="M12.04 24.25C18.5901 24.25 23.9 18.9401 23.9 12.39C23.9 5.8399 18.5901 0.529999 12.04 0.529999C5.4899 0.529999 0.179993 5.8399 0.179993 12.39C0.179993 18.9401 5.4899 24.25 12.04 24.25Z" stroke="#99999A" stroke-width="0.14" stroke-miterlimit="10"/>
<g opacity="0.2">
<path d="M13.97 6.98999H14.31C14.82 6.98999 15.23 7.4 15.23 7.91V18.59H13.06V7.91C13.06 7.4 13.47 6.98999 13.98 6.98999H13.97Z" fill="#1E353C"/>
<path d="M18.38 10.19H16.63C16.21 10.19 15.86 10.53 15.86 10.96V11.42H6.86996C6.86996 11.42 6.82996 11.33 6.78996 11.29C6.72996 11.23 6.63997 11.19 6.54997 11.19C6.39997 11.19 6.27997 11.28 6.22997 11.42H5.67996C5.07996 11.42 4.59998 10.93 4.59998 10.34C4.59998 10.04 4.71997 9.77 4.91997 9.57C5.11997 9.37 5.38997 9.25 5.68997 9.25H17.32C17.87 9.25 18.32 9.66 18.4 10.19H18.38Z" fill="#1E353C"/>
<path d="M6.53996 12.95C6.68356 12.95 6.79997 12.8336 6.79997 12.69C6.79997 12.5464 6.68356 12.43 6.53996 12.43C6.39637 12.43 6.27997 12.5464 6.27997 12.69C6.27997 12.8336 6.39637 12.95 6.53996 12.95Z" fill="#1E353C"/>
<path d="M17.07 10.58H18.4V11.42H16.36V11.29C16.36 10.9 16.68 10.58 17.07 10.58Z" fill="#1E353C"/>
<path d="M16.14 18.6H12.11V16.7C12.11 15.59 13.01 14.68 14.13 14.68C15.25 14.68 16.15 15.58 16.15 16.7V18.6H16.14ZM12.14 18.57H16.11V16.7C16.11 15.61 15.22 14.72 14.13 14.72C13.04 14.72 12.15 15.61 12.15 16.7V18.57H12.14Z" fill="#1E353C"/>
<path d="M14.1334 6.97023L14.117 6.99536L17.9961 9.52313L18.0125 9.498L14.1334 6.97023Z" fill="#1E353C"/>
<path d="M13.767 7.04052L5.12164 9.39426L5.12952 9.4232L13.7748 7.06946L13.767 7.04052Z" fill="#1E353C"/>
<path d="M6.57997 11.36H6.49997C6.37847 11.36 6.27997 11.4585 6.27997 11.58V12.14C6.27997 12.2615 6.37847 12.36 6.49997 12.36H6.57997C6.70147 12.36 6.79997 12.2615 6.79997 12.14V11.58C6.79997 11.4585 6.70147 11.36 6.57997 11.36Z" fill="#1E353C"/>
</g>
</svg>
