<svg width="10" height="11" viewBox="0 0 10 11" fill="none" xmlns="http://www.w3.org/2000/svg">
<path d="M4.44 4.56L5.98999 5.44L4.44 6.32V4.56Z" fill="#1E353C"/>
<path d="M5.59 0.720001H4.48999C2.17999 0.720001 0.309998 2.59 0.309998 4.9V6C0.309998 8.31 2.17999 10.18 4.48999 10.18H5.59C7.9 10.18 9.76999 8.31 9.76999 6V4.9C9.76999 2.59 7.9 0.720001 5.59 0.720001ZM7.88 6.88C7.81 7.14 7.60999 7.34 7.35999 7.41C6.89999 7.53 5.04999 7.53 5.04999 7.53C5.04999 7.53 3.19999 7.53 2.73999 7.41C2.48999 7.34 2.29 7.14 2.22 6.88C2.1 6.42 2.10001 5.45 2.10001 5.45C2.10001 5.45 2.1 4.48 2.22 4.01C2.29 3.75 2.48999 3.55 2.73999 3.48C3.19999 3.36 5.04999 3.36 5.04999 3.36C5.04999 3.36 6.89999 3.36 7.35999 3.48C7.61999 3.55 7.82 3.75 7.88 4.01C8 4.48 8 5.45 8 5.45C8 5.45 8 6.42 7.88 6.88Z" fill="#1E353C"/>
<path d="M4.44 4.56V6.32L5.98999 5.44L4.44 4.56Z" fill="#1E353C"/>
<path d="M5.98999 5.44L4.44 6.32V4.56L5.98999 5.44Z" fill="#1E353C"/>
</svg>
