<svg width="10" height="15" viewBox="0 0 10 15" fill="none" xmlns="http://www.w3.org/2000/svg">
<path d="M8.21997 1.63001C7.42997 0.840006 6.33 0.350006 5.12 0.350006C2.7 0.350006 0.73999 2.31001 0.73999 4.73001V14.15H3.38C6.76 14.15 9.5 11.41 9.5 8.03001V4.73001C9.5 3.52001 9.00997 2.43001 8.21997 1.63001ZM6.88 8.42001C6.88 9.38001 6.11002 10.15 5.15002 10.15C4.19002 10.15 3.41998 9.38001 3.41998 8.42001V5.11001C3.41998 4.15001 4.19002 3.38001 5.15002 3.38001C5.63002 3.38001 6.06 3.57001 6.37 3.89001C6.68 4.20001 6.88 4.64001 6.88 5.11001V8.42001Z" fill="#1E353C"/>
</svg>
