<svg width="11" height="21" viewBox="0 0 11 21" fill="none" xmlns="http://www.w3.org/2000/svg">
<path opacity="0.2" d="M8.09998 0.910021C7.36998 0.480021 6.53 0.240021 5.63 0.240021H5.53003C4.64003 0.240021 3.81003 0.480021 3.09003 0.890021C3.07003 0.890021 3.05998 0.910021 3.03998 0.920021C1.59998 1.77002 0.630005 3.35002 0.630005 5.14002V15.14C0.630005 17.85 2.82003 20.04 5.53003 20.04H5.63C7 20.04 8.24001 19.48 9.13 18.57C9.67 18.02 10.08 17.34 10.31 16.58C10.32 16.55 10.33 16.52 10.34 16.48C10.35 16.44 10.36 16.41 10.37 16.37C10.38 16.33 10.39 16.29 10.4 16.25C10.42 16.17 10.43 16.09 10.45 16.01C10.45 15.98 10.46 15.94 10.47 15.91C10.51 15.66 10.53 15.41 10.53 15.15V5.14002C10.53 3.34002 9.54998 1.76002 8.09998 0.910021ZM4.89001 3.47002C4.89001 3.08002 5.20998 2.76002 5.59998 2.76002C5.98998 2.76002 6.31 3.08002 6.31 3.47002V9.75002C6.31 10.14 5.98998 10.46 5.59998 10.46C5.39998 10.46 5.22998 10.38 5.09998 10.25C4.96998 10.12 4.89001 9.95002 4.89001 9.75002V3.47002ZM4.97998 11.69C4.97998 11.35 5.26003 11.07 5.59003 11.07C5.92003 11.07 6.21002 11.35 6.21002 11.69C6.21002 12.03 5.93003 12.31 5.59003 12.31C5.25003 12.31 4.97998 12.03 4.97998 11.69Z" fill="#1E353C"/>
<path d="M8.09998 0.910007C7.44998 0.510007 6.71002 0.260007 5.90002 0.210007C4.87002 0.150007 3.90003 0.400007 3.09003 0.890007C3.07003 0.890007 3.05998 0.910007 3.03998 0.920007C1.61998 1.78001 0.679993 3.34001 0.679993 5.12001V13.5C0.679993 13.5 0.690022 13.53 0.710022 13.53H1.32001C3.00001 13.53 4.60002 14.02 5.96002 14.9C7.32002 15.77 8.43 17.03 9.12 18.56C9.12 18.56 9.12001 18.57 9.14001 18.57C9.68001 18.02 10.09 17.34 10.32 16.58C10.33 16.55 10.34 16.52 10.35 16.48C10.36 16.44 10.37 16.41 10.38 16.37C10.39 16.33 10.4 16.29 10.41 16.25C10.43 16.17 10.44 16.09 10.46 16.01C10.46 15.98 10.47 15.94 10.48 15.91C10.52 15.67 10.53 15.42 10.53 15.17V5.32001C10.53 3.49001 9.56999 1.82001 8.10999 0.910007H8.09998ZM5.59998 12.3C5.25998 12.3 4.98999 12.02 4.98999 11.68C4.98999 11.34 5.26998 11.06 5.59998 11.06C5.92998 11.06 6.21997 11.34 6.21997 11.68C6.21997 12.02 5.93998 12.3 5.59998 12.3ZM6.31 9.75001C6.31 10.14 5.98998 10.46 5.59998 10.46C5.39998 10.46 5.22998 10.38 5.09998 10.25C4.96998 10.12 4.89001 9.95001 4.89001 9.75001V3.47001C4.89001 3.08001 5.20998 2.76001 5.59998 2.76001C5.98998 2.76001 6.31 3.08001 6.31 3.47001V9.75001Z" fill="#1E353C"/>
</svg>
