<?xml version="1.0" encoding="UTF-8"?>
<svg id="Layer_2" data-name="Layer 2" xmlns="http://www.w3.org/2000/svg" viewBox="0 0 457.42 200.03">
  <defs>
    <style>
      .cls-1 {
        opacity: .2;
      }

      .cls-1, .cls-2, .cls-3 {
        fill: #1c363d;
      }

      .cls-3 {
        font-family: JosefinSansRoman-ExtraLight, 'JosefinSansRoman ExtraLight';
        font-size: 38.58px;
        font-variation-settings: ';
        font-weight: 200;
      }
    </style>
  </defs>
  <g id="Layer_1-2" data-name="Layer 1">
    <g>
      <text class="cls-3" transform="translate(189.21 190.39)"><tspan x="0" y="0">GROUP</tspan></text>
      <rect class="cls-1" x="80.43" y="0" width="100.11" height="199.54" rx="50.06" ry="50.06"/>
      <g>
        <path class="cls-2" d="M70.04,80.48v66.51c0,.87-.7,1.57-1.57,1.57s-1.57-.7-1.57-1.57v-66.51c0-14.53-11.13-26.35-24.8-26.35h-14.14c-13.68,0-24.8,11.82-24.8,26.35v66.51c0,.87-.71,1.57-1.57,1.57s-1.57-.7-1.57-1.57v-66.51c0-16.27,12.54-29.5,27.95-29.5h14.14c15.41,0,27.95,13.23,27.95,29.5ZM45.43,93.44c0,.87-.71,1.57-1.57,1.57h-19.84c-.87,0-1.57-.71-1.57-1.57s.71-1.57,1.57-1.57h19.84c.87,0,1.57.71,1.57,1.57Z"/>
        <path class="cls-2" d="M131.3,101.89c.51.71.34,1.69-.37,2.2-.71.5-1.69.34-2.2-.37l-33.02-46.3v89.52c0,.87-.7,1.57-1.57,1.57s-1.57-.7-1.57-1.57V52.51c0-.69.44-1.29,1.09-1.5.65-.21,1.36.03,1.76.58l35.87,50.3Z"/>
        <path class="cls-2" d="M193.23,52.55v94.43c0,.87-.7,1.57-1.57,1.57s-1.57-.7-1.57-1.57V52.55c0-.87.7-1.57,1.57-1.57s1.57.71,1.57,1.57Z"/>
        <path class="cls-2" d="M281.85,146.29c.39.78.07,1.72-.7,2.11-.23.11-.47.17-.7.17-.58,0-1.13-.32-1.41-.87l-25.69-51.38h-38.22v50.67c0,.87-.71,1.57-1.57,1.57s-1.57-.7-1.57-1.57v-52.25c0-.87.7-1.57,1.57-1.57h45.8c10.76,0,19.52-8.76,19.52-19.52s-8.76-19.52-19.52-19.52h-45.8c-.87,0-1.57-.7-1.57-1.57s.7-1.57,1.57-1.57h45.8c12.5,0,22.67,10.17,22.67,22.67s-10.17,22.67-22.67,22.67h-2.48l24.99,49.97Z"/>
        <path class="cls-2" d="M367.9,80.48v66.51c0,.87-.7,1.57-1.57,1.57s-1.57-.7-1.57-1.57v-66.51c0-14.53-11.13-26.35-24.8-26.35h-14.14c-13.68,0-24.8,11.82-24.8,26.35v66.51c0,.87-.7,1.57-1.57,1.57s-1.57-.7-1.57-1.57v-66.51c0-16.27,12.54-29.5,27.95-29.5h14.14c15.41,0,27.95,13.23,27.95,29.5ZM343.3,93.44c0,.87-.71,1.57-1.57,1.57h-19.84c-.87,0-1.57-.71-1.57-1.57s.71-1.57,1.57-1.57h19.84c.87,0,1.57.71,1.57,1.57Z"/>
        <path class="cls-2" d="M441.57,123.25c.49.72.31,1.7-.4,2.19-.72.49-1.7.31-2.19-.4l-46.64-67.61-1.81,89.55c-.02.86-.72,1.54-1.57,1.54h-.03c-.87-.02-1.56-.74-1.54-1.61l1.91-94.43c.01-.68.47-1.28,1.12-1.48.65-.2,1.36.05,1.75.62l49.41,71.63ZM457.42,52.5v94.43c0,.69-.45,1.3-1.11,1.5-.15.05-.31.07-.47.07-.51,0-1-.25-1.3-.68l-23.14-33.62c-.49-.72-.31-1.7.4-2.19.72-.49,1.7-.31,2.19.4l20.27,29.45V52.5c0-.87.71-1.57,1.57-1.57s1.57.7,1.57,1.57Z"/>
      </g>
      <path class="cls-2" d="M169.04,51.23c.7.51.85,1.5.34,2.2l-55.34,75.47c-.51.7-1.5.86-2.2.34s-.86-1.5-.34-2.2l55.34-75.47c.51-.7,1.5-.86,2.2-.34Z"/>
    </g>
  </g>
</svg>