<svg width="412" height="180" viewBox="0 0 412 180" fill="none" xmlns="http://www.w3.org/2000/svg">
<g clip-path="url(#clip0_11_26)">
<path d="M192.31 169.86C191.87 170.11 191.36 170.36 190.79 170.59C190.21 170.82 189.6 171.02 188.94 171.19C188.28 171.36 187.62 171.5 186.95 171.59C186.28 171.68 185.65 171.73 185.05 171.73C183.16 171.73 181.44 171.41 179.9 170.78C178.36 170.15 177.03 169.26 175.94 168.13C174.84 167 174 165.69 173.42 164.2C172.83 162.71 172.54 161.1 172.54 159.37C172.54 157.59 172.87 155.93 173.53 154.39C174.19 152.85 175.09 151.5 176.23 150.36C177.37 149.22 178.7 148.33 180.21 147.7C181.72 147.07 183.33 146.75 185.04 146.75C186.26 146.75 187.43 146.91 188.53 147.23C189.64 147.55 190.65 147.99 191.57 148.54L191.09 149.58C190.54 149.23 189.93 148.94 189.27 148.7C188.61 148.46 187.93 148.27 187.23 148.13C186.53 147.99 185.82 147.92 185.1 147.92C183.51 147.92 182.02 148.21 180.64 148.8C179.26 149.39 178.05 150.2 177.03 151.24C176 152.28 175.2 153.49 174.63 154.87C174.06 156.25 173.77 157.74 173.77 159.33C173.77 160.92 174.03 162.39 174.57 163.74C175.1 165.09 175.86 166.28 176.84 167.3C177.82 168.33 179 169.13 180.38 169.7C181.76 170.28 183.31 170.57 185.01 170.57C186.02 170.57 187.1 170.44 188.23 170.19C189.36 169.94 190.34 169.58 191.17 169.12V161.72H185.46V160.61H192.34V169.86H192.31Z" fill="#1C363D"/>
<path d="M236.03 147.03C236.84 147.03 237.67 147.16 238.54 147.41C239.41 147.66 240.21 148.06 240.94 148.59C241.68 149.12 242.28 149.81 242.74 150.65C243.2 151.49 243.43 152.52 243.43 153.75C243.43 154.65 243.29 155.52 243.01 156.36C242.73 157.2 242.29 157.96 241.68 158.63C241.07 159.3 240.28 159.83 239.31 160.22C238.34 160.61 237.15 160.81 235.75 160.81H231.91V171.46H230.73V147.04H236.03V147.03ZM235.65 159.69C236.94 159.69 238.01 159.51 238.87 159.15C239.72 158.79 240.39 158.33 240.88 157.75C241.37 157.17 241.71 156.53 241.92 155.83C242.13 155.13 242.23 154.44 242.23 153.77C242.23 152.99 242.08 152.25 241.78 151.56C241.48 150.87 241.06 150.27 240.52 149.76C239.98 149.25 239.34 148.86 238.6 148.58C237.86 148.3 237.05 148.16 236.18 148.16H231.93V159.68H235.65V159.69ZM239 160.07L245.88 171.45H244.5L237.62 160.07H239Z" fill="#1C363D"/>
<path d="M281.1 159.27C281.1 157.56 281.42 155.96 282.07 154.44C282.71 152.93 283.61 151.6 284.75 150.44C285.89 149.29 287.22 148.38 288.73 147.73C290.24 147.07 291.85 146.74 293.55 146.74C295.28 146.74 296.9 147.07 298.41 147.73C299.92 148.39 301.25 149.29 302.39 150.44C303.53 151.59 304.43 152.93 305.09 154.44C305.75 155.95 306.08 157.56 306.08 159.27C306.08 161 305.75 162.61 305.09 164.11C304.43 165.61 303.53 166.93 302.38 168.07C301.23 169.21 299.9 170.11 298.4 170.75C296.9 171.4 295.29 171.72 293.56 171.72C291.85 171.72 290.25 171.42 288.74 170.8C287.23 170.19 285.9 169.32 284.76 168.21C283.62 167.09 282.72 165.78 282.08 164.27C281.42 162.76 281.1 161.1 281.1 159.27ZM282.31 159.31C282.31 160.88 282.6 162.34 283.17 163.7C283.75 165.06 284.55 166.26 285.57 167.3C286.6 168.34 287.79 169.14 289.15 169.72C290.51 170.3 291.95 170.59 293.47 170.59C295.06 170.59 296.54 170.3 297.92 169.72C299.29 169.14 300.5 168.34 301.53 167.3C302.57 166.26 303.38 165.06 303.97 163.69C304.56 162.32 304.85 160.85 304.85 159.28C304.85 157.71 304.56 156.24 303.97 154.87C303.38 153.5 302.57 152.29 301.53 151.26C300.49 150.22 299.29 149.4 297.93 148.8C296.57 148.2 295.11 147.9 293.54 147.9C291.95 147.9 290.47 148.21 289.1 148.82C287.73 149.43 286.53 150.27 285.52 151.33C284.51 152.39 283.72 153.61 283.15 154.98C282.59 156.34 282.31 157.79 282.31 159.31Z" fill="#1C363D"/>
<path d="M344.77 163.32C344.77 164.84 345.07 166.14 345.67 167.23C346.27 168.31 347.09 169.14 348.14 169.72C349.19 170.3 350.38 170.59 351.72 170.59C353.08 170.59 354.29 170.3 355.35 169.72C356.41 169.14 357.25 168.31 357.86 167.23C358.47 166.15 358.78 164.84 358.78 163.32V147.03H359.92V163.42C359.92 165.2 359.56 166.7 358.83 167.93C358.1 169.16 357.12 170.1 355.89 170.75C354.66 171.4 353.27 171.72 351.72 171.72C350.18 171.72 348.79 171.4 347.57 170.75C346.35 170.1 345.38 169.17 344.66 167.93C343.94 166.7 343.59 165.19 343.59 163.42V147.03H344.77V163.32Z" fill="#1C363D"/>
<path d="M404.37 147.03C405.8 147.03 407.06 147.28 408.16 147.77C409.26 148.27 410.11 149 410.72 149.98C411.33 150.96 411.64 152.21 411.64 153.73C411.64 154.63 411.5 155.5 411.21 156.34C410.92 157.18 410.47 157.94 409.86 158.61C409.25 159.28 408.46 159.81 407.49 160.2C406.52 160.59 405.37 160.79 404.03 160.79H400.19V171.44H399.01V147.02H404.37V147.03ZM404.02 159.69C405.29 159.69 406.34 159.49 407.19 159.08C408.03 158.68 408.69 158.17 409.16 157.56C409.63 156.95 409.97 156.3 410.18 155.61C410.39 154.92 410.49 154.28 410.49 153.71C410.49 152.86 410.35 152.09 410.06 151.41C409.77 150.73 409.37 150.15 408.85 149.66C408.33 149.17 407.7 148.81 406.95 148.55C406.2 148.3 405.36 148.17 404.44 148.17H400.19V159.69H404.02Z" fill="#1C363D"/>
<path opacity="0.2" d="M117.43 179.66C92.6503 179.66 72.5503 159.57 72.5503 134.78V45.64C72.5503 20.86 92.6403 0.76001 117.43 0.76001C142.21 0.76001 162.31 20.85 162.31 45.64V134.78C162.3 159.56 142.21 179.66 117.43 179.66Z" fill="#1C363D"/>
<path d="M63.2402 72.92V132.54C63.2402 133.32 62.6102 133.95 61.8302 133.95C61.0502 133.95 60.4202 133.32 60.4202 132.54V72.92C60.4202 59.89 50.4502 49.29 38.1902 49.29H25.5002C13.2402 49.29 3.2702 59.89 3.2702 72.92V132.54C3.2702 133.32 2.6402 133.95 1.8602 133.95C1.0802 133.95 0.450195 133.32 0.450195 132.54V72.92C0.450195 58.34 11.6902 46.47 25.5102 46.47H38.1902C52.0002 46.47 63.2402 58.34 63.2402 72.92ZM41.1802 84.53C41.1802 85.31 40.5502 85.94 39.7702 85.94H21.9802C21.2002 85.94 20.5702 85.31 20.5702 84.53C20.5702 83.75 21.2002 83.12 21.9802 83.12H39.7702C40.5502 83.12 41.1802 83.75 41.1802 84.53Z" fill="#1C363D"/>
<path d="M118.15 92.1101C118.6 92.7401 118.46 93.6301 117.82 94.0801C117.18 94.5301 116.3 94.3901 115.85 93.7501L86.2502 52.2401V132.5C86.2502 133.28 85.6202 133.91 84.8402 133.91C84.0602 133.91 83.4302 133.28 83.4302 132.5V47.8401C83.4302 47.2301 83.8302 46.6801 84.4102 46.5001C84.9902 46.3101 85.6302 46.5201 85.9902 47.0201L118.15 92.1101Z" fill="#1C363D"/>
<path d="M173.67 47.88V132.54C173.67 133.32 173.04 133.95 172.26 133.95C171.48 133.95 170.85 133.32 170.85 132.54V47.88C170.85 47.1 171.48 46.47 172.26 46.47C173.04 46.47 173.67 47.1 173.67 47.88Z" fill="#1C363D"/>
<path d="M253.12 131.91C253.47 132.61 253.18 133.46 252.49 133.8C252.29 133.9 252.07 133.95 251.86 133.95C251.34 133.95 250.84 133.66 250.6 133.17L227.57 87.11H193.3V132.54C193.3 133.32 192.67 133.95 191.89 133.95C191.11 133.95 190.48 133.32 190.48 132.54V85.7C190.48 84.92 191.11 84.29 191.89 84.29H232.95C242.6 84.29 250.45 76.44 250.45 66.79C250.45 57.14 242.6 49.29 232.95 49.29H191.89C191.11 49.29 190.48 48.66 190.48 47.88C190.48 47.1 191.11 46.47 191.89 46.47H232.95C244.16 46.47 253.27 55.59 253.27 66.79C253.27 77.99 244.16 87.11 232.95 87.11H230.72L253.12 131.91Z" fill="#1C363D"/>
<path d="M330.27 72.92V132.54C330.27 133.32 329.64 133.95 328.86 133.95C328.08 133.95 327.45 133.32 327.45 132.54V72.92C327.45 59.89 317.48 49.29 305.22 49.29H292.54C280.28 49.29 270.31 59.89 270.31 72.92V132.54C270.31 133.32 269.68 133.95 268.9 133.95C268.12 133.95 267.49 133.32 267.49 132.54V72.92C267.49 58.34 278.73 46.47 292.55 46.47H305.23C319.03 46.47 330.27 58.34 330.27 72.92ZM308.21 84.53C308.21 85.31 307.58 85.94 306.8 85.94H289.01C288.23 85.94 287.6 85.31 287.6 84.53C287.6 83.75 288.23 83.12 289.01 83.12H306.8C307.58 83.12 308.21 83.75 308.21 84.53Z" fill="#1C363D"/>
<path d="M396.31 111.26C396.75 111.9 396.59 112.78 395.95 113.22C395.31 113.66 394.43 113.5 393.99 112.86L352.18 52.25L350.56 132.53C350.54 133.3 349.92 133.91 349.15 133.91C349.14 133.91 349.13 133.91 349.12 133.91C348.34 133.89 347.72 133.25 347.74 132.47L349.45 47.81C349.46 47.2 349.87 46.66 350.46 46.49C351.04 46.31 351.68 46.54 352.03 47.04L396.31 111.26ZM410.52 47.84V132.5C410.52 133.12 410.12 133.66 409.53 133.85C409.39 133.89 409.25 133.91 409.11 133.91C408.65 133.91 408.22 133.69 407.95 133.3L387.21 103.16C386.77 102.52 386.93 101.64 387.57 101.2C388.21 100.76 389.09 100.92 389.53 101.56L407.7 127.96V47.84C407.7 47.06 408.33 46.43 409.11 46.43C409.89 46.43 410.52 47.06 410.52 47.84Z" fill="#1C363D"/>
<path d="M151.99 46.7C152.62 47.16 152.76 48.04 152.3 48.67L102.69 116.33C102.23 116.96 101.35 117.1 100.72 116.64C100.09 116.18 99.9502 115.3 100.41 114.67L150.02 47.01C150.48 46.38 151.36 46.24 151.99 46.7Z" fill="#1C363D"/>
</g>
<defs>
<clipPath id="clip0_11_26">
<rect width="412" height="180" fill="white"/>
</clipPath>
</defs>
</svg>
