<svg width="12" height="21" viewBox="0 0 12 21" fill="none" xmlns="http://www.w3.org/2000/svg">
<g opacity="0.2">
<path d="M5.97994 0H5.86995L5.31995 1.03L5.43995 1.04999L5.57995 0.769989L6.06995 0.829987L6.13995 1.13H6.25995L5.98994 0H5.97994ZM5.61995 0.679993L5.90994 0.119995L6.04995 0.73999L5.62994 0.679993H5.61995Z" fill="#1E353C"/>
<path d="M7.62995 0.820007C7.60995 0.760007 7.54996 0.709993 7.46996 0.679993C7.40996 0.659993 7.34996 0.650004 7.28996 0.660004C7.22996 0.670004 7.17995 0.69999 7.13995 0.73999C7.14995 0.61999 7.09996 0.53999 6.96996 0.48999C6.90996 0.46999 6.85996 0.460011 6.79996 0.480011C6.73996 0.490011 6.68996 0.520007 6.64996 0.570007L6.69995 0.410004L6.60995 0.380005L6.32996 1.14999L6.42995 1.19L6.60995 0.690002C6.63995 0.640002 6.68995 0.599987 6.73995 0.579987C6.78995 0.549987 6.84995 0.549987 6.90995 0.579987C6.96995 0.599987 7.00995 0.629993 7.01995 0.679993C7.03995 0.719993 7.02996 0.779996 7.00996 0.839996L6.81995 1.35001L6.91995 1.38998L7.10995 0.869995C7.10995 0.869995 7.13995 0.819988 7.16995 0.799988C7.19995 0.779988 7.22995 0.76 7.26995 0.75C7.30995 0.75 7.34996 0.75001 7.39996 0.76001C7.45996 0.78001 7.49995 0.819985 7.51995 0.859985C7.53995 0.899985 7.52995 0.959999 7.49995 1.03L7.31995 1.51999L7.41995 1.56L7.59995 1.06C7.63995 0.969998 7.63996 0.889987 7.61996 0.829987L7.62995 0.820007Z" fill="#1E353C"/>
<path d="M8.21996 0.760002C8.21996 0.760002 8.19995 0.729994 8.17995 0.719994C8.15995 0.709994 8.13995 0.709994 8.12995 0.719994C8.10995 0.719994 8.09995 0.729993 8.08995 0.749993C8.07995 0.769993 8.07995 0.78998 8.08995 0.79998C8.08995 0.81998 8.10995 0.829989 8.12995 0.839989C8.14995 0.849989 8.16996 0.849999 8.18996 0.849999C8.20996 0.849999 8.21995 0.83 8.22995 0.82C8.22995 0.8 8.23995 0.779982 8.22995 0.769982L8.21996 0.760002ZM7.97995 0.959984L7.57996 1.67001L7.66995 1.71999L8.06995 1.01L7.97995 0.959984Z" fill="#1E353C"/>
<path d="M8.60999 1.34C8.60999 1.34 8.50998 1.29001 8.45998 1.29001C8.40998 1.29001 8.35998 1.31 8.30998 1.34L8.39999 1.22L8.31998 1.16L7.85999 1.84L7.94998 1.89999L8.24998 1.45999C8.24998 1.45999 8.34999 1.39 8.39999 1.38C8.44999 1.38 8.50998 1.38001 8.55998 1.42001C8.57998 1.43001 8.59999 1.44999 8.60999 1.45999L8.66998 1.38C8.66998 1.38 8.63999 1.35 8.61999 1.34H8.60999Z" fill="#1E353C"/>
<path d="M9.16994 1.89998C9.15994 1.82998 9.11994 1.76 9.04994 1.7C8.99994 1.66 8.95994 1.62998 8.90993 1.61998C8.85993 1.59998 8.80994 1.59998 8.75994 1.61998C8.70994 1.61998 8.67994 1.64999 8.63994 1.68999L8.71994 1.76C8.71994 1.76 8.78994 1.70998 8.83994 1.70998C8.88994 1.70998 8.93994 1.72998 8.98994 1.77998C9.03994 1.81998 9.06994 1.87 9.06994 1.92C9.06994 1.97 9.05994 2.00998 9.01994 2.05998L8.94994 2.12999L8.81994 2.01997C8.72994 1.93997 8.64994 1.89997 8.56994 1.88997C8.48994 1.88997 8.41994 1.89998 8.36994 1.95998C8.33994 1.98998 8.31994 2.02999 8.30994 2.06999C8.30994 2.10999 8.30994 2.14999 8.31994 2.18999C8.33994 2.22999 8.35994 2.26997 8.39994 2.29997C8.44994 2.33997 8.49994 2.36999 8.54994 2.37999C8.59994 2.38999 8.65994 2.38999 8.70994 2.37999L8.67994 2.40999C8.67994 2.40999 8.63994 2.45998 8.62994 2.48998L8.70994 2.56999C8.70994 2.56999 8.75994 2.47999 8.80994 2.40999L9.05994 2.12999C9.10994 2.06999 9.13994 1.99998 9.12994 1.92998L9.16994 1.89998ZM8.79994 2.28999C8.74994 2.30999 8.69994 2.31998 8.64994 2.30998C8.59994 2.30998 8.54994 2.27998 8.49994 2.23998C8.45994 2.20998 8.43994 2.16998 8.42994 2.11998C8.42994 2.07998 8.42994 2.04 8.46994 2.01C8.50994 1.96 8.55994 1.94998 8.61994 1.95998C8.67994 1.96998 8.73994 2.00998 8.79994 2.05998L8.91994 2.15999L8.79994 2.28999Z" fill="#1E353C"/>
<path d="M9.73998 2.42001C9.73998 2.42001 9.64998 2.34001 9.58998 2.32001C9.53998 2.30001 9.47998 2.30001 9.41998 2.32001C9.41998 2.32001 9.40999 2.32001 9.39999 2.32001L9.30998 2.39999C9.30998 2.39999 9.31999 2.39999 9.32999 2.39999C9.38999 2.36999 9.43998 2.36 9.49998 2.37C9.55998 2.37 9.60999 2.40001 9.64999 2.45001C9.68999 2.50001 9.70998 2.55 9.69998 2.59C9.69998 2.64 9.65998 2.68001 9.59998 2.73001L9.18999 3.07001L9.25999 3.14999L9.66998 2.81C9.74998 2.74 9.78998 2.67999 9.80998 2.60999C9.81998 2.53999 9.79998 2.48 9.73998 2.41V2.42001ZM9.48998 2.13998L8.85999 2.66L8.92999 2.73999L9.34998 2.39999L9.36999 2.38L9.43999 2.32001L9.55998 2.20999L9.49998 2.13L9.48998 2.13998Z" fill="#1E353C"/>
<path d="M10.3199 3.28C10.2799 3.21 10.2399 3.16998 10.1799 3.13998C10.1199 3.10998 10.0599 3.09998 9.9899 3.10998C9.9199 3.10998 9.8499 3.13999 9.7799 3.17999H9.7599C9.6799 3.22999 9.6299 3.27999 9.5899 3.33999C9.5499 3.39999 9.5299 3.45999 9.5199 3.51999C9.5199 3.57999 9.5299 3.64999 9.5699 3.70999C9.5999 3.75999 9.6399 3.79998 9.6799 3.82998C9.7199 3.85998 9.7699 3.88 9.8199 3.88C9.8699 3.88 9.9199 3.88 9.9699 3.85L9.9199 3.76001C9.8699 3.79001 9.8199 3.78999 9.7699 3.76999C9.7199 3.74999 9.6799 3.71 9.6499 3.66C9.6099 3.59 9.6099 3.52999 9.6399 3.45999C9.6699 3.39999 9.7299 3.34001 9.8199 3.29001H9.8399C9.9299 3.23001 10.0099 3.20999 10.0799 3.20999C10.1499 3.20999 10.1999 3.25998 10.2399 3.32998C10.2699 3.38998 10.2799 3.43999 10.2699 3.48999C10.2599 3.53999 10.2199 3.58999 10.1699 3.61999L10.2199 3.70999C10.2999 3.65999 10.3499 3.59999 10.3699 3.51999C10.3899 3.43999 10.3699 3.36 10.3299 3.28H10.3199Z" fill="#1E353C"/>
<path d="M10.69 4.10001C10.66 4.03001 10.62 3.96999 10.57 3.92999C10.52 3.88999 10.45 3.86999 10.38 3.85999C10.31 3.85999 10.24 3.85998 10.17 3.88998H10.13C10.05 3.92998 9.99 3.97 9.94 4.03C9.89 4.08 9.87 4.14001 9.86 4.20001C9.85 4.26001 9.86 4.32998 9.88 4.38998C9.9 4.44998 9.94 4.50999 9.99 4.54999C10.04 4.58999 10.1 4.62 10.17 4.62C10.24 4.62 10.31 4.62 10.39 4.59H10.41C10.48 4.55 10.54 4.52 10.59 4.47C10.64 4.42 10.67 4.36999 10.69 4.29999C10.7 4.22999 10.7 4.16 10.67 4.09L10.69 4.10001ZM10.61 4.28C10.61 4.28 10.57 4.37 10.53 4.41C10.49 4.45 10.44 4.48 10.39 4.5H10.37C10.31 4.53 10.25 4.54001 10.2 4.54001C10.15 4.54001 10.1 4.51999 10.06 4.48999C10.02 4.45999 9.99 4.42 9.97 4.37C9.95 4.32 9.95 4.27 9.96 4.22C9.97 4.17 10 4.13 10.04 4.09C10.08 4.05 10.13 4.02 10.19 4H10.22C10.28 3.97 10.33 3.95999 10.39 3.95999C10.44 3.95999 10.49 3.98001 10.53 4.01001C10.57 4.04001 10.6 4.08 10.62 4.12C10.64 4.17 10.64 4.21999 10.62 4.26999L10.61 4.28Z" fill="#1E353C"/>
<path d="M10.9499 5.07999C10.9399 5.01999 10.9099 4.96999 10.8699 4.92999C10.8299 4.88999 10.7799 4.86001 10.7299 4.85001C10.7299 4.85001 10.7199 4.85001 10.7099 4.85001L10.5899 4.88C10.5899 4.88 10.5999 4.88 10.6099 4.88C10.6699 4.88 10.7299 4.89999 10.7699 4.92999C10.8199 4.96999 10.8499 5.01001 10.8599 5.07001C10.8699 5.14001 10.8599 5.19 10.8399 5.22C10.8099 5.26 10.7599 5.27999 10.6899 5.29999L10.1699 5.39999L10.1899 5.5L10.7099 5.39999C10.8099 5.37999 10.8799 5.34001 10.9199 5.29001C10.9599 5.24001 10.9699 5.16999 10.9599 5.07999H10.9499ZM10.8699 4.72L10.0599 4.87L10.0799 4.97L10.6099 4.87H10.6399L10.7299 4.85001L10.8899 4.82001L10.8699 4.72Z" fill="#1E353C"/>
<path d="M11.01 5.78C11.01 5.78 10.96 5.69999 10.93 5.67999C10.9 5.65999 10.86 5.63999 10.81 5.64999C10.75 5.64999 10.7 5.68 10.67 5.72C10.63 5.76 10.61 5.84 10.59 5.94C10.58 6.01 10.56 6.06999 10.53 6.10999C10.5 6.14999 10.47 6.17001 10.43 6.17001C10.39 6.17001 10.35 6.14999 10.33 6.10999C10.31 6.06999 10.29 6.01999 10.28 5.95999C10.28 5.88999 10.29 5.83999 10.32 5.79999C10.35 5.75999 10.39 5.74001 10.44 5.73001V5.63C10.39 5.63 10.35 5.64999 10.31 5.67999C10.27 5.70999 10.2499 5.74999 10.2299 5.79999C10.2099 5.84999 10.2 5.91 10.2 5.97C10.2 6.03 10.21 6.09 10.24 6.13C10.26 6.18 10.29 6.20999 10.32 6.23999C10.35 6.26999 10.4 6.28 10.44 6.28C10.5 6.28 10.55 6.25999 10.59 6.20999C10.63 6.16999 10.65 6.09999 10.67 6.01999C10.67 5.98999 10.68 5.97 10.68 5.94C10.69 5.88 10.7099 5.83999 10.7299 5.79999C10.7499 5.75999 10.78 5.75 10.82 5.75C10.86 5.75 10.9 5.76999 10.92 5.79999C10.95 5.82999 10.96 5.88 10.96 5.94C10.96 6 10.95 6.05 10.92 6.09C10.89 6.13 10.85 6.14999 10.8 6.14999V6.26001C10.85 6.26001 10.9 6.24 10.93 6.22C10.97 6.19 10.99 6.14999 11.01 6.10999C11.03 6.05999 11.04 6.01 11.03 5.94C11.03 5.88 11.02 5.83001 11 5.79001L11.01 5.78Z" fill="#1E353C"/>
<path d="M10.9499 6.37V6.78H11.0299V6.37H10.9499ZM10.4099 6.5C10.3299 6.5 10.2799 6.51999 10.2399 6.54999C10.1999 6.57999 10.1899 6.63001 10.1899 6.70001C10.1899 6.75001 10.1899 6.77999 10.1999 6.79999H10.2799C10.2799 6.79999 10.2799 6.73 10.2799 6.72C10.2799 6.68 10.2899 6.65 10.3199 6.63C10.3399 6.61 10.3799 6.60001 10.4299 6.60001H11.2499V6.48999H10.4199L10.4099 6.5Z" fill="#1E353C"/>
<path d="M11 7.16C11 7.16 10.93 7.09 10.88 7.06H11.03V6.95999H10.21V7.06H10.74C10.81 7.08 10.86 7.09998 10.89 7.13998C10.93 7.17998 10.94 7.23001 10.94 7.29001C10.94 7.32001 10.94 7.34001 10.94 7.35001H11.04C11.04 7.35001 11.04 7.31001 11.04 7.29001C11.04 7.23001 11.03 7.17998 11 7.13998V7.16Z" fill="#1E353C"/>
<path d="M10.4299 8.03H10.3399H10.3199H10.1999V8.13H11.0199V8.01999H10.4199L10.4299 8.03ZM10.4999 7.5C10.3999 7.5 10.3199 7.52001 10.2699 7.57001C10.2199 7.62001 10.1899 7.67999 10.1899 7.76999C10.1899 7.82999 10.1999 7.88999 10.2299 7.92999C10.2499 7.96999 10.2799 8 10.3199 8.03C10.3199 8.03 10.3199 8.03 10.3299 8.03H10.4599C10.4599 8.03 10.4399 8.01999 10.4299 8.01999C10.3799 8.00999 10.3399 7.98001 10.3199 7.95001C10.2899 7.91001 10.2699 7.85001 10.2699 7.79001C10.2699 7.73001 10.2899 7.67999 10.3299 7.64999C10.3699 7.61999 10.4199 7.60001 10.4899 7.60001H11.0199V7.5H10.4899H10.4999Z" fill="#1E353C"/>
<path d="M10.9899 8.47C10.9599 8.42 10.9099 8.38001 10.8399 8.35001C10.7699 8.32001 10.7099 8.31 10.6199 8.31H10.5999C10.5099 8.31 10.4399 8.32001 10.3799 8.35001C10.3199 8.38001 10.2699 8.42 10.2299 8.47C10.1999 8.52 10.1799 8.59 10.1799 8.66C10.1799 8.72 10.1899 8.77001 10.2199 8.82001C10.2399 8.87001 10.2799 8.90999 10.3199 8.92999C10.3599 8.95999 10.4099 8.97 10.4599 8.97V8.87C10.3999 8.87 10.3599 8.85 10.3199 8.81C10.2899 8.77 10.2699 8.72 10.2699 8.66C10.2699 8.58 10.2999 8.52001 10.3499 8.48001C10.4099 8.44001 10.4899 8.42001 10.5899 8.42001H10.6099C10.7199 8.42001 10.7999 8.44001 10.8499 8.48001C10.9099 8.52001 10.9299 8.58 10.9299 8.66C10.9299 8.72 10.9099 8.78001 10.8699 8.82001C10.8299 8.86001 10.7799 8.88 10.7199 8.88V8.98001C10.8099 8.98001 10.8799 8.94998 10.9399 8.88998C10.9999 8.82998 11.0199 8.76 11.0199 8.66C11.0199 8.59 10.9999 8.52 10.9699 8.47H10.9899Z" fill="#1E353C"/>
<path d="M10.9499 9.06V9.47H11.0299V9.06H10.9499ZM10.4099 9.20001C10.3299 9.20001 10.2799 9.22 10.2399 9.25C10.1999 9.28 10.1899 9.32999 10.1899 9.39999C10.1899 9.44999 10.1899 9.48 10.1999 9.5H10.2799C10.2799 9.5 10.2799 9.43001 10.2799 9.42001C10.2799 9.38001 10.2899 9.34999 10.3199 9.32999C10.3399 9.30999 10.3799 9.29999 10.4299 9.29999H11.2499V9.19H10.4199L10.4099 9.20001Z" fill="#1E353C"/>
<path d="M11.32 9.67001C11.32 9.67001 11.29 9.64999 11.27 9.64999C11.25 9.64999 11.23 9.65001 11.22 9.67001C11.21 9.68001 11.2 9.7 11.2 9.72C11.2 9.74 11.2 9.75999 11.22 9.76999C11.23 9.77999 11.25 9.79001 11.27 9.79001C11.29 9.79001 11.31 9.78999 11.32 9.76999C11.33 9.74999 11.34 9.74 11.34 9.72C11.34 9.7 11.34 9.68001 11.32 9.67001ZM10.21 9.66V9.76999H11.03V9.66H10.21Z" fill="#1E353C"/>
<path d="M10.9899 10.12C10.9499 10.06 10.8999 10.02 10.8399 9.98999C10.7799 9.95999 10.7099 9.95001 10.6299 9.95001H10.5899C10.5099 9.95001 10.4299 9.97 10.3699 10C10.3099 10.03 10.2599 10.08 10.2299 10.13C10.1999 10.19 10.1799 10.25 10.1799 10.32C10.1799 10.39 10.1999 10.45 10.2299 10.51C10.2599 10.57 10.3099 10.61 10.3699 10.64C10.4299 10.67 10.5099 10.69 10.5899 10.69H10.6199C10.6999 10.69 10.7699 10.68 10.8299 10.65C10.8899 10.62 10.9399 10.58 10.9799 10.52C11.0199 10.46 11.0299 10.4 11.0299 10.32C11.0299 10.24 11.0099 10.17 10.9699 10.12H10.9899ZM10.9099 10.47C10.9099 10.47 10.8399 10.54 10.7899 10.56C10.7399 10.58 10.6899 10.59 10.6199 10.59H10.5999C10.5399 10.59 10.4799 10.58 10.4299 10.56C10.3799 10.54 10.3399 10.51 10.3199 10.47C10.2899 10.43 10.2799 10.38 10.2799 10.33C10.2799 10.27 10.2999 10.23 10.3199 10.19C10.3499 10.15 10.3899 10.12 10.4399 10.1C10.4899 10.08 10.5399 10.07 10.6099 10.07H10.6399C10.6999 10.07 10.7599 10.08 10.8099 10.1C10.8599 10.12 10.8999 10.15 10.9199 10.19C10.9499 10.23 10.9599 10.27 10.9599 10.33C10.9599 10.39 10.9499 10.43 10.9199 10.47H10.9099Z" fill="#1E353C"/>
<path d="M10.99 11.08C10.99 11.08 10.92 11 10.86 10.97C10.86 10.97 10.86 10.97 10.85 10.97H10.73C10.73 10.97 10.74 10.97 10.75 10.97C10.81 10.99 10.86 11.01 10.9 11.05C10.94 11.09 10.96 11.14 10.96 11.21C10.96 11.28 10.94 11.32 10.91 11.35C10.87 11.38 10.82 11.4 10.75 11.4H10.22V11.51H10.75C10.85 11.51 10.93 11.49 10.98 11.44C11.03 11.4 11.06 11.33 11.06 11.24C11.06 11.18 11.04 11.12 11.01 11.07L10.99 11.08ZM10.21 10.87V10.97H10.87H11.03V10.87H10.21Z" fill="#1E353C"/>
<path d="M10.99 11.98C10.99 11.98 10.91 11.89 10.85 11.87C10.79 11.84 10.71 11.83 10.63 11.83H10.62C10.53 11.83 10.46 11.84 10.4 11.87C10.34 11.9 10.29 11.93 10.25 11.98C10.21 12.03 10.2 12.08 10.2 12.15C10.2 12.21 10.21 12.26 10.24 12.3C10.26 12.34 10.29 12.37 10.33 12.4C10.33 12.4 10.33 12.4 10.34 12.4H10.45C10.45 12.4 10.45 12.4 10.44 12.4C10.4 12.38 10.36 12.36 10.34 12.32C10.31 12.28 10.3 12.23 10.3 12.17C10.3 12.1 10.33 12.04 10.39 12C10.45 11.96 10.53 11.94 10.63 11.94C10.74 11.94 10.83 11.96 10.89 12C10.95 12.04 10.98 12.1 10.98 12.17C10.98 12.29 10.92 12.36 10.81 12.4C10.81 12.4 10.8 12.4 10.79 12.4H10.91C10.91 12.4 10.92 12.4 10.93 12.4C10.97 12.37 11.01 12.34 11.03 12.3C11.06 12.25 11.07 12.2 11.07 12.14C11.07 12.07 11.05 12.02 11.02 11.97L10.99 11.98ZM10.9 12.41H10.8H10.22C10.14 12.41 10.07 12.39 10.03 12.35C9.97999 12.31 9.95999 12.25 9.95999 12.17C9.95999 12.12 9.95999 12.08 9.98999 12.05C10.01 12.01 10.04 11.98 10.08 11.95L10.01 11.9C10.01 11.9 9.92999 11.97 9.90999 12.02C9.88999 12.07 9.87 12.12 9.87 12.18C9.87 12.26 9.88999 12.32 9.91999 12.37C9.94999 12.42 10 12.46 10.05 12.48C10.1 12.5 10.16 12.52 10.22 12.52H11.02V12.42H10.89L10.9 12.41Z" fill="#1E353C"/>
<path d="M11 12.93C11 12.93 10.93 12.86 10.88 12.83H11.03V12.73H10.21V12.83H10.74C10.81 12.84 10.86 12.87 10.89 12.91C10.93 12.95 10.94 13 10.94 13.06C10.94 13.09 10.94 13.11 10.94 13.12H11.04C11.04 13.12 11.04 13.08 11.04 13.06C11.04 13 11.03 12.95 11 12.91V12.93Z" fill="#1E353C"/>
<path d="M10.9899 13.39C10.9499 13.33 10.8999 13.29 10.8399 13.26C10.7799 13.23 10.7099 13.22 10.6299 13.22H10.5899C10.5099 13.22 10.4299 13.24 10.3699 13.27C10.3099 13.3 10.2599 13.35 10.2299 13.4C10.1999 13.46 10.1799 13.52 10.1799 13.59C10.1799 13.66 10.1999 13.72 10.2299 13.78C10.2599 13.84 10.3099 13.88 10.3699 13.91C10.4299 13.94 10.5099 13.96 10.5899 13.96H10.6199C10.6999 13.96 10.7699 13.95 10.8299 13.92C10.8899 13.89 10.9399 13.85 10.9799 13.79C11.0199 13.73 11.0299 13.67 11.0299 13.59C11.0299 13.51 11.0099 13.44 10.9699 13.39H10.9899ZM10.9099 13.73C10.9099 13.73 10.8399 13.8 10.7899 13.82C10.7399 13.84 10.6899 13.85 10.6199 13.85H10.5999C10.5399 13.85 10.4799 13.84 10.4299 13.82C10.3799 13.8 10.3399 13.77 10.3199 13.73C10.2899 13.69 10.2799 13.64 10.2799 13.59C10.2799 13.53 10.2999 13.49 10.3199 13.45C10.3499 13.41 10.3899 13.38 10.4399 13.36C10.4899 13.34 10.5399 13.33 10.6099 13.33H10.6399C10.6999 13.33 10.7599 13.34 10.8099 13.36C10.8599 13.38 10.8999 13.41 10.9199 13.45C10.9499 13.49 10.9599 13.53 10.9599 13.59C10.9599 13.65 10.9499 13.69 10.9199 13.73H10.9099Z" fill="#1E353C"/>
<path d="M10.4299 14.66H10.3399H10.3199H10.1999V14.77H11.0199V14.66H10.4199H10.4299ZM10.4999 14.13C10.3999 14.13 10.3199 14.15 10.2699 14.2C10.2199 14.25 10.1899 14.31 10.1899 14.4C10.1899 14.46 10.1999 14.52 10.2299 14.57C10.2499 14.61 10.2799 14.64 10.3199 14.67C10.3199 14.67 10.3299 14.67 10.3399 14.68H10.4699L10.4499 14.67C10.3999 14.66 10.3599 14.63 10.3299 14.6C10.2999 14.56 10.2799 14.5 10.2799 14.44C10.2799 14.38 10.2999 14.33 10.3399 14.3C10.3799 14.27 10.4299 14.25 10.4999 14.25H11.0299V14.15H10.4999V14.13Z" fill="#1E353C"/>
<path d="M11.0099 15.2C11.0099 15.2 10.9499 15.12 10.9099 15.09H11.0299V14.99H9.8999V15.1H10.3199C10.3199 15.1 10.2499 15.16 10.2299 15.21C10.2099 15.25 10.1999 15.3 10.1999 15.36C10.1999 15.42 10.2199 15.48 10.2499 15.53C10.2799 15.58 10.3299 15.61 10.3999 15.64C10.4699 15.67 10.5399 15.68 10.6199 15.68H10.6299C10.7599 15.68 10.8699 15.65 10.9399 15.6C11.0099 15.54 11.0499 15.47 11.0499 15.37C11.0499 15.31 11.0399 15.26 11.0099 15.22V15.2ZM10.8699 15.49C10.8099 15.53 10.7299 15.55 10.6299 15.55H10.6099C10.4999 15.55 10.4199 15.53 10.3699 15.49C10.3199 15.45 10.2899 15.4 10.2899 15.33C10.2899 15.27 10.2999 15.23 10.3299 15.19C10.3499 15.15 10.3899 15.12 10.4399 15.1H10.7999C10.8599 15.12 10.8999 15.15 10.9299 15.19C10.9599 15.23 10.9699 15.28 10.9699 15.34C10.9699 15.41 10.9399 15.47 10.8799 15.51L10.8699 15.49Z" fill="#1E353C"/>
</g>
<path d="M8.11 2.95001C7.25 2.09001 6.06 1.56 4.75 1.56C2.13 1.56 0 3.69 0 6.31V15.74C0 18.36 2.13 20.49 4.75 20.49C7.37 20.49 9.5 18.36 9.5 15.74V6.31C9.5 5 8.97 3.81001 8.11 2.95001ZM8.01 7.63998L3.84 13.33C3.74 13.47 3.55 13.49 3.42 13.4C3.35 13.35 3.31 13.28 3.3 13.2C3.29 13.12 3.3 13.04 3.36 12.97L4.57 11.31L2.5 8.39999V14.58C2.5 14.75 2.36 14.88 2.2 14.88C2.04 14.88 1.9 14.74 1.9 14.58V7.45999C1.9 7.32999 1.99 7.21001 2.11 7.17001C2.24 7.13001 2.37 7.17 2.45 7.28L4.96 10.8L7.54 7.28C7.64 7.15 7.83 7.11999 7.96 7.20999C8.1 7.30999 8.13 7.5 8.03 7.63L8.01 7.63998Z" fill="#1E353C"/>
</svg>
