<svg width="54" height="54" viewBox="0 0 54 54" fill="none" xmlns="http://www.w3.org/2000/svg">
<path opacity="0.3" d="M34.3488 25.7842C34.0974 25.393 34.1692 24.8452 34.5284 24.5713C34.8877 24.2974 35.3907 24.3756 35.6421 24.7669L52.4192 50.395V0.860668C52.4192 0.39115 52.7785 0 53.2096 0C53.6407 0 54 0.39115 54 0.860668V53.1336C54 53.5249 53.7844 53.838 53.4611 53.9554C53.1377 54.0727 52.7785 53.9553 52.5629 53.6423L34.3488 25.8234V25.7842Z" fill="#1E353C"/>
<path opacity="0.3" d="M15.6283 53.8396C15.2693 53.5688 15.1975 53.0271 15.4488 52.6401L43.5589 11.3538C43.8102 10.9669 44.3128 10.8895 44.6718 11.1604C45.0308 11.4312 45.1026 11.9729 44.8513 12.3599L16.7412 53.6462C16.4899 54.0331 15.9873 54.1105 15.6283 53.8396Z" fill="#1E353C"/>
<path opacity="0.3" d="M19.6511 28.2156C19.9026 28.6069 19.8307 29.1547 19.4715 29.4286C19.1122 29.7024 18.6093 29.6242 18.3578 29.233L1.58072 3.60527V53.1391C1.58072 53.6086 1.22146 54 0.79036 54C0.359257 54 0 53.6086 0 53.1391V0.866376C0 0.475113 0.215557 0.162017 0.538884 0.0446376C0.862212 -0.0727414 1.22146 0.0447044 1.43702 0.357715L19.6511 28.1765V28.2156Z" fill="#1E353C"/>
<path opacity="0.3" d="M38.3717 0.160369C38.7307 0.431225 38.8025 0.972929 38.5512 1.35987L10.4412 42.6461C10.1899 43.033 9.68729 43.1106 9.32829 42.8397C8.96928 42.5689 8.89747 42.0269 9.14877 41.64L37.2588 0.35379C37.5101 -0.0331472 38.0127 -0.110488 38.3717 0.160369Z" fill="#1E353C"/>
<path opacity="0.3" d="M34.3488 25.7842C34.0974 25.393 34.1692 24.8452 34.5284 24.5713C34.8877 24.2974 35.3907 24.3756 35.6421 24.7669L52.4192 50.395V0.860668C52.4192 0.39115 52.7785 0 53.2096 0C53.6407 0 54 0.39115 54 0.860668V53.1336C54 53.5249 53.7844 53.838 53.4611 53.9554C53.1377 54.0727 52.7785 53.9553 52.5629 53.6423L34.3488 25.8234V25.7842Z" fill="#1E353C"/>
<path opacity="0.3" d="M15.6283 53.8396C15.2693 53.5688 15.1975 53.0271 15.4488 52.6401L43.5589 11.3538C43.8102 10.9669 44.3128 10.8895 44.6718 11.1604C45.0308 11.4312 45.1026 11.9729 44.8513 12.3599L16.7412 53.6462C16.4899 54.0331 15.9873 54.1105 15.6283 53.8396Z" fill="#1E353C"/>
<path opacity="0.3" d="M19.6511 28.2156C19.9026 28.6069 19.8307 29.1547 19.4715 29.4286C19.1122 29.7024 18.6093 29.6242 18.3578 29.233L1.58072 3.60527V53.1391C1.58072 53.6086 1.22146 54 0.79036 54C0.359257 54 0 53.6086 0 53.1391V0.866376C0 0.475113 0.215557 0.162017 0.538884 0.0446376C0.862212 -0.0727414 1.22146 0.0447044 1.43702 0.357715L19.6511 28.1765V28.2156Z" fill="#1E353C"/>
<path opacity="0.3" d="M38.3717 0.160369C38.7307 0.431225 38.8025 0.972929 38.5512 1.35987L10.4412 42.6461C10.1899 43.033 9.68729 43.1106 9.32829 42.8397C8.96928 42.5689 8.89747 42.0269 9.14877 41.64L37.2588 0.35379C37.5101 -0.0331472 38.0127 -0.110488 38.3717 0.160369Z" fill="#1E353C"/>
</svg>
