<svg width="60" height="54" viewBox="0 0 60 54" fill="none" xmlns="http://www.w3.org/2000/svg">
    <path opacity="0.3"
        d="M38.1654 25.7842C37.886 25.393 37.9658 24.8452 38.365 24.5713C38.7642 24.2974 39.323 24.3756 39.6024 24.7669L58.2436 50.395V0.860668C58.2436 0.39115 58.6428 0 59.1218 0C59.6008 0 60 0.39115 60 0.860668V53.1336C60 53.5249 59.7605 53.838 59.4012 53.9554C59.042 54.0727 58.6428 53.9553 58.4033 53.6423L38.1654 25.8234V25.7842Z"
        fill="#1E353C" />
    <path opacity="0.3"
        d="M17.3648 53.8396C16.9659 53.5688 16.8861 53.0271 17.1653 52.6401L48.3987 11.3538C48.6779 10.9669 49.2364 10.8895 49.6353 11.1604C50.0342 11.4312 50.1139 11.9729 49.8347 12.3599L18.6013 53.6462C18.3221 54.0331 17.7637 54.1105 17.3648 53.8396Z"
        fill="#1E353C" />
    <path opacity="0.3"
        d="M21.8346 28.2156C22.114 28.6069 22.0342 29.1547 21.635 29.4286C21.2358 29.7024 20.677 29.6242 20.3976 29.233L1.75636 3.60527V53.1391C1.75636 53.6086 1.35718 54 0.878178 54C0.399174 54 0 53.6086 0 53.1391V0.866376C0 0.475113 0.239508 0.162017 0.59876 0.0446375C0.958013 -0.0727414 1.35718 0.0447044 1.59668 0.357715L21.8346 28.1765V28.2156Z"
        fill="#1E353C" />
    <path opacity="0.3"
        d="M42.6353 0.160369C43.0342 0.431225 43.1139 0.972929 42.8347 1.35987L11.6013 42.6461C11.3221 43.033 10.7637 43.1106 10.3648 42.8397C9.96587 42.5689 9.88608 42.0269 10.1653 41.64L41.3987 0.35379C41.6779 -0.0331472 42.2364 -0.110488 42.6353 0.160369Z"
        fill="#1E353C" />
    <path opacity="0.3"
        d="M38.1654 25.7842C37.886 25.393 37.9658 24.8452 38.365 24.5713C38.7642 24.2974 39.323 24.3756 39.6024 24.7669L58.2436 50.395V0.860668C58.2436 0.39115 58.6428 0 59.1218 0C59.6008 0 60 0.39115 60 0.860668V53.1336C60 53.5249 59.7605 53.838 59.4012 53.9554C59.042 54.0727 58.6428 53.9553 58.4033 53.6423L38.1654 25.8234V25.7842Z"
        fill="#1E353C" />
    <path opacity="0.3"
        d="M17.3648 53.8396C16.9659 53.5688 16.8861 53.0271 17.1653 52.6401L48.3987 11.3538C48.6779 10.9669 49.2364 10.8895 49.6353 11.1604C50.0342 11.4312 50.1139 11.9729 49.8347 12.3599L18.6013 53.6462C18.3221 54.0331 17.7637 54.1105 17.3648 53.8396Z"
        fill="#1E353C" />
    <path opacity="0.3"
        d="M21.8346 28.2156C22.114 28.6069 22.0342 29.1547 21.635 29.4286C21.2358 29.7024 20.677 29.6242 20.3976 29.233L1.75636 3.60527V53.1391C1.75636 53.6086 1.35718 54 0.878178 54C0.399174 54 0 53.6086 0 53.1391V0.866376C0 0.475113 0.239508 0.162017 0.59876 0.0446375C0.958013 -0.0727414 1.35718 0.0447044 1.59668 0.357715L21.8346 28.1765V28.2156Z"
        fill="#1E353C" />
    <path opacity="0.3"
        d="M42.6353 0.160369C43.0342 0.431225 43.1139 0.972929 42.8347 1.35987L11.6013 42.6461C11.3221 43.033 10.7637 43.1106 10.3648 42.8397C9.96587 42.5689 9.88608 42.0269 10.1653 41.64L41.3987 0.35379C41.6779 -0.0331472 42.2364 -0.110488 42.6353 0.160369Z"
        fill="#1E353C" />
</svg>