<svg width="23" height="43" viewBox="0 0 23 43" fill="none" xmlns="http://www.w3.org/2000/svg">
<path d="M16.2008 7.10259C14.4893 5.39108 12.1212 4.3126 9.49533 4.3126C9.00298 4.3126 8.51064 4.35949 8.04173 4.42983C7.69005 4.47672 7.33848 4.5705 6.9868 4.66428C6.91647 4.66428 6.84607 4.71117 6.77573 4.73461C2.86036 5.90688 0 9.51746 0 13.808V32.658C0 37.8863 4.24358 42.1299 9.49533 42.1299C9.84701 42.1299 10.1987 42.1299 10.5269 42.083C13.1294 41.8017 15.4271 40.4653 16.9511 38.4959C17.0917 38.3318 17.2089 38.1676 17.3261 37.9801C17.4668 37.7925 17.584 37.605 17.7012 37.4174C18.5218 36.0107 18.9908 34.3929 18.9908 32.658V13.808C18.9908 11.2055 17.9356 8.8141 16.2241 7.10259H16.2008ZM5.3456 28.8364V15.5195C6.23653 15.9649 7.05704 16.5511 7.7604 17.2544C8.13552 17.6295 8.46374 18.0281 8.76853 18.4501C8.83886 18.5439 8.8858 18.6142 8.95613 18.708C9.91739 20.1382 10.5035 21.8731 10.5504 23.7019C10.5504 23.7722 10.5504 23.866 10.5504 23.9363V37.2767C7.47906 35.7293 5.3456 32.5173 5.3456 28.813V28.8364Z" fill="#1E353C"/>
<path d="M20.0693 3.18722C18.1937 1.31159 15.7085 0.279999 13.0357 0.279999C9.75336 0.279999 6.70549 1.89773 4.85331 4.61738C4.75953 4.75806 4.64231 4.92217 4.57198 5.06284C3.63416 6.58679 3.14185 8.36864 3.14185 10.1974V15.8477C4.03277 16.2932 4.85328 16.8793 5.55664 17.5826C5.93176 17.9578 6.25998 18.3563 6.56477 18.7784C6.63511 18.8721 6.68204 18.9425 6.75237 19.0363C7.76052 20.5133 8.32319 22.2248 8.34664 24.0301C8.34664 24.077 8.34664 24.1004 8.34664 24.1473V37.7456L8.58103 37.8629C9.96431 38.5662 11.5118 38.9413 13.0592 38.9413C13.6219 38.9413 14.2079 38.8944 14.7472 38.8007C15.052 38.7538 15.3802 38.6834 15.685 38.5897C19.999 37.4174 23 33.4786 23 29.0005V10.1974C23 7.54805 21.9684 5.06285 20.0928 3.18722H20.0693ZM22.0856 29.0474C22.0856 33.1035 19.3659 36.6671 15.474 37.7691C15.474 37.7691 15.4506 37.7691 15.4272 37.7691C13.3874 38.3552 11.1132 38.1442 9.19064 37.2298V24.1708C9.19064 21.5215 8.15906 19.0363 6.28344 17.1606C5.60352 16.4807 4.82987 15.918 3.98584 15.4491V10.1974C3.98584 8.36864 4.52505 6.61024 5.55664 5.10974C5.62698 4.99251 5.72072 4.87528 5.8145 4.75806C7.52601 2.48386 10.1754 1.14748 13.0357 1.14748C15.4506 1.14748 17.7247 2.08529 19.4362 3.7968C21.1477 5.50831 22.0856 7.7825 22.0856 10.1739V29.0005V29.0474Z" fill="#1E353C"/>
</svg>
