<svg width="10" height="20" viewBox="0 0 10 20" fill="none" xmlns="http://www.w3.org/2000/svg">
<path d="M9.90002 4.96001C9.90002 2.2262 7.68382 0.0100098 4.95001 0.0100098C2.2162 0.0100098 0 2.2262 0 4.96001V11.91C0 14.6438 2.2162 16.86 4.95001 16.86C7.68382 16.86 9.90002 14.6438 9.90002 11.91V4.96001Z" fill="#1E353C"/>
<path opacity="0.2" d="M9.90002 4.95C9.90002 2.21619 7.68382 0 4.95001 0C2.2162 0 0 2.21619 0 4.95V14.76C0 17.4938 2.2162 19.71 4.95001 19.71C7.68382 19.71 9.90002 17.4938 9.90002 14.76V4.95Z" fill="#1E353C"/>
<path d="M7.36005 9.58H6.29004V8.01C6.29004 7.28 6.88005 6.69 7.61005 6.69C8.34005 6.69 8.92999 7.28 8.92999 8.01C8.92999 8.87 8.23005 9.58 7.36005 9.58ZM6.52002 9.35H7.36005C8.09005 9.35 8.69 8.75 8.69 8.02C8.69 7.42 8.20004 6.93 7.60004 6.93C7.00004 6.93 6.51001 7.42 6.51001 8.02V9.35H6.52002Z" fill="white"/>
<path d="M3.62006 9.58H2.55005C1.69005 9.58 0.980103 8.88 0.980103 8.01C0.980103 7.28 1.57005 6.69 2.30005 6.69C3.03005 6.69 3.62006 7.28 3.62006 8.01V9.58ZM2.30005 6.93C1.70005 6.93 1.21008 7.42 1.21008 8.02C1.21008 8.75 1.8101 9.35 2.5401 9.35H3.38007V8.02C3.38007 7.42 2.8901 6.93 2.2901 6.93H2.30005Z" fill="white"/>
<path d="M4.98999 5.95C4.59999 5.95 4.28003 5.63 4.28003 5.24C4.28003 4.85 4.59999 4.53 4.98999 4.53C5.37999 4.53 5.70001 4.85 5.70001 5.24C5.70001 5.63 5.37999 5.95 4.98999 5.95ZM4.98999 4.78C4.72999 4.78 4.53003 4.99 4.53003 5.24C4.53003 5.49 4.73999 5.7 4.98999 5.7C5.23999 5.7 5.45001 5.49 5.45001 5.24C5.45001 4.99 5.23999 4.78 4.98999 4.78Z" fill="white"/>
<path d="M7.33014 6.49999C6.94014 6.49999 6.62012 6.17999 6.62012 5.78999C6.62012 5.39999 6.94014 5.07999 7.33014 5.07999C7.72014 5.07999 8.04016 5.39999 8.04016 5.78999C8.04016 6.17999 7.72014 6.49999 7.33014 6.49999ZM7.33014 5.32999C7.07014 5.32999 6.87012 5.53999 6.87012 5.78999C6.87012 6.03999 7.08014 6.24999 7.33014 6.24999C7.58014 6.24999 7.79016 6.03999 7.79016 5.78999C7.79016 5.53999 7.58014 5.32999 7.33014 5.32999Z" fill="white"/>
<path d="M2.64008 6.49999C2.25008 6.49999 1.93005 6.17999 1.93005 5.78999C1.93005 5.39999 2.25008 5.07999 2.64008 5.07999C3.03008 5.07999 3.3501 5.39999 3.3501 5.78999C3.3501 6.17999 3.03008 6.49999 2.64008 6.49999ZM2.64008 5.32999C2.38008 5.32999 2.18005 5.53999 2.18005 5.78999C2.18005 6.03999 2.39008 6.24999 2.64008 6.24999C2.89008 6.24999 3.1001 6.03999 3.1001 5.78999C3.1001 5.53999 2.89008 5.32999 2.64008 5.32999Z" fill="white"/>
<path d="M4.96014 12.24C4.37014 12.24 3.89014 11.76 3.89014 11.17V7.41C3.89014 6.82 4.37014 6.34 4.96014 6.34C5.55014 6.34 6.03015 6.82 6.03015 7.41V11.17C6.03015 11.76 5.55014 12.24 4.96014 12.24ZM4.96014 6.56C4.50014 6.56 4.12012 6.94 4.12012 7.4V11.16C4.12012 11.62 4.50014 12 4.96014 12C5.42014 12 5.80011 11.62 5.80011 11.16V7.4C5.80011 6.94 5.42014 6.56 4.96014 6.56Z" fill="white"/>
</svg>
