<svg width="43" height="44" viewBox="0 0 43 44" fill="none" xmlns="http://www.w3.org/2000/svg">
<path fill-rule="evenodd" clip-rule="evenodd" d="M0.72998 15.66C0.72998 15.66 0.819985 15.64 0.859985 15.62C3.23999 14.61 5.61999 13.61 7.98999 12.6C12.08 10.87 16.17 9.14001 20.27 7.41001C24.11 5.79001 27.95 4.15999 31.79 2.53999C31.87 2.49999 31.94 2.49999 32.03 2.53999C34.75 3.68999 37.47 4.84001 40.18 5.99001C40.85 6.27001 41.52 6.56 42.19 6.84C42.24 6.86 42.28 6.88 42.33 6.9V8.62C42.33 8.62 42.25 8.59001 42.21 8.57001C40.28 7.75001 38.34 6.93 36.41 6.12C34.95 5.5 33.49 4.89001 32.03 4.27001C31.95 4.24001 31.88 4.24001 31.8 4.27001C26.27 6.60001 20.74 8.93 15.21 11.26C11.8 12.7 8.38999 14.13 4.98999 15.57C4.92999 15.59 4.88001 15.62 4.82001 15.64C4.71001 15.69 4.58997 15.71 4.46997 15.71C3.24997 15.71 2.03 15.71 0.809998 15.71C0.779998 15.71 0.749971 15.71 0.719971 15.71V15.64L0.72998 15.66Z" fill="#1E353C"/>
<path fill-rule="evenodd" clip-rule="evenodd" d="M8.62 0.259995C8.7 0.259995 8.77999 0.279999 8.85999 0.279999C8.93999 0.279999 8.99002 0.309999 9.02002 0.389999C9.50002 1.5 9.98002 2.61 10.46 3.73C11.32 5.71 12.17 7.68 13.03 9.66C13.05 9.7 13.07 9.74 13.08 9.78C13.01 9.84 10.5 10.91 10.31 10.97C10.3 10.94 10.28 10.91 10.26 10.87C9.70001 9.5 9.14002 8.12 8.58002 6.75C8.23002 5.9 7.88003 5.04 7.53003 4.19C7.51003 4.14 7.48 4.08 7.44 4C6.85 5.39 6.29002 6.76 5.71002 8.11H3.88C3.9 8.05 3.92 8 3.94 7.95C4.99 5.44 6.03001 2.93 7.07001 0.419998C7.10001 0.339998 7.14998 0.279995 7.22998 0.259995H7.44C7.44 0.259995 7.49002 0.269999 7.52002 0.279999C7.67002 0.279999 7.82002 0.279999 7.96002 0.279999C7.98002 0.279999 8.00998 0.279995 8.03998 0.259995H8.63H8.62Z" fill="#1E353C"/>
<path fill-rule="evenodd" clip-rule="evenodd" d="M0.72998 16.66C0.72998 16.66 0.790007 16.66 0.820007 16.66C14.68 16.66 28.54 16.66 42.4 16.66H42.58V16.93H0.72998V16.66Z" fill="#1E353C"/>
<path fill-rule="evenodd" clip-rule="evenodd" d="M0.72998 20.98C0.72998 20.98 0.819995 20.98 0.869995 20.98C14.73 20.98 28.58 20.98 42.44 20.98H42.59V21.25H0.72998V20.98Z" fill="#1E353C"/>
<path fill-rule="evenodd" clip-rule="evenodd" d="M42.72 18.15C42.67 18.28 42.63 18.41 42.58 18.54C42.41 19.05 42.23 19.55 42.06 20.06C42.03 20.16 41.97 20.2 41.88 20.2C41.8 20.2 41.73 20.2 41.65 20.2C41.56 20.2 41.54 20.16 41.58 20.08C41.64 19.93 41.7 19.78 41.76 19.62C41.67 19.46 41.62 19.29 41.55 19.12C41.43 18.81 41.31 18.49 41.2 18.18C41.14 18.01 41.16 17.98 41.33 17.98C41.38 17.98 41.43 17.98 41.48 17.98C41.56 17.98 41.6 18.01 41.63 18.09C41.71 18.32 41.79 18.55 41.87 18.78C41.9 18.87 41.93 18.96 41.97 19.07C41.99 19.03 42 19 42.01 18.98C42.1 18.69 42.19 18.4 42.28 18.11C42.32 18 42.32 17.99 42.44 17.99C42.53 17.99 42.62 18.01 42.71 18.02V18.16L42.72 18.15Z" fill="#1E353C"/>
<path fill-rule="evenodd" clip-rule="evenodd" d="M19.94 15.71C19.73 15.73 18.48 15.72 18.35 15.7C18.35 15.67 18.35 15.64 18.35 15.6C18.35 14.73 18.35 13.85 18.35 12.98C18.35 12.76 18.38 12.53 18.44 12.32C18.6 11.77 18.96 11.37 19.46 11.1C20.19 10.71 20.92 10.76 21.63 11.19C21.68 11.22 21.73 11.25 21.78 11.29C21.78 11.29 21.78 11.29 21.8 11.29C21.83 11.27 21.87 11.24 21.91 11.22C22.27 10.99 22.66 10.85 23.09 10.84C23.43 10.84 23.75 10.91 24.05 11.06C24.6 11.34 25 11.75 25.15 12.35C25.19 12.52 25.23 12.7 25.23 12.88C25.23 13.8 25.23 14.71 25.23 15.63C25.23 15.65 25.23 15.67 25.23 15.69C25.13 15.72 23.83 15.74 23.66 15.7V13.11C23.66 12.98 23.65 12.84 23.59 12.72C23.51 12.54 23.39 12.41 23.19 12.39C23 12.37 22.84 12.43 22.72 12.59C22.65 12.69 22.62 12.8 22.61 12.92C22.61 13 22.6 13.09 22.6 13.17C22.6 13.97 22.6 14.77 22.6 15.56V15.7C22.6 15.7 22.52 15.71 22.48 15.71C22.01 15.71 21.55 15.71 21.08 15.71C21.06 15.71 21.04 15.71 21.01 15.71C21.01 15.63 21 15.56 21 15.48C21 14.66 21 13.83 21 13.01C21 12.85 20.96 12.7 20.86 12.57C20.63 12.27 20.21 12.32 20.04 12.63C19.99 12.73 19.96 12.83 19.96 12.93C19.96 13.52 19.96 14.1 19.96 14.69C19.96 14.99 19.96 15.28 19.96 15.58C19.96 15.62 19.96 15.66 19.96 15.7L19.94 15.71Z" fill="#1E353C"/>
<path fill-rule="evenodd" clip-rule="evenodd" d="M37.02 15.7H35.44C35.44 15.7 35.43 15.64 35.43 15.61C35.43 15.11 35.43 14.61 35.43 14.11C35.43 13.84 35.43 13.56 35.43 13.29C35.43 13.15 35.4 13.01 35.35 12.88C35.24 12.54 34.98 12.37 34.62 12.37C34.13 12.37 33.73 12.74 33.68 13.23C33.64 13.64 33.92 14.23 34.57 14.25C34.63 14.25 34.7 14.25 34.76 14.25C34.79 14.34 34.79 15.56 34.76 15.73C34.73 15.73 34.7 15.75 34.67 15.75C34.3 15.77 33.94 15.74 33.59 15.61C33.08 15.42 32.7 15.06 32.43 14.59C31.56 13.08 32.42 11.15 34.16 10.83C35.06 10.67 35.84 10.93 36.47 11.6C36.72 11.87 36.86 12.2 36.94 12.56C37.03 12.94 37.03 13.32 37.03 13.7C37.03 14.32 37.02 14.93 37.01 15.55C37.01 15.6 37.01 15.65 37.01 15.71L37.02 15.7Z" fill="#1E353C"/>
<path fill-rule="evenodd" clip-rule="evenodd" d="M42.34 15.71H40.76V15.57C40.76 14.72 40.76 13.87 40.76 13.03C40.76 12.87 40.72 12.73 40.63 12.6C40.49 12.42 40.28 12.34 40.08 12.4C39.84 12.48 39.71 12.7 39.71 12.89C39.71 13.78 39.71 14.67 39.71 15.56V15.69C39.61 15.72 38.28 15.72 38.11 15.69C38.11 15.65 38.11 15.61 38.11 15.56C38.11 14.68 38.11 13.8 38.11 12.93C38.11 12.13 38.48 11.54 39.15 11.13C39.49 10.92 39.87 10.81 40.27 10.83C41.04 10.86 41.63 11.2 42.03 11.86C42.23 12.19 42.33 12.55 42.33 12.94C42.33 13.81 42.33 14.69 42.33 15.56V15.71H42.34Z" fill="#1E353C"/>
<path fill-rule="evenodd" clip-rule="evenodd" d="M11.36 13.54C12.31 13.14 13.26 12.74 14.22 12.33C14.24 12.37 14.26 12.41 14.28 12.45C14.46 12.83 14.64 13.21 14.83 13.59C14.9 13.73 14.99 13.87 15.08 14C15.14 14.09 15.21 14.17 15.28 14.25C15.43 14.41 15.62 14.47 15.83 14.48C16.03 14.48 16.23 14.49 16.43 14.5C16.52 14.5 16.59 14.53 16.66 14.59C16.71 14.64 16.74 14.7 16.74 14.77C16.76 14.98 16.77 15.19 16.74 15.4C16.72 15.58 16.61 15.69 16.43 15.71C16.39 15.71 16.35 15.71 16.32 15.71C14.58 15.71 12.84 15.71 11.1 15.71C10.79 15.71 10.48 15.71 10.18 15.71C9.96999 15.71 9.83001 15.58 9.82001 15.37C9.82001 15.19 9.82001 15.01 9.82001 14.83C9.82001 14.62 9.93002 14.51 10.15 14.5C10.35 14.5 10.54 14.5 10.74 14.49C10.89 14.49 11.04 14.49 11.18 14.48C11.37 14.48 11.48 14.35 11.47 14.16C11.47 14.03 11.44 13.9 11.41 13.78C11.4 13.71 11.38 13.63 11.35 13.55L11.36 13.54Z" fill="#1E353C"/>
<path fill-rule="evenodd" clip-rule="evenodd" d="M30.54 15.72H28.97C28.97 15.72 28.97 15.67 28.97 15.65C28.97 14.73 28.97 13.82 28.97 12.9C28.97 12.6 29.01 12.31 29.11 12.03C29.32 11.44 29.75 11.09 30.35 10.95C30.59 10.89 30.84 10.88 31.08 10.85C31.18 10.84 31.28 10.84 31.37 10.83C31.4 10.94 31.42 12.12 31.39 12.35C31.37 12.35 31.34 12.37 31.32 12.38C31.26 12.4 31.2 12.42 31.14 12.44C30.86 12.54 30.68 12.73 30.61 13.02C30.57 13.17 30.55 13.33 30.55 13.48C30.55 14.13 30.55 14.77 30.55 15.42V15.72H30.54Z" fill="#1E353C"/>
<path fill-rule="evenodd" clip-rule="evenodd" d="M27.87 15.72C27.35 15.72 26.83 15.72 26.31 15.72V10.96C26.4 10.93 27.71 10.93 27.87 10.96V15.72Z" fill="#1E353C"/>
<path fill-rule="evenodd" clip-rule="evenodd" d="M32.13 1.96001C32.16 1.74001 32.27 1.56001 32.34 1.35001C32.38 1.37001 32.41 1.38 32.45 1.39C34.82 2.39 37.19 3.39 39.55 4.39C40.45 4.77 41.34 5.15 42.24 5.52C42.33 5.56 42.37 5.61001 42.36 5.71001C42.35 5.89001 42.36 6.07 42.35 6.27C38.94 4.83 35.54 3.39 32.14 1.95L32.13 1.96001Z" fill="#1E353C"/>
<path fill-rule="evenodd" clip-rule="evenodd" d="M27.1 10.6C26.45 10.6 25.92 10.08 25.91 9.42C25.91 8.77 26.43 8.24 27.08 8.23C27.74 8.23 28.27 8.75 28.27 9.41C28.27 10.06 27.74 10.59 27.09 10.59L27.1 10.6Z" fill="#1E353C"/>
<path fill-rule="evenodd" clip-rule="evenodd" d="M33.64 18.19C33.78 18.07 33.93 17.96 34.13 17.96C34.33 17.96 34.49 18.03 34.59 18.21C34.62 18.18 34.65 18.16 34.68 18.13C34.82 18.01 34.97 17.94 35.16 17.96C35.38 17.98 35.54 18.1 35.6 18.31C35.63 18.41 35.63 18.51 35.64 18.61C35.64 18.89 35.64 19.18 35.64 19.47C35.64 19.59 35.62 19.61 35.5 19.61C35.44 19.61 35.39 19.61 35.33 19.61C35.23 19.61 35.21 19.59 35.21 19.49C35.21 19.23 35.21 18.97 35.21 18.7C35.21 18.64 35.21 18.57 35.19 18.51C35.15 18.34 34.98 18.28 34.84 18.38C34.81 18.4 34.79 18.42 34.76 18.45C34.69 18.51 34.65 18.59 34.66 18.69C34.66 18.95 34.66 19.21 34.66 19.48C34.66 19.6 34.64 19.62 34.52 19.62C34.46 19.62 34.4 19.62 34.34 19.62C34.25 19.62 34.24 19.6 34.24 19.51C34.24 19.27 34.24 19.02 34.24 18.78C34.24 18.7 34.24 18.62 34.22 18.54C34.18 18.34 34 18.28 33.84 18.41C33.81 18.43 33.78 18.46 33.76 18.49C33.71 18.54 33.69 18.59 33.69 18.66C33.69 18.93 33.69 19.2 33.69 19.47C33.69 19.61 33.67 19.63 33.53 19.63C33.47 19.63 33.4 19.63 33.34 19.63C33.29 19.63 33.26 19.6 33.26 19.54C33.26 19.52 33.26 19.5 33.26 19.48C33.26 19.04 33.26 18.6 33.26 18.16C33.26 18.02 33.27 18.01 33.42 18C33.42 18 33.42 18 33.43 18C33.64 18 33.65 18.02 33.63 18.18C33.63 18.18 33.63 18.19 33.65 18.21L33.64 18.19Z" fill="#1E353C"/>
<path fill-rule="evenodd" clip-rule="evenodd" d="M3.56 18.2C3.72 18.06 3.87001 17.95 4.07001 17.95C4.27001 17.95 4.43003 18.02 4.53003 18.2C4.59003 18.15 4.64001 18.1 4.70001 18.06C4.85001 17.95 5.02001 17.92 5.20001 17.96C5.40001 18 5.54001 18.17 5.57001 18.41C5.57001 18.49 5.58002 18.56 5.58002 18.64C5.58002 18.91 5.58002 19.19 5.58002 19.46C5.58002 19.57 5.56001 19.59 5.45001 19.6C5.39001 19.6 5.33002 19.6 5.27002 19.6C5.17002 19.6 5.15997 19.58 5.15997 19.48C5.15997 19.22 5.15997 18.96 5.15997 18.69C5.15997 18.63 5.16001 18.58 5.14001 18.52C5.10001 18.31 4.92001 18.25 4.76001 18.38C4.73001 18.4 4.70999 18.43 4.67999 18.45C4.61999 18.5 4.59998 18.57 4.59998 18.65C4.59998 18.92 4.59998 19.18 4.59998 19.45C4.59998 19.58 4.59002 19.59 4.46002 19.6C4.40002 19.6 4.33002 19.6 4.27002 19.6C4.21002 19.6 4.17999 19.57 4.17999 19.5C4.17999 19.37 4.17999 19.24 4.17999 19.11C4.17999 18.96 4.17999 18.81 4.17999 18.67C4.17999 18.6 4.17002 18.53 4.15002 18.47C4.10002 18.33 3.96003 18.28 3.84003 18.35C3.77003 18.39 3.70997 18.46 3.65997 18.52C3.63997 18.54 3.64001 18.59 3.64001 18.63C3.64001 18.9 3.64001 19.16 3.64001 19.43C3.64001 19.46 3.64001 19.49 3.64001 19.52C3.64001 19.56 3.61001 19.59 3.57001 19.6C3.47001 19.6 3.37002 19.6 3.27002 19.6C3.23002 19.6 3.21002 19.57 3.21002 19.53C3.21002 19.51 3.21002 19.48 3.21002 19.46C3.21002 19.02 3.21002 18.57 3.21002 18.13C3.21002 18.11 3.21002 18.08 3.21002 18.06C3.21002 18.01 3.24003 17.99 3.28003 17.99C3.35003 17.99 3.41998 17.99 3.47998 17.99C3.55998 17.99 3.57001 18.01 3.57001 18.09C3.57001 18.12 3.57001 18.15 3.57001 18.21L3.56 18.2Z" fill="#1E353C"/>
<path fill-rule="evenodd" clip-rule="evenodd" d="M27.31 19.45C27.12 19.24 27.12 19.14 27.31 18.85C27.22 18.73 27.18 18.6 27.2 18.45C27.23 18.18 27.41 17.99 27.69 17.96C27.77 17.96 27.86 17.94 27.94 17.96C28.12 17.99 28.3 17.98 28.47 17.98C28.59 17.98 28.61 18 28.62 18.13C28.62 18.15 28.62 18.16 28.62 18.18C28.62 18.29 28.59 18.31 28.48 18.31C28.46 18.31 28.44 18.31 28.4 18.31C28.41 18.35 28.43 18.39 28.43 18.42C28.47 18.66 28.37 18.89 28.15 18.99C27.98 19.07 27.81 19.08 27.58 19.01C27.54 19.04 27.52 19.08 27.54 19.14C27.56 19.2 27.61 19.22 27.67 19.22C27.8 19.22 27.94 19.23 28.07 19.24C28.14 19.24 28.21 19.25 28.27 19.27C28.66 19.38 28.66 19.79 28.49 19.98C28.42 20.06 28.33 20.12 28.23 20.15C27.95 20.24 27.67 20.24 27.39 20.15C27.03 20.04 27.04 19.68 27.24 19.5C27.26 19.48 27.29 19.46 27.31 19.45ZM27.82 19.53C27.79 19.53 27.77 19.53 27.74 19.53C27.64 19.51 27.58 19.57 27.54 19.64C27.48 19.75 27.51 19.85 27.63 19.89C27.76 19.93 27.89 19.93 28.02 19.89C28.05 19.88 28.08 19.86 28.11 19.84C28.16 19.79 28.18 19.73 28.17 19.67C28.16 19.6 28.1 19.57 28.04 19.56C27.97 19.55 27.9 19.54 27.83 19.54L27.82 19.53ZM27.83 18.26C27.68 18.26 27.58 18.35 27.58 18.51C27.58 18.66 27.67 18.76 27.83 18.76C27.98 18.76 28.08 18.66 28.08 18.51C28.08 18.36 27.98 18.27 27.83 18.27V18.26Z" fill="#1E353C"/>
<path fill-rule="evenodd" clip-rule="evenodd" d="M15.79 18.86C15.67 18.72 15.65 18.56 15.68 18.39C15.72 18.16 15.91 18 16.16 17.97C16.24 17.97 16.32 17.95 16.4 17.97C16.59 18 16.77 17.99 16.96 17.99C17.07 17.99 17.09 18.01 17.1 18.12C17.1 18.15 17.1 18.17 17.1 18.2C17.1 18.3 17.08 18.31 16.98 18.31C16.95 18.31 16.92 18.31 16.88 18.31C16.92 18.41 16.94 18.51 16.92 18.62C16.88 18.81 16.77 18.94 16.59 19.01C16.42 19.07 16.25 19.08 16.08 19.01C16.03 19.05 16.0101 19.09 16.0301 19.14C16.0501 19.2 16.1 19.22 16.16 19.22C16.29 19.22 16.42 19.23 16.55 19.24C16.62 19.24 16.69 19.25 16.75 19.27C16.91 19.31 17.04 19.4 17.07 19.57C17.11 19.75 17.07 19.92 16.92 20.04C16.83 20.12 16.71 20.17 16.59 20.19C16.37 20.23 16.14 20.23 15.92 20.18C15.88 20.17 15.84 20.16 15.8 20.14C15.57 20.04 15.51 19.79 15.65 19.59C15.68 19.54 15.73 19.5 15.77 19.45C15.69 19.38 15.63 19.29 15.64 19.17C15.65 19.05 15.71 18.96 15.79 18.87V18.86ZM16.29 19.53C16.26 19.53 16.24 19.53 16.21 19.53C16.12 19.51 16.06 19.57 16.02 19.64C15.95 19.75 15.99 19.85 16.11 19.89C16.23 19.93 16.36 19.93 16.49 19.89C16.52 19.89 16.55 19.87 16.57 19.85C16.63 19.81 16.65 19.74 16.64 19.67C16.63 19.6 16.58 19.56 16.51 19.55C16.44 19.54 16.37 19.53 16.3 19.53H16.29ZM16.54 18.51C16.54 18.35 16.45 18.26 16.29 18.26C16.14 18.26 16.04 18.36 16.04 18.51C16.04 18.65 16.1301 18.75 16.2801 18.75C16.4301 18.75 16.5301 18.66 16.5301 18.5L16.54 18.51Z" fill="#1E353C"/>
<path fill-rule="evenodd" clip-rule="evenodd" d="M2.34997 19.12H1.54998C1.54998 19.12 1.53001 19.17 1.52001 19.2C1.49001 19.28 1.47 19.35 1.44 19.43C1.38 19.6 1.41998 19.62 1.16998 19.62C1.11998 19.62 1.08002 19.62 1.03002 19.62C0.980023 19.62 0.959964 19.58 0.969964 19.53C0.969964 19.5 0.989993 19.46 0.999993 19.43C1.21999 18.81 1.43002 18.18 1.65002 17.56C1.68002 17.47 1.73 17.43 1.82 17.43C1.92 17.43 2.03 17.43 2.13 17.43C2.21 17.43 2.25997 17.47 2.28997 17.55C2.50997 18.18 2.73001 18.81 2.95001 19.44C3.00001 19.59 2.98 19.62 2.82 19.62C2.76 19.62 2.70001 19.62 2.64001 19.62C2.54001 19.62 2.52998 19.61 2.48998 19.51C2.45998 19.42 2.43002 19.32 2.40002 19.23C2.39002 19.19 2.36998 19.16 2.35998 19.12H2.34997ZM2.24999 18.76C2.14999 18.46 2.06002 18.17 1.96002 17.89C1.96002 17.89 1.95 17.89 1.94 17.89C1.84 18.18 1.75002 18.47 1.65002 18.77H2.24999V18.76Z" fill="#1E353C"/>
<path fill-rule="evenodd" clip-rule="evenodd" d="M36.47 19.46V19.83C36.47 19.91 36.47 20 36.47 20.08C36.47 20.17 36.45 20.19 36.36 20.19C36.29 20.19 36.22 20.19 36.14 20.19C36.05 20.19 36.04 20.17 36.03 20.08C36.03 20 36.03 19.92 36.03 19.84C36.03 19.27 36.03 18.69 36.03 18.12C36.03 17.99 36.04 17.98 36.17 17.98C36.19 17.98 36.2 17.98 36.22 17.98C36.38 17.98 36.41 18 36.4 18.15C36.4 18.15 36.4 18.17 36.4 18.19C36.44 18.16 36.47 18.14 36.5 18.11C36.66 17.97 36.84 17.93 37.04 17.96C37.2 17.98 37.33 18.08 37.41 18.22C37.47 18.32 37.5 18.44 37.52 18.55C37.55 18.76 37.54 18.97 37.48 19.17C37.42 19.37 37.3 19.53 37.09 19.6C36.89 19.66 36.7 19.65 36.53 19.5C36.52 19.49 36.5 19.48 36.49 19.47C36.49 19.47 36.49 19.47 36.46 19.46H36.47ZM36.47 18.79C36.47 18.86 36.47 18.93 36.47 18.99C36.47 19.02 36.47 19.05 36.5 19.07C36.55 19.13 36.6 19.18 36.66 19.23C36.78 19.31 36.92 19.28 37 19.17C37.03 19.13 37.05 19.09 37.06 19.05C37.11 18.88 37.11 18.71 37.06 18.54C37.06 18.51 37.03 18.48 37.02 18.45C36.96 18.35 36.86 18.31 36.74 18.34C36.64 18.37 36.57 18.44 36.5 18.52C36.45 18.57 36.47 18.63 36.47 18.69C36.47 18.72 36.47 18.76 36.47 18.79Z" fill="#1E353C"/>
<path fill-rule="evenodd" clip-rule="evenodd" d="M12.73 17.78V18.3C12.79 18.3 12.84 18.3 12.89 18.3C13.03 18.3 13.18 18.3 13.32 18.3C13.42 18.3 13.43 18.31 13.44 18.41C13.44 18.43 13.44 18.46 13.44 18.48C13.44 18.63 13.42 18.65 13.27 18.65C13.09 18.65 12.91 18.65 12.72 18.65C12.72 18.75 12.72 18.85 12.72 18.95C12.72 19.05 12.72 19.15 12.72 19.26C12.76 19.26 12.8 19.26 12.83 19.26C13.03 19.26 13.23 19.26 13.43 19.26C13.54 19.26 13.55 19.27 13.56 19.39C13.57 19.6 13.56 19.61 13.35 19.61C13.05 19.61 12.75 19.61 12.45 19.61C12.3 19.61 12.26 19.57 12.26 19.43C12.26 18.83 12.26 18.22 12.26 17.62C12.26 17.47 12.3 17.44 12.44 17.44C12.76 17.44 13.09 17.44 13.41 17.44C13.52 17.44 13.54 17.46 13.55 17.56C13.55 17.58 13.55 17.6 13.55 17.62C13.55 17.77 13.53 17.79 13.38 17.79C13.2 17.79 13.02 17.79 12.83 17.79H12.71L12.73 17.78Z" fill="#1E353C"/>
<path fill-rule="evenodd" clip-rule="evenodd" d="M29.55 18.54C29.55 18.35 29.58 18.17 29.65 17.99C29.8 17.62 30.08 17.42 30.48 17.39C30.67 17.37 30.85 17.41 31.02 17.49C31.12 17.54 31.17 17.61 31.16 17.72C31.16 17.77 31.16 17.82 31.16 17.87C31.15 17.96 31.11 17.97 31.04 17.93C31.01 17.91 30.98 17.88 30.94 17.87C30.87 17.84 30.8 17.8 30.72 17.78C30.41 17.72 30.18 17.86 30.09 18.17C30.03 18.39 30.02 18.6 30.07 18.82C30.17 19.24 30.5 19.31 30.8 19.22C30.88 19.2 30.96 19.15 31.04 19.11C31.12 19.07 31.15 19.08 31.16 19.17C31.19 19.44 31.14 19.48 30.93 19.56C30.69 19.65 30.44 19.66 30.19 19.59C29.82 19.49 29.64 19.22 29.58 18.86C29.56 18.76 29.56 18.65 29.55 18.54Z" fill="#1E353C"/>
<path fill-rule="evenodd" clip-rule="evenodd" d="M32.96 18.77C32.95 18.87 32.94 18.97 32.92 19.06C32.85 19.37 32.65 19.56 32.33 19.62C32.17 19.65 32 19.65 31.84 19.6C31.62 19.54 31.46 19.4 31.39 19.18C31.31 18.93 31.31 18.69 31.39 18.44C31.48 18.17 31.67 18.01 31.95 17.97C32.09 17.95 32.24 17.95 32.38 17.97C32.7 18.02 32.89 18.24 32.93 18.58C32.93 18.64 32.93 18.7 32.94 18.76L32.96 18.77ZM32.52 18.79C32.5 18.69 32.49 18.59 32.46 18.5C32.43 18.41 32.37 18.35 32.28 18.32C32.08 18.25 31.88 18.34 31.82 18.54C31.76 18.71 31.77 18.88 31.82 19.05C31.87 19.21 31.97 19.28 32.13 19.29C32.3 19.29 32.42 19.22 32.47 19.06C32.5 18.97 32.51 18.88 32.53 18.79H32.52Z" fill="#1E353C"/>
<path fill-rule="evenodd" clip-rule="evenodd" d="M10.03 18.2C10.09 18.15 10.13 18.12 10.16 18.09C10.29 17.99 10.43 17.95 10.58 17.96C10.84 17.97 11.02 18.12 11.07 18.37C11.08 18.44 11.09 18.52 11.09 18.6C11.09 18.89 11.09 19.18 11.09 19.47C11.09 19.6 11.07 19.61 10.95 19.62C10.9 19.62 10.84 19.62 10.79 19.62C10.68 19.62 10.67 19.6 10.67 19.49C10.67 19.23 10.67 18.97 10.67 18.7C10.67 18.64 10.67 18.57 10.65 18.51C10.6 18.35 10.45 18.29 10.31 18.37C10.24 18.41 10.18 18.47 10.13 18.54C10.11 18.56 10.11 18.61 10.11 18.65C10.11 18.92 10.11 19.2 10.11 19.47C10.11 19.6 10.09 19.62 9.96002 19.62C9.90002 19.62 9.84003 19.62 9.78003 19.62C9.69003 19.62 9.67999 19.6 9.67999 19.51C9.67999 19.29 9.67999 19.07 9.67999 18.85C9.67999 18.61 9.67999 18.37 9.67999 18.13C9.67999 18.01 9.69001 18 9.82001 17.99C9.87001 17.99 9.91002 17.99 9.96002 17.99C10.04 17.99 10.05 18.01 10.05 18.09C10.05 18.12 10.05 18.15 10.05 18.2H10.03Z" fill="#1E353C"/>
<path fill-rule="evenodd" clip-rule="evenodd" d="M14.28 18.2C14.34 18.15 14.39 18.12 14.43 18.08C14.59 17.96 14.77 17.93 14.96 17.97C15.17 18.02 15.28 18.16 15.32 18.37C15.34 18.44 15.34 18.52 15.34 18.6C15.34 18.89 15.34 19.19 15.34 19.48C15.34 19.6 15.32 19.61 15.21 19.62C15.15 19.62 15.08 19.62 15.02 19.62C14.93 19.62 14.92 19.6 14.92 19.51C14.92 19.27 14.92 19.04 14.92 18.8C14.92 18.75 14.92 18.7 14.92 18.65C14.92 18.61 14.92 18.57 14.9 18.53C14.85 18.35 14.69 18.29 14.54 18.39C14.48 18.43 14.43 18.48 14.38 18.54C14.36 18.57 14.35 18.62 14.35 18.66C14.35 18.93 14.35 19.21 14.35 19.48C14.35 19.62 14.33 19.63 14.2 19.64C14.14 19.64 14.09 19.64 14.03 19.64C13.93 19.64 13.92 19.62 13.92 19.52C13.92 19.36 13.92 19.19 13.92 19.03C13.92 18.73 13.92 18.44 13.92 18.14C13.92 18.03 13.93 18.02 14.04 18.01C14.09 18.01 14.14 18.01 14.19 18.01C14.27 18.01 14.28 18.03 14.28 18.11C14.28 18.14 14.28 18.17 14.28 18.22V18.2Z" fill="#1E353C"/>
<path fill-rule="evenodd" clip-rule="evenodd" d="M20.35 18.91C20.33 19.15 20.45 19.3 20.68 19.31C20.82 19.32 20.96 19.31 21.1 19.26C21.13 19.25 21.16 19.24 21.2 19.23C21.28 19.21 21.31 19.23 21.31 19.31C21.33 19.5 21.31 19.54 21.11 19.59C20.91 19.65 20.71 19.66 20.51 19.63C20.19 19.59 20 19.41 19.93 19.09C19.89 18.88 19.89 18.66 19.96 18.45C20.06 18.16 20.29 17.98 20.6 17.97C20.69 17.97 20.78 17.97 20.87 17.98C21.16 18.04 21.34 18.24 21.37 18.55C21.37 18.62 21.37 18.69 21.37 18.77C21.37 18.88 21.3299 18.91 21.2199 18.91C20.9699 18.91 20.73 18.91 20.48 18.91C20.44 18.91 20.4 18.91 20.35 18.91ZM20.96 18.63C20.96 18.39 20.86 18.26 20.67 18.26C20.47 18.26 20.35 18.4 20.35 18.62C20.37 18.62 20.39 18.62 20.4 18.62C20.58 18.62 20.76 18.62 20.95 18.62L20.96 18.63Z" fill="#1E353C"/>
<path fill-rule="evenodd" clip-rule="evenodd" d="M22.07 18.91C22.04 19.1 22.13 19.25 22.3 19.3C22.45 19.34 22.6 19.32 22.75 19.28C22.8 19.27 22.86 19.24 22.91 19.23C22.98 19.21 23.01 19.23 23.02 19.3C23.02 19.3 23.02 19.3 23.02 19.31C23.03 19.5 23.02 19.53 22.83 19.59C22.63 19.65 22.43 19.66 22.23 19.63C21.91 19.59 21.71 19.41 21.65 19.09C21.6 18.88 21.61 18.66 21.68 18.45C21.78 18.15 22.01 17.97 22.33 17.96C22.42 17.96 22.51 17.96 22.59 17.97C22.88 18.02 23.07 18.24 23.1 18.55C23.1 18.61 23.1 18.67 23.1 18.73C23.1 18.87 23.07 18.9 22.93 18.9C22.69 18.9 22.44 18.9 22.2 18.9H22.08L22.07 18.91ZM22.67 18.62C22.67 18.39 22.57 18.26 22.38 18.26C22.18 18.26 22.06 18.4 22.06 18.62H22.67Z" fill="#1E353C"/>
<path fill-rule="evenodd" clip-rule="evenodd" d="M38.77 19.46C38.77 19.46 38.73 19.49 38.71 19.51C38.52 19.66 38.3 19.67 38.08 19.6C37.89 19.54 37.78 19.39 37.77 19.19C37.76 18.97 37.84 18.82 38.03 18.73C38.18 18.66 38.34 18.64 38.5 18.64C38.57 18.64 38.64 18.64 38.7 18.64C38.77 18.42 38.67 18.29 38.46 18.28C38.33 18.28 38.2 18.31 38.09 18.36C38.06 18.38 38.02 18.4 37.99 18.41C37.92 18.43 37.89 18.41 37.87 18.35C37.83 18.2 37.87 18.11 38.01 18.05C38.24 17.95 38.4799 17.93 38.7199 17.97C38.9999 18.02 39.14 18.18 39.14 18.48C39.14 18.76 39.14 19.05 39.14 19.33C39.14 19.38 39.14 19.44 39.14 19.49C39.14 19.59 39.13 19.6 39.03 19.6C39 19.6 38.96 19.6 38.93 19.6C38.8 19.6 38.8 19.6 38.78 19.45L38.77 19.46ZM38.7199 18.9C38.5899 18.9 38.49 18.91 38.39 18.93C38.35 18.93 38.31 18.95 38.28 18.98C38.17 19.06 38.17 19.24 38.28 19.31C38.41 19.39 38.6699 19.31 38.7199 19.16C38.7199 19.16 38.7199 19.15 38.7199 19.14C38.7199 19.07 38.7199 19 38.7199 18.91V18.9Z" fill="#1E353C"/>
<path fill-rule="evenodd" clip-rule="evenodd" d="M18.54 18.2C18.54 18.2 18.61 18.14 18.64 18.11C18.79 17.98 18.97 17.93 19.17 17.96C19.35 17.99 19.48 18.09 19.54 18.26C19.57 18.35 19.59 18.45 19.59 18.55C19.59 18.86 19.59 19.17 19.59 19.48C19.59 19.58 19.58 19.59 19.48 19.6C19.4 19.6 19.33 19.6 19.25 19.6C19.19 19.6 19.16 19.56 19.16 19.5C19.16 19.47 19.16 19.45 19.16 19.42C19.16 19.18 19.16 18.95 19.16 18.71C19.16 18.63 19.16 18.54 19.13 18.46C19.08 18.32 18.94 18.26 18.82 18.34C18.74 18.38 18.68 18.45 18.61 18.52C18.59 18.55 18.59 18.6 18.58 18.64C18.58 18.9 18.58 19.16 18.58 19.43C18.58 19.46 18.58 19.48 18.58 19.51C18.58 19.56 18.56 19.6 18.5 19.6C18.41 19.6 18.32 19.6 18.23 19.6C18.18 19.6 18.15 19.57 18.15 19.52C18.15 19.5 18.15 19.47 18.15 19.45C18.15 19.01 18.15 18.57 18.15 18.13C18.15 18.11 18.15 18.1 18.15 18.08C18.15 18 18.17 17.98 18.24 17.98C18.3 17.98 18.36 17.98 18.42 17.98C18.5 17.98 18.51 18 18.51 18.08C18.51 18.11 18.51 18.14 18.51 18.19L18.54 18.2Z" fill="#1E353C"/>
<path fill-rule="evenodd" clip-rule="evenodd" d="M39.91 18.2C39.91 18.2 39.99 18.14 40.02 18.11C40.18 17.98 40.36 17.94 40.55 17.97C40.72 18 40.85 18.1 40.91 18.27C40.94 18.36 40.96 18.47 40.96 18.57C40.96 18.88 40.96 19.19 40.96 19.49C40.96 19.59 40.95 19.61 40.84 19.61C40.78 19.61 40.72 19.61 40.66 19.61C40.55 19.61 40.54 19.59 40.54 19.48C40.54 19.28 40.54 19.09 40.54 18.89C40.54 18.78 40.54 18.67 40.53 18.56C40.52 18.42 40.43 18.34 40.32 18.33C40.16 18.32 39.97 18.49 39.97 18.66C39.97 18.93 39.97 19.2 39.97 19.47C39.97 19.6 39.96 19.61 39.83 19.62C39.77 19.62 39.72 19.62 39.66 19.62C39.56 19.62 39.55 19.6 39.55 19.5C39.55 19.04 39.55 18.57 39.55 18.11C39.55 18.01 39.57 18 39.66 17.99C39.71 17.99 39.77 17.99 39.82 17.99C39.9 17.99 39.91 18.01 39.92 18.09C39.92 18.12 39.92 18.15 39.92 18.2H39.91Z" fill="#1E353C"/>
<path fill-rule="evenodd" clip-rule="evenodd" d="M25.81 18.2C25.81 18.2 25.88 18.15 25.9 18.12C26.05 17.99 26.22 17.94 26.42 17.96C26.61 17.98 26.75 18.08 26.81 18.26C26.84 18.35 26.86 18.46 26.86 18.56C26.86 18.87 26.86 19.18 26.86 19.48C26.86 19.58 26.85 19.6 26.74 19.6C26.68 19.6 26.62 19.6 26.56 19.6C26.45 19.6 26.44 19.58 26.44 19.47C26.44 19.26 26.44 19.06 26.44 18.85C26.44 18.75 26.44 18.64 26.43 18.54C26.41 18.4 26.33 18.32 26.22 18.31C26.06 18.3 25.87 18.47 25.87 18.64C25.87 18.91 25.87 19.18 25.87 19.45C25.87 19.58 25.86 19.59 25.73 19.6C25.67 19.6 25.62 19.6 25.56 19.6C25.46 19.6 25.45 19.58 25.45 19.48C25.45 19.02 25.45 18.55 25.45 18.09C25.45 17.99 25.47 17.98 25.56 17.97C25.61 17.97 25.67 17.97 25.72 17.97C25.8 17.97 25.81 17.99 25.82 18.07C25.82 18.1 25.82 18.13 25.82 18.18L25.81 18.2Z" fill="#1E353C"/>
<path fill-rule="evenodd" clip-rule="evenodd" d="M8.90999 19.46C8.90999 19.46 8.86999 19.49 8.84999 19.5C8.65999 19.65 8.44004 19.67 8.21004 19.6C8.01004 19.54 7.90003 19.39 7.89003 19.18C7.88003 18.98 7.96999 18.82 8.15999 18.73C8.30999 18.66 8.47002 18.64 8.63002 18.64C8.70002 18.64 8.76999 18.64 8.84999 18.64C8.84999 18.59 8.84999 18.55 8.84999 18.51C8.84999 18.36 8.77001 18.29 8.62001 18.28C8.48001 18.27 8.34999 18.3 8.21999 18.36C8.19999 18.36 8.19 18.38 8.17 18.38C8.03 18.45 7.99 18.42 7.98 18.25C7.98 18.15 8.01999 18.09 8.09999 18.05C8.36999 17.93 8.65001 17.91 8.93001 17.98C9.12001 18.03 9.22002 18.16 9.25002 18.35C9.25002 18.4 9.26003 18.46 9.26003 18.51C9.26003 18.83 9.26003 19.14 9.26003 19.46C9.26003 19.58 9.25002 19.59 9.13002 19.59C9.10002 19.59 9.08001 19.59 9.05001 19.59C8.91001 19.59 8.91004 19.59 8.90004 19.44L8.90999 19.46ZM8.84999 18.9C8.72999 18.9 8.63005 18.91 8.53005 18.92C8.49005 18.92 8.46 18.94 8.42 18.96C8.34 19 8.30003 19.08 8.32003 19.18C8.33003 19.26 8.40001 19.32 8.49001 19.34C8.60001 19.35 8.69005 19.3 8.78005 19.24C8.85005 19.18 8.84999 19.11 8.84999 19.04C8.84999 19.01 8.84999 18.97 8.84999 18.91V18.9Z" fill="#1E353C"/>
<path fill-rule="evenodd" clip-rule="evenodd" d="M23.78 18.19C23.83 18.14 23.88 18.1 23.92 18.06C24.02 17.96 24.14 17.95 24.27 17.97C24.31 17.97 24.36 17.99 24.36 18.04C24.38 18.16 24.39 18.28 24.34 18.4C24.29 18.4 24.25 18.38 24.21 18.37C24.13 18.35 24.05 18.37 23.99 18.43C23.89 18.52 23.82 18.61 23.83 18.76C23.84 19 23.83 19.24 23.83 19.48C23.83 19.59 23.82 19.61 23.71 19.61C23.65 19.61 23.58 19.61 23.52 19.61C23.42 19.61 23.41 19.59 23.41 19.49C23.41 19.48 23.41 19.47 23.41 19.46V18.14C23.41 18.14 23.41 18.09 23.41 18.07C23.41 18.02 23.44 17.99 23.49 17.99C23.56 17.99 23.63 17.99 23.69 17.99C23.74 17.99 23.77 18.02 23.77 18.08C23.77 18.12 23.77 18.15 23.77 18.19H23.78Z" fill="#1E353C"/>
<path fill-rule="evenodd" clip-rule="evenodd" d="M7.17001 18.19C7.22001 18.14 7.27002 18.1 7.31002 18.06C7.41002 17.96 7.53 17.95 7.66 17.97C7.73 17.98 7.76003 18.01 7.76003 18.08C7.76003 18.16 7.76003 18.23 7.76003 18.31C7.76003 18.39 7.73 18.4 7.66 18.39C7.47 18.35 7.32002 18.42 7.25002 18.6C7.24002 18.63 7.24001 18.67 7.24001 18.7C7.24001 18.95 7.24001 19.2 7.24001 19.45C7.24001 19.59 7.22004 19.61 7.08004 19.61C7.02004 19.61 6.95004 19.61 6.89004 19.61C6.84004 19.61 6.81003 19.58 6.82003 19.53C6.82003 19.51 6.82003 19.48 6.82003 19.46C6.82003 19.02 6.82003 18.58 6.82003 18.14C6.82003 18 6.81999 17.99 6.96999 17.99C7.10333 17.99 7.17669 18.06 7.19003 18.2L7.17001 18.19Z" fill="#1E353C"/>
<path fill-rule="evenodd" clip-rule="evenodd" d="M6.40002 18.8C6.40002 19.02 6.40002 19.24 6.40002 19.46C6.40002 19.59 6.38001 19.6 6.26001 19.61C6.20001 19.61 6.13001 19.61 6.07001 19.61C5.99001 19.61 5.97998 19.59 5.97998 19.51C5.97998 19.41 5.97998 19.3 5.97998 19.2C5.97998 18.84 5.97998 18.49 5.97998 18.13C5.97998 18.01 5.99999 17.99 6.10999 17.99C6.16999 17.99 6.22998 17.99 6.28998 17.99C6.37998 17.99 6.40002 18.02 6.40002 18.11C6.40002 18.32 6.40002 18.53 6.40002 18.74V18.81V18.8Z" fill="#1E353C"/>
<path fill-rule="evenodd" clip-rule="evenodd" d="M17.77 18.79C17.77 19.02 17.77 19.25 17.77 19.47C17.77 19.58 17.76 19.6 17.64 19.61C17.57 19.61 17.5 19.61 17.42 19.61C17.37 19.61 17.34 19.58 17.34 19.52C17.34 19.5 17.34 19.48 17.34 19.46C17.34 19.02 17.34 18.58 17.34 18.14C17.34 18.01 17.36 17.99 17.49 17.98C17.55 17.98 17.6 17.98 17.66 17.98C17.76 17.98 17.77 18 17.77 18.1C17.77 18.33 17.77 18.56 17.77 18.78V18.79Z" fill="#1E353C"/>
<path fill-rule="evenodd" clip-rule="evenodd" d="M24.62 18.8C24.62 18.58 24.62 18.35 24.62 18.13C24.62 18.01 24.64 18 24.75 17.99C24.81 17.99 24.87 17.99 24.93 17.99C25.03 17.99 25.05 18.01 25.05 18.12C25.05 18.29 25.05 18.45 25.05 18.62C25.05 18.91 25.05 19.2 25.05 19.49C25.05 19.6 25.04 19.62 24.93 19.62C24.87 19.62 24.81 19.62 24.75 19.62C24.64 19.62 24.63 19.6 24.62 19.49C24.62 19.26 24.62 19.03 24.62 18.81V18.8Z" fill="#1E353C"/>
<path fill-rule="evenodd" clip-rule="evenodd" d="M24.83 17.76C24.62 17.76 24.53 17.62 24.61 17.42C24.63 17.37 24.67 17.33 24.73 17.33C24.77 17.33 24.82 17.33 24.87 17.33C25.04 17.33 25.11 17.41 25.09 17.58C25.08 17.71 25.03 17.76 24.91 17.77C24.89 17.77 24.86 17.77 24.84 17.77L24.83 17.76Z" fill="#1E353C"/>
<path fill-rule="evenodd" clip-rule="evenodd" d="M17.57 17.76C17.34 17.76 17.25 17.62 17.33 17.42C17.35 17.36 17.39 17.33 17.45 17.33C17.5 17.33 17.56 17.33 17.61 17.33C17.75 17.33 17.8 17.39 17.81 17.53C17.81 17.56 17.81 17.59 17.81 17.62C17.79 17.73 17.75 17.76 17.65 17.77C17.62 17.77 17.6 17.77 17.59 17.77L17.57 17.76Z" fill="#1E353C"/>
<path fill-rule="evenodd" clip-rule="evenodd" d="M6.17996 17.77C5.98996 17.77 5.91998 17.69 5.94998 17.5C5.96998 17.38 6.00999 17.34 6.13999 17.33C6.16999 17.33 6.19995 17.33 6.22995 17.33C6.30995 17.33 6.38995 17.33 6.41995 17.42C6.45995 17.52 6.46 17.61 6.4 17.7C6.38 17.73 6.33997 17.75 6.30997 17.76C6.26997 17.77 6.22997 17.76 6.18997 17.77H6.17996Z" fill="#1E353C"/>
<path fill-rule="evenodd" clip-rule="evenodd" d="M9.55001 43.64C9.42001 43.62 9.29 43.6 9.17 43.58C8.96 43.55 8.74005 43.51 8.53005 43.47C8.47005 43.46 8.42002 43.43 8.37002 43.4C8.30002 43.35 8.29 43.29 8.35 43.22C8.39 43.18 8.44001 43.14 8.49001 43.11C8.57001 43.07 8.66001 43.03 8.74001 43C9.27001 42.79 9.77001 42.54 10.24 42.21C10.41 42.09 10.57 41.96 10.72 41.81C11.02 41.5 11.02 41.26 10.75 40.93C10.53 40.66 10.26 40.45 9.99001 40.24C9.95001 40.21 9.91001 40.18 9.86001 40.14C9.88001 40.11 9.89005 40.08 9.90005 40.06C10.08 39.79 10.27 39.51 10.45 39.24C10.46 39.22 10.48 39.2 10.49 39.18C10.55 39.11 10.58 39.11 10.64 39.17C10.83 39.38 11.03 39.58 11.2 39.81C11.32 39.96 11.36 40.15 11.37 40.34C11.38 40.54 11.39 40.74 11.4 40.94C11.98 41 12.55 41.06 13.1 40.88C13.2 40.85 13.29 40.81 13.38 40.76C13.5 40.69 13.52 40.6 13.44 40.49C13.35 40.38 13.25 40.27 13.15 40.18C13.06 40.1 12.96 40.03 12.86 39.94C13.02 39.61 13.17 39.28 13.35 38.95C13.46 39.01 13.54 39.07 13.61 39.16C13.89 39.5 14.03 39.89 13.99 40.33C13.99 40.4 13.98 40.47 13.97 40.54C13.97 40.54 13.97 40.56 13.98 40.58H14.11C20.8 40.58 27.5 40.58 34.19 40.58C34.21 40.58 34.23 40.58 34.25 40.58C34.51 40.58 34.65 40.45 34.68 40.19C34.69 40.07 34.7 39.94 34.7 39.82C34.72 39.59 34.8 39.39 34.95 39.21C35.25 38.84 35.79 38.81 36.16 39.06C36.27 39.13 36.38 39.23 36.45 39.33C36.87 39.92 37.01 40.58 36.87 41.3C36.85 41.39 36.8201 41.47 36.7801 41.55C36.6 41.95 36.26 42.1 35.83 41.99C35.59 41.93 35.4 41.79 35.26 41.59C35.15 41.44 35.06 41.27 34.96 41.1C34.95 41.12 34.93 41.15 34.92 41.18C34.86 41.29 34.8 41.4 34.73 41.5C34.57 41.72 34.35 41.83 34.08 41.83C32.11 41.83 30.15 41.83 28.18 41.83H13.68V41.39C13.68 41.39 13.65 41.37 13.63 41.37C13.63 41.39 13.62 41.42 13.6 41.43C13.31 41.75 12.94 41.93 12.51 41.97C12.19 42 11.87 42.01 11.55 42.03C11.46 42.03 11.37 42.03 11.27 42.03C11.25 42.08 11.23 42.13 11.22 42.17C11.06 42.67 10.78 43.09 10.42 43.46C10.34 43.55 10.23 43.59 10.13 43.64H9.57003H9.55001ZM36.46 40.76C36.46 40.76 36.46 40.71 36.46 40.68C36.41 40.36 36.3 40.06 36.12 39.79C36.08 39.72 36.02 39.66 35.96 39.6C35.91 39.56 35.84 39.52 35.7801 39.5C35.6301 39.46 35.51 39.53 35.47 39.67C35.45 39.73 35.44 39.8 35.44 39.86C35.46 40.23 35.57 40.56 35.8 40.85C35.86 40.93 35.95 41 36.05 41.04C36.32 41.17 36.47 41.06 36.47 40.74L36.46 40.76Z" fill="#1E353C"/>
<path fill-rule="evenodd" clip-rule="evenodd" d="M12.83 22.3C12.83 22.3 12.85 22.38 12.85 22.42C12.85 22.67 12.85 22.91 12.85 23.17C11.76 23.55 10.67 23.93 9.57 24.31C9.59 24.35 9.61 24.39 9.63 24.42C9.76 24.65 9.90002 24.87 10.03 25.11C10.3 25.62 10.35 26.15 10.16 26.7C9.99997 27.17 9.70002 27.51 9.21002 27.66C9.00002 27.72 8.62997 27.75 8.40997 27.71V26.9C8.40997 26.9 8.35002 26.93 8.34002 26.95C8.06002 27.28 7.69002 27.45 7.28002 27.54C6.94002 27.61 6.58999 27.65 6.24999 27.65C5.81999 27.65 5.39002 27.65 4.96002 27.62C4.71002 27.61 4.47998 27.55 4.23998 27.46C3.74998 27.27 3.48 26.92 3.44 26.39C3.41 26.07 3.43997 25.76 3.53997 25.46C3.55997 25.39 3.60001 25.31 3.64001 25.25C3.67001 25.2 3.72002 25.17 3.78002 25.19C3.85002 25.21 3.84997 25.27 3.84997 25.33C3.84997 25.39 3.83001 25.45 3.83001 25.51C3.83001 25.6 3.82001 25.69 3.83001 25.77C3.86001 26.1 4.03997 26.32 4.34997 26.44C4.57997 26.53 4.80998 26.58 5.04998 26.6C5.66998 26.66 6.29998 26.65 6.91998 26.6C7.19998 26.58 7.49001 26.52 7.77001 26.47C7.88001 26.45 7.99002 26.4 8.09002 26.34C8.22002 26.27 8.24002 26.17 8.15002 26.05C8.04002 25.92 7.91997 25.8 7.78997 25.68C7.71997 25.62 7.65 25.56 7.57 25.5C7.73 25.17 7.88998 24.85 8.04998 24.53C8.14998 24.55 8.21 24.61 8.26 24.66C8.57 24.99 8.74001 25.39 8.70001 25.85C8.68001 26.06 8.64999 26.26 8.61999 26.48C8.63999 26.48 8.68002 26.49 8.71002 26.48C8.92002 26.46 9.12997 26.45 9.34997 26.43C9.39997 26.43 9.44999 26.41 9.49999 26.39C9.66999 26.33 9.70999 26.26 9.61999 26.1C9.43999 25.8 9.26 25.5 9.07 25.2C8.95 25.01 8.82 24.82 8.69 24.64C8.64 24.57 8.63002 24.5 8.65002 24.43C8.72002 24.2 8.8 23.97 8.88 23.74C8.91 23.66 8.96999 23.61 9.05999 23.58C10.27 23.17 11.47 22.75 12.68 22.34C12.7 22.34 12.72 22.32 12.74 22.31H12.85L12.83 22.3Z" fill="#1E353C"/>
<path fill-rule="evenodd" clip-rule="evenodd" d="M1.15002 41.72C1.15002 41.66 1.15997 41.59 1.15997 41.53C1.15997 38.69 1.15997 35.85 1.15997 33.02C1.15997 30.02 1.15997 27.02 1.15997 24.02C1.15997 23.52 1.15997 23.02 1.15997 22.52C1.15997 22.47 1.15997 22.41 1.15997 22.36C1.26997 22.33 2.51 22.32 2.69 22.35V22.8H1.70001V42.57H2.69V43.03C2.69 43.03 2.6 43.03 2.56 43.03C2.13 43.03 1.71003 43.03 1.28003 43.03C1.23003 43.03 1.18 43.01 1.13 43.01V41.73L1.15002 41.72Z" fill="#1E353C"/>
<path fill-rule="evenodd" clip-rule="evenodd" d="M41.92 43.03H40.4V42.56C40.51 42.56 40.62 42.56 40.73 42.56C40.84 42.56 40.94 42.56 41.05 42.56H41.39V22.8H40.4V22.33H41.92V43.03Z" fill="#1E353C"/>
<path fill-rule="evenodd" clip-rule="evenodd" d="M14.4 34.52C14.4 34.52 14.32 34.46 14.28 34.43C14.05 34.24 14.01 33.96 14.16 33.7C14.29 33.49 14.46 33.31 14.67 33.17C14.7 33.15 14.74 33.12 14.79 33.09C14.67 33.04 14.57 33 14.45 32.95C14.46 32.91 14.47 32.88 14.48 32.85C14.6 32.54 14.73 32.24 14.85 31.94C14.94 31.73 15.01 31.7 15.21 31.82C15.6 32.06 15.98 32.3 16.35 32.56C16.71 32.8 17.03 33.08 17.34 33.39C17.55 33.61 17.75 33.84 17.88 34.11C17.94 34.23 17.99 34.36 18.04 34.49H18.19C24.03 34.49 29.87 34.49 35.71 34.49C35.79 34.49 35.87 34.49 35.94 34.47C36.1 34.44 36.2 34.34 36.23 34.19C36.25 34.07 36.26 33.95 36.26 33.83C36.26 33.64 36.3 33.45 36.4 33.28C36.73 32.69 37.38 32.7 37.75 32.96C37.88 33.05 37.98 33.16 38.07 33.29C38.44 33.86 38.56 34.48 38.45 35.15C38.43 35.27 38.39 35.38 38.33 35.49C38.12 35.88 37.84 35.96 37.46 35.89C37.19 35.84 36.98 35.68 36.82 35.46C36.72 35.31 36.63 35.15 36.53 34.99C36.51 35.03 36.49 35.07 36.47 35.11C36.4 35.26 36.32 35.4 36.2 35.51C36.07 35.64 35.92 35.72 35.73 35.72C35.68 35.72 35.64 35.72 35.59 35.72C29.64 35.72 23.7 35.72 17.75 35.72C17.69 35.72 17.63 35.71 17.57 35.7C17.54 35.7 17.51 35.7 17.49 35.71C17.27 35.84 17.03 35.83 16.79 35.77C16.47 35.69 16.18 35.53 15.89 35.36C15.82 35.32 15.76 35.28 15.69 35.23C15.67 35.23 15.66 35.24 15.64 35.25C15.26 35.53 14.83 35.68 14.38 35.76C14.28 35.78 14.18 35.77 14.07 35.77C13.91 35.77 13.75 35.77 13.58 35.77C13.16 35.77 12.87 35.58 12.69 35.22C12.66 35.16 12.63 35.1 12.6 35.02C12.56 35.11 12.53 35.18 12.5 35.25C12.33 35.6 12.06 35.79 11.66 35.78C11.53 35.78 11.4 35.8 11.27 35.8C10.89 35.81 10.6 35.64 10.41 35.32C10.3 35.13 10.22 34.92 10.13 34.72C10.1 34.65 10.08 34.59 10.04 34.5C10.01 34.56 9.98003 34.6 9.96003 34.63C9.86003 34.78 9.76003 34.95 9.65003 35.09C9.23003 35.62 8.66 35.84 7.99 35.81C7.87 35.81 7.74 35.78 7.62 35.74C7.28 35.62 7.09001 35.37 7.07001 35.01C7.05001 34.64 7.11002 34.27 7.26002 33.92C7.29002 33.86 7.32 33.8 7.37 33.74C7.42 33.68 7.49001 33.66 7.56001 33.69C7.63001 33.72 7.63001 33.78 7.63001 33.84C7.63001 33.9 7.61999 33.95 7.60999 34.01C7.54999 34.33 7.68001 34.52 8.00001 34.57C8.19001 34.6 8.38001 34.61 8.57001 34.6C9.00001 34.58 9.4 34.45 9.74 34.19C9.79 34.15 9.83001 34.11 9.88001 34.07C9.77001 33.78 9.67 33.49 9.56 33.21C9.47001 32.96 9.38004 32.71 9.28004 32.47C9.26004 32.41 9.26 32.37 9.3 32.32C9.47 32.13 9.64001 31.94 9.82001 31.76C9.84001 31.73 9.88003 31.72 9.90003 31.7C9.98003 31.74 9.98001 31.82 10 31.88C10.21 32.5 10.41 33.13 10.62 33.75C10.68 33.92 10.76 34.09 10.85 34.25C10.93 34.39 11.05 34.5 11.22 34.54C11.25 34.54 11.28 34.55 11.32 34.55C11.41 34.55 11.5 34.53 11.59 34.53C11.86 34.53 12.07 34.4 12.21 34.17C12.3 34.02 12.35 33.86 12.39 33.69C12.4 33.64 12.42 33.58 12.44 33.53C12.47 33.46 12.51 33.4 12.6 33.4C12.67 33.4 12.72 33.44 12.75 33.54C12.77 33.59 12.77 33.65 12.78 33.7C12.8 33.87 12.84 34.03 12.92 34.18C13.04 34.4 13.22 34.51 13.47 34.52C13.76 34.52 14.04 34.52 14.33 34.52V34.5L14.4 34.52ZM37.03 33.8C37.05 34.14 37.17 34.46 37.37 34.74C37.41 34.79 37.46 34.84 37.51 34.88C37.59 34.94 37.67 34.98 37.77 34.99C37.95 35.01 38.03 34.95 38.05 34.77C38.05 34.68 38.05 34.59 38.05 34.51C37.99 34.21 37.88 33.92 37.71 33.67C37.64 33.57 37.56 33.47 37.43 33.43C37.24 33.36 37.08 33.45 37.05 33.65C37.05 33.7 37.05 33.75 37.04 33.82L37.03 33.8ZM15.27 33.44C15.19 33.47 15.08 33.49 14.99 33.53C14.78 33.63 14.76 33.76 14.94 33.91C15.13 34.08 15.35 34.2 15.58 34.31C15.73 34.38 15.9 34.32 16 34.19C16.08 34.07 16.07 33.92 15.95 33.8C15.81 33.65 15.65 33.54 15.46 33.48C15.41 33.46 15.35 33.46 15.27 33.44ZM16.29 34.62C16.52 34.75 16.74 34.86 16.98 34.94C17.07 34.97 17.16 34.99 17.25 35.01C17.33 35.02 17.43 35.03 17.48 34.94C17.53 34.86 17.5 34.78 17.45 34.71C17.42 34.66 17.39 34.62 17.35 34.58C17.28 34.51 17.21 34.45 17.13 34.39C16.96 34.26 16.78 34.14 16.58 34.03C16.52 34.25 16.46 34.45 16.3 34.63L16.29 34.62Z" fill="#1E353C"/>
<path fill-rule="evenodd" clip-rule="evenodd" d="M38.15 25C38.15 25 38.2 25.05 38.21 25.08C38.48 25.71 38.57 26.36 38.37 27.03C38.31 27.22 38.2299 27.4 38.0999 27.56C37.8699 27.85 37.57 27.97 37.2 27.88C37 27.83 36.87 27.7 36.77 27.53C36.75 27.5 36.73 27.47 36.71 27.42C36.53 27.7 36.3099 27.89 35.9699 27.9C35.6299 27.9 35.39 27.74 35.21 27.44C35.18 27.48 35.17 27.51 35.15 27.53C34.98 27.76 34.76 27.9 34.46 27.9C27.6 27.9 20.73 27.9 13.87 27.9H13.67C13.65 27.98 13.63 28.06 13.61 28.14C13.47 28.74 13.16 29.25 12.73 29.69C12.64 29.78 12.5399 29.84 12.4099 29.84C11.8999 29.86 11.39 29.81 10.89 29.7C10.83 29.69 10.7699 29.66 10.7199 29.64C10.6099 29.58 10.6 29.5 10.69 29.42C10.76 29.36 10.85 29.31 10.94 29.27C11.08 29.21 11.22 29.15 11.36 29.09C11.87 28.86 12.37 28.6 12.8 28.24C12.93 28.13 13.04 28.01 13.14 27.88C13.29 27.69 13.3 27.47 13.14 27.28C13.03 27.14 12.91 27 12.78 26.87C12.62 26.72 12.45 26.59 12.28 26.45C12.24 26.42 12.1999 26.39 12.1599 26.36C12.2399 26.18 12.77 25.41 12.87 25.33C12.91 25.36 12.95 25.4 12.99 25.43C13.11 25.56 13.23 25.7 13.36 25.83C13.56 26.04 13.66 26.28 13.67 26.57C13.67 26.59 13.67 26.61 13.67 26.64C13.73 26.64 13.79 26.65 13.84 26.65C15.29 26.65 16.74 26.65 18.19 26.65C23.54 26.65 28.88 26.65 34.23 26.65C34.35 26.65 34.47 26.65 34.59 26.65C34.78 26.64 34.91 26.54 34.96 26.35C34.98 26.28 35 26.21 35.02 26.14C35.03 26.09 35.05 26.04 35.06 25.99C35.08 25.93 35.13 25.87 35.2 25.87C35.28 25.87 35.32 25.93 35.33 25.99C35.36 26.09 35.37 26.19 35.4 26.29C35.45 26.52 35.57 26.63 35.81 26.65C35.87 26.65 35.93 26.65 35.99 26.65C36.17 26.63 36.29 26.54 36.34 26.36C36.36 26.28 36.38 26.2 36.4 26.12C36.42 26.06 36.4299 25.99 36.4699 25.94C36.5299 25.84 36.63 25.85 36.7 25.94C36.72 25.97 36.73 26 36.74 26.03C36.75 26.07 36.76 26.11 36.77 26.15C36.81 26.43 36.97 26.59 37.25 26.63C37.39 26.65 37.54 26.65 37.68 26.64C37.86 26.63 37.97 26.48 37.93 26.3C37.9 26.19 37.85 26.08 37.79 25.98C37.72 25.87 37.64 25.77 37.56 25.67C37.71 25.41 37.9899 25.04 38.0999 24.98L38.15 25Z" fill="#1E353C"/>
<path fill-rule="evenodd" clip-rule="evenodd" d="M9.28998 29.46C9.28998 29.46 9.35002 29.37 9.39002 29.32C9.50002 29.17 9.60997 29.01 9.71997 28.86C9.80998 28.74 9.85998 28.75 9.90998 28.88C9.95998 28.99 10 29.1 10.03 29.22C10.19 29.76 10.22 30.29 10.05 30.83C9.97999 31.03 9.88999 31.22 9.73999 31.39C9.51999 31.64 9.23998 31.73 8.90998 31.67C8.72998 31.64 8.58999 31.53 8.48999 31.38C8.45999 31.33 8.43002 31.28 8.39002 31.21C8.22002 31.49 7.98003 31.68 7.65003 31.69C7.31003 31.69 7.07003 31.52 6.90003 31.24C6.89003 31.24 6.88 31.24 6.87 31.25C6.69 31.55 6.42 31.69 6.06 31.69C5.3 31.69 4.53002 31.69 3.77002 31.69C3.66002 31.69 3.54 31.72 3.43 31.74C3.39 31.74 3.36002 31.76 3.33002 31.78C3.23002 31.84 3.23003 31.94 3.34003 31.98C3.45003 32.02 3.57001 32.04 3.69001 32.05C3.87001 32.06 4.04998 32.06 4.22998 32.06C5.38999 32.06 6.55998 32.06 7.71997 32.06C8.17998 32.06 8.59998 32.42 8.65998 32.88C8.67998 33 8.66002 33.13 8.64002 33.25C8.62002 33.36 8.55003 33.44 8.46003 33.48C8.24003 33.58 8.01 33.63 7.75 33.71C7.82 33.56 7.87 33.44 7.93 33.32C7.94 33.29 7.99002 33.28 8.02002 33.26C8.07002 33.23 8.14003 33.22 8.15003 33.14C8.12003 33.08 8.05 33.08 8 33.07C7.94 33.07 7.88001 33.07 7.82001 33.07C6.52001 33.07 5.20998 33.07 3.90998 33.07C3.52998 33.07 3.22002 32.93 2.95002 32.67C2.91002 32.63 2.88003 32.59 2.84003 32.54C2.69003 32.35 2.65999 32.14 2.73999 31.91C2.79999 31.72 2.90998 31.56 3.03998 31.41C3.48998 30.9 4.04998 30.6 4.71998 30.48C5.07998 30.42 5.45 30.42 5.81 30.42C5.96 30.42 6.11001 30.42 6.26001 30.42C6.50001 30.42 6.64002 30.31 6.70002 30.08C6.72002 30 6.74001 29.93 6.76001 29.85C6.78001 29.8 6.79001 29.74 6.82001 29.7C6.88001 29.61 6.97998 29.62 7.03998 29.71C7.05998 29.75 7.08003 29.8 7.09003 29.85C7.11003 29.94 7.13003 30.02 7.15003 30.11C7.15003 30.15 7.17001 30.18 7.19001 30.21C7.31001 30.4 7.49001 30.43 7.69001 30.42C7.86001 30.42 8.01001 30.34 8.07001 30.17C8.11001 30.07 8.12998 29.97 8.15998 29.86C8.16998 29.81 8.19003 29.76 8.21003 29.72C8.23003 29.67 8.27002 29.64 8.33002 29.64C8.39002 29.64 8.44003 29.67 8.46003 29.73C8.48003 29.76 8.47999 29.8 8.48999 29.84C8.49999 29.88 8.51002 29.93 8.52002 29.98C8.56002 30.21 8.7 30.35 8.93 30.4C9.07 30.43 9.21999 30.44 9.35999 30.44C9.60999 30.43 9.74003 30.25 9.65003 30.01C9.61003 29.89 9.53003 29.78 9.46003 29.67C9.41003 29.6 9.34998 29.53 9.28998 29.45V29.46Z" fill="#1E353C"/>
<path fill-rule="evenodd" clip-rule="evenodd" d="M6.99001 39.63C7.20001 39.29 7.39002 38.94 7.62002 38.59C7.68002 38.64 7.72003 38.67 7.76003 38.7C7.93003 38.87 8.04004 39.08 8.14004 39.3C8.38004 39.85 8.48 40.43 8.42 41.04C8.4 41.24 8.37004 41.44 8.33004 41.63C8.18004 42.28 7.78 42.72 7.17 42.97C6.87 43.09 6.56001 43.17 6.24001 43.19C5.94001 43.21 5.63003 43.23 5.32003 43.21C4.85003 43.19 4.41005 43.05 4.03005 42.75C3.71005 42.5 3.53001 42.17 3.49001 41.77C3.42001 41.17 3.54 40.6 3.79 40.05C3.82 39.98 3.87001 39.9 3.93001 39.85C4.04001 39.76 4.16 39.81 4.17 39.95C4.17 40.07 4.15003 40.19 4.13003 40.31C4.10003 40.5 4.05005 40.68 4.03005 40.87C3.99005 41.18 4.1 41.43 4.35 41.61C4.58 41.78 4.84002 41.87 5.12002 41.91C5.88002 42.05 6.62005 41.97 7.34005 41.71C7.49005 41.66 7.63003 41.58 7.76003 41.49C8.01003 41.32 8.06002 41.1 7.94002 40.82C7.83002 40.56 7.64999 40.34 7.46999 40.13C7.31999 39.96 7.16002 39.8 7.00002 39.62L6.99001 39.63Z" fill="#1E353C"/>
<path fill-rule="evenodd" clip-rule="evenodd" d="M8.46997 37.6C8.93997 37.22 9.58002 36.77 9.71002 36.75C9.71002 36.8 9.72998 36.85 9.72998 36.9C9.70998 37.23 9.68002 37.56 9.65002 37.9C9.62002 38.31 9.57999 38.71 9.54999 39.12C9.50999 39.63 9.46998 40.14 9.41998 40.64C9.38998 41 9.36002 41.35 9.33002 41.71C9.33002 41.77 9.30003 41.84 9.28003 41.9C9.26003 41.95 9.21997 41.99 9.15997 42C9.09997 42 9.05003 41.97 9.03003 41.91C9.00003 41.82 8.96001 41.72 8.95001 41.62C8.87001 40.97 8.79997 40.32 8.71997 39.68C8.64997 39.09 8.58001 38.49 8.51001 37.9C8.50001 37.81 8.48998 37.72 8.47998 37.62L8.46997 37.6Z" fill="#1E353C"/>
<path fill-rule="evenodd" clip-rule="evenodd" d="M37.21 37.18C37.67 36.8 38.32 36.35 38.45 36.33C38.45 36.39 38.47 36.45 38.46 36.5C38.43 36.92 38.4 37.33 38.36 37.75C38.33 38.15 38.29 38.54 38.26 38.94C38.22 39.46 38.17 39.97 38.13 40.49C38.11 40.74 38.09 41 38.06 41.25C38.06 41.33 38.03 41.41 38 41.48C37.95 41.59 37.83 41.59 37.77 41.48C37.72 41.4 37.69 41.3 37.68 41.21C37.64 40.89 37.6 40.58 37.56 40.26C37.5 39.74 37.44 39.23 37.38 38.71C37.32 38.2 37.26 37.69 37.2 37.17L37.21 37.18Z" fill="#1E353C"/>
<path fill-rule="evenodd" clip-rule="evenodd" d="M12.91 42.86C13.05 42.72 13.19 42.58 13.33 42.44C13.36 42.41 13.38 42.39 13.41 42.36C13.49 42.29 13.5101 42.29 13.5901 42.36C13.7001 42.46 13.81 42.57 13.92 42.68C13.98 42.74 14.05 42.8 14.11 42.86C14.18 42.93 14.18 42.96 14.11 43.02C13.94 43.19 13.77 43.36 13.6 43.53C13.53 43.59 13.51 43.59 13.44 43.53C13.29 43.39 13.15 43.24 13.01 43.1C12.99 43.08 12.96 43.06 12.94 43.03C12.73 43.21 12.57 43.42 12.36 43.59C12.33 43.57 12.3 43.55 12.27 43.53C12.1 43.37 11.94 43.21 11.77 43.05C11.69 42.97 11.68 42.94 11.77 42.85C11.92 42.69 12.08 42.53 12.24 42.37C12.32 42.29 12.34 42.29 12.43 42.37C12.56 42.5 12.69 42.63 12.81 42.75C12.84 42.78 12.88 42.81 12.92 42.85L12.91 42.86Z" fill="#1E353C"/>
<path fill-rule="evenodd" clip-rule="evenodd" d="M36.95 24.74C36.83 24.86 36.72 24.97 36.61 25.08C36.56 25.13 36.51 25.18 36.46 25.23C36.41 25.28 36.37 25.29 36.32 25.23C36.15 25.06 35.98 24.9 35.81 24.73C35.76 24.68 35.76 24.63 35.81 24.58C35.97 24.41 36.13 24.25 36.3 24.08C36.36 24.02 36.39 24.03 36.46 24.1C36.58 24.22 36.7 24.34 36.82 24.46C36.85 24.49 36.89 24.52 36.93 24.56C37.06 24.43 37.19 24.3 37.31 24.18C37.48 24.01 37.47 23.99 37.66 24.18C37.79 24.31 37.92 24.43 38.05 24.55C38.14 24.63 38.14 24.66 38.05 24.74C37.91 24.89 37.76 25.03 37.62 25.17C37.51 25.28 37.5 25.28 37.4 25.17C37.28 25.05 37.16 24.93 37.05 24.82C37.02 24.79 36.98 24.76 36.94 24.72L36.95 24.74Z" fill="#1E353C"/>
<path fill-rule="evenodd" clip-rule="evenodd" d="M11.68 33.38C11.68 33.38 11.61 33.34 11.58 33.32C11.36 33.11 11.15 32.9 10.93 32.69C10.86 32.62 10.85 32.57 10.93 32.5C11.14 32.28 11.35 32.07 11.56 31.86C11.62 31.8 11.68 31.8 11.74 31.86C11.97 32.08 12.2 32.29 12.42 32.51C12.49 32.58 12.48 32.61 12.41 32.69C12.26 32.84 12.11 32.99 11.96 33.14C11.9 33.2 11.84 33.27 11.77 33.33C11.74 33.35 11.71 33.37 11.68 33.39V33.38Z" fill="#1E353C"/>
<path fill-rule="evenodd" clip-rule="evenodd" d="M6.59998 25.78C6.41998 25.97 6.25001 26.15 6.07001 26.33C5.89001 26.2 5.75001 26.01 5.57001 25.86C5.41001 26.02 5.25002 26.17 5.08002 26.34C4.89002 26.16 4.70998 25.98 4.53998 25.81C4.54998 25.78 4.55001 25.76 4.57001 25.75C4.71001 25.6 4.86 25.45 5 25.3C5.05 25.25 5.10001 25.27 5.14001 25.31C5.24001 25.41 5.33999 25.51 5.42999 25.61C5.46999 25.65 5.49003 25.69 5.53003 25.74C5.68003 25.59 5.79998 25.47 5.91998 25.34C6.01998 25.24 6.04002 25.24 6.15002 25.34C6.27002 25.45 6.39 25.56 6.5 25.67C6.53 25.7 6.56003 25.74 6.59003 25.77L6.59998 25.78Z" fill="#1E353C"/>
<path fill-rule="evenodd" clip-rule="evenodd" d="M6.76002 40.61C6.76002 40.61 6.72002 40.67 6.70002 40.69C6.50002 40.89 6.29999 41.09 6.09999 41.29C6.02999 41.36 6 41.36 5.93 41.29C5.73 41.1 5.52002 40.9 5.32002 40.7C5.25002 40.63 5.25002 40.6 5.32002 40.52C5.51002 40.32 5.71003 40.12 5.90003 39.93C5.97003 39.86 6.00003 39.86 6.08003 39.93C6.29003 40.13 6.50002 40.32 6.70002 40.52C6.72002 40.54 6.73001 40.57 6.75001 40.6L6.76002 40.61Z" fill="#1E353C"/>
<path fill-rule="evenodd" clip-rule="evenodd" d="M35.73 24.64C35.73 24.64 35.69 24.7 35.67 24.72C35.52 24.87 35.37 25.02 35.22 25.17C35.14 25.25 35.12 25.25 35.04 25.17C34.89 25.02 34.73 24.88 34.58 24.73C34.5 24.65 34.5 24.63 34.58 24.55C34.73 24.4 34.88 24.25 35.03 24.1C35.09 24.04 35.13 24.03 35.19 24.09C35.38 24.26 35.56 24.44 35.74 24.62C35.74 24.62 35.74 24.64 35.75 24.66L35.73 24.64Z" fill="#1E353C"/>
</svg>
