<svg width="95" height="65" viewBox="0 0 95 65" fill="none" xmlns="http://www.w3.org/2000/svg">
<path opacity="0.1" d="M6.13 47.74C3.25 47.74 0.909973 50.08 0.909973 52.96V64.66H11.35V52.96C11.35 50.08 9.01 47.74 6.13 47.74Z" fill="#1E353C"/>
<path opacity="0.21" d="M16.57 41.77C13.69 41.77 11.35 44.11 11.35 46.99V64.66H21.79V46.99C21.79 44.11 19.45 41.77 16.57 41.77Z" fill="#1E353C"/>
<path opacity="0.33" d="M27.01 35.8C24.13 35.8 21.79 38.14 21.79 41.02V64.66H32.23V41.02C32.23 38.14 29.89 35.8 27.01 35.8Z" fill="#1E353C"/>
<path opacity="0.44" d="M37.45 29.84C34.57 29.84 32.23 32.18 32.23 35.06V64.66H42.67V35.06C42.67 32.18 40.33 29.84 37.45 29.84Z" fill="#1E353C"/>
<path opacity="0.55" d="M47.89 23.87C45.01 23.87 42.67 26.21 42.67 29.09V64.66H53.11V29.09C53.11 26.21 50.77 23.87 47.89 23.87Z" fill="#1E353C"/>
<path opacity="0.66" d="M58.33 17.9C55.45 17.9 53.11 20.24 53.11 23.12V64.66H63.55V23.12C63.55 20.24 61.21 17.9 58.33 17.9Z" fill="#1E353C"/>
<path opacity="0.78" d="M68.77 11.93C65.89 11.93 63.55 14.27 63.55 17.15V64.66H73.99V17.15C73.99 14.27 71.65 11.93 68.77 11.93Z" fill="#1E353C"/>
<path opacity="0.89" d="M79.21 5.97C76.33 5.97 73.99 8.31 73.99 11.19V64.66H84.43V11.19C84.43 8.31 82.09 5.97 79.21 5.97Z" fill="#1E353C"/>
<path d="M89.65 0C86.77 0 84.43 2.34 84.43 5.22V64.66H94.87V5.22C94.87 2.34 92.53 0 89.65 0Z" fill="#1E353C"/>
</svg>
