<svg width="22" height="17" viewBox="0 0 22 17" fill="none" xmlns="http://www.w3.org/2000/svg">
<g clip-path="url(#clip0_22_2)">
<path opacity="0.09" d="M21.27 4.84002V16.45H9.14999V6.84002C9.14999 6.84002 9.16999 6.79002 9.18999 6.77002C9.18999 6.75002 9.19999 6.74002 9.20999 6.72002C9.21999 6.69002 9.22999 6.67002 9.23999 6.64002C9.23999 6.62002 9.24999 6.60002 9.25999 6.58002C9.25999 6.55002 9.27999 6.53002 9.28999 6.50002C9.28999 6.48002 9.29999 6.46002 9.30999 6.44002C9.30999 6.42002 9.32999 6.39002 9.32999 6.37002C9.32999 6.35002 9.33999 6.33002 9.34999 6.30002C9.34999 6.29002 9.34999 6.28002 9.34999 6.27002C9.38999 6.33002 9.43999 6.37002 9.49999 6.37002C9.52999 6.37002 9.54999 6.37002 9.57999 6.34002C9.70999 6.25002 9.79999 5.96002 9.79999 5.60002C9.79999 5.42002 9.77999 5.26002 9.73999 5.13002C9.68999 4.95002 9.59999 4.84002 9.50999 4.84002C9.46999 4.84002 9.42999 4.86002 9.39999 4.90002C9.39999 4.92002 9.39999 4.94002 9.40999 4.96002C9.32999 4.92002 9.24999 4.87002 9.16999 4.83002H21.27V4.84002Z" fill="#1E353C"/>
<g opacity="0.44">
<path d="M13.08 5.14001V7.47001H9.57999V6.35001C9.70999 6.26001 9.79999 5.97001 9.79999 5.61001C9.79999 5.43001 9.77999 5.27001 9.73999 5.14001H13.08Z" fill="#1E353C"/>
<path d="M17.89 5.14001H14.13V7.47001H17.89V5.14001Z" fill="#1E353C"/>
<path d="M20.98 5.14001H18.9V7.47001H20.98V5.14001Z" fill="#1E353C"/>
<path d="M13.08 10.88H9.57999V13.21H13.08V10.88Z" fill="#1E353C"/>
<path d="M17.89 10.88H14.13V13.21H17.89V10.88Z" fill="#1E353C"/>
<path d="M20.98 10.88H18.9V13.21H20.98V10.88Z" fill="#1E353C"/>
<path d="M11.66 7.98999H9.57999V10.32H11.66V7.98999Z" fill="#1E353C"/>
<path d="M16.48 7.98999H12.72V10.32H16.48V7.98999Z" fill="#1E353C"/>
<path d="M20.99 7.98999H17.49V10.32H20.99V7.98999Z" fill="#1E353C"/>
<path d="M11.66 13.79H9.57999V16.12H11.66V13.79Z" fill="#1E353C"/>
<path d="M16.48 13.79H12.72V16.12H16.48V13.79Z" fill="#1E353C"/>
<path d="M20.99 13.79H17.49V16.12H20.99V13.79Z" fill="#1E353C"/>
</g>
<path opacity="0.21" fill-rule="evenodd" clip-rule="evenodd" d="M9.81 5.61C9.81 5.96 9.72 6.26 9.59 6.35C9.57 6.37 9.54 6.38 9.51 6.38C9.46 6.38 9.41 6.34 9.36 6.28C9.36 6.29 9.36 6.3 9.36 6.31C9.36 6.33 9.35 6.35 9.34 6.38C9.34 6.4 9.32 6.43 9.32 6.45C9.32 6.47 9.31 6.49 9.3 6.51C9.3 6.54 9.28 6.56 9.27 6.59C9.27 6.61 9.26 6.63 9.25 6.65C9.24 6.68 9.23 6.7 9.22 6.73C9.22 6.75 9.21 6.76 9.2 6.78C9.19 6.8 9.18 6.83 9.16 6.85C9.16 6.87 9.15 6.88 9.14 6.9C9.13 6.93 9.11 6.95 9.1 6.98C9.1 6.99 9.08 7.01 9.08 7.02C9.06 7.05 9.05 7.07 9.03 7.1C9.03 7.11 9.02 7.12 9.01 7.14C8.99 7.17 8.97 7.19 8.96 7.22C8.96 7.22 8.95 7.24 8.94 7.25C8.92 7.28 8.9 7.3 8.88 7.33C8.88 7.33 8.87 7.35 8.86 7.36C8.84 7.39 8.82 7.41 8.79 7.44C8.79 7.44 8.78 7.46 8.77 7.46C8.75 7.49 8.72 7.51 8.7 7.54C8.7 7.54 8.69 7.55 8.68 7.56C8.65 7.59 8.63 7.61 8.6 7.64C8.6 7.64 8.59 7.65 8.58 7.66C8.55 7.69 8.52 7.71 8.49 7.74C8.49 7.74 8.49 7.74 8.48 7.75C8.45 7.78 8.42 7.8 8.39 7.83C8.39 7.83 8.39 7.83 8.38 7.83C8.35 7.86 8.32 7.88 8.28 7.9C8.28 7.9 8.28 7.9 8.27 7.9C8.24 7.92 8.2 7.95 8.17 7.97C8.13 7.99 8.1 8.02 8.06 8.04C8.02 8.06 7.99 8.08 7.95 8.1C7.91 8.12 7.87 8.14 7.83 8.16C7.79 8.18 7.75 8.2 7.71 8.21C7.67 8.22 7.63 8.24 7.59 8.25V9.13C7.67 9.13 7.75 9.14 7.82 9.15C7.82 9.18 7.82 9.21 7.82 9.24C7.82 9.25 7.82 9.26 7.82 9.27C7.82 9.29 7.82 9.31 7.81 9.33C7.81 9.34 7.81 9.35 7.8 9.37C7.8 9.39 7.79 9.4 7.78 9.42C7.78 9.43 7.77 9.45 7.76 9.46C7.76 9.47 7.75 9.49 7.74 9.51C7.74 9.52 7.73 9.54 7.72 9.55C7.71 9.56 7.7 9.58 7.7 9.59C7.7 9.6 7.68 9.62 7.67 9.63C7.67 9.64 7.65 9.65 7.64 9.67C7.63 9.68 7.62 9.7 7.6 9.71C7.6 9.72 7.58 9.73 7.57 9.74C7.56 9.75 7.54 9.77 7.53 9.78C7.53 9.78 7.51 9.8 7.5 9.81C7.48 9.82 7.47 9.84 7.45 9.85C7.45 9.85 7.43 9.86 7.42 9.87C7.4 9.88 7.38 9.9 7.36 9.91C7.36 9.91 7.35 9.91 7.34 9.92C7.32 9.93 7.29 9.95 7.27 9.96C7.12 10.04 6.95 10.1 6.77 10.12C6.77 10.12 6.67 10.12 6.62 10.12C5.96 10.12 5.42 9.72 5.42 9.22C5.42 9.2 5.42 9.15 5.42 9.13C5.48 9.13 5.54 9.13 5.61 9.12V8.16C4.83 7.82 4.23 7.14 3.99 6.29C3.96 6.32 3.93 6.33 3.89 6.33C3.73 6.33 3.59 5.99 3.59 5.57C3.59 5.15 3.72 4.81 3.89 4.81C3.91 4.81 3.93 4.81 3.95 4.82C3.91 4.99 3.89 5.17 3.88 5.35C4.06 5.15 4.17 4.86 4.34 4.66C4.5 4.48 4.67 4.33 4.85 4.19H6.59C6.65 4.23 6.71 4.27 6.77 4.3C6.85 4.34 6.93 4.39 7.02 4.42C7.02 4.42 7.04 4.42 7.05 4.43C7.08 4.44 7.1 4.45 7.13 4.46H7.14C7.19 4.47 7.23 4.49 7.28 4.5C7.3 4.5 7.32 4.5 7.34 4.51H7.4C7.4 4.51 7.47 4.53 7.51 4.54C7.53 4.54 7.54 4.54 7.56 4.54C7.59 4.54 7.62 4.54 7.65 4.54H7.69C7.69 4.54 7.77 4.54 7.81 4.53C7.82 4.53 7.83 4.53 7.84 4.53C7.88 4.53 7.91 4.52 7.95 4.51C7.95 4.51 7.95 4.51 7.96 4.51C8 4.5 8.04 4.48 8.08 4.47C8.08 4.47 8.1 4.47 8.11 4.46C8.15 4.44 8.19 4.42 8.23 4.4C8.51 4.23 8.86 4.34 9.02 4.61C9.06 4.68 9.14 4.74 9.24 4.8C9.31 4.85 9.4 4.89 9.48 4.93C9.48 4.91 9.48 4.89 9.47 4.87C9.51 4.83 9.54 4.81 9.58 4.81C9.67 4.81 9.76 4.92 9.81 5.1C9.85 5.23 9.87 5.39 9.87 5.57L9.81 5.61Z" fill="#1E353C"/>
<path opacity="0.21" fill-rule="evenodd" clip-rule="evenodd" d="M4.78 4.22998C4.6 4.36998 4.42 4.51998 4.27 4.69998C4.1 4.89998 3.99 5.18998 3.81 5.38998C3.81 5.20998 3.84 5.02998 3.88 4.85998C3.88 4.81998 3.9 4.77998 3.91 4.73998C3.91 4.71998 3.91 4.70998 3.92 4.68998C3.92 4.65998 3.93 4.63998 3.94 4.60998C3.94 4.60998 3.94 4.60998 3.94 4.59998C3.94 4.56998 3.96 4.53998 3.97 4.50998C3.98 4.46998 4 4.42998 4.01 4.39998C4.02 4.35998 4.04 4.32998 4.06 4.28998C4.06 4.26998 4.08 4.24998 4.09 4.22998H4.77H4.78Z" fill="#1E353C"/>
<path opacity="0.21" fill-rule="evenodd" clip-rule="evenodd" d="M7.4 2.72002C7.4 2.72002 7.37 2.72002 7.36 2.71002C7.36 2.71002 7.39 2.71002 7.4 2.72002Z" fill="#1E353C"/>
<path opacity="0.21" fill-rule="evenodd" clip-rule="evenodd" d="M9.41 4.97C9.33 4.93 9.25 4.88 9.17 4.84C9.07 4.78 8.99 4.72 8.95 4.65C8.79 4.39 8.43 4.27 8.16 4.44C8.12 4.46 8.08 4.48 8.04 4.5C8.04 4.5 8.02 4.5 8.01 4.51C7.97 4.53 7.93 4.54 7.89 4.55C7.89 4.55 7.89 4.55 7.88 4.55C7.84 4.55 7.81 4.57 7.77 4.57C7.76 4.57 7.75 4.57 7.74 4.57C7.7 4.57 7.66 4.57 7.62 4.58H7.58C7.58 4.58 7.52 4.58 7.49 4.58C7.48 4.58 7.46 4.58 7.44 4.58C7.4 4.58 7.37 4.58 7.33 4.57H7.27C7.27 4.57 7.23 4.55 7.21 4.54C7.16 4.53 7.12 4.51 7.07 4.5C7.07 4.5 7.07 4.5 7.06 4.5C7.03 4.5 7.01 4.48 6.98 4.47C6.98 4.47 6.96 4.47 6.95 4.46C6.86 4.42 6.78 4.38 6.7 4.34C6.64 4.3 6.58 4.27 6.52 4.23H9.16C9.16 4.23 9.15 4.21 9.14 4.19C9.14 4.2 9.15 4.21 9.16 4.23C9.17 4.25 9.17 4.26 9.18 4.27C9.18 4.29 9.19 4.3 9.2 4.32C9.21 4.35 9.22 4.37 9.23 4.4C9.23 4.42 9.24 4.44 9.25 4.46C9.25 4.49 9.27 4.51 9.28 4.54C9.28 4.56 9.29 4.58 9.3 4.6C9.3 4.62 9.32 4.65 9.32 4.67C9.32 4.68 9.32 4.69 9.32 4.71C9.32 4.71 9.32 4.73 9.32 4.74C9.32 4.76 9.33 4.79 9.34 4.81C9.34 4.82 9.34 4.84 9.34 4.85C9.34 4.86 9.34 4.87 9.34 4.88C9.34 4.89 9.34 4.9 9.34 4.92C9.34 4.94 9.34 4.96 9.35 4.98L9.41 4.97Z" fill="#1E353C"/>
<path fill-rule="evenodd" clip-rule="evenodd" d="M3.8 9.39001L4.2 12.41H4.17V16.49H3.24V12.62C2.91 13.14 2.38 14.16 2.38 15.8V16.49H0V15.8C0 13.3 0.85 10.79 2.2 10.01C2.58 9.76001 3.12 9.55001 3.81 9.40001L3.8 9.39001Z" fill="#1E353C"/>
<path fill-rule="evenodd" clip-rule="evenodd" d="M8.37 9.22998L7.91 12.41H5.13L4.67 9.23998C4.89 9.20998 5.12 9.18998 5.35 9.16998C5.35 9.18998 5.35 9.24998 5.35 9.25998C5.35 9.74998 5.89 10.16 6.55 10.16C6.6 10.16 6.65 10.16 6.7 10.16C6.88 10.14 7.05 10.08 7.2 9.99998C7.22 9.98998 7.25 9.96998 7.27 9.95998C7.27 9.95998 7.28 9.95998 7.29 9.94998C7.31 9.93998 7.33 9.91998 7.35 9.90998C7.35 9.90998 7.37 9.89998 7.38 9.88998C7.4 9.87998 7.41 9.85998 7.43 9.84998C7.43 9.84998 7.45 9.82998 7.46 9.81998C7.47 9.80998 7.49 9.78998 7.5 9.77998C7.51 9.77998 7.52 9.75998 7.53 9.74998C7.54 9.73998 7.55 9.71998 7.57 9.70998C7.57 9.69998 7.59 9.68998 7.6 9.66998C7.6 9.65998 7.62 9.63998 7.63 9.62998C7.63 9.61998 7.65 9.59998 7.65 9.58998C7.65 9.57998 7.66 9.55998 7.67 9.54998C7.67 9.53998 7.68 9.51998 7.69 9.49998C7.69 9.48998 7.7 9.46998 7.71 9.45998C7.71 9.43998 7.72 9.42998 7.73 9.40998C7.73 9.39998 7.73 9.38998 7.74 9.36998C7.74 9.34998 7.74 9.32998 7.75 9.30998C7.75 9.29998 7.75 9.28998 7.75 9.27998C7.75 9.24998 7.75 9.21998 7.75 9.18998C7.96 9.19998 8.16 9.22998 8.35 9.24998L8.37 9.22998Z" fill="#1E353C"/>
<path d="M8.19 14.95H4.86V16.48H8.19V14.95Z" fill="#1E353C"/>
<path fill-rule="evenodd" clip-rule="evenodd" d="M13.16 15.79V16.48H10.77V15.79C10.77 14.97 10.62 14.31 10.42 13.79C10.34 13.57 10.25 13.38 10.16 13.21C10.07 13.03 9.97001 12.88 9.89001 12.75V16.48H8.85001V12.4L9.17001 9.98003V9.34003C9.17001 9.34003 9.23001 9.35003 9.25001 9.36003C9.37001 9.38003 9.49001 9.41003 9.60001 9.44003C10.18 9.59003 10.65 9.78003 10.99 10C11.13 10.09 11.27 10.19 11.41 10.32C11.58 10.48 11.74 10.66 11.89 10.88C12.32 11.49 12.65 12.3 12.88 13.21C12.93 13.4 12.97 13.59 13 13.79C13.12 14.44 13.18 15.11 13.18 15.79H13.16Z" fill="#1E353C"/>
<path fill-rule="evenodd" clip-rule="evenodd" d="M4.78 4.22998C4.6 4.36998 4.42 4.51998 4.27 4.69998C4.1 4.89998 3.99 5.18998 3.81 5.38998C3.81 5.20998 3.84 5.02998 3.88 4.85998C3.88 4.81998 3.9 4.77998 3.91 4.73998C3.91 4.71998 3.91 4.70998 3.92 4.68998C3.92 4.65998 3.93 4.63998 3.94 4.60998C3.94 4.60998 3.94 4.60998 3.94 4.59998C3.94 4.56998 3.96 4.53998 3.97 4.50998C3.98 4.46998 4 4.42998 4.01 4.39998C4.02 4.35998 4.04 4.32998 4.06 4.28998C4.06 4.26998 4.08 4.24998 4.09 4.22998H4.77H4.78Z" fill="#1E353C"/>
<path fill-rule="evenodd" clip-rule="evenodd" d="M9.41 4.96998C9.33 4.92998 9.25 4.87998 9.17 4.83998C9.07 4.77998 8.99 4.71998 8.95 4.64998C8.79 4.38998 8.43 4.26998 8.16 4.43998C8.12 4.45998 8.08 4.47998 8.04 4.49998C8.04 4.49998 8.02 4.49998 8.01 4.50998C7.97 4.52998 7.93 4.53998 7.89 4.54998C7.89 4.54998 7.89 4.54998 7.88 4.54998C7.84 4.54998 7.81 4.56998 7.77 4.56998C7.76 4.56998 7.75 4.56998 7.74 4.56998C7.7 4.56998 7.66 4.56998 7.62 4.57998H7.58C7.58 4.57998 7.52 4.57998 7.49 4.57998C7.48 4.57998 7.46 4.57998 7.44 4.57998C7.4 4.57998 7.37 4.57998 7.33 4.56998H7.27C7.27 4.56998 7.23 4.54998 7.21 4.53998C7.16 4.52998 7.12 4.50998 7.07 4.49998C7.07 4.49998 7.07 4.49998 7.06 4.49998C7.03 4.49998 7.01 4.47998 6.98 4.46998C6.98 4.46998 6.96 4.46998 6.95 4.45998C6.86 4.41998 6.78 4.37998 6.7 4.33998C6.64 4.29998 6.58 4.26998 6.52 4.22998H9.16C9.16 4.22998 9.17 4.24998 9.17 4.25998C9.19 4.28998 9.2 4.32998 9.22 4.36998C9.24 4.40998 9.25 4.44998 9.27 4.48998C9.29 4.53998 9.3 4.57998 9.32 4.62998C9.32 4.64998 9.33 4.67998 9.34 4.69998C9.34 4.69998 9.34 4.71998 9.34 4.72998C9.34 4.74998 9.35 4.77998 9.36 4.79998C9.36 4.80998 9.36 4.82998 9.37 4.83998C9.37 4.84998 9.37 4.85998 9.37 4.86998C9.37 4.87998 9.37 4.88998 9.37 4.90998C9.37 4.92998 9.37 4.94998 9.38 4.96998H9.41Z" fill="#1E353C"/>
<path d="M4.67 9.22998C4.36 9.28998 4.07 9.33998 3.81 9.39998V9.33998L4.67 9.23998V9.22998Z" fill="#1E353C"/>
<path d="M8.19 14.95H4.86V16.48H8.19V14.95Z" fill="#1E353C"/>
<path d="M9.23999 9.32999V9.36999L9.14999 9.98999V9.34999C8.94999 9.30999 8.73999 9.26999 8.50999 9.23999L9.14999 9.30999H9.23999V9.32999Z" fill="#1E353C"/>
<path d="M8.19 14.95H4.86V16.48H8.19V14.95Z" fill="#1E353C"/>
<path opacity="0.21" d="M5.54001 9.15002C5.48001 9.16002 5.42001 9.17002 5.35001 9.17002C5.35001 9.17002 5.43001 9.16002 5.54001 9.15002Z" fill="#1E353C"/>
<path opacity="0.21" d="M7.76999 9.16002C7.68999 9.16002 7.61999 9.16002 7.53999 9.15002C7.68999 9.15002 7.76999 9.16002 7.76999 9.16002Z" fill="#1E353C"/>
<path opacity="0.44" fill-rule="evenodd" clip-rule="evenodd" d="M9.66 3.75001H3.62C3.7 3.49001 3.79 3.18001 3.79 3.06001C3.79 2.24001 4.25 1.51001 4.96 1.06001V2.84001C4.96 2.94001 4.99 3.03001 5.05 3.11001C5.05 3.11001 5.07 3.14001 5.09 3.16001C5.17 3.24001 5.28 3.29001 5.41 3.29001C5.66 3.29001 5.86 3.09001 5.86 2.84001V0.85001C5.86 0.79001 5.85 0.74001 5.83 0.69001C5.85 0.69001 5.86 0.69001 5.88 0.68001C5.91 0.30001 6.23 0.0100098 6.62 0.0100098C7.01 0.0100098 7.31 0.29001 7.35 0.66001C7.37 0.66001 7.39 0.66001 7.41 0.67001C7.39 0.73001 7.37 0.79001 7.37 0.85001V2.84001C7.37 2.96001 7.42 3.07001 7.5 3.16001C7.58 3.24001 7.69 3.29001 7.82 3.29001C7.98 3.29001 8.10999 3.21001 8.18999 3.09001C8.23999 3.02001 8.26 2.93001 8.26 2.84001V1.01001C9.02 1.46001 9.52 2.21001 9.52 3.06001C9.52 3.20001 9.61 3.54001 9.67 3.75001H9.66Z" fill="#1E353C"/>
<path opacity="0.44" fill-rule="evenodd" clip-rule="evenodd" d="M7.4 2.72002C7.4 2.72002 7.37 2.72002 7.36 2.71002C7.36 2.71002 7.39 2.71002 7.4 2.72002Z" fill="#1E353C"/>
<g opacity="0.66">
<path fill-rule="evenodd" clip-rule="evenodd" d="M5.85 0.850002V2.84C5.85 3.09 5.65 3.29 5.4 3.29C5.28 3.29 5.16 3.24 5.08 3.16C5.07 3.15 5.05 3.13 5.04 3.11C4.98 3.04 4.95 2.94 4.95 2.84V1.06C4.95 1.06 5.01 1.02 5.05 1C5.12 0.960002 5.19 0.930002 5.26 0.890002C5.39 0.830002 5.52 0.770002 5.66 0.730002C5.68 0.730002 5.7 0.720002 5.73 0.710002C5.75 0.710002 5.77 0.700002 5.8 0.690002C5.8 0.690002 5.81 0.690002 5.82 0.690002C5.84 0.740002 5.85 0.800002 5.85 0.850002Z" fill="#1E353C"/>
<path fill-rule="evenodd" clip-rule="evenodd" d="M8.25 1.00998V2.83998C8.25 2.92998 8.22 3.01998 8.18 3.08998C8.1 3.20998 7.96 3.28998 7.81 3.28998C7.69 3.28998 7.58 3.23998 7.49 3.15998C7.41 3.07998 7.36 2.96998 7.36 2.83998V2.70998C7.36 2.70998 7.39 2.70998 7.4 2.71998C7.39 2.71998 7.37 2.71998 7.36 2.70998V0.849983C7.36 0.789983 7.37 0.719983 7.4 0.669983C7.46 0.679983 7.51 0.699983 7.57 0.719983C7.63 0.739983 7.68 0.759983 7.74 0.769983C7.83 0.799983 7.93 0.839983 8.02 0.879983C8.06 0.899983 8.1 0.919983 8.14 0.939983C8.18 0.959983 8.22 0.979983 8.26 0.999983L8.25 1.00998Z" fill="#1E353C"/>
<path fill-rule="evenodd" clip-rule="evenodd" d="M7.4 2.71996C7.4 2.71996 7.37 2.71996 7.36 2.70996C7.36 2.70996 7.39 2.70996 7.4 2.71996Z" fill="#1E353C"/>
</g>
<path opacity="0.66" fill-rule="evenodd" clip-rule="evenodd" d="M9.89 3.99C9.89 4.12 9.79 4.23 9.66 4.23H9.17C9.17 4.23 9.15999 4.21 9.14999 4.19C9.14999 4.2 9.16 4.21 9.17 4.23H3.6C3.47 4.23 3.37 4.12 3.37 3.99C3.37 3.86 3.47 3.75 3.6 3.75H9.66C9.79 3.75 9.89 3.86 9.89 3.99Z" fill="#1E353C"/>
<path opacity="0.66" fill-rule="evenodd" clip-rule="evenodd" d="M9.16999 4.23C9.16999 4.23 9.15999 4.21 9.14999 4.19C9.14999 4.2 9.15999 4.21 9.16999 4.23Z" fill="#1E353C"/>
</g>
<defs>
<clipPath id="clip0_22_2">
<rect width="21.27" height="16.48" fill="white"/>
</clipPath>
</defs>
</svg>
