<svg width="26" height="19" viewBox="0 0 26 19" fill="none" xmlns="http://www.w3.org/2000/svg">
<g clip-path="url(#clip0_22_159)">
<path opacity="0.44" d="M16.36 14.55C16.46 14.55 16.56 14.55 16.64 14.56L16.5 16.22C16.5 16.32 16.49 16.42 16.48 16.54C16.48 16.54 16.47 16.54 16.46 16.54C16.45 16.63 16.42 16.71 16.38 16.78H16.36C16.32 16.78 16.27 16.78 16.21 16.78V14.55C16.26 14.55 16.31 14.55 16.36 14.55Z" fill="#1E353C"/>
<path opacity="0.44" d="M16.79 12.76L16.77 13.01C16.69 12.92 16.6 12.83 16.52 12.74C16.38 12.59 16.23 12.44 16.08 12.3L16.33 12.04C16.57 12.13 16.74 12.34 16.78 12.59C16.79 12.65 16.79 12.71 16.78 12.77L16.79 12.76Z" fill="#1E353C"/>
<path d="M16.61 14.74C16.57 15.17 16.54 15.41 16.5 16.22C16.5 16.32 16.49 16.42 16.48 16.54C16.48 16.54 16.47 16.54 16.46 16.54C16.42 16.54 16.39 16.54 16.35 16.54C16.3 16.54 16.25 16.52 16.2 16.5C15.88 16.38 15.71 16.03 15.71 15.64C15.71 15.29 15.91 14.99 16.2 14.85C16.25 14.83 16.3 14.81 16.35 14.79C16.43 14.77 16.52 14.75 16.6 14.75L16.61 14.74Z" fill="#FFE9C6"/>
<path opacity="0.21" fill-rule="evenodd" clip-rule="evenodd" d="M16.28 5.91998C16.28 6.36998 16.14 6.71998 15.96 6.71998C15.9 6.71998 15.85 6.67998 15.81 6.61998C15.81 6.62998 15.81 6.63998 15.8 6.64998C15.8 6.66998 15.79 6.69998 15.78 6.71998C15.78 6.74998 15.76 6.76998 15.76 6.79998C15.76 6.81998 15.75 6.83998 15.74 6.85998C15.73 6.88998 15.72 6.90998 15.71 6.93998C15.71 6.95998 15.7 6.97998 15.69 6.99998C15.68 7.02998 15.67 7.04998 15.65 7.07998C15.65 7.09998 15.64 7.11998 15.63 7.12998C15.62 7.15998 15.6 7.17998 15.59 7.20998C15.59 7.22998 15.57 7.23998 15.56 7.25998C15.55 7.28998 15.53 7.31998 15.52 7.33998C15.52 7.34998 15.5 7.36998 15.5 7.37998C15.48 7.40998 15.47 7.43998 15.45 7.45998C15.45 7.46998 15.43 7.48998 15.43 7.49998C15.41 7.52998 15.39 7.55998 15.37 7.57998C15.37 7.58998 15.36 7.59998 15.35 7.60998C15.33 7.63998 15.31 7.66998 15.29 7.68998C15.29 7.69998 15.28 7.70998 15.27 7.71998C15.25 7.74998 15.22 7.77998 15.2 7.79998C15.2 7.79998 15.19 7.81998 15.18 7.82998C15.15 7.85998 15.13 7.88998 15.1 7.90998C15.1 7.90998 15.09 7.91998 15.08 7.92998C15.05 7.95998 15.03 7.98998 15 8.00998C15 8.00998 14.99 8.01998 14.98 8.02998C14.95 8.05998 14.92 8.08998 14.89 8.10998H14.88C14.88 8.10998 14.82 8.17998 14.78 8.19998C14.78 8.19998 14.78 8.19998 14.77 8.20998C14.74 8.23998 14.7 8.25998 14.67 8.28998C14.67 8.28998 14.67 8.28998 14.66 8.28998C14.62 8.30998 14.59 8.33998 14.55 8.35998C14.51 8.37998 14.48 8.40998 14.44 8.42998C14.4 8.44998 14.36 8.46998 14.32 8.49998C14.28 8.51998 14.24 8.53998 14.19 8.55998C14.15 8.57998 14.11 8.59998 14.06 8.61998C14.06 8.61998 13.98 8.64998 13.94 8.66998V9.58998C13.86 9.58998 13.76 9.57998 13.63 9.57998C13.63 9.57998 13.63 9.56998 13.63 9.55998C13.63 9.33998 13.33 9.15998 12.95 9.15998C12.57 9.15998 12.27 9.33998 12.27 9.55998C12.27 9.55998 12.27 9.56998 12.27 9.57998C12.08 9.57998 11.93 9.58998 11.82 9.59998V8.58998C11 8.23998 10.36 7.50998 10.11 6.61998C10.08 6.64998 10.04 6.66998 10 6.66998C9.83001 6.66998 9.68001 6.30998 9.68001 5.86998C9.68001 5.42998 9.82001 5.06998 10 5.06998C10.02 5.06998 10.04 5.06998 10.06 5.08998C10.02 5.26998 9.99001 5.45998 9.99001 5.64998C10.18 5.43998 10.29 5.12998 10.48 4.91998C10.64 4.72998 10.83 4.56998 11.02 4.41998H12.86C12.92 4.45998 12.99 4.49998 13.05 4.53998C13.13 4.58998 13.22 4.62998 13.31 4.66998C13.31 4.66998 13.33 4.66998 13.34 4.67998C13.37 4.68998 13.4 4.69998 13.42 4.70998C13.42 4.70998 13.43 4.70998 13.44 4.70998C13.49 4.72998 13.54 4.73998 13.59 4.74998C13.61 4.74998 13.63 4.75998 13.65 4.75998C13.67 4.75998 13.69 4.75998 13.71 4.76998C13.75 4.76998 13.79 4.77998 13.82 4.77998C13.84 4.77998 13.85 4.77998 13.87 4.77998C13.9 4.77998 13.93 4.77998 13.97 4.77998C13.98 4.77998 13.99 4.77998 14.01 4.77998C14.05 4.77998 14.09 4.77998 14.13 4.76998C14.14 4.76998 14.15 4.76998 14.17 4.76998C14.21 4.76998 14.25 4.75998 14.28 4.74998C14.28 4.74998 14.29 4.74998 14.3 4.74998C14.34 4.73998 14.38 4.71998 14.43 4.70998C14.44 4.70998 14.45 4.69998 14.46 4.69998C14.5 4.67998 14.54 4.65998 14.58 4.63998C14.87 4.45998 15.24 4.57998 15.42 4.85998C15.5 4.98998 15.7 5.09998 15.9 5.19998C15.9 5.17998 15.9 5.15998 15.89 5.12998C15.93 5.08998 15.97 5.06998 16.01 5.06998C16.18 5.06998 16.33 5.42998 16.33 5.86998L16.28 5.91998Z" fill="#1E353C"/>
<path opacity="0.21" fill-rule="evenodd" clip-rule="evenodd" d="M12.42 9.89001H11.78V9.65C11.89 9.65 12.04 9.63 12.23 9.63C12.24 9.73 12.31 9.82001 12.42 9.89001Z" fill="#1E353C"/>
<path opacity="0.21" fill-rule="evenodd" clip-rule="evenodd" d="M13.89 9.64001V9.89001H13.39C13.5 9.82001 13.57 9.73 13.58 9.63C13.71 9.63 13.81 9.63 13.89 9.63V9.64001Z" fill="#1E353C"/>
<path opacity="0.21" fill-rule="evenodd" clip-rule="evenodd" d="M10.98 4.46002C10.79 4.61002 10.6 4.77002 10.44 4.96002C10.26 5.17002 10.14 5.47002 9.95 5.69002C9.95 5.50002 9.98 5.31002 10.02 5.13002C10.02 5.10002 10.03 5.07002 10.04 5.04002C10.05 4.98002 10.07 4.92002 10.09 4.86002C10.1 4.83002 10.11 4.80002 10.12 4.76002C10.16 4.66002 10.2 4.56002 10.24 4.46002H10.96H10.98Z" fill="#1E353C"/>
<path opacity="0.21" fill-rule="evenodd" clip-rule="evenodd" d="M12.16 2.85999C12.16 2.85999 12.13 2.85999 12.11 2.86999C12.1 2.86999 12.08 2.86999 12.07 2.87999C12.08 2.87999 12.1 2.87999 12.11 2.86999C12.13 2.86999 12.14 2.86999 12.16 2.85999Z" fill="#1E353C"/>
<path opacity="0.21" fill-rule="evenodd" clip-rule="evenodd" d="M13.74 2.86999C13.74 2.86999 13.71 2.86999 13.7 2.85999C13.7 2.85999 13.73 2.85999 13.74 2.86999Z" fill="#1E353C"/>
<path opacity="0.21" fill-rule="evenodd" clip-rule="evenodd" d="M14.41 3.15C14.41 3.15 14.38 3.13 14.37 3.13C14.38 3.13 14.4 3.14 14.41 3.15Z" fill="#1E353C"/>
<path opacity="0.21" fill-rule="evenodd" clip-rule="evenodd" d="M15.86 5.24002C15.66 5.14002 15.46 5.03002 15.38 4.90002C15.21 4.62002 14.84 4.51002 14.54 4.68002C14.5 4.70002 14.46 4.72002 14.42 4.74002C14.41 4.74002 14.4 4.75002 14.39 4.75002C14.35 4.77002 14.31 4.78002 14.26 4.79002C14.26 4.79002 14.25 4.79002 14.24 4.79002C14.2 4.80002 14.16 4.81002 14.13 4.81002C14.12 4.81002 14.11 4.81002 14.09 4.81002C14.05 4.81002 14.01 4.81002 13.97 4.82002C13.96 4.82002 13.95 4.82002 13.93 4.82002C13.9 4.82002 13.87 4.82002 13.83 4.82002C13.81 4.82002 13.8 4.82002 13.78 4.82002C13.74 4.82002 13.7 4.82002 13.67 4.81002C13.65 4.81002 13.63 4.81002 13.61 4.80002C13.59 4.80002 13.57 4.80002 13.55 4.79002C13.5 4.78002 13.45 4.76002 13.4 4.75002C13.4 4.75002 13.39 4.75002 13.38 4.75002C13.35 4.74002 13.33 4.73002 13.3 4.72002C13.3 4.72002 13.28 4.72002 13.27 4.71002C13.18 4.67002 13.09 4.63002 13.01 4.58002C12.94 4.54002 12.88 4.50002 12.82 4.46002H15.6C15.6 4.46002 15.61 4.48002 15.62 4.49002C15.63 4.51002 15.64 4.53002 15.65 4.55002C15.66 4.58002 15.67 4.60002 15.69 4.63002C15.69 4.65002 15.7 4.67002 15.71 4.69002C15.71 4.70002 15.72 4.71002 15.72 4.73002C15.72 4.73002 15.73 4.76002 15.73 4.77002C15.73 4.79002 15.74 4.81002 15.75 4.83002C15.75 4.86002 15.77 4.88002 15.77 4.91002C15.77 4.93002 15.78 4.94002 15.78 4.96002C15.78 4.96002 15.78 4.97002 15.78 4.98002C15.78 4.99002 15.78 5.00002 15.78 5.01002C15.78 5.04002 15.79 5.06002 15.8 5.09002C15.8 5.10002 15.8 5.11002 15.8 5.13002C15.8 5.14002 15.8 5.16002 15.8 5.17002C15.8 5.19002 15.81 5.21002 15.81 5.24002H15.86Z" fill="#1E353C"/>
<path opacity="0.44" fill-rule="evenodd" clip-rule="evenodd" d="M20.34 15.86C20.16 16.3 19.65 17.03 18.2 17.03C17.59 17.03 17.26 16.94 16.99 16.87C16.81 16.82 16.67 16.79 16.38 16.77C16.42 16.7 16.45 16.61 16.46 16.53C16.46 16.53 16.47 16.53 16.48 16.53C16.48 16.41 16.49 16.31 16.5 16.21L16.64 14.55C17.04 14.57 17.3 14.64 17.57 14.71C17.75 14.76 17.86 14.79 18.11 14.79C17.88 14.34 17.37 13.66 16.77 13L16.79 12.75C16.79 12.69 16.79 12.63 16.79 12.57C16.75 12.31 16.58 12.1 16.34 12.02C16.26 11.99 16.17 11.97 16.08 11.97H14.34L15.23 10.75L14.14 9.65002C15.65 9.76002 16.74 10.07 17.4 10.51C17.62 10.64 17.83 10.84 18.03 11.08C18.32 11.38 18.73 11.83 19.12 12.32C20.31 13.82 20.7 14.94 20.33 15.83L20.34 15.86Z" fill="#1E353C"/>
<path opacity="0.44" fill-rule="evenodd" clip-rule="evenodd" d="M10.58 10.77L11.44 11.98H9.53C9.45 11.98 9.36 11.99 9.29 12.02C8.99 12.12 8.78 12.42 8.81 12.76L8.84 13.07C8.84 13.07 8.8 13.12 8.77 13.15C8.22 13.77 7.76 14.4 7.54 14.82C8.08 14.82 8.28 14.78 8.69 14.69C8.77 14.67 8.87 14.65 8.97 14.63L9.13 16.45C9.14 16.59 9.19 16.73 9.27 16.84C9.23 16.84 9.19 16.86 9.15 16.86C8.67 16.96 8.29 17.04 7.45 17.04C6 17.04 5.49 16.31 5.31 15.87C4.95 14.97 5.33 13.86 6.52 12.36C7.23 11.47 7.99 10.73 8.02 10.7C8.08 10.64 8.16 10.58 8.24 10.53C8.89 10.11 10.01 9.78003 11.5 9.66003L10.57 10.75L10.58 10.77Z" fill="#1E353C"/>
<path opacity="0.44" fill-rule="evenodd" clip-rule="evenodd" d="M16.78 12.58C16.67 12.59 16.58 12.64 16.51 12.74C16.41 12.88 16.35 13.1 16.35 13.45V17.39H9.36V13.3C9.27 13.43 9.08 13.38 8.85 13.22C8.82 13.2 8.8 13.18 8.77 13.16C8.79 13.13 8.82 13.11 8.84 13.08L8.81 12.77C8.78 12.43 8.98 12.13 9.29 12.03C9.36 12 9.45 11.99 9.53 11.99H11.44L10.58 10.78L11.51 9.69002C11.59 9.69002 11.68 9.68002 11.77 9.67002C11.92 9.66002 12.07 9.65002 12.22 9.65002C12.23 9.75002 12.3 9.84002 12.41 9.91002C12.49 9.96002 12.58 9.99003 12.69 10.01L12.47 12H13.25L13.14 10C13.23 9.98002 13.31 9.95002 13.37 9.91002C13.48 9.84002 13.55 9.75002 13.56 9.65002C13.67 9.65002 13.77 9.65002 13.87 9.67002C13.95 9.67002 14.04 9.67003 14.12 9.68003L15.21 10.78L14.32 12H16.06C16.15 12 16.24 12.02 16.32 12.05C16.56 12.14 16.73 12.35 16.77 12.6L16.78 12.58Z" fill="#1E353C"/>
<path fill-rule="evenodd" clip-rule="evenodd" d="M10.98 4.46002C10.79 4.61002 10.6 4.77002 10.44 4.96002C10.26 5.17002 10.14 5.47002 9.95 5.69002C9.95 5.50002 9.98 5.31002 10.02 5.13002C10.02 5.10002 10.03 5.07002 10.04 5.04002C10.05 4.98002 10.07 4.92002 10.09 4.86002C10.1 4.83002 10.11 4.80002 10.12 4.76002C10.16 4.66002 10.2 4.56002 10.24 4.46002H10.96H10.98Z" fill="#1E353C"/>
<path fill-rule="evenodd" clip-rule="evenodd" d="M10.6 3.91998C10.6 3.91998 10.58 3.93998 10.57 3.95998C10.57 3.95998 10.59 3.93998 10.6 3.91998Z" fill="#1E353C"/>
<path fill-rule="evenodd" clip-rule="evenodd" d="M15.86 5.24002C15.66 5.14002 15.46 5.03002 15.38 4.90002C15.21 4.62002 14.84 4.51002 14.54 4.68002C14.5 4.70002 14.46 4.72002 14.42 4.74002C14.41 4.74002 14.4 4.75002 14.39 4.75002C14.35 4.77002 14.31 4.78002 14.26 4.79002C14.26 4.79002 14.25 4.79002 14.24 4.79002C14.2 4.80002 14.16 4.81002 14.13 4.81002C14.12 4.81002 14.11 4.81002 14.09 4.81002C14.05 4.81002 14.01 4.81002 13.97 4.82002C13.96 4.82002 13.95 4.82002 13.93 4.82002C13.9 4.82002 13.87 4.82002 13.83 4.82002C13.81 4.82002 13.8 4.82002 13.78 4.82002C13.74 4.82002 13.7 4.82002 13.67 4.81002C13.65 4.81002 13.63 4.81002 13.61 4.80002C13.59 4.80002 13.57 4.80002 13.55 4.79002C13.5 4.78002 13.45 4.76002 13.4 4.75002C13.4 4.75002 13.39 4.75002 13.38 4.75002C13.35 4.74002 13.33 4.73002 13.3 4.72002C13.3 4.72002 13.28 4.72002 13.27 4.71002C13.18 4.67002 13.09 4.63002 13.01 4.58002C12.94 4.54002 12.88 4.50002 12.82 4.46002H15.6C15.6 4.46002 15.61 4.48002 15.62 4.49002C15.63 4.51002 15.64 4.53002 15.65 4.55002C15.65 4.57002 15.66 4.58002 15.67 4.60002C15.68 4.63002 15.69 4.66002 15.71 4.69002C15.71 4.70002 15.72 4.71002 15.72 4.73002C15.72 4.73002 15.75 4.83002 15.77 4.88002C15.77 4.91002 15.79 4.94002 15.8 4.96002C15.8 4.96002 15.8 4.97002 15.8 4.98002C15.8 4.99002 15.8 5.00002 15.8 5.01002C15.8 5.04002 15.81 5.06002 15.82 5.09002C15.82 5.10002 15.82 5.11002 15.82 5.13002C15.82 5.14002 15.82 5.16002 15.82 5.17002C15.82 5.19002 15.83 5.21002 15.83 5.24002H15.86Z" fill="#1E353C"/>
<path opacity="0.44" fill-rule="evenodd" clip-rule="evenodd" d="M10.6 3.91998C10.6 3.91998 10.58 3.93998 10.57 3.95998C10.57 3.95998 10.59 3.93998 10.6 3.91998Z" fill="#1E353C"/>
<path opacity="0.44" fill-rule="evenodd" clip-rule="evenodd" d="M12.16 2.85999C12.16 2.85999 12.13 2.85999 12.11 2.86999C12.1 2.86999 12.08 2.86999 12.07 2.87999C12.08 2.87999 12.1 2.87999 12.11 2.86999C12.13 2.86999 12.14 2.86999 12.16 2.85999Z" fill="#1E353C"/>
<path opacity="0.44" fill-rule="evenodd" clip-rule="evenodd" d="M13.74 2.86999C13.74 2.86999 13.71 2.86999 13.7 2.85999C13.7 2.85999 13.73 2.85999 13.74 2.86999Z" fill="#1E353C"/>
<path opacity="0.44" fill-rule="evenodd" clip-rule="evenodd" d="M14.41 3.15C14.41 3.15 14.38 3.13 14.37 3.13C14.38 3.13 14.4 3.14 14.41 3.15Z" fill="#1E353C"/>
<path opacity="0.44" fill-rule="evenodd" clip-rule="evenodd" d="M10.57 3.96001C10.57 3.96001 10.59 3.93001 10.6 3.92001C10.59 3.93001 10.58 3.95001 10.57 3.96001H9.75999C9.84999 3.69001 9.93999 3.36001 9.93999 3.23001C9.93999 2.36001 10.43 1.59001 11.18 1.12001V3.00001C11.18 3.11001 11.22 3.20001 11.28 3.28001C11.29 3.30001 11.31 3.31001 11.32 3.33001C11.4 3.41001 11.52 3.47001 11.65 3.47001C11.91 3.47001 12.12 3.26001 12.12 3.00001V2.88001C12.12 2.88001 12.15 2.87001 12.17 2.87001C12.15 2.87001 12.14 2.87001 12.12 2.88001V0.90001C12.12 0.84001 12.11 0.78001 12.09 0.73001C12.11 0.73001 12.12 0.72001 12.14 0.72001C12.17 0.32001 12.51 0.0100098 12.92 0.0100098C13.33 0.0100098 13.65 0.31001 13.69 0.70001C13.71 0.70001 13.73 0.70001 13.75 0.71001C13.72 0.77001 13.71 0.83001 13.71 0.90001V3.00001C13.71 3.13001 13.76 3.25001 13.85 3.33001C13.93 3.41001 14.05 3.47001 14.18 3.47001C14.34 3.47001 14.49 3.39001 14.57 3.26001C14.62 3.19001 14.65 3.10001 14.65 3.00001V1.07001C15.45 1.54001 15.98 2.33001 15.98 3.24001C15.98 3.39001 16.07 3.75001 16.13 3.97001H10.57V3.96001Z" fill="#1E353C"/>
<g opacity="0.54">
<path fill-rule="evenodd" clip-rule="evenodd" d="M12.11 2.87005C12.11 2.87005 12.08 2.87005 12.07 2.88005C12.08 2.88005 12.1 2.88005 12.11 2.87005V2.99005C12.11 3.25005 11.9 3.46005 11.64 3.46005C11.51 3.46005 11.39 3.41005 11.31 3.32005C11.29 3.30005 11.28 3.29005 11.27 3.27005C11.21 3.19005 11.17 3.09005 11.17 2.99005V1.11005C11.17 1.11005 11.23 1.07005 11.26 1.06005C11.29 1.04005 11.32 1.02005 11.35 1.01005C11.38 0.990051 11.42 0.970051 11.46 0.960051C11.5 0.940051 11.53 0.920051 11.57 0.910051C11.61 0.890051 11.64 0.880051 11.68 0.860051C11.72 0.850051 11.75 0.830051 11.79 0.820051C11.83 0.810051 11.87 0.790051 11.91 0.780051C11.95 0.770051 11.99 0.760051 12.04 0.740051H12.06C12.08 0.790051 12.09 0.850051 12.09 0.910051V2.88005L12.11 2.87005Z" fill="#1E353C"/>
<path fill-rule="evenodd" clip-rule="evenodd" d="M12.11 2.87C12.11 2.87 12.08 2.87 12.07 2.88C12.08 2.88 12.1 2.88 12.11 2.87Z" fill="#1E353C"/>
<path fill-rule="evenodd" clip-rule="evenodd" d="M14.5 0.980022C14.5 0.980022 14.42 0.940022 14.37 0.920022C14.34 0.910022 14.32 0.900022 14.29 0.880022C14.17 0.830022 14.05 0.780022 13.92 0.750022C13.9 0.750022 13.87 0.740022 13.84 0.730022C13.81 0.730022 13.78 0.710022 13.74 0.710022C13.71 0.770022 13.7 0.830022 13.7 0.900022V2.86002C13.7 2.86002 13.73 2.86002 13.74 2.87002C13.73 2.87002 13.71 2.87002 13.7 2.86002V3.00002C13.7 3.13002 13.75 3.25002 13.84 3.33002C13.92 3.41002 14.04 3.47002 14.17 3.47002C14.33 3.47002 14.48 3.39002 14.56 3.26002C14.61 3.19002 14.64 3.10002 14.64 3.00002V1.07002C14.64 1.07002 14.54 1.01002 14.49 0.990022L14.5 0.980022ZM14.36 3.13002C14.36 3.13002 14.39 3.14002 14.4 3.15002C14.39 3.15002 14.37 3.13002 14.36 3.13002Z" fill="#1E353C"/>
<path fill-rule="evenodd" clip-rule="evenodd" d="M13.74 2.87005C13.74 2.87005 13.71 2.87005 13.7 2.86005C13.7 2.86005 13.73 2.86005 13.74 2.87005Z" fill="#1E353C"/>
<path fill-rule="evenodd" clip-rule="evenodd" d="M13.84 0.730022C13.84 0.730022 13.78 0.710022 13.74 0.710022C13.74 0.710022 13.8 0.720022 13.84 0.730022Z" fill="#1E353C"/>
<path fill-rule="evenodd" clip-rule="evenodd" d="M14.41 3.15C14.41 3.15 14.38 3.13 14.37 3.13C14.38 3.13 14.4 3.14 14.41 3.15Z" fill="#1E353C"/>
</g>
<path opacity="0.54" fill-rule="evenodd" clip-rule="evenodd" d="M16.37 4.21002C16.37 4.35002 16.26 4.46002 16.13 4.46002H9.74C9.61 4.46002 9.5 4.35002 9.5 4.21002C9.5 4.07002 9.61 3.96002 9.74 3.96002H16.13C16.26 3.96002 16.37 4.07002 16.37 4.21002Z" fill="#1E353C"/>
<path opacity="0.21" fill-rule="evenodd" clip-rule="evenodd" d="M14.14 9.66L13.46 11.98L13.3 12.52L12.89 13.93V13.96H12.88V13.99L12.86 13.96L12.84 13.88L12.43 12.56L12.25 11.98L11.52 9.67C11.52 9.67 11.62 9.66 11.78 9.65C11.89 9.65 12.04 9.63 12.23 9.63C12.24 9.73 12.31 9.82001 12.42 9.89001C12.5 9.94001 12.59 9.97 12.7 9.99L12.48 11.98H13.26L13.15 9.98C13.24 9.96 13.32 9.93001 13.38 9.89001C13.49 9.82001 13.56 9.73 13.57 9.63C13.7 9.63 13.8 9.63 13.88 9.63C14.07 9.64 14.13 9.65 14.13 9.65L14.14 9.66Z" fill="#1E353C"/>
<path opacity="0.44" fill-rule="evenodd" clip-rule="evenodd" d="M13.58 9.61002C13.58 9.61002 13.58 9.62002 13.58 9.63002C13.57 9.74002 13.5 9.83002 13.39 9.89002C13.33 9.93002 13.25 9.96002 13.16 9.98002L13.27 11.98H12.49L12.71 9.99002C12.6 9.97002 12.5 9.93002 12.43 9.89002C12.32 9.82002 12.25 9.73002 12.24 9.63002V9.61002C12.24 9.39002 12.54 9.21002 12.92 9.21002C13.3 9.21002 13.6 9.39002 13.6 9.61002H13.58Z" fill="#1E353C"/>
<path opacity="0.44" fill-rule="evenodd" clip-rule="evenodd" d="M13.31 12.58L12.89 13.93V13.96L12.88 14L12.87 13.96L12.84 13.89L12.43 12.57V12.56L12.49 11.98H13.27L13.3 12.52L13.31 12.58Z" fill="#1E353C"/>
<path opacity="0.58" fill-rule="evenodd" clip-rule="evenodd" d="M15.23 10.76L14.34 11.98L12.9 13.96L12.88 14V13.96H12.89L13.3 12.52L13.46 11.98L14.14 9.66003L15.23 10.76Z" fill="#1E353C"/>
<path opacity="0.58" fill-rule="evenodd" clip-rule="evenodd" d="M12.88 14.01L12.85 13.96L11.44 11.98L10.58 10.77L11.51 9.66998H11.52L12.24 11.98L12.43 12.56L12.87 13.96L12.88 14V14.01Z" fill="#1E353C"/>
<path d="M12.98 13.96H12.77V17.38H12.98V13.96Z" fill="#1E353C"/>
<path opacity="0.09" d="M25.62 18.75H0.8L0 17.27H24.82L25.62 18.75Z" fill="#1E353C"/>
<path opacity="0.44" d="M9.58 12.31C9.33 12.55 9.08 12.81 8.85 13.07L8.82 12.76C8.79 12.42 8.99 12.12 9.3 12.02L9.58 12.31Z" fill="#1E353C"/>
<path opacity="0.44" d="M9.65 16.78C9.55 16.8 9.46 16.82 9.37 16.83C9.34 16.83 9.31 16.84 9.27 16.85C9.19 16.73 9.14 16.6 9.13 16.46L8.97 14.64C9.05 14.62 9.14 14.61 9.24 14.59L9.27 14.76L9.36 15.27L9.56 16.36L9.64 16.78H9.65Z" fill="#1E353C"/>
<path d="M16.79 12.76L16.77 13.01L16.64 14.56L16.5 16.22L16.48 16.46C16.48 16.46 16.48 16.51 16.47 16.53C16.46 16.62 16.43 16.7 16.39 16.77C16.39 16.78 16.37 16.8 16.37 16.81C16.22 17.06 15.94 17.23 15.64 17.23H9.99C9.76 17.23 9.53 17.12 9.38 16.96C9.35 16.92 9.31 16.88 9.28 16.84C9.2 16.72 9.15 16.59 9.14 16.45L8.98 14.63L8.86 13.21V13.07L8.82 12.76C8.79 12.42 8.99 12.12 9.3 12.02C9.37 11.99 9.46 11.98 9.54 11.98H16.08C16.17 11.98 16.26 12 16.34 12.03C16.58 12.12 16.75 12.33 16.79 12.58C16.8 12.64 16.8 12.7 16.79 12.76Z" fill="#1E353C"/>
<path opacity="0.21" d="M8.99001 14.73C9.48001 14.69 9.91001 15.05 9.95001 15.54C9.99001 16.03 9.63001 16.46 9.14001 16.5C9.06001 15.59 9.05001 15.46 8.99001 14.73Z" fill="#1E353C"/>
</g>
<defs>
<clipPath id="clip0_22_159">
<rect width="25.62" height="18.75" fill="white"/>
</clipPath>
</defs>
</svg>
