<svg width="25" height="21" viewBox="0 0 25 21" fill="none" xmlns="http://www.w3.org/2000/svg">
<path opacity="0.21" fill-rule="evenodd" clip-rule="evenodd" d="M19.76 13.58V14.34C19.68 14.34 19.59 14.33 19.51 14.33V14.3101C19.51 14.1301 19.26 13.98 18.96 13.98C18.66 13.98 18.41 14.1201 18.41 14.3101C18.41 14.3101 18.41 14.32 18.41 14.33C18.28 14.33 18.16 14.34 18.04 14.35V13.53C18.33 13.66 18.65 13.72 18.98 13.72C19 13.72 19.02 13.72 19.05 13.72C19.09 13.72 19.13 13.72 19.17 13.72C19.37 13.7 19.57 13.66 19.76 13.59V13.58Z" fill="#1E353C"/>
<path opacity="0.21" fill-rule="evenodd" clip-rule="evenodd" d="M21.7 11.3101C21.7 11.6701 21.59 11.96 21.44 11.96C21.39 11.96 21.35 11.93 21.31 11.87C21.31 11.87 21.31 11.89 21.31 11.9C21.31 11.92 21.31 11.94 21.29 11.96C21.29 11.98 21.28 12 21.27 12.02C21.27 12.04 21.27 12.0599 21.25 12.0699C21.25 12.0899 21.24 12.11 21.23 12.13C21.23 12.15 21.22 12.1601 21.21 12.1801C21.21 12.2001 21.19 12.22 21.18 12.24C21.18 12.25 21.17 12.27 21.16 12.28C21.15 12.3 21.14 12.32 21.13 12.35C21.13 12.36 21.12 12.38 21.11 12.39C21.1 12.41 21.09 12.44 21.07 12.46C21.07 12.47 21.06 12.48 21.05 12.5C21.04 12.52 21.02 12.5499 21.01 12.5699C21.01 12.5799 21 12.59 20.99 12.6C20.98 12.62 20.96 12.65 20.94 12.67C20.94 12.67 20.93 12.69 20.92 12.7C20.9 12.72 20.88 12.75 20.87 12.77C20.87 12.77 20.86 12.79 20.85 12.79C20.83 12.81 20.81 12.84 20.79 12.86C20.79 12.86 20.78 12.87 20.77 12.88C20.75 12.9 20.73 12.93 20.71 12.95L20.69 12.97C20.69 12.97 20.65 13.02 20.62 13.04C20.62 13.04 20.62 13.04 20.61 13.05L20.54 13.12C20.54 13.12 20.54 13.12 20.53 13.13C20.5 13.15 20.48 13.1699 20.45 13.1899C20.45 13.1899 20.45 13.1899 20.44 13.1899C20.41 13.2099 20.38 13.23 20.36 13.25C20.33 13.27 20.3 13.2901 20.27 13.3101C20.24 13.3301 20.21 13.35 20.18 13.37C20.15 13.39 20.12 13.41 20.08 13.42C20.05 13.44 20.01 13.45 19.98 13.47C19.98 13.47 19.91 13.5 19.87 13.52C19.84 13.53 19.8 13.5501 19.77 13.5601C19.58 13.6301 19.39 13.6701 19.18 13.6801C19.18 13.6801 19.1 13.6801 19.06 13.6801C19.04 13.6801 19.02 13.6801 18.99 13.6801C18.66 13.6801 18.34 13.61 18.05 13.49C17.38 13.2 16.87 12.62 16.67 11.89C16.64 11.91 16.61 11.9301 16.58 11.9301C16.44 11.9301 16.32 11.64 16.32 11.28C16.32 10.92 16.43 10.63 16.58 10.63C16.6 10.63 16.61 10.63 16.63 10.64C16.6 10.79 16.58 10.94 16.57 11.09C16.72 10.92 16.82 10.67 16.96 10.5C17.09 10.35 17.24 10.22 17.4 10.1H18.9C18.95 10.14 19 10.17 19.06 10.2C19.13 10.24 19.2 10.27 19.27 10.3C19.27 10.3 19.28 10.3 19.29 10.3C19.31 10.3 19.34 10.32 19.36 10.33C19.36 10.33 19.36 10.33 19.37 10.33C19.41 10.34 19.45 10.36 19.49 10.37C19.51 10.37 19.52 10.37 19.54 10.38C19.56 10.39 19.57 10.38 19.59 10.39C19.62 10.39 19.65 10.39 19.68 10.4C19.69 10.4 19.71 10.4 19.72 10.4C19.75 10.4 19.77 10.4 19.8 10.4H19.83C19.83 10.4 19.9 10.4 19.93 10.4C19.93 10.4 19.95 10.4 19.96 10.4C19.99 10.4 20.02 10.39 20.05 10.38C20.05 10.38 20.05 10.38 20.06 10.38C20.1 10.38 20.13 10.36 20.16 10.34H20.18C20.18 10.34 20.25 10.3 20.28 10.28C20.52 10.14 20.82 10.23 20.96 10.46C21.02 10.57 21.19 10.66 21.35 10.74C21.35 10.72 21.35 10.7001 21.34 10.6801C21.37 10.6501 21.4 10.63 21.44 10.63C21.58 10.63 21.7 10.92 21.7 11.28V11.3101Z" fill="#1E353C"/>
<path opacity="0.33" fill-rule="evenodd" clip-rule="evenodd" d="M17.4 10.13C17.25 10.25 17.1 10.38 16.96 10.53C16.81 10.7 16.72 10.95 16.57 11.12C16.57 10.97 16.6 10.81 16.63 10.67C16.63 10.63 16.65 10.6001 16.66 10.5601C16.66 10.5401 16.67 10.51 16.68 10.49C16.68 10.46 16.7 10.44 16.71 10.41C16.72 10.37 16.74 10.33 16.75 10.3C16.76 10.26 16.78 10.2299 16.79 10.1899C16.79 10.1699 16.81 10.15 16.82 10.13H17.4Z" fill="#1E353C"/>
<path opacity="0.33" fill-rule="evenodd" clip-rule="evenodd" d="M20.95 9.78003C20.95 9.78003 20.92 9.73997 20.9 9.71997C20.9 9.71997 20.92 9.75001 20.93 9.76001C20.93 9.76001 20.94 9.78004 20.95 9.79004V9.78003Z" fill="#1E353C"/>
<path opacity="0.33" fill-rule="evenodd" clip-rule="evenodd" d="M21.04 9.92004C21.04 9.92004 21.03 9.90001 21.02 9.89001C21.02 9.89001 21.03 9.91004 21.04 9.92004Z" fill="#1E353C"/>
<path opacity="0.33" fill-rule="evenodd" clip-rule="evenodd" d="M21.36 10.76C21.2 10.68 21.04 10.59 20.97 10.48C20.83 10.26 20.53 10.16 20.29 10.3C20.26 10.32 20.22 10.34 20.19 10.35C20.19 10.35 20.17 10.35 20.17 10.36C20.13 10.37 20.1 10.39 20.07 10.4C20.07 10.4 20.07 10.4 20.06 10.4C20.03 10.4 20 10.41 19.97 10.42C19.96 10.42 19.95 10.42 19.94 10.42C19.91 10.42 19.87 10.42 19.84 10.42H19.81C19.81 10.42 19.76 10.42 19.73 10.42C19.72 10.42 19.7 10.42 19.69 10.42C19.66 10.42 19.63 10.42 19.6 10.41C19.58 10.41 19.57 10.41 19.55 10.4C19.53 10.4 19.51 10.4 19.5 10.39C19.46 10.39 19.42 10.37 19.38 10.36C19.38 10.36 19.38 10.36 19.37 10.36C19.35 10.36 19.33 10.34 19.3 10.33C19.3 10.33 19.29 10.33 19.28 10.33C19.21 10.3 19.13 10.27 19.07 10.23C19.02 10.2 18.96 10.17 18.91 10.13H21.17C21.17 10.13 21.14 10.07 21.12 10.04C21.12 10.02 21.1 10.01 21.09 9.98999C21.1 10.01 21.12 10.0301 21.13 10.0601C21.13 10.0701 21.14 10.09 21.15 10.1C21.15 10.11 21.16 10.12 21.17 10.13C21.17 10.14 21.18 10.15 21.19 10.16C21.19 10.17 21.2 10.19 21.21 10.2C21.21 10.22 21.23 10.24 21.24 10.27C21.24 10.29 21.25 10.2999 21.26 10.3199C21.26 10.3199 21.26 10.34 21.27 10.35C21.27 10.37 21.28 10.39 21.29 10.41C21.29 10.41 21.29 10.4299 21.29 10.4399C21.29 10.4599 21.3 10.48 21.31 10.5C21.31 10.51 21.31 10.53 21.32 10.55C21.33 10.6 21.35 10.65 21.36 10.7C21.36 10.72 21.36 10.74 21.37 10.76H21.36Z" fill="#1E353C"/>
<path fill-rule="evenodd" clip-rule="evenodd" d="M24.57 20.02V20.61H22.53V20.02C22.53 18.73 22.08 17.89 21.77 17.42V20.61H16.1V17.3C15.82 17.74 15.36 18.62 15.36 20.02V20.61H13.32V20.02C13.32 17.88 14.05 15.7301 15.2 15.0601C15.73 14.7201 16.64 14.45 17.84 14.35L18.57 16.6899L18.93 17.83H18.94L19.28 16.66L19.95 14.34C21.17 14.44 22.04 14.7001 22.58 15.0601C23.72 15.7401 24.55 17.88 24.55 20.01L24.57 20.02Z" fill="#1E353C"/>
<path fill-rule="evenodd" clip-rule="evenodd" d="M17.4 10.13C17.25 10.25 17.1 10.38 16.96 10.53C16.81 10.7 16.72 10.95 16.57 11.12C16.57 10.97 16.6 10.81 16.63 10.67C16.63 10.63 16.65 10.6001 16.66 10.5601C16.66 10.5401 16.67 10.51 16.68 10.49C16.68 10.46 16.7 10.44 16.71 10.41C16.72 10.37 16.74 10.33 16.75 10.3C16.76 10.26 16.78 10.2299 16.79 10.1899C16.79 10.1699 16.81 10.15 16.82 10.13H17.4Z" fill="#1E353C"/>
<path fill-rule="evenodd" clip-rule="evenodd" d="M21.36 10.76C21.2 10.68 21.04 10.59 20.97 10.48C20.83 10.26 20.53 10.16 20.29 10.3C20.26 10.32 20.22 10.34 20.19 10.35C20.19 10.35 20.17 10.35 20.17 10.36C20.13 10.37 20.1 10.39 20.07 10.4C20.07 10.4 20.07 10.4 20.06 10.4C20.03 10.4 20 10.41 19.97 10.42C19.96 10.42 19.95 10.42 19.94 10.42C19.91 10.42 19.87 10.42 19.84 10.42H19.81C19.81 10.42 19.76 10.42 19.73 10.42C19.72 10.42 19.7 10.42 19.69 10.42C19.66 10.42 19.63 10.42 19.6 10.41C19.58 10.41 19.57 10.41 19.55 10.4C19.53 10.4 19.51 10.4 19.5 10.39C19.46 10.39 19.42 10.37 19.38 10.36C19.38 10.36 19.38 10.36 19.37 10.36C19.35 10.36 19.33 10.34 19.3 10.33C19.3 10.33 19.29 10.33 19.28 10.33C19.21 10.3 19.13 10.27 19.07 10.23C19.02 10.2 18.96 10.17 18.91 10.13H21.17C21.17 10.13 21.17 10.15 21.18 10.16C21.19 10.19 21.21 10.22 21.22 10.25C21.23 10.27 21.24 10.2999 21.25 10.3199C21.25 10.3199 21.25 10.34 21.26 10.35C21.26 10.37 21.27 10.39 21.28 10.41C21.28 10.41 21.28 10.4299 21.28 10.4399C21.28 10.4499 21.28 10.46 21.28 10.47C21.28 10.47 21.28 10.49 21.29 10.5C21.29 10.51 21.29 10.53 21.3 10.55C21.31 10.6 21.33 10.65 21.34 10.7C21.34 10.72 21.34 10.74 21.35 10.76H21.36Z" fill="#1E353C"/>
<path opacity="0.44" fill-rule="evenodd" clip-rule="evenodd" d="M21.57 9.71997H16.4C16.47 9.49997 16.55 9.23 16.55 9.13C16.55 8.43 16.94 7.80004 17.55 7.42004V8.94995C17.55 9.03995 17.58 9.12005 17.63 9.18005C17.63 9.18005 17.65 9.20997 17.67 9.21997C17.74 9.28997 17.83 9.32996 17.94 9.32996C18.15 9.32996 18.32 9.15995 18.32 8.94995V7.25C18.32 7.25 18.31 7.14999 18.29 7.10999C18.3 7.10999 18.32 7.10998 18.33 7.09998C18.54 7.04998 18.76 7.02002 19 7.02002C19.2 7.02002 19.4 7.03996 19.59 7.07996C19.61 7.07996 19.63 7.07997 19.64 7.08997C19.62 7.13997 19.61 7.19 19.61 7.25V8.94995C19.61 9.05995 19.65 9.14997 19.72 9.21997C19.79 9.28997 19.88 9.32996 19.99 9.32996C20.12 9.32996 20.24 9.26003 20.31 9.16003C20.35 9.10003 20.37 9.02995 20.37 8.94995V7.38C21.02 7.76 21.45 8.41001 21.45 9.14001C21.45 9.26001 21.52 9.54998 21.58 9.72998L21.57 9.71997Z" fill="#1E353C"/>
<path opacity="0.44" fill-rule="evenodd" clip-rule="evenodd" d="M20.95 9.78003C20.95 9.78003 20.92 9.73997 20.9 9.71997C20.9 9.71997 20.92 9.75001 20.93 9.76001C20.93 9.76001 20.94 9.78004 20.95 9.79004V9.78003Z" fill="#1E353C"/>
<path opacity="0.44" fill-rule="evenodd" clip-rule="evenodd" d="M19.59 7.06995C19.4 7.02995 19.2 7.01001 19 7.01001C18.77 7.01001 18.54 7.03997 18.33 7.08997C18.36 6.76997 18.63 6.51001 18.96 6.51001C19.29 6.51001 19.55 6.75995 19.59 7.06995Z" fill="#1E353C"/>
<path fill-rule="evenodd" clip-rule="evenodd" d="M18.32 7.23999V8.93994C18.32 9.14994 18.15 9.31995 17.94 9.31995C17.83 9.31995 17.74 9.27996 17.67 9.20996C17.66 9.19996 17.65 9.19004 17.63 9.17004C17.58 9.11004 17.55 9.02994 17.55 8.93994V7.41003C17.55 7.41003 17.55 7.41003 17.56 7.41003C17.61 7.38003 17.66 7.34995 17.71 7.31995C17.71 7.31995 17.71 7.31995 17.72 7.31995C17.77 7.28995 17.82 7.26999 17.88 7.23999C17.94 7.21999 17.99 7.19004 18.05 7.17004C18.07 7.17004 18.1 7.15002 18.12 7.15002C18.17 7.13002 18.22 7.11999 18.26 7.10999C18.26 7.10999 18.27 7.10999 18.28 7.10999C18.3 7.14999 18.31 7.2 18.31 7.25L18.32 7.23999Z" fill="#1E353C"/>
<path fill-rule="evenodd" clip-rule="evenodd" d="M20.37 7.37V8.93994C20.37 9.01994 20.35 9.09002 20.31 9.15002C20.24 9.25002 20.12 9.31995 19.99 9.31995C19.88 9.31995 19.79 9.27996 19.72 9.20996C19.65 9.13996 19.61 9.04994 19.61 8.93994V7.23999C19.61 7.17999 19.62 7.12996 19.64 7.07996C19.7 7.08996 19.77 7.11 19.83 7.13C19.88 7.15 19.93 7.16005 19.98 7.18005C20 7.18005 20.03 7.19996 20.05 7.20996C20.11 7.22996 20.17 7.26004 20.23 7.29004C20.28 7.31004 20.32 7.33999 20.37 7.35999C20.37 7.35999 20.37 7.35999 20.38 7.35999L20.37 7.37Z" fill="#1E353C"/>
<path opacity="0.66" fill-rule="evenodd" clip-rule="evenodd" d="M21.57 9.71997H20.9C20.9 9.71997 20.9 9.72999 20.91 9.73999C20.91 9.73999 20.92 9.75001 20.92 9.76001C20.92 9.76001 20.92 9.76002 20.92 9.77002C20.92 9.77002 20.92 9.76 20.91 9.75C20.91 9.75 20.89 9.72997 20.88 9.71997H16.37C16.26 9.71997 16.17 9.81004 16.17 9.92004C16.17 10.03 16.26 10.12 16.37 10.12H21.13C21.13 10.12 21.1 10.06 21.08 10.03C21.08 10.03 21.08 10.01 21.07 10C21.07 10.01 21.08 10.02 21.09 10.03C21.09 10.04 21.1 10.0599 21.11 10.0699C21.11 10.0799 21.12 10.09 21.13 10.1H21.55C21.66 10.1 21.75 10.01 21.75 9.90002C21.75 9.79002 21.66 9.69995 21.55 9.69995L21.57 9.71997ZM21.02 9.89001C21.02 9.89001 21.02 9.90003 21.02 9.91003C21.02 9.91003 21.02 9.90001 21.01 9.89001H21.02Z" fill="#1E353C"/>
<path opacity="0.66" fill-rule="evenodd" clip-rule="evenodd" d="M20.95 9.78003C20.95 9.78003 20.92 9.73997 20.9 9.71997C20.9 9.71997 20.92 9.75001 20.93 9.76001C20.93 9.76001 20.94 9.78004 20.95 9.79004V9.78003Z" fill="#1E353C"/>
<path opacity="0.66" fill-rule="evenodd" clip-rule="evenodd" d="M21.02 9.89001C21.02 9.89001 21.03 9.91004 21.04 9.92004C21.04 9.91004 21.03 9.90001 21.02 9.89001Z" fill="#1E353C"/>
<path opacity="0.66" fill-rule="evenodd" clip-rule="evenodd" d="M21.15 10.13C21.15 10.13 21.12 10.07 21.1 10.04C21.1 10.02 21.08 10.01 21.07 9.98999C21.08 10.01 21.1 10.0301 21.11 10.0601C21.11 10.0701 21.12 10.09 21.13 10.1C21.13 10.11 21.14 10.12 21.15 10.13Z" fill="#1E353C"/>
<path fill-rule="evenodd" clip-rule="evenodd" d="M18.57 16.7L17.84 14.36H17.83H17.84L18.57 16.7Z" fill="#1E353C"/>
<path fill-rule="evenodd" clip-rule="evenodd" d="M18.57 16.7L18.93 17.84L18.57 16.71V16.7Z" fill="#1E353C"/>
<path fill-rule="evenodd" clip-rule="evenodd" d="M18.93 17.84H18.95L18.94 17.87L18.93 17.84Z" fill="#1E353C"/>
<path opacity="0.33" fill-rule="evenodd" clip-rule="evenodd" d="M19.51 14.3C19.51 14.3 19.51 14.3099 19.51 14.3199C19.51 14.4099 19.44 14.48 19.36 14.53C19.31 14.56 19.24 14.59 19.17 14.6L19.29 16.66L18.95 17.83H18.94L18.58 16.6899L18.81 14.6C18.72 14.59 18.64 14.56 18.58 14.52C18.49 14.47 18.43 14.3901 18.43 14.3101V14.29C18.43 14.11 18.68 13.96 18.98 13.96C19.28 13.96 19.53 14.1 19.53 14.29L19.51 14.3Z" fill="#1E353C"/>
<path opacity="0.33" fill-rule="evenodd" clip-rule="evenodd" d="M18.57 16.7L18.93 17.84L18.57 16.71V16.7Z" fill="#1E353C"/>
<path opacity="0.33" fill-rule="evenodd" clip-rule="evenodd" d="M18.93 17.84H18.95L18.94 17.87L18.93 17.84Z" fill="#1E353C"/>
<path opacity="0.33" fill-rule="evenodd" clip-rule="evenodd" d="M19.29 16.72L18.95 17.84L19.29 16.67V16.72Z" fill="#1E353C"/>
<path fill-rule="evenodd" clip-rule="evenodd" d="M20.85 15.24L18.96 17.84L18.94 17.86V17.84L19.29 16.67L19.96 14.35L20.85 15.24Z" fill="#1E353C"/>
<path fill-rule="evenodd" clip-rule="evenodd" d="M18.94 17.88L18.92 17.84L17.08 15.25L17.83 14.36H17.84L18.57 16.7L18.93 17.84L18.94 17.86V17.88Z" fill="#1E353C"/>
<path d="M19.02 17.84H18.85V20.62H19.02V17.84Z" fill="#1E353C"/>
<path d="M10.61 16.45H1.77999C0.889991 16.45 0.37999 16.97 0.37999 17.85V19.16C0.37999 20.27 0.899991 20.87 1.77999 20.87H10.61C11.83 20.87 12.42 20.43 12.42 19.55V17.86C12.42 17.02 11.81 16.46 10.61 16.46V16.45ZM10.81 19.26H1.98V18.05H10.81V19.26Z" fill="#1E353C"/>
<path d="M7.53999 12.4399H6.67999L7.18999 11.0601V7.21997H1.16998V14.85H3.13998V14.8101H9.62998V14.85H11.2L7.52998 12.4399H7.53999ZM2.77998 11.23V8.81995H5.58998V11.23H2.77998Z" fill="#1E353C"/>
<path d="M15.94 0.73999L7.53998 12.4399L11.21 14.84V14.38L17.79 1.84998L15.94 0.72998V0.73999ZM9.59998 10.73L10.79 13.29L8.63998 12.05L9.60998 10.73H9.59998ZM11.34 12.42L10.3 9.93994L12.04 11.1801L11.34 12.42ZM10.66 9.31006L11.45 8.20996L12.29 10.37L10.65 9.30005L10.66 9.31006ZM12.86 9.81995L12.03 7.60999L13.48 8.59998L12.86 9.81995ZM12.49 6.81006L13.35 5.55005L13.78 7.64001L12.48 6.81006H12.49ZM14.3 6.94995L13.84 4.85999L15.01 5.62L14.3 6.93994V6.94995ZM14.37 4.06006L15.14 2.71997L15.61 4.85999L14.37 4.06006ZM15.69 1.90002L16.77 2.60999L16.08 3.93005L15.69 1.90002Z" fill="#1E353C"/>
<path d="M6.48 5.98999V4.79004H7.23999V3.97998H1.17999V4.79004H1.93999V5.18994V5.98999H1.17999V6.79004H7.23999V5.98999H6.85999H6.48Z" fill="#1E353C"/>
<path opacity="0.33" d="M9.63999 14.8101H3.14999V16.46H9.63999V14.8101Z" fill="#1E353C"/>
<path opacity="0.33" d="M9.63999 16.45H3.14999V16.46H9.63999V16.45Z" fill="#1E353C"/>
</svg>
