<svg width="23" height="18" viewBox="0 0 23 18" fill="none" xmlns="http://www.w3.org/2000/svg">
<g clip-path="url(#clip0_22_207)">
<path d="M8.14 14.16L8.06 14.06C7.89 13.89 7.7 13.77 7.5 13.68V8.12998C7.7 8.03998 7.89 7.91998 8.06 7.74998L8.14 7.64998C8.8 6.89998 8.77 5.75998 8.06 5.04998C7.85 4.83998 7.61 4.69998 7.35 4.60998V6.40998C7.35 6.49998 7.33 6.58998 7.29 6.66998C7.19 6.88998 6.97 7.03998 6.71 7.03998C6.53 7.03998 6.37 6.96998 6.26 6.84998C6.21 6.79998 6.17 6.72998 6.13 6.65998C6.09 6.57998 6.07 6.48998 6.07 6.39998V4.59998C5.81 4.68998 5.56 4.83998 5.35 5.03998C4.63 5.75998 4.61 6.88998 5.27 7.63998L5.35 7.73998C5.52 7.89998 5.71 8.02998 5.91 8.11998V13.67C5.71 13.76 5.52 13.88 5.35 14.05L5.27 14.15C4.61 14.9 4.64 16.04 5.35 16.75C5.56 16.96 5.8 17.1 6.07 17.19V15.39C6.07 15.3 6.09 15.21 6.13 15.13C6.23 14.91 6.45 14.76 6.71 14.76C6.89 14.76 7.05 14.83 7.16 14.95C7.21 15 7.25 15.07 7.29 15.14C7.33 15.22 7.35 15.31 7.35 15.4V17.2C7.61 17.11 7.86 16.96 8.06 16.76C8.78 16.04 8.8 14.91 8.14 14.16Z" fill="#1E353C"/>
<path d="M9.43 16.34C9.43 16.82 9.82 17.21 10.3 17.21C10.54 17.21 10.76 17.11 10.92 16.96C11.08 16.8 11.17 16.59 11.17 16.35V11.11H9.42V16.35L9.43 16.34Z" fill="#1E353C"/>
<path d="M9.87 7.55001L9.84 11.2H10.7L10.74 7.55001L10.75 7.51001H9.85L9.87 7.55001Z" fill="#1E353C"/>
<path opacity="0.21" d="M10.73 4.87H9.87L9.44 6.22L9.85 7.51H10.75L11.16 6.22L10.73 4.87Z" fill="#1E353C"/>
<path d="M13.88 16.98C13.88 17.11 13.98 17.21 14.11 17.21H15.43C15.49 17.21 15.55 17.18 15.59 17.14C15.63 17.1 15.66 17.04 15.66 16.98L15.64 8.21997H13.85L13.87 16.98H13.88Z" fill="#1E353C"/>
<path opacity="0.57" d="M13.4 6.15001C13.32 6.15001 13.24 6.19002 13.2 6.26002C13.16 6.32002 13.09 6.43001 12.96 6.56001C12.76 6.77001 12.4 7.02001 11.89 7.04001C11.77 7.04001 11.67 7.15001 11.67 7.27001V7.94001C11.67 8.00001 11.7 8.06002 11.74 8.10002C11.78 8.14002 11.84 8.17001 11.9 8.17001H13.45H13.85V8.21001H15.64V8.17001H16.8V6.14001H13.4V6.15001Z" fill="#1E353C"/>
<path opacity="0.81" d="M18.44 5.85C18.44 5.72 18.34 5.62 18.21 5.62H17.06C16.93 5.62 16.83 5.73 16.83 5.85V6.14H16.82V8.17H16.84V8.46C16.84 8.59 16.94 8.68999 17.07 8.68999H18.22C18.34 8.68999 18.45 8.58 18.45 8.46V5.85H18.44Z" fill="#1E353C"/>
<path opacity="0.21" d="M17.65 13.83C17.75 13.97 17.86 14.09 17.99 14.21L17.86 14.57C17.82 14.69 17.87 14.82 17.99 14.87L18.51 15.12C18.62 15.17 18.76 15.14 18.82 15.03L19.02 14.71C19.19 14.74 19.37 14.75 19.55 14.74L19.72 15.09C19.77 15.2 19.9 15.26 20.02 15.21L20.57 15.02C20.69 14.98 20.76 14.86 20.73 14.73L20.65 14.37C20.81 14.26 20.95 14.14 21.07 14L21.42 14.12C21.54 14.16 21.67 14.11 21.72 13.99L21.97 13.47C22.02 13.36 21.99 13.22 21.88 13.16L21.57 12.97C21.6 12.79 21.62 12.6 21.6 12.42L21.91 12.27C22.02 12.22 22.08 12.09 22.03 11.97L21.84 11.42C21.8 11.3 21.68 11.23 21.55 11.26L21.22 11.34C21.12 11.19 21 11.05 20.86 10.93L20.97 10.61C21.01 10.49 20.96 10.36 20.84 10.31L20.32 10.06C20.21 10.01 20.07 10.04 20.01 10.15L19.83 10.43C19.64 10.39 19.45 10.38 19.25 10.4L19.1 10.1C19.05 9.98998 18.92 9.92998 18.8 9.97998L18.25 10.17C18.13 10.21 18.06 10.33 18.09 10.46L18.16 10.79C18 10.9 17.85 11.04 17.72 11.19L17.4 11.08C17.28 11.04 17.15 11.09 17.1 11.21L16.85 11.73C16.8 11.84 16.83 11.98 16.94 12.04L17.24 12.23C17.21 12.41 17.2 12.6 17.22 12.78L16.9 12.94C16.79 12.99 16.73 13.12 16.78 13.24L16.97 13.79C17.01 13.91 17.13 13.98 17.26 13.95L17.63 13.87L17.65 13.83ZM19.11 11.66C19.61 11.49 20.16 11.75 20.33 12.25C20.5 12.75 20.24 13.3 19.74 13.47C19.24 13.64 18.69 13.38 18.52 12.88C18.35 12.38 18.61 11.83 19.11 11.66Z" fill="#1E353C"/>
<path opacity="0.21" d="M11.54 3.88998C11.64 4.02998 11.75 4.14998 11.88 4.26998L11.75 4.62998C11.71 4.74998 11.76 4.87998 11.88 4.92998L12.4 5.17998C12.51 5.22998 12.65 5.19998 12.71 5.08998L12.91 4.76998C13.08 4.79998 13.26 4.80998 13.44 4.79998L13.61 5.14998C13.66 5.25998 13.79 5.31998 13.91 5.26998L14.46 5.07998C14.58 5.03998 14.65 4.91998 14.62 4.78998L14.54 4.42998C14.7 4.31998 14.84 4.19998 14.96 4.05998L15.31 4.17998C15.43 4.21998 15.56 4.16998 15.61 4.04998L15.86 3.52998C15.91 3.41998 15.88 3.27998 15.77 3.21998L15.46 3.02998C15.49 2.84998 15.51 2.65998 15.49 2.47998L15.8 2.32998C15.91 2.27998 15.97 2.14998 15.92 2.02998L15.73 1.47998C15.69 1.35998 15.57 1.28998 15.44 1.31998L15.11 1.39998C15.01 1.24998 14.89 1.10998 14.75 0.989981L14.86 0.669981C14.9 0.549981 14.85 0.419981 14.73 0.369981L14.21 0.119981C14.1 0.0699806 13.96 0.0999806 13.9 0.209981L13.72 0.489981C13.53 0.449981 13.34 0.439981 13.14 0.459981L12.99 0.159981C12.94 0.0499806 12.81 -0.0100194 12.69 0.0399806L12.14 0.229981C12.02 0.269981 11.95 0.389981 11.98 0.519981L12.05 0.849981C11.89 0.959981 11.74 1.09998 11.61 1.24998L11.29 1.13998C11.17 1.09998 11.04 1.14998 10.99 1.26998L10.74 1.78998C10.69 1.89998 10.72 2.03998 10.83 2.09998L11.13 2.28998C11.1 2.46998 11.09 2.65998 11.11 2.83998L10.79 2.99998C10.68 3.04998 10.62 3.17998 10.67 3.29998L10.86 3.84998C10.9 3.96998 11.02 4.03998 11.15 4.00998L11.52 3.92998L11.54 3.88998ZM13 1.70998C13.5 1.53998 14.05 1.79998 14.22 2.29998C14.39 2.79998 14.13 3.34998 13.63 3.51998C13.13 3.68998 12.58 3.42998 12.41 2.92998C12.24 2.42998 12.5 1.87998 13 1.70998Z" fill="#1E353C"/>
<path opacity="0.21" d="M0.859993 12.09C0.959993 12.23 1.06999 12.35 1.19999 12.47L1.06999 12.83C1.02999 12.95 1.07999 13.08 1.19999 13.13L1.71999 13.38C1.82999 13.43 1.96999 13.4 2.02999 13.29L2.22999 12.97C2.39999 13 2.57999 13.01 2.75999 13L2.92999 13.35C2.97999 13.46 3.10999 13.52 3.22999 13.47L3.77999 13.28C3.89999 13.24 3.96999 13.12 3.93999 12.99L3.85999 12.63C4.01999 12.52 4.15999 12.4 4.27999 12.26L4.62999 12.38C4.74999 12.42 4.87999 12.37 4.92999 12.25L5.17999 11.73C5.22999 11.62 5.19999 11.48 5.08999 11.42L4.77999 11.23C4.80999 11.05 4.82999 10.86 4.80999 10.68L5.11999 10.53C5.22999 10.48 5.28999 10.35 5.23999 10.23L5.04999 9.67999C5.00999 9.55999 4.88999 9.48999 4.75999 9.51999L4.42999 9.59999C4.32999 9.44999 4.20999 9.30999 4.06999 9.18999L4.17999 8.86999C4.21999 8.74999 4.16999 8.61999 4.04999 8.56999L3.52999 8.31999C3.41999 8.26999 3.27999 8.29999 3.21999 8.40999L3.03999 8.68999C2.84999 8.64999 2.65999 8.63999 2.45999 8.65999L2.30999 8.35999C2.25999 8.24999 2.12999 8.18999 2.00999 8.23999L1.45999 8.42999C1.33999 8.46999 1.26999 8.58999 1.29999 8.71999L1.36999 9.04999C1.20999 9.15999 1.05999 9.29999 0.929993 9.44999L0.609993 9.33999C0.489993 9.29999 0.359993 9.34999 0.309993 9.46999L0.0599928 9.98999C0.00999278 10.1 0.0399928 10.24 0.149993 10.3L0.449993 10.49C0.419993 10.67 0.409993 10.86 0.429993 11.04L0.109993 11.2C-7.21216e-06 11.25 -0.0600072 11.38 -0.0100072 11.5L0.179993 12.05C0.219993 12.17 0.339993 12.24 0.469993 12.21L0.839993 12.13L0.859993 12.09ZM2.31999 9.91999C2.81999 9.74999 3.36999 10.01 3.53999 10.51C3.70999 11.01 3.44999 11.56 2.94999 11.73C2.44999 11.9 1.89999 11.64 1.72999 11.14C1.55999 10.64 1.81999 10.09 2.31999 9.91999Z" fill="#1E353C"/>
<path opacity="0.21" d="M17.16 4.28999C17.22 4.36999 17.29 4.44999 17.36 4.51999L17.28 4.73999C17.26 4.80999 17.28 4.88999 17.36 4.91999L17.67 5.06999C17.74 5.09999 17.82 5.06999 17.86 5.01999L17.98 4.82999C18.08 4.84999 18.19 4.85999 18.3 4.84999L18.4 5.05999C18.43 5.12999 18.51 5.15999 18.58 5.12999L18.91 5.01999C18.98 4.99999 19.02 4.91999 19 4.84999L18.95 4.62999C19.04 4.56999 19.13 4.48999 19.2 4.40999L19.41 4.47999C19.48 4.49999 19.56 4.47999 19.59 4.40999L19.74 4.09999C19.77 4.02999 19.74 3.94999 19.69 3.90999L19.51 3.78999C19.53 3.67999 19.54 3.56999 19.53 3.45999L19.72 3.36999C19.79 3.33999 19.82 3.25999 19.79 3.18999L19.68 2.85999C19.66 2.78999 19.58 2.74999 19.51 2.76999L19.31 2.81999C19.25 2.72999 19.18 2.64999 19.09 2.56999L19.16 2.37999C19.18 2.30999 19.16 2.22999 19.08 2.19999L18.77 2.04999C18.7 2.01999 18.62 2.04999 18.58 2.09999L18.47 2.26999C18.36 2.24999 18.24 2.23999 18.12 2.24999L18.03 2.06999C18 1.99999 17.92 1.96999 17.85 1.99999L17.52 2.10999C17.45 2.12999 17.41 2.20999 17.43 2.27999L17.47 2.47999C17.37 2.54999 17.28 2.62999 17.21 2.71999L17.02 2.64999C16.95 2.62999 16.87 2.64999 16.84 2.71999L16.69 3.02999C16.66 3.09999 16.69 3.17999 16.74 3.21999L16.92 3.33999C16.9 3.44999 16.9 3.55999 16.91 3.66999L16.72 3.75999C16.65 3.78999 16.62 3.86999 16.65 3.93999L16.76 4.26999C16.78 4.33999 16.86 4.37999 16.93 4.35999L17.15 4.30999L17.16 4.28999ZM18.04 2.98999C18.34 2.88999 18.67 3.03999 18.77 3.33999C18.87 3.63999 18.72 3.96999 18.42 4.06999C18.12 4.16999 17.79 4.01999 17.69 3.71999C17.59 3.41999 17.74 3.08999 18.04 2.98999Z" fill="#1E353C"/>
<path opacity="0.21" d="M19.56 8.85999C19.62 8.93999 19.69 9.01999 19.76 9.08999L19.68 9.30999C19.66 9.37999 19.68 9.45999 19.76 9.48999L20.07 9.63999C20.14 9.66999 20.22 9.63999 20.26 9.58999L20.38 9.39999C20.48 9.41999 20.59 9.42999 20.7 9.41999L20.8 9.62999C20.83 9.69999 20.91 9.72999 20.98 9.69999L21.31 9.58999C21.38 9.56999 21.42 9.48999 21.4 9.41999L21.35 9.19999C21.44 9.13999 21.53 9.05999 21.6 8.97999L21.81 9.04999C21.88 9.06999 21.96 9.04999 21.99 8.97999L22.14 8.66999C22.17 8.59999 22.14 8.51999 22.09 8.47999L21.91 8.35999C21.93 8.24999 21.94 8.13999 21.93 8.02999L22.12 7.93999C22.19 7.90999 22.22 7.82999 22.19 7.75999L22.08 7.42999C22.06 7.35999 21.98 7.31999 21.91 7.33999L21.71 7.38999C21.65 7.29999 21.58 7.21999 21.49 7.13999L21.56 6.94999C21.58 6.87999 21.56 6.79999 21.48 6.76999L21.17 6.61999C21.1 6.58999 21.02 6.61999 20.98 6.66999L20.87 6.83999C20.76 6.81999 20.64 6.80999 20.52 6.81999L20.43 6.63999C20.4 6.56999 20.32 6.53999 20.25 6.56999L19.92 6.67999C19.85 6.69999 19.81 6.77999 19.83 6.84999L19.87 7.04999C19.77 7.11999 19.68 7.19999 19.61 7.28999L19.42 7.21999C19.35 7.19999 19.27 7.21999 19.24 7.28999L19.09 7.59999C19.06 7.66999 19.09 7.74999 19.14 7.78999L19.32 7.90999C19.3 8.01999 19.3 8.12999 19.31 8.23999L19.12 8.32999C19.05 8.35999 19.02 8.43999 19.05 8.50999L19.16 8.83999C19.18 8.90999 19.26 8.94999 19.33 8.92999L19.55 8.87999L19.56 8.85999ZM20.44 7.54999C20.74 7.44999 21.07 7.59999 21.17 7.89999C21.27 8.19999 21.12 8.52999 20.82 8.62999C20.52 8.72999 20.19 8.57999 20.09 8.27999C19.99 7.97999 20.14 7.64999 20.44 7.54999Z" fill="#1E353C"/>
<path opacity="0.21" d="M1.56999 7.00001C1.62999 7.08001 1.69999 7.16001 1.76999 7.23001L1.68999 7.45001C1.66999 7.52001 1.68999 7.60001 1.76999 7.63001L2.07999 7.78001C2.14999 7.81001 2.22999 7.78001 2.26999 7.73001L2.38999 7.54001C2.48999 7.56001 2.59999 7.57001 2.70999 7.56001L2.80999 7.77001C2.83999 7.84001 2.91999 7.87001 2.98999 7.84001L3.31999 7.73001C3.38999 7.71001 3.42999 7.63001 3.40999 7.56001L3.35999 7.34001C3.44999 7.28001 3.53999 7.20001 3.60999 7.12001L3.81999 7.19001C3.88999 7.21001 3.96999 7.19001 3.99999 7.12001L4.14999 6.81001C4.17999 6.74001 4.14999 6.66001 4.09999 6.62001L3.91999 6.50001C3.93999 6.39001 3.94999 6.28001 3.93999 6.17001L4.12999 6.08001C4.19999 6.05001 4.22999 5.97001 4.19999 5.90001L4.08999 5.57001C4.06999 5.50001 3.98999 5.46001 3.91999 5.48001L3.71999 5.53001C3.65999 5.44001 3.58999 5.36001 3.49999 5.28001L3.56999 5.09001C3.58999 5.02001 3.56999 4.94001 3.49999 4.91001L3.18999 4.76001C3.11999 4.73001 3.03999 4.76001 2.99999 4.81001L2.88999 4.98001C2.77999 4.96001 2.65999 4.95001 2.53999 4.96001L2.44999 4.78001C2.41999 4.71001 2.33999 4.68001 2.26999 4.71001L1.93999 4.82001C1.86999 4.84001 1.82999 4.92001 1.84999 4.99001L1.88999 5.19001C1.78999 5.26001 1.69999 5.34001 1.62999 5.43001L1.43999 5.36001C1.36999 5.34001 1.28999 5.36001 1.25999 5.43001L1.10999 5.74001C1.07999 5.81001 1.10999 5.89001 1.15999 5.93001L1.33999 6.05001C1.31999 6.16001 1.31999 6.27001 1.32999 6.38001L1.13999 6.47001C1.06999 6.50001 1.03999 6.58001 1.06999 6.65001L1.17999 6.98001C1.19999 7.05001 1.27999 7.09001 1.34999 7.07001L1.56999 7.02001V7.00001ZM2.44999 5.70001C2.74999 5.60001 3.07999 5.75001 3.17999 6.05001C3.27999 6.35001 3.12999 6.68001 2.82999 6.78001C2.52999 6.88001 2.19999 6.73001 2.09999 6.43001C1.99999 6.13001 2.14999 5.80001 2.44999 5.70001Z" fill="#1E353C"/>
<path opacity="0.21" d="M7.72 3.52003C7.78 3.60003 7.85 3.68003 7.92 3.75003L7.84 3.97003C7.82 4.04003 7.84 4.12003 7.92 4.15003L8.23 4.30003C8.3 4.33003 8.38 4.30003 8.42 4.25003L8.54 4.06003C8.64 4.08003 8.75 4.09003 8.86 4.08003L8.96 4.29003C8.99 4.36003 9.07 4.39003 9.14 4.36003L9.47 4.25003C9.54 4.23003 9.58 4.15003 9.56 4.08003L9.51 3.86003C9.6 3.80003 9.69 3.72003 9.76 3.64003L9.97 3.71003C10.04 3.73003 10.12 3.71003 10.15 3.64003L10.3 3.33003C10.33 3.26003 10.3 3.18003 10.25 3.14003L10.07 3.02003C10.09 2.91003 10.1 2.80003 10.09 2.69003L10.28 2.60003C10.35 2.57003 10.38 2.49003 10.35 2.42003L10.24 2.09003C10.22 2.02003 10.14 1.98003 10.07 2.00003L9.87 2.05003C9.81 1.96003 9.74 1.88003 9.65 1.80003L9.72 1.61003C9.74 1.54003 9.72 1.46003 9.65 1.43003L9.34 1.28003C9.27 1.25003 9.19 1.28003 9.15 1.33003L9.04 1.50003C8.93 1.48003 8.81 1.47003 8.69 1.48003L8.6 1.30003C8.57 1.23003 8.49 1.20003 8.42 1.23003L8.09 1.34003C8.02 1.36003 7.98 1.44003 8 1.51003L8.04 1.71003C7.94 1.78003 7.85 1.86003 7.78 1.95003L7.59 1.88003C7.52 1.86003 7.44 1.88003 7.41 1.95003L7.26 2.26003C7.23 2.33003 7.26 2.41003 7.31 2.45003L7.49 2.57003C7.47 2.68003 7.47 2.79003 7.48 2.90003L7.29 2.99003C7.22 3.02003 7.19 3.10003 7.22 3.17003L7.33 3.50003C7.35 3.57003 7.43 3.61003 7.5 3.59003L7.72 3.54003V3.52003ZM8.6 2.21003C8.9 2.11003 9.23 2.26003 9.33 2.56003C9.43 2.86003 9.28 3.19003 8.98 3.29003C8.68 3.39003 8.35 3.24003 8.25 2.94003C8.15 2.64003 8.3 2.31003 8.6 2.21003Z" fill="#1E353C"/>
</g>
<defs>
<clipPath id="clip0_22_207">
<rect width="22.2" height="17.21" fill="white"/>
</clipPath>
</defs>
</svg>
