<svg width="28" height="16" viewBox="0 0 28 16" fill="none" xmlns="http://www.w3.org/2000/svg">
<g clip-path="url(#clip0_22_112)">
<g opacity="0.66">
<path d="M27.53 0.0500256C27.53 0.0500256 27.42 -0.00997437 27.36 2.56274e-05C27.33 2.56274e-05 9.01001 2.56274e-05 8.98001 2.56274e-05C8.92001 2.56274e-05 8.86001 2.56263e-05 8.81001 0.0500256C8.76001 0.0900256 8.74001 0.150026 8.74001 0.210026V11.34C8.74001 11.4 8.77001 11.46 8.81001 11.5C8.85001 11.54 8.90001 11.56 8.95001 11.56C8.95001 11.56 8.96001 11.56 8.97001 11.56C9.01001 11.56 27.34 11.56 27.38 11.56C27.44 11.56 27.5 11.54 27.54 11.5C27.58 11.46 27.61 11.4 27.61 11.34V0.210026C27.61 0.150026 27.58 0.0900256 27.54 0.0500256H27.53ZM9.16001 10.25L9.20001 0.510026L27.22 0.470026L27.18 10.25H9.16001Z" fill="#1E353C"/>
</g>
<path opacity="0.21" d="M9.16 10.25L9.2 0.510032L27.22 0.470032L27.18 10.25H9.16Z" fill="#1E353C"/>
<path opacity="0.66" d="M24.64 1.52002H12.3C12.1012 1.52002 11.94 1.6812 11.94 1.88002V2.19002C11.94 2.38884 12.1012 2.55002 12.3 2.55002H24.64C24.8388 2.55002 25 2.38884 25 2.19002V1.88002C25 1.6812 24.8388 1.52002 24.64 1.52002Z" fill="#1E353C"/>
<path d="M21.17 2.97003H15.5C15.3343 2.97003 15.2 3.10435 15.2 3.27003V3.52003C15.2 3.68572 15.3343 3.82003 15.5 3.82003H21.17C21.3357 3.82003 21.47 3.68572 21.47 3.52003V3.27003C21.47 3.10435 21.3357 2.97003 21.17 2.97003Z" fill="#1E353C"/>
<path opacity="0.66" d="M10.55 9.10003C10.47 9.10003 10.38 9.06003 10.33 8.99003C10.24 8.87003 10.27 8.70003 10.39 8.61003L12.63 6.95003C12.72 6.88003 12.85 6.88003 12.94 6.95003L14.17 8.12003L15.49 6.11003C15.54 6.06003 15.61 6.03003 15.68 6.02003C15.75 6.02003 15.82 6.04003 15.88 6.09003L17.8 7.90003L20.39 5.16003C20.44 5.11003 20.51 5.08003 20.58 5.08003C20.65 5.08003 20.72 5.11003 20.78 5.16003L22.52 7.65003L25.32 4.74003C25.42 4.63003 25.6 4.63003 25.7 4.74003C25.81 4.84003 25.81 5.02003 25.7 5.12003L22.71 8.23003C22.66 8.28003 22.59 8.31003 22.52 8.31003C22.45 8.31003 22.38 8.28003 22.32 8.23003L20.58 5.74003L17.99 8.47003C17.89 8.58003 17.72 8.58003 17.61 8.48003L15.69 6.67003L14.4 8.65003C14.31 8.75003 14.16 8.77003 14.05 8.69003L12.79 7.50003L10.71 9.05003C10.71 9.05003 10.6 9.10003 10.55 9.10003Z" fill="#1E353C"/>
<path opacity="0.21" fill-rule="evenodd" clip-rule="evenodd" d="M6.52 7.92005V8.88005H6.11C6.2 8.83005 6.26 8.75005 6.27 8.67005V8.65005C6.27 8.47005 6.02 8.32005 5.71 8.32005C5.4 8.32005 5.15 8.47005 5.15 8.65005C5.15 8.65005 5.15 8.66005 5.15 8.67005C5.15 8.76005 5.22 8.83005 5.31 8.88005H4.78V7.86005C5.07 7.99005 5.39 8.06005 5.73 8.06005C5.75 8.06005 5.77 8.06005 5.8 8.06005C5.84 8.06005 5.88 8.06005 5.92 8.06005C6.13 8.04005 6.33 8.00005 6.51 7.94005L6.52 7.92005Z" fill="#1E353C"/>
<path opacity="0.21" fill-rule="evenodd" clip-rule="evenodd" d="M7.06999 3.44002C7.06999 3.44002 7.02999 3.41002 7.00999 3.40002C7.00999 3.40002 7.02999 3.41002 7.03999 3.42002C7.03999 3.42002 7.05999 3.43002 7.06999 3.44002Z" fill="#1E353C"/>
<path opacity="0.21" fill-rule="evenodd" clip-rule="evenodd" d="M8.48001 5.62C8.48001 5.98 8.36001 6.28 8.22001 6.28C8.17001 6.28 8.13001 6.25 8.09001 6.19C8.09001 6.19 8.09001 6.21 8.09001 6.22C8.09001 6.24 8.08001 6.26 8.07001 6.28C8.07001 6.3 8.06001 6.32 8.05001 6.34C8.05001 6.36 8.04001 6.38 8.03001 6.39C8.03001 6.41 8.01001 6.43 8.01001 6.45C8.01001 6.47 8.00001 6.48 7.99001 6.5C7.99001 6.52 7.97001 6.54 7.96001 6.57C7.96001 6.58 7.95001 6.6 7.94001 6.61C7.93001 6.63 7.92001 6.65 7.91001 6.68C7.91001 6.69 7.90001 6.71 7.89001 6.72C7.88001 6.74 7.86001 6.77 7.85001 6.79C7.85001 6.8 7.84001 6.81 7.83001 6.83C7.82001 6.85 7.80001 6.88 7.79001 6.9C7.79001 6.91 7.78001 6.92 7.77001 6.93C7.75001 6.95 7.74001 6.98 7.72001 7C7.72001 7 7.71001 7.02 7.70001 7.03C7.68001 7.05 7.67001 7.08 7.65001 7.1C7.65001 7.1 7.64001 7.12 7.63001 7.12C7.61001 7.14 7.59001 7.17 7.57001 7.19C7.57001 7.19 7.56001 7.2 7.55001 7.21C7.53001 7.23 7.51001 7.26 7.49001 7.28C7.49001 7.28 7.48001 7.29 7.47001 7.3C7.45001 7.32 7.43001 7.35 7.40001 7.37C7.40001 7.37 7.40001 7.37 7.39001 7.38C7.37001 7.4 7.34001 7.42 7.32001 7.45C7.32001 7.45 7.32001 7.45 7.31001 7.46C7.28001 7.48 7.26001 7.5 7.23001 7.53C7.23001 7.53 7.23001 7.53 7.22001 7.53C7.19001 7.55 7.16001 7.57 7.14001 7.59C7.11001 7.61 7.08001 7.63 7.05001 7.65C7.02001 7.67 6.99001 7.69 6.96001 7.71C6.93001 7.73 6.90001 7.75 6.86001 7.77C6.83001 7.79 6.79001 7.8 6.76001 7.82C6.72001 7.83 6.69001 7.85 6.65001 7.86C6.65001 7.86 6.58001 7.89 6.55001 7.9C6.36001 7.97 6.16001 8.01001 5.96001 8.02001C5.96001 8.02001 5.88001 8.02001 5.84001 8.02001C5.82001 8.02001 5.80001 8.02001 5.77001 8.02001C5.44001 8.02001 5.11001 7.95 4.82001 7.82C4.15001 7.53 3.63001 6.94 3.42001 6.2C3.39001 6.22 3.36001 6.24 3.33001 6.24C3.19001 6.24 3.07001 5.95 3.07001 5.58C3.07001 5.21 3.18001 4.92 3.33001 4.92C3.35001 4.92 3.37001 4.92 3.38001 4.93C3.35001 5.08 3.33001 5.23 3.32001 5.39C3.48001 5.21 3.57001 4.97 3.72001 4.79C3.85001 4.64 4.01001 4.51 4.16001 4.38H5.67001C5.72001 4.42 5.77001 4.45 5.83001 4.48C5.90001 4.52 5.97001 4.55 6.05001 4.59C6.05001 4.59 6.06001 4.59 6.07001 4.59C6.09001 4.59 6.12001 4.61 6.14001 4.61C6.14001 4.61 6.14001 4.61 6.15001 4.61C6.19001 4.62 6.23001 4.63 6.27001 4.65C6.29001 4.65 6.30001 4.65 6.32001 4.66C6.34001 4.66 6.35001 4.66 6.37001 4.66C6.40001 4.66 6.43001 4.66 6.46001 4.67C6.47001 4.67 6.49001 4.67 6.50001 4.67C6.53001 4.67 6.55001 4.67 6.58001 4.67C6.59001 4.67 6.60001 4.67 6.61001 4.67C6.64001 4.67 6.68001 4.67 6.71001 4.67C6.72001 4.67 6.73001 4.67 6.74001 4.67C6.77001 4.67 6.80001 4.66 6.83001 4.65C6.83001 4.65 6.83001 4.65 6.84001 4.65C6.88001 4.64 6.91001 4.63 6.94001 4.61C6.94001 4.61 6.96001 4.61 6.97001 4.6C7.00001 4.58 7.04001 4.57 7.07001 4.55C7.31001 4.41 7.61001 4.5 7.75001 4.73C7.82001 4.84 7.98001 4.93 8.14001 5.01C8.14001 4.99 8.14001 4.97 8.13001 4.95C8.16001 4.92 8.19001 4.9 8.23001 4.9C8.37001 4.9 8.49001 5.2 8.49001 5.56L8.48001 5.62Z" fill="#1E353C"/>
<path opacity="0.21" fill-rule="evenodd" clip-rule="evenodd" d="M4.12999 4.42004C3.96999 4.55004 3.81999 4.68004 3.68999 4.83004C3.53999 5.00004 3.44999 5.25004 3.28999 5.43004C3.28999 5.27004 3.31999 5.12004 3.34999 4.97004C3.34999 4.93004 3.36999 4.90004 3.37999 4.86004C3.37999 4.83004 3.39999 4.79004 3.40999 4.76004C3.40999 4.73004 3.42999 4.69004 3.43999 4.66004C3.46999 4.58004 3.49999 4.50004 3.53999 4.42004H4.12999Z" fill="#1E353C"/>
<path opacity="0.21" fill-rule="evenodd" clip-rule="evenodd" d="M8.13 5.05999C7.97 4.97999 7.8 4.88999 7.74 4.77999C7.6 4.54999 7.29 4.45999 7.06 4.59999C7.03 4.61999 6.99 4.63999 6.96 4.64999C6.96 4.64999 6.94 4.64999 6.93 4.65999C6.9 4.66999 6.86 4.68999 6.83 4.69999C6.83 4.69999 6.83 4.69999 6.82 4.69999C6.79 4.69999 6.76 4.70999 6.73 4.71999C6.73 4.71999 6.71 4.71999 6.7 4.71999C6.67 4.71999 6.63 4.71999 6.6 4.71999C6.59 4.71999 6.58 4.71999 6.57 4.71999C6.54 4.71999 6.52 4.71999 6.49 4.71999C6.48 4.71999 6.46 4.71999 6.45 4.71999C6.42 4.71999 6.39 4.71999 6.36 4.70999C6.34 4.70999 6.33 4.70999 6.31 4.70999C6.29 4.70999 6.28 4.70999 6.26 4.69999C6.22 4.68999 6.18 4.67999 6.14 4.65999C6.14 4.65999 6.14 4.65999 6.13 4.65999C6.11 4.65999 6.08 4.63999 6.06 4.63999C6.06 4.63999 6.05 4.63999 6.04 4.63999C5.97 4.60999 5.89 4.56999 5.82 4.52999C5.76 4.49999 5.71 4.46999 5.66 4.42999H7.94C7.94 4.42999 7.94 4.44999 7.95 4.45999C7.95 4.46999 7.96 4.48999 7.97 4.49999C7.97 4.51999 7.99 4.53999 8 4.56999C8 4.56999 8 4.58999 8 4.59999C8 4.61999 8.01 4.63999 8.02 4.64999C8.02 4.65999 8.02 4.66999 8.03 4.68999C8.03 4.70999 8.04 4.72999 8.05 4.73999C8.05 4.75999 8.06 4.77999 8.07 4.79999C8.07 4.81999 8.08 4.83999 8.08 4.84999C8.08 4.84999 8.08 4.86999 8.08 4.87999C8.08 4.89999 8.08 4.91999 8.09 4.93999C8.09 4.95999 8.09 4.97999 8.1 5.00999C8.1 5.02999 8.1 5.04999 8.11 5.06999L8.13 5.05999Z" fill="#1E353C"/>
<path fill-rule="evenodd" clip-rule="evenodd" d="M11.38 14.42V15.02H9.31V14.42C9.31 13.12 8.86 12.27 8.54 11.79V15.02H2.81V11.67C2.52 12.12 2.06 13 2.06 14.42V15.02H0V14.42C0 12.26 0.74 10.09 1.9 9.41003C2.43 9.06003 3.35 8.80003 4.57 8.70003C4.64 8.70003 4.71 8.69003 4.78 8.68003C4.9 8.68003 5.02 8.67003 5.15 8.66003C5.15 8.74003 5.22 8.82003 5.31 8.87003C5.37 8.91003 5.45 8.94003 5.54 8.95003L5.31 11.06L5.67 12.21H5.69L6.03 11.03L5.91 8.95003C5.98 8.93003 6.05 8.91003 6.1 8.87003C6.19 8.82003 6.25 8.74003 6.26 8.66003C6.35 8.66003 6.43 8.66003 6.51 8.67003C6.58 8.67003 6.65 8.67003 6.71 8.68003C7.54 8.74003 8.21 8.89003 8.72 9.08003C8.88 9.14003 9.02 9.21003 9.15 9.27003C9.23 9.31003 9.3 9.35003 9.37 9.40003C9.68 9.58003 9.96 9.87003 10.21 10.23C10.47 10.6 10.69 11.04 10.87 11.53C11.18 12.39 11.36 13.4 11.36 14.4L11.38 14.42Z" fill="#1E353C"/>
<path fill-rule="evenodd" clip-rule="evenodd" d="M4.12999 4.42004C3.96999 4.55004 3.81999 4.68004 3.68999 4.83004C3.53999 5.00004 3.44999 5.25004 3.28999 5.43004C3.28999 5.27004 3.31999 5.12004 3.34999 4.97004C3.34999 4.93004 3.36999 4.90004 3.37999 4.86004C3.37999 4.83004 3.39999 4.79004 3.40999 4.76004C3.40999 4.73004 3.42999 4.69004 3.43999 4.66004C3.46999 4.58004 3.49999 4.50004 3.53999 4.42004H4.12999Z" fill="#1E353C"/>
<path fill-rule="evenodd" clip-rule="evenodd" d="M8.13 5.05999C7.97 4.97999 7.8 4.88999 7.74 4.77999C7.6 4.54999 7.29 4.45999 7.06 4.59999C7.03 4.61999 6.99 4.63999 6.96 4.64999C6.96 4.64999 6.94 4.64999 6.93 4.65999C6.9 4.66999 6.86 4.68999 6.83 4.69999C6.83 4.69999 6.83 4.69999 6.82 4.69999C6.79 4.69999 6.76 4.70999 6.73 4.71999C6.73 4.71999 6.71 4.71999 6.7 4.71999C6.67 4.71999 6.63 4.71999 6.6 4.71999C6.59 4.71999 6.58 4.71999 6.57 4.71999C6.54 4.71999 6.52 4.71999 6.49 4.71999C6.48 4.71999 6.46 4.71999 6.45 4.71999C6.42 4.71999 6.39 4.71999 6.36 4.70999C6.34 4.70999 6.33 4.70999 6.31 4.70999C6.29 4.70999 6.28 4.70999 6.26 4.69999C6.22 4.68999 6.18 4.67999 6.14 4.65999C6.14 4.65999 6.14 4.65999 6.13 4.65999C6.11 4.65999 6.08 4.63999 6.06 4.63999C6.06 4.63999 6.05 4.63999 6.04 4.63999C5.97 4.60999 5.89 4.56999 5.82 4.52999C5.76 4.49999 5.71 4.46999 5.66 4.42999H7.94C7.94 4.42999 7.94 4.44999 7.95 4.45999C7.96 4.48999 7.97 4.51999 7.99 4.54999C7.99 4.56999 8 4.57999 8.01 4.59999C8.01 4.61999 8.02 4.63999 8.03 4.64999C8.04 4.68999 8.06 4.72999 8.07 4.76999C8.07 4.79999 8.09 4.82999 8.1 4.84999C8.1 4.84999 8.1 4.86999 8.1 4.87999C8.1 4.89999 8.1 4.91999 8.11 4.93999C8.11 4.95999 8.11 4.97999 8.12 5.00999C8.12 5.02999 8.12 5.04999 8.13 5.06999V5.05999Z" fill="#1E353C"/>
<path opacity="0.44" fill-rule="evenodd" clip-rule="evenodd" d="M7.04001 3.41001C7.04001 3.41001 7.06001 3.42001 7.07001 3.43001C7.05001 3.42001 7.03001 3.40001 7.01001 3.39001C7.01001 3.39001 7.03001 3.40001 7.04001 3.41001Z" fill="#1E353C"/>
<path opacity="0.44" fill-rule="evenodd" clip-rule="evenodd" d="M8.35001 4.01002H3.13C3.2 3.79002 3.27 3.52002 3.27 3.41002C3.27 2.70002 3.67 2.07002 4.28 1.68002V3.22002C4.28 3.31002 4.31 3.39002 4.36 3.45002C4.37 3.46002 4.38 3.48002 4.4 3.49002C4.47 3.56002 4.57 3.60002 4.67 3.60002C4.88 3.60002 5.06 3.43002 5.06 3.22002V1.50002C5.06 1.50002 5.06 1.40002 5.03 1.36002C5.04 1.36002 5.06 1.36002 5.07 1.35002C5.28 1.30002 5.51 1.27002 5.74 1.27002C5.95 1.27002 6.15 1.29002 6.34 1.33002C6.36 1.33002 6.37 1.33002 6.39 1.34002C6.39 1.34002 6.35 1.44002 6.35 1.50002V3.22002C6.35 3.33002 6.39 3.42002 6.46 3.49002C6.53 3.56002 6.63 3.60002 6.73 3.60002C6.86 3.60002 6.98 3.53002 7.05 3.43002C7.09 3.37002 7.11 3.30002 7.11 3.22002V1.63002C7.77 2.01002 8.2 2.67002 8.2 3.41002C8.2 3.53002 8.27 3.82002 8.33 4.01002H8.35001Z" fill="#1E353C"/>
<path opacity="0.44" fill-rule="evenodd" clip-rule="evenodd" d="M6.35 1.33002C6.16 1.29002 5.96 1.27002 5.75 1.27002C5.52 1.27002 5.29 1.30002 5.08 1.35002C5.11 1.02002 5.38 0.77002 5.72 0.77002C6.06 0.77002 6.32 1.02002 6.35 1.33002Z" fill="#1E353C"/>
<g opacity="0.66">
<path fill-rule="evenodd" clip-rule="evenodd" d="M5.06 3.12005V3.22005C5.06 3.43005 4.89 3.60005 4.67 3.60005C4.56 3.60005 4.47 3.56005 4.4 3.49005C4.39 3.48005 4.38 3.46005 4.36 3.45005C4.31 3.39005 4.28 3.31005 4.28 3.22005V1.68005C4.28 1.68005 4.31 1.66005 4.33 1.65005C4.37 1.62005 4.41 1.60005 4.46 1.58005C4.53 1.54005 4.6 1.51005 4.67 1.48005C4.71 1.47005 4.74 1.45005 4.78 1.44005C4.81 1.44005 4.83 1.42005 4.86 1.41005C4.88 1.41005 4.91 1.40005 4.93 1.39005C4.96 1.38005 5 1.37005 5.03 1.36005C5.05 1.40005 5.06 1.45005 5.06 1.50005V3.12005Z" fill="#1E353C"/>
<path fill-rule="evenodd" clip-rule="evenodd" d="M4.28999 1.68002C4.28999 1.68002 4.31999 1.66002 4.33999 1.65002C4.31999 1.65002 4.30999 1.67002 4.28999 1.68002Z" fill="#1E353C"/>
<path fill-rule="evenodd" clip-rule="evenodd" d="M7.05001 1.59005C7.05001 1.59005 7.01001 1.57005 6.98001 1.56005C6.96001 1.55005 6.93001 1.54005 6.91001 1.52005C6.88001 1.51005 6.85001 1.49005 6.82001 1.48005C6.78001 1.47005 6.75001 1.45005 6.71001 1.44005C6.64001 1.41005 6.57001 1.39005 6.49001 1.37005C6.47001 1.37005 6.45001 1.36005 6.43001 1.36005C6.42001 1.36005 6.40001 1.36005 6.39001 1.36005C6.37001 1.41005 6.35001 1.46005 6.35001 1.52005V3.24005C6.35001 3.35005 6.39001 3.44005 6.46001 3.51005C6.53001 3.58005 6.63001 3.62005 6.73001 3.62005C6.86001 3.62005 6.98001 3.55005 7.05001 3.45005C7.03001 3.44005 7.01001 3.42005 6.99001 3.41005C6.99001 3.41005 7.01001 3.42005 7.02001 3.43005C7.02001 3.43005 7.04001 3.44005 7.05001 3.45005C7.09001 3.39005 7.11001 3.32005 7.11001 3.24005V1.65005C7.11001 1.65005 7.05001 1.62005 7.02001 1.60005L7.05001 1.59005ZM6.93001 3.35005C6.93001 3.35005 6.93001 3.35005 6.92001 3.35005H6.93001Z" fill="#1E353C"/>
<path fill-rule="evenodd" clip-rule="evenodd" d="M7.06999 3.44002C7.06999 3.44002 7.02999 3.41002 7.00999 3.40002C7.00999 3.40002 7.02999 3.41002 7.03999 3.42002C7.03999 3.42002 7.05999 3.43002 7.06999 3.44002Z" fill="#1E353C"/>
</g>
<path opacity="0.66" fill-rule="evenodd" clip-rule="evenodd" d="M8.55 4.22001C8.55 4.33001 8.46 4.43001 8.35 4.43001H3.12C3.01 4.43001 2.92 4.34001 2.92 4.22001C2.92 4.10001 3.01 4.01001 3.12 4.01001H8.36C8.47 4.01001 8.56 4.10001 8.56 4.22001H8.55Z" fill="#1E353C"/>
<path opacity="0.21" fill-rule="evenodd" clip-rule="evenodd" d="M5.32001 11.07L4.57001 8.70003C4.57001 8.70003 4.65001 8.70003 4.78001 8.68003C4.87001 8.68003 4.99001 8.67003 5.15001 8.66003C5.15001 8.75003 5.22001 8.82003 5.31001 8.87003C5.37001 8.91003 5.45001 8.94003 5.54001 8.95003L5.31001 11.06L5.32001 11.07Z" fill="#1E353C"/>
<path opacity="0.21" fill-rule="evenodd" clip-rule="evenodd" d="M5.68001 12.22L5.32001 11.08V11.07L5.68001 12.22Z" fill="#1E353C"/>
<path opacity="0.21" fill-rule="evenodd" clip-rule="evenodd" d="M5.68999 12.22V12.24L5.67999 12.22H5.68999Z" fill="#1E353C"/>
<path opacity="0.21" fill-rule="evenodd" clip-rule="evenodd" d="M6.72 8.69003L6.04 11.03L5.92 8.95003C5.99 8.93003 6.06 8.91003 6.11 8.87003C6.2 8.82003 6.26 8.74003 6.27 8.66003C6.38 8.66003 6.46 8.66003 6.52 8.66003C6.68 8.67003 6.72 8.68003 6.72 8.68003V8.69003Z" fill="#1E353C"/>
<path opacity="0.44" fill-rule="evenodd" clip-rule="evenodd" d="M6.27 8.64002C6.27 8.64002 6.27 8.65002 6.27 8.66002C6.27 8.75002 6.2 8.82002 6.11 8.88002C6.06 8.91002 5.99 8.94002 5.92 8.96002L6.04 11.04L5.7 12.22H5.68L5.32 11.08L5.55 8.97002C5.46 8.95002 5.38 8.92002 5.32 8.89002C5.23 8.83002 5.17 8.76002 5.16 8.68002C5.16 8.68002 5.16 8.67002 5.16 8.66002C5.16 8.48002 5.41 8.33002 5.72 8.33002C6.03 8.33002 6.28 8.48002 6.28 8.66002L6.27 8.64002Z" fill="#1E353C"/>
<path opacity="0.44" fill-rule="evenodd" clip-rule="evenodd" d="M5.68001 12.22L5.32001 11.08V11.07L5.68001 12.22Z" fill="#1E353C"/>
<path opacity="0.44" fill-rule="evenodd" clip-rule="evenodd" d="M5.68999 12.22V12.24L5.67999 12.22H5.68999Z" fill="#1E353C"/>
<path opacity="0.44" fill-rule="evenodd" clip-rule="evenodd" d="M6.04 11.08L5.69 12.22L6.04 11.03V11.08Z" fill="#1E353C"/>
<path fill-rule="evenodd" clip-rule="evenodd" d="M7.62 9.59L5.71 12.22L5.69 12.24V12.22L6.04 11.03L6.72 8.69L7.62 9.59Z" fill="#1E353C"/>
<path fill-rule="evenodd" clip-rule="evenodd" d="M5.69 12.25L5.66 12.22L3.8 9.60001L4.57 8.70001H4.58L5.32 11.07L5.68 12.22L5.69 12.24V12.25Z" fill="#1E353C"/>
<path d="M5.77001 12.22H5.60001V15.03H5.77001V12.22Z" fill="#1E353C"/>
</g>
<defs>
<clipPath id="clip0_22_112">
<rect width="27.61" height="15.02" fill="white"/>
</clipPath>
</defs>
</svg>
