<svg width="25" height="18" viewBox="0 0 25 18" fill="none" xmlns="http://www.w3.org/2000/svg">
<g clip-path="url(#clip0_22_49)">
<path d="M16.84 14.22H15.38V16.51H16.84V14.22Z" fill="#1E353C"/>
<path opacity="0.57" d="M21.4 16.56L16.11 15.92L10.82 16.56C10.59 16.59 10.41 16.76 10.41 16.96V17.58H11.36V17.31L14.8 16.95H17.39L20.86 17.31V17.58H21.81V16.96C21.81 16.76 21.64 16.59 21.4 16.56Z" fill="#1E353C"/>
<path opacity="0.57" d="M24.69 5.59003C24.69 5.59003 24.6 5.54003 24.55 5.55003C24.53 5.55003 15.18 5.55003 10.41 5.55003C10.44 5.67003 10.46 5.81003 10.46 5.97003L24.43 5.94003L24.4 14.11H13.67H7.83V13.02L7.84 11.3V10V9.75003C7.8 9.75003 7.76 9.75003 7.72 9.75003C7.72 9.85003 7.64 9.94003 7.53 10.01H7.47V15.03C7.47 15.03 7.49 15.13 7.53 15.16C7.56 15.19 7.61 15.21 7.65 15.21C7.65 15.21 7.66 15.21 7.67 15.21C7.67 15.21 8.83 15.21 10.53 15.21C10.76 15.21 11.01 15.21 11.26 15.21C12.06 15.21 12.96 15.21 13.89 15.21H15.38C15.86 15.21 16.35 15.21 16.84 15.21C20.8 15.21 24.54 15.21 24.56 15.21C24.61 15.21 24.66 15.2 24.7 15.16C24.74 15.12 24.76 15.08 24.76 15.03V5.73003C24.76 5.68003 24.74 5.63003 24.7 5.59003H24.69Z" fill="#1E353C"/>
<path opacity="0.21" d="M24.42 5.94L24.39 14.11H13.66H7.82001V13.02L7.83001 11.3V10V9.75C7.91001 9.75 7.97001 9.75 8.02001 9.75V8.82C8.02001 8.82 8.10001 8.79 8.15001 8.77C8.15001 8.77 8.24001 8.73 8.28001 8.71C8.32001 8.69 8.36001 8.67 8.41001 8.65C8.45001 8.63 8.49001 8.61 8.53001 8.58C8.57001 8.56 8.61001 8.53 8.65001 8.51C8.69001 8.49 8.72001 8.46 8.76001 8.43C8.76001 8.43 8.76001 8.43 8.77001 8.43C8.81001 8.4 8.84001 8.38 8.87001 8.35C8.87001 8.35 8.87001 8.35 8.88001 8.35C8.91001 8.32 8.94001 8.3 8.98001 8.27C8.98001 8.27 8.98001 8.27 8.99001 8.26C9.02001 8.23 9.05001 8.2 9.08001 8.18C9.08001 8.18 9.09001 8.17 9.10001 8.16C9.13001 8.13 9.16001 8.1 9.18001 8.08C9.18001 8.08 9.19001 8.07 9.20001 8.06C9.23001 8.03 9.25001 8 9.28001 7.97C9.28001 7.97 9.29001 7.95 9.30001 7.95C9.32001 7.92 9.35001 7.89 9.37001 7.86C9.37001 7.86 9.38001 7.84 9.39001 7.83C9.41001 7.8 9.43001 7.77 9.45001 7.74C9.45001 7.73 9.47001 7.72 9.47001 7.71C9.49001 7.68 9.51001 7.65 9.53001 7.62C9.53001 7.61 9.54001 7.59 9.55001 7.58C9.57001 7.55 9.59001 7.52 9.60001 7.49L9.62001 7.45C9.62001 7.45 9.65001 7.39 9.67001 7.37C9.67001 7.35 9.69001 7.34 9.69001 7.32C9.70001 7.29 9.72001 7.27 9.73001 7.24C9.73001 7.22 9.74001 7.2 9.75001 7.19C9.76001 7.16 9.77001 7.14 9.79001 7.11C9.79001 7.09 9.80001 7.07 9.81001 7.05C9.82001 7.02 9.83001 7 9.84001 6.97C9.84001 6.95 9.85001 6.93 9.86001 6.91C9.86001 6.88 9.88001 6.86 9.89001 6.83C9.89001 6.81 9.90001 6.78 9.91001 6.76C9.91001 6.75 9.91001 6.74 9.91001 6.73C9.96001 6.8 10.01 6.84 10.07 6.84C10.25 6.84 10.39 6.48 10.39 6.03L24.36 5.99L24.42 5.94Z" fill="#1E353C"/>
<path d="M17.15 10.06V12.99H17C17 12.99 16.93 13.02 16.93 13.06V13.24C16.93 13.24 16.96 13.31 17 13.31H23.41C23.41 13.31 23.48 13.28 23.48 13.24V13.06C23.48 13.06 23.45 12.99 23.41 12.99H23.26V7.01C23.26 7.01 23.23 6.94 23.19 6.94H20.74C20.74 6.94 20.67 6.97 20.67 7.01V9.93C20.67 9.93 20.64 10 20.6 10H17.21C17.21 10 17.14 10.03 17.14 10.07L17.15 10.06ZM22.45 7.38C22.45 7.38 22.48 7.31 22.52 7.31H22.8C22.8 7.31 22.87 7.34 22.87 7.38V7.66C22.87 7.66 22.84 7.73 22.8 7.73H22.52C22.52 7.73 22.45 7.7 22.45 7.66V7.38ZM22.45 8C22.45 8 22.48 7.93 22.52 7.93H22.8C22.8 7.93 22.87 7.96 22.87 8V8.28C22.87 8.28 22.84 8.35 22.8 8.35H22.52C22.52 8.35 22.45 8.32 22.45 8.28V8ZM22.45 8.63C22.45 8.63 22.48 8.56 22.52 8.56H22.8C22.8 8.56 22.87 8.59 22.87 8.63V8.91C22.87 8.91 22.84 8.98 22.8 8.98H22.52C22.52 8.98 22.45 8.95 22.45 8.91V8.63ZM22.45 9.25C22.45 9.25 22.48 9.18 22.52 9.18H22.8C22.8 9.18 22.87 9.21 22.87 9.25V9.53C22.87 9.53 22.84 9.6 22.8 9.6H22.52C22.52 9.6 22.45 9.57 22.45 9.53V9.25ZM22.45 9.87C22.45 9.87 22.48 9.8 22.52 9.8H22.8C22.8 9.8 22.87 9.83 22.87 9.87V10.15C22.87 10.15 22.84 10.22 22.8 10.22H22.52C22.52 10.22 22.45 10.19 22.45 10.15V9.87ZM22.45 10.49C22.45 10.49 22.48 10.42 22.52 10.42H22.8C22.8 10.42 22.87 10.45 22.87 10.49V10.77C22.87 10.77 22.84 10.84 22.8 10.84H22.52C22.52 10.84 22.45 10.81 22.45 10.77V10.49ZM22.45 11.11C22.45 11.11 22.48 11.04 22.52 11.04H22.8C22.8 11.04 22.87 11.07 22.87 11.11V11.39C22.87 11.39 22.84 11.46 22.8 11.46H22.52C22.52 11.46 22.45 11.43 22.45 11.39V11.11ZM22.45 11.73C22.45 11.73 22.48 11.66 22.52 11.66H22.8C22.8 11.66 22.87 11.69 22.87 11.73V12.01C22.87 12.01 22.84 12.08 22.8 12.08H22.52C22.52 12.08 22.45 12.05 22.45 12.01V11.73ZM22.45 12.35C22.45 12.35 22.48 12.28 22.52 12.28H22.8C22.8 12.28 22.87 12.31 22.87 12.35V12.63C22.87 12.63 22.84 12.7 22.8 12.7H22.52C22.52 12.7 22.45 12.67 22.45 12.63V12.35ZM21.78 7.38C21.78 7.38 21.81 7.31 21.85 7.31H22.13C22.13 7.31 22.2 7.34 22.2 7.38V7.66C22.2 7.66 22.17 7.73 22.13 7.73H21.85C21.85 7.73 21.78 7.7 21.78 7.66V7.38ZM21.78 8C21.78 8 21.81 7.93 21.85 7.93H22.13C22.13 7.93 22.2 7.96 22.2 8V8.28C22.2 8.28 22.17 8.35 22.13 8.35H21.85C21.85 8.35 21.78 8.32 21.78 8.28V8ZM21.78 8.63C21.78 8.63 21.81 8.56 21.85 8.56H22.13C22.13 8.56 22.2 8.59 22.2 8.63V8.91C22.2 8.91 22.17 8.98 22.13 8.98H21.85C21.85 8.98 21.78 8.95 21.78 8.91V8.63ZM21.78 9.25C21.78 9.25 21.81 9.18 21.85 9.18H22.13C22.13 9.18 22.2 9.21 22.2 9.25V9.53C22.2 9.53 22.17 9.6 22.13 9.6H21.85C21.85 9.6 21.78 9.57 21.78 9.53V9.25ZM21.78 9.87C21.78 9.87 21.81 9.8 21.85 9.8H22.13C22.13 9.8 22.2 9.83 22.2 9.87V10.15C22.2 10.15 22.17 10.22 22.13 10.22H21.85C21.85 10.22 21.78 10.19 21.78 10.15V9.87ZM21.78 10.49C21.78 10.49 21.81 10.42 21.85 10.42H22.13C22.13 10.42 22.2 10.45 22.2 10.49V10.77C22.2 10.77 22.17 10.84 22.13 10.84H21.85C21.85 10.84 21.78 10.81 21.78 10.77V10.49ZM21.78 11.11C21.78 11.11 21.81 11.04 21.85 11.04H22.13C22.13 11.04 22.2 11.07 22.2 11.11V11.39C22.2 11.39 22.17 11.46 22.13 11.46H21.85C21.85 11.46 21.78 11.43 21.78 11.39V11.11ZM21.78 11.73C21.78 11.73 21.81 11.66 21.85 11.66H22.13C22.13 11.66 22.2 11.69 22.2 11.73V12.01C22.2 12.01 22.17 12.08 22.13 12.08H21.85C21.85 12.08 21.78 12.05 21.78 12.01V11.73ZM21.78 12.35C21.78 12.35 21.81 12.28 21.85 12.28H22.13C22.13 12.28 22.2 12.31 22.2 12.35V12.63C22.2 12.63 22.17 12.7 22.13 12.7H21.85C21.85 12.7 21.78 12.67 21.78 12.63V12.35ZM21.1 7.38C21.1 7.38 21.13 7.31 21.17 7.31H21.45C21.45 7.31 21.52 7.34 21.52 7.38V7.66C21.52 7.66 21.49 7.73 21.45 7.73H21.17C21.17 7.73 21.1 7.7 21.1 7.66V7.38ZM21.1 8C21.1 8 21.13 7.93 21.17 7.93H21.45C21.45 7.93 21.52 7.96 21.52 8V8.28C21.52 8.28 21.49 8.35 21.45 8.35H21.17C21.17 8.35 21.1 8.32 21.1 8.28V8ZM21.1 8.63C21.1 8.63 21.13 8.56 21.17 8.56H21.45C21.45 8.56 21.52 8.59 21.52 8.63V8.91C21.52 8.91 21.49 8.98 21.45 8.98H21.17C21.17 8.98 21.1 8.95 21.1 8.91V8.63ZM21.1 9.25C21.1 9.25 21.13 9.18 21.17 9.18H21.45C21.45 9.18 21.52 9.21 21.52 9.25V9.53C21.52 9.53 21.49 9.6 21.45 9.6H21.17C21.17 9.6 21.1 9.57 21.1 9.53V9.25ZM21.1 9.87C21.1 9.87 21.13 9.8 21.17 9.8H21.45C21.45 9.8 21.52 9.83 21.52 9.87V10.15C21.52 10.15 21.49 10.22 21.45 10.22H21.17C21.17 10.22 21.1 10.19 21.1 10.15V9.87ZM21.1 10.49C21.1 10.49 21.13 10.42 21.17 10.42H21.45C21.45 10.42 21.52 10.45 21.52 10.49V10.77C21.52 10.77 21.49 10.84 21.45 10.84H21.17C21.17 10.84 21.1 10.81 21.1 10.77V10.49ZM21.1 11.11C21.1 11.11 21.13 11.04 21.17 11.04H21.45C21.45 11.04 21.52 11.07 21.52 11.11V11.39C21.52 11.39 21.49 11.46 21.45 11.46H21.17C21.17 11.46 21.1 11.43 21.1 11.39V11.11ZM21.1 11.73C21.1 11.73 21.13 11.66 21.17 11.66H21.45C21.45 11.66 21.52 11.69 21.52 11.73V12.01C21.52 12.01 21.49 12.08 21.45 12.08H21.17C21.17 12.08 21.1 12.05 21.1 12.01V11.73ZM21.1 12.35C21.1 12.35 21.13 12.28 21.17 12.28H21.45C21.45 12.28 21.52 12.31 21.52 12.35V12.63C21.52 12.63 21.49 12.7 21.45 12.7H21.17C21.17 12.7 21.1 12.67 21.1 12.63V12.35ZM20.14 12.99H18.04V12.6C18.04 12.6 18.07 12.53 18.11 12.53H20.07C20.07 12.53 20.14 12.56 20.14 12.6V12.99ZM17.53 10.48C17.53 10.48 17.56 10.41 17.6 10.41H20.47C20.47 10.41 20.54 10.44 20.54 10.48V10.76C20.54 10.76 20.51 10.83 20.47 10.83H17.6C17.6 10.83 17.53 10.8 17.53 10.76V10.48ZM17.53 11.1C17.53 11.1 17.56 11.03 17.6 11.03H20.47C20.47 11.03 20.54 11.06 20.54 11.1V11.38C20.54 11.38 20.51 11.45 20.47 11.45H17.6C17.6 11.45 17.53 11.42 17.53 11.38V11.1ZM17.53 11.73C17.53 11.73 17.56 11.66 17.6 11.66H20.47C20.47 11.66 20.54 11.69 20.54 11.73V12.01C20.54 12.01 20.51 12.08 20.47 12.08H17.6C17.6 12.08 17.53 12.05 17.53 12.01V11.73Z" fill="#1E353C"/>
<path d="M14.91 12.5C14.91 12.72 15.09 12.9 15.31 12.9C15.42 12.9 15.52 12.85 15.59 12.78C15.66 12.71 15.71 12.61 15.71 12.5V10.08H14.9V12.5H14.91Z" fill="#1E353C"/>
<path d="M15.11 8.43998L15.1 10.13H15.5L15.51 8.43998L15.52 8.41998H15.11V8.43998Z" fill="#1E353C"/>
<path d="M15.51 7.20001H15.11L14.92 7.83001L15.11 8.42001H15.52L15.71 7.83001L15.51 7.20001Z" fill="#1E353C"/>
<path d="M14.39 11.5L14.35 11.46C14.28 11.39 14.19 11.33 14.1 11.29V8.82C14.19 8.78 14.27 8.72 14.35 8.65L14.39 8.61C14.68 8.28 14.67 7.77 14.35 7.45C14.26 7.36 14.15 7.29 14.03 7.25V8.05C14.03 8.05 14.02 8.13 14 8.17C13.96 8.27 13.86 8.34 13.74 8.34C13.66 8.34 13.59 8.31 13.54 8.26C13.52 8.24 13.5 8.21 13.48 8.18C13.46 8.14 13.45 8.1 13.45 8.06V7.26C13.33 7.3 13.22 7.37 13.13 7.46C12.81 7.78 12.8 8.29 13.09 8.62L13.13 8.66C13.2 8.73 13.29 8.79 13.38 8.83V11.3C13.29 11.34 13.21 11.4 13.13 11.47L13.09 11.52C12.8 11.85 12.81 12.36 13.13 12.68C13.22 12.77 13.33 12.84 13.45 12.88V12.08C13.45 12.08 13.46 12 13.48 11.96C13.52 11.86 13.62 11.79 13.74 11.79C13.82 11.79 13.89 11.82 13.94 11.87C13.96 11.89 13.98 11.92 14 11.95C14.02 11.99 14.03 12.03 14.03 12.07V12.87C14.15 12.83 14.26 12.76 14.35 12.67C14.67 12.35 14.68 11.84 14.39 11.51V11.5Z" fill="#1E353C"/>
<path opacity="0.21" fill-rule="evenodd" clip-rule="evenodd" d="M6.54999 9.99999H5.89999V9.75999C6.00999 9.75999 6.15999 9.73999 6.35999 9.73999C6.35999 9.83999 6.43999 9.92999 6.54999 9.99999Z" fill="#1E353C"/>
<path opacity="0.21" fill-rule="evenodd" clip-rule="evenodd" d="M8.04 9.73998V9.98998H7.53C7.64 9.91998 7.71 9.82998 7.72 9.72998C7.76 9.72998 7.8 9.72998 7.84 9.72998C7.92 9.72998 7.98 9.72998 8.03 9.72998L8.04 9.73998Z" fill="#1E353C"/>
<path opacity="0.21" fill-rule="evenodd" clip-rule="evenodd" d="M10.45 5.96999C10.45 6.42999 10.31 6.79999 10.13 6.79999C10.07 6.79999 10.02 6.75999 9.97 6.68999C9.97 6.69999 9.97 6.70999 9.97 6.71999C9.97 6.73999 9.96 6.76999 9.95 6.78999C9.95 6.81999 9.93 6.83999 9.92 6.86999C9.92 6.88999 9.91 6.90999 9.9 6.92999C9.9 6.95999 9.88 6.97999 9.87 7.00999C9.87 7.02999 9.86 7.04999 9.85 7.06999C9.84 7.09999 9.83 7.11999 9.81 7.14999C9.81 7.16999 9.8 7.18999 9.79 7.19999C9.78 7.22999 9.76 7.25999 9.75 7.27999C9.75 7.29999 9.73 7.30999 9.73 7.32999C9.71 7.35999 9.7 7.38999 9.68 7.40999L9.66 7.44999C9.66 7.44999 9.62 7.50999 9.61 7.53999C9.61 7.54999 9.6 7.56999 9.59 7.57999C9.57 7.60999 9.55 7.63999 9.53 7.66999C9.53 7.67999 9.52 7.68999 9.51 7.69999C9.49 7.72999 9.47 7.75999 9.45 7.78999C9.45 7.79999 9.44 7.80999 9.43 7.81999C9.41 7.84999 9.38 7.87999 9.36 7.90999C9.36 7.90999 9.35 7.92999 9.34 7.92999C9.32 7.95999 9.29 7.98999 9.26 8.01999C9.26 8.01999 9.25 8.02999 9.24 8.03999C9.21 8.06999 9.18 8.09999 9.16 8.11999C9.16 8.11999 9.15 8.12999 9.14 8.13999C9.11 8.16999 9.08 8.19999 9.05 8.21999C9.05 8.21999 9.04 8.21999 9.04 8.22999C9.01 8.25999 8.98 8.27999 8.94 8.30999C8.94 8.30999 8.94 8.30999 8.93 8.30999C8.9 8.33999 8.86 8.35999 8.83 8.38999C8.83 8.38999 8.83 8.38999 8.82 8.38999C8.78 8.41999 8.75 8.43999 8.71 8.46999C8.67 8.48999 8.63 8.51999 8.59 8.53999C8.55 8.55999 8.51 8.58999 8.47 8.60999C8.43 8.62999 8.39 8.64999 8.34 8.66999C8.3 8.68999 8.25 8.70999 8.21 8.72999C8.21 8.72999 8.13 8.75999 8.08 8.77999V9.70999C8.03 9.70999 7.97 9.70999 7.89 9.70999C7.85 9.70999 7.81 9.70999 7.77 9.70999C7.77 9.70999 7.77 9.69999 7.77 9.68999C7.77 9.55999 7.67 9.44999 7.52 9.36999C7.4 9.30999 7.25 9.27999 7.09 9.27999C6.71 9.27999 6.4 9.45999 6.4 9.68999C6.4 9.68999 6.4 9.69999 6.4 9.70999C6.21 9.70999 6.06 9.71999 5.94 9.72999V8.70999C5.11 8.34999 4.47 7.61999 4.21 6.71999C4.18 6.74999 4.14 6.76999 4.1 6.76999C3.92 6.76999 3.78 6.40999 3.78 5.95999C3.78 5.50999 3.92 5.14999 4.1 5.14999C4.12 5.14999 4.14 5.14999 4.16 5.16999C4.12 5.34999 4.09 5.53999 4.09 5.72999C4.28 5.50999 4.4 5.20999 4.58 4.98999C4.74 4.79999 4.93 4.63999 5.13 4.48999H6.99C7.05 4.52999 7.12 4.56999 7.19 4.60999C7.28 4.65999 7.37 4.69999 7.46 4.73999C7.46 4.73999 7.48 4.73999 7.49 4.74999C7.52 4.75999 7.55 4.76999 7.57 4.77999C7.57 4.77999 7.58 4.77999 7.59 4.77999C7.64 4.79999 7.69 4.80999 7.74 4.81999C7.76 4.81999 7.78 4.81999 7.8 4.82999C7.82 4.82999 7.84 4.82999 7.86 4.83999C7.9 4.83999 7.94 4.84999 7.97 4.84999C7.99 4.84999 8 4.84999 8.02 4.84999C8.05 4.84999 8.08 4.84999 8.12 4.84999H8.16C8.16 4.84999 8.24 4.84999 8.29 4.83999C8.3 4.83999 8.31 4.83999 8.33 4.83999C8.37 4.83999 8.41 4.82999 8.45 4.81999C8.45 4.81999 8.46 4.81999 8.47 4.81999C8.51 4.80999 8.56 4.78999 8.6 4.76999C8.61 4.76999 8.62 4.76999 8.63 4.75999C8.67 4.73999 8.72 4.71999 8.76 4.69999C9.05 4.51999 9.43 4.63999 9.6 4.91999C9.68 5.04999 9.88 5.15999 10.08 5.26999C10.08 5.24999 10.08 5.21999 10.07 5.19999C10.11 5.15999 10.15 5.13999 10.19 5.13999C10.3 5.13999 10.4 5.28999 10.46 5.51999C10.49 5.63999 10.51 5.77999 10.51 5.93999L10.45 5.96999Z" fill="#1E353C"/>
<path opacity="0.21" fill-rule="evenodd" clip-rule="evenodd" d="M4.37 4.51001H5.1C4.91 4.67001 4.72 4.82001 4.55 5.01001C4.36 5.22001 4.25 5.53001 4.06 5.75001C4.06 5.56001 4.09 5.37001 4.13 5.19001C4.13 5.17001 4.14 5.14001 4.15 5.12001C4.15 5.09001 4.16 5.06001 4.17 5.03001C4.18 4.99001 4.19 4.95001 4.21 4.91001C4.21 4.88001 4.23 4.86001 4.24 4.83001C4.25 4.79001 4.27 4.75001 4.28 4.72001C4.29 4.68001 4.31 4.64001 4.33 4.61001C4.34 4.58001 4.36 4.55001 4.37 4.52001V4.51001Z" fill="#1E353C"/>
<path opacity="0.21" fill-rule="evenodd" clip-rule="evenodd" d="M5.42001 3.29004C5.42001 3.29004 5.39001 3.31004 5.38001 3.32004C5.37001 3.32004 5.36001 3.33004 5.35001 3.34004C5.35001 3.34004 5.37001 3.33004 5.38001 3.32004C5.39001 3.32004 5.41001 3.30004 5.42001 3.29004Z" fill="#1E353C"/>
<path opacity="0.21" fill-rule="evenodd" clip-rule="evenodd" d="M9.47001 4.02001C9.47001 4.02001 9.47001 4.01001 9.46001 4.01001C9.46001 4.01001 9.46001 4.01001 9.46001 4.02001H9.47001Z" fill="#1E353C"/>
<path opacity="0.21" fill-rule="evenodd" clip-rule="evenodd" d="M9.52 4.08002C9.52 4.08002 9.49 4.04002 9.47 4.02002C9.47 4.03002 9.49 4.04002 9.49 4.05002C9.49 4.06002 9.51 4.07002 9.51 4.08002H9.52Z" fill="#1E353C"/>
<path opacity="0.21" fill-rule="evenodd" clip-rule="evenodd" d="M9.56999 4.15999C9.56999 4.15999 9.54999 4.12999 9.53999 4.10999C9.54999 4.12999 9.56999 4.14999 9.57999 4.16999C9.57999 4.17999 9.58999 4.19999 9.59999 4.20999C9.59999 4.20999 9.57999 4.16999 9.56999 4.15999Z" fill="#1E353C"/>
<path opacity="0.21" fill-rule="evenodd" clip-rule="evenodd" d="M10.03 5.30004C9.83 5.20004 9.63 5.09004 9.55 4.95004C9.37 4.67004 9 4.55004 8.71 4.73004C8.67 4.76004 8.63 4.78004 8.58 4.79004C8.58 4.79004 8.56 4.79004 8.55 4.80004C8.51 4.82004 8.47 4.83004 8.42 4.85004C8.42 4.85004 8.41 4.85004 8.4 4.85004C8.36 4.86004 8.32 4.87004 8.28 4.87004C8.27 4.87004 8.26 4.87004 8.24 4.87004C8.2 4.87004 8.16 4.87004 8.11 4.88004H8.07C8.07 4.88004 8.01 4.88004 7.97 4.88004C7.95 4.88004 7.94 4.88004 7.92 4.88004C7.88 4.88004 7.84 4.88004 7.81 4.87004C7.79 4.87004 7.77 4.87004 7.75 4.86004C7.73 4.86004 7.71 4.86004 7.69 4.85004C7.64 4.84004 7.59 4.82004 7.54 4.81004C7.54 4.81004 7.54 4.81004 7.52 4.81004C7.49 4.81004 7.46 4.79004 7.44 4.78004C7.44 4.78004 7.42 4.78004 7.41 4.77004C7.32 4.73004 7.23 4.69004 7.14 4.64004C7.07 4.60004 7.01 4.56004 6.94 4.52004H9.75C9.75 4.52004 9.71 4.45004 9.69 4.41004C9.68 4.39004 9.67 4.37004 9.66 4.35004C9.68 4.38004 9.69 4.41004 9.71 4.44004L9.73 4.49004C9.73 4.49004 9.74 4.52004 9.75 4.53004C9.75 4.54004 9.76 4.55004 9.76 4.56004C9.76 4.58004 9.77 4.60004 9.78 4.61004C9.79 4.64004 9.8 4.67004 9.82 4.69004C9.82 4.71004 9.83 4.73004 9.84 4.75004C9.84 4.76004 9.84 4.77004 9.85 4.79004C9.85 4.79004 9.85 4.80004 9.85 4.81004C9.85 4.81004 9.85 4.83004 9.85 4.84004C9.85 4.86004 9.86 4.88004 9.87 4.90004C9.87 4.93004 9.89 4.95004 9.9 4.98004C9.9 5.00004 9.9 5.02004 9.91 5.03004C9.91 5.03004 9.91 5.04004 9.91 5.05004C9.93 5.11004 9.94 5.18004 9.96 5.24004C9.96 5.26004 9.96 5.28004 9.97 5.31004L10.03 5.30004Z" fill="#1E353C"/>
<path fill-rule="evenodd" clip-rule="evenodd" d="M14.02 16.83V17.57H11.47V16.83C11.47 16.71 11.47 16.59 11.47 16.48C11.45 16 11.37 15.57 11.26 15.19C11.14 14.76 10.99 14.4 10.83 14.1C10.73 13.9 10.62 13.73 10.52 13.58V17.57H3.47V13.43C3.12 13.98 2.55 15.07 2.55 16.82V17.56H0V16.82C0 14.16 0.91 11.48 2.34 10.65C3 10.22 4.13 9.88998 5.63 9.76998C5.72 9.76998 5.8 9.75998 5.89 9.74998C6.04 9.74998 6.19 9.72998 6.35 9.72998C6.35 9.82998 6.43 9.91998 6.54 9.98998C6.62 10.04 6.72 10.07 6.83 10.09L6.55 12.69L6.99 14.11H7.01L7.44 12.65L7.29 10.08C7.35 10.07 7.41 10.04 7.47 10.02V9.98998H7.53C7.64 9.91998 7.71 9.82998 7.72 9.72998C7.76 9.72998 7.8 9.72998 7.84 9.72998C7.9 9.72998 7.97 9.72998 8.03 9.73998C8.11 9.73998 8.2 9.74998 8.28 9.75998C9.8 9.87998 10.89 10.21 11.56 10.66C12.07 10.96 12.52 11.49 12.9 12.16C12.99 12.32 13.08 12.49 13.16 12.67C13.36 13.11 13.53 13.59 13.66 14.09C13.75 14.44 13.83 14.8 13.89 15.18C13.94 15.5 13.98 15.83 14 16.16C14.01 16.38 14.02 16.6 14.02 16.82V16.83Z" fill="#1E353C"/>
<path fill-rule="evenodd" clip-rule="evenodd" d="M4.37 4.51001H5.1C4.91 4.67001 4.72 4.82001 4.55 5.01001C4.36 5.22001 4.25 5.53001 4.06 5.75001C4.06 5.56001 4.09 5.37001 4.13 5.19001C4.13 5.17001 4.14 5.14001 4.15 5.12001C4.15 5.09001 4.16 5.06001 4.17 5.03001C4.18 4.99001 4.19 4.95001 4.21 4.91001C4.21 4.88001 4.23 4.86001 4.24 4.83001C4.25 4.79001 4.27 4.75001 4.28 4.72001C4.29 4.68001 4.31 4.64001 4.33 4.61001C4.34 4.58001 4.36 4.55001 4.37 4.52001V4.51001Z" fill="#1E353C"/>
<path fill-rule="evenodd" clip-rule="evenodd" d="M10.03 5.30002C9.83 5.20002 9.63 5.09002 9.55 4.95002C9.37 4.67002 9 4.55002 8.71 4.73002C8.67 4.76002 8.63 4.78002 8.58 4.79002C8.58 4.79002 8.56 4.79002 8.55 4.80002C8.51 4.82002 8.47 4.83002 8.42 4.85002C8.42 4.85002 8.41 4.85002 8.4 4.85002C8.36 4.86002 8.32 4.87002 8.28 4.87002C8.27 4.87002 8.26 4.87002 8.24 4.87002C8.2 4.87002 8.16 4.87002 8.11 4.88002H8.07C8.07 4.88002 8.01 4.88002 7.97 4.88002C7.95 4.88002 7.94 4.88002 7.92 4.88002C7.88 4.88002 7.84 4.88002 7.81 4.87002C7.79 4.87002 7.77 4.87002 7.75 4.86002C7.73 4.86002 7.71 4.86002 7.69 4.85002C7.64 4.84002 7.59 4.82002 7.54 4.81002C7.54 4.81002 7.54 4.81002 7.52 4.81002C7.49 4.81002 7.46 4.79002 7.44 4.78002C7.44 4.78002 7.42 4.78002 7.41 4.77002C7.32 4.73002 7.23 4.69002 7.14 4.64002C7.07 4.60002 7.01 4.56002 6.94 4.52002H9.75C9.75 4.52002 9.76 4.54002 9.77 4.55002C9.79 4.59002 9.8 4.63002 9.82 4.66002C9.83 4.69002 9.85 4.72002 9.86 4.75002C9.86 4.76002 9.86 4.77002 9.87 4.79002C9.87 4.79002 9.87 4.80002 9.87 4.81002C9.88 4.85002 9.9 4.90002 9.91 4.94002C9.91 4.97002 9.93 5.00002 9.94 5.03002C9.94 5.03002 9.94 5.04002 9.94 5.05002C9.96 5.11002 9.97 5.18002 9.99 5.24002C9.99 5.26002 9.99 5.28002 10 5.31002L10.03 5.30002Z" fill="#1E353C"/>
<path opacity="0.44" fill-rule="evenodd" clip-rule="evenodd" d="M9.5 4.05002C9.5 4.05002 9.52 4.07002 9.52 4.08002C9.51 4.06002 9.49 4.04002 9.47 4.02002C9.47 4.03002 9.49 4.04002 9.49 4.05002H9.5Z" fill="#1E353C"/>
<path opacity="0.44" fill-rule="evenodd" clip-rule="evenodd" d="M9.60001 4.20004C9.60001 4.20004 9.58001 4.16004 9.57001 4.15004C9.56001 4.13004 9.55001 4.12004 9.54001 4.10004C9.55001 4.12004 9.57001 4.14004 9.58001 4.16004C9.58001 4.17004 9.59001 4.19004 9.60001 4.20004Z" fill="#1E353C"/>
<path opacity="0.44" fill-rule="evenodd" clip-rule="evenodd" d="M10.3 4.00001H3.86C3.95 3.72001 4.04 3.39001 4.04 3.26001C4.04 2.38001 4.53 1.61001 5.29 1.13001V3.03001C5.29 3.14001 5.33 3.24001 5.39 3.32001C5.39 3.32001 5.37 3.33001 5.36 3.34001C5.37 3.34001 5.38 3.33001 5.39 3.32001C5.4 3.34001 5.42 3.35001 5.43 3.37001C5.52 3.46001 5.64 3.51001 5.77 3.51001C6.03 3.51001 6.25 3.30001 6.25 3.03001V0.91001C6.25 0.85001 6.24 0.79001 6.22 0.74001C6.24 0.74001 6.26 0.74001 6.27 0.73001C6.31 0.33001 6.64 0.0100098 7.05 0.0100098C7.46 0.0100098 7.79 0.32001 7.83 0.71001C7.85 0.71001 7.87 0.71001 7.89 0.72001C7.86 0.78001 7.85 0.85001 7.85 0.92001V3.04001C7.85 3.17001 7.9 3.29001 7.99 3.38001C8.08 3.47001 8.2 3.52001 8.33 3.52001C8.5 3.52001 8.64 3.43001 8.73 3.31001C8.78 3.23001 8.81 3.15001 8.81 3.05001V1.10001C9.62 1.57001 10.15 2.38001 10.15 3.29001C10.15 3.44001 10.24 3.80001 10.31 4.03001L10.3 4.00001Z" fill="#1E353C"/>
<path opacity="0.44" fill-rule="evenodd" clip-rule="evenodd" d="M5.42001 3.29004C5.42001 3.29004 5.39001 3.31004 5.38001 3.32004C5.37001 3.32004 5.36001 3.33004 5.35001 3.34004C5.35001 3.34004 5.37001 3.33004 5.38001 3.32004C5.39001 3.32004 5.41001 3.30004 5.42001 3.29004Z" fill="#1E353C"/>
<path opacity="0.44" fill-rule="evenodd" clip-rule="evenodd" d="M9.47001 4.02001C9.47001 4.02001 9.47001 4.01001 9.46001 4.01001C9.46001 4.01001 9.46001 4.01001 9.46001 4.02001H9.47001Z" fill="#1E353C"/>
<g opacity="0.57">
<path fill-rule="evenodd" clip-rule="evenodd" d="M6.24 0.910051V3.03005C6.24 3.29005 6.03 3.51005 5.76 3.51005C5.63 3.51005 5.51 3.46005 5.42 3.37005C5.41 3.36005 5.39 3.34005 5.38 3.32005C5.39 3.31005 5.41 3.30005 5.42 3.29005C5.41 3.29005 5.39 3.31005 5.38 3.32005C5.32 3.24005 5.28 3.14005 5.28 3.03005V1.13005C5.28 1.13005 5.34 1.09005 5.37 1.07005C5.41 1.05005 5.45 1.03005 5.49 1.00005C5.53 0.980051 5.58 0.960051 5.62 0.940051C5.66 0.920051 5.7 0.910051 5.73 0.890051C5.79 0.860051 5.85 0.840051 5.91 0.820051C5.95 0.810051 5.98 0.790051 6.02 0.780051C6.06 0.770051 6.1 0.750051 6.15 0.740051C6.15 0.740051 6.17 0.740051 6.18 0.740051H6.19C6.21 0.790051 6.22 0.850051 6.22 0.910051H6.24Z" fill="#1E353C"/>
<path fill-rule="evenodd" clip-rule="evenodd" d="M5.28999 1.13001C5.28999 1.13001 5.34999 1.09001 5.37999 1.07001C5.34999 1.09001 5.31999 1.11001 5.28999 1.13001Z" fill="#1E353C"/>
<path fill-rule="evenodd" clip-rule="evenodd" d="M5.38 3.31003C5.38 3.31003 5.41 3.29003 5.42 3.28003C5.41 3.28003 5.39 3.30003 5.38 3.31003Z" fill="#1E353C"/>
<path fill-rule="evenodd" clip-rule="evenodd" d="M8.8 1.07003V3.02003C8.8 3.12003 8.77 3.21003 8.72 3.28003C8.63 3.41003 8.49 3.49003 8.32 3.49003C8.19 3.49003 8.07 3.44003 7.98 3.35003C7.89 3.26003 7.84 3.14003 7.84 3.01003V2.87003C7.84 2.87003 7.85 2.87003 7.86 2.87003C7.86 2.87003 7.85 2.87003 7.84 2.87003V0.910032C7.84 0.840032 7.85 0.770032 7.88 0.720032C7.88 0.720032 7.88 0.720032 7.89 0.720032H7.9C7.94 0.720032 7.97 0.740032 8.01 0.750032C8.04 0.750032 8.06 0.760032 8.09 0.770032C8.13 0.780032 8.16 0.790032 8.2 0.800032C8.22 0.800032 8.25 0.810032 8.27 0.820032C8.45 0.890032 8.63 0.970032 8.79 1.06003L8.8 1.07003Z" fill="#1E353C"/>
</g>
<path opacity="0.57" fill-rule="evenodd" clip-rule="evenodd" d="M10.3 4H9.47C9.47 4 9.47 4 9.47 4.01C9.47 4.02 9.49 4.03 9.49 4.04C9.49 4.05 9.51 4.06 9.51 4.07C9.5 4.05 9.48 4.03 9.46 4.01C9.46 4.01 9.46 4 9.45 4H3.84C3.7 4 3.59 4.11 3.59 4.25C3.59 4.39 3.7 4.51 3.84 4.51H9.77C9.77 4.51 9.73 4.44 9.71 4.4C9.7 4.38 9.69 4.36 9.68 4.34C9.7 4.37 9.71 4.4 9.73 4.43L9.75 4.48C9.75 4.48 9.76 4.51 9.77 4.52H10.29C10.43 4.52 10.54 4.41 10.54 4.26C10.54 4.11 10.43 4.01 10.29 4.01L10.3 4ZM9.61 4.21C9.61 4.21 9.59 4.17 9.58 4.16C9.57 4.14 9.56 4.13 9.55 4.11C9.56 4.13 9.58 4.15 9.59 4.17C9.59 4.18 9.6 4.2 9.61 4.21Z" fill="#1E353C"/>
<path opacity="0.57" fill-rule="evenodd" clip-rule="evenodd" d="M9.46999 4.02001C9.46999 4.02001 9.46999 4.01001 9.45999 4.01001C9.45999 4.01001 9.45999 4.01001 9.45999 4.02001H9.46999Z" fill="#1E353C"/>
<path opacity="0.57" fill-rule="evenodd" clip-rule="evenodd" d="M9.5 4.05002C9.5 4.05002 9.52 4.07002 9.52 4.08002C9.51 4.06002 9.49 4.04002 9.47 4.02002C9.47 4.03002 9.49 4.04002 9.49 4.05002H9.5Z" fill="#1E353C"/>
<path opacity="0.57" fill-rule="evenodd" clip-rule="evenodd" d="M9.59999 4.20004C9.59999 4.20004 9.57999 4.16004 9.56999 4.15004C9.55999 4.13004 9.54999 4.12004 9.53999 4.10004C9.54999 4.12004 9.56999 4.14004 9.57999 4.16004C9.57999 4.17004 9.58999 4.19004 9.59999 4.20004Z" fill="#1E353C"/>
<path opacity="0.57" fill-rule="evenodd" clip-rule="evenodd" d="M9.76999 4.51003C9.76999 4.51003 9.72999 4.44003 9.70999 4.40003C9.69999 4.38003 9.68999 4.36003 9.67999 4.34003C9.69999 4.37003 9.70999 4.40003 9.72999 4.43003L9.74999 4.48003C9.74999 4.48003 9.75999 4.51003 9.76999 4.52003V4.51003Z" fill="#1E353C"/>
<path opacity="0.21" fill-rule="evenodd" clip-rule="evenodd" d="M7 14.12L6.56 12.71L5.64 9.77999C5.64 9.77999 5.74 9.76999 5.9 9.75999C6.01 9.75999 6.16 9.73999 6.36 9.73999C6.36 9.83999 6.44 9.92999 6.55 9.99999C6.63 10.05 6.73 10.08 6.84 10.1L6.56 12.7L7 14.12Z" fill="#1E353C"/>
<path opacity="0.21" fill-rule="evenodd" clip-rule="evenodd" d="M7.02 14.12L7.01 14.15L7 14.12H7.02Z" fill="#1E353C"/>
<path opacity="0.21" fill-rule="evenodd" clip-rule="evenodd" d="M8.27999 9.76999L7.83999 11.3L7.46999 12.56L7.43999 12.66L7.28999 10.09C7.34999 10.08 7.40999 10.05 7.46999 10.03V9.99999H7.52999C7.63999 9.92999 7.70999 9.83999 7.71999 9.73999C7.75999 9.73999 7.79999 9.73999 7.83999 9.73999C7.91999 9.73999 7.97999 9.73999 8.02999 9.73999C8.21999 9.74999 8.27999 9.76999 8.27999 9.76999Z" fill="#1E353C"/>
<path opacity="0.57" fill-rule="evenodd" clip-rule="evenodd" d="M7.53 10C7.53 10 7.49 10.02 7.47 10.03V10H7.53Z" fill="#1E353C"/>
<path opacity="0.57" fill-rule="evenodd" clip-rule="evenodd" d="M7.73 9.70999C7.73 9.70999 7.73 9.71999 7.73 9.72999C7.73 9.82999 7.65 9.91999 7.54 9.98999H7.48V10.02C7.43 10.05 7.37 10.07 7.3 10.08L7.45 12.65L7.02 14.11H7L6.56 12.69L6.84 10.09C6.73 10.07 6.63 10.03 6.55 9.98999C6.44 9.91999 6.36 9.82999 6.36 9.72999C6.36 9.72999 6.36 9.71999 6.36 9.70999C6.36 9.47999 6.67 9.29999 7.05 9.29999C7.21 9.29999 7.36 9.32999 7.48 9.38999C7.63 9.45999 7.73 9.57999 7.73 9.70999Z" fill="#1E353C"/>
<path opacity="0.57" fill-rule="evenodd" clip-rule="evenodd" d="M7 14.12L6.56 12.71V12.7L7 14.12Z" fill="#1E353C"/>
<path opacity="0.57" fill-rule="evenodd" clip-rule="evenodd" d="M7.02 14.12L7.01 14.15L7 14.12H7.02Z" fill="#1E353C"/>
<path opacity="0.57" fill-rule="evenodd" clip-rule="evenodd" d="M7.45 12.72L7.02 14.12L7.44 12.66L7.45 12.72Z" fill="#1E353C"/>
<path fill-rule="evenodd" clip-rule="evenodd" d="M9.38999 10.88L7.82999 13.02L7.46999 13.51L7.02999 14.12L7.00999 14.15L7.01999 14.12L7.43999 12.66L7.46999 12.55L7.83999 11.3V11.29L8.27999 9.77002H8.28999L9.38999 10.88Z" fill="#1E353C"/>
<path fill-rule="evenodd" clip-rule="evenodd" d="M7.01 14.16L6.98 14.12L4.69 10.89L5.63 9.78003H5.64L6.56 12.7L7 14.12L7.01 14.15V14.16Z" fill="#1E353C"/>
<path d="M7.10999 14.12H6.89999V17.58H7.10999V14.12Z" fill="#1E353C"/>
</g>
<defs>
<clipPath id="clip0_22_49">
<rect width="24.75" height="17.58" fill="white"/>
</clipPath>
</defs>
</svg>
