<svg width="50" height="73" viewBox="0 0 50 73" fill="none" xmlns="http://www.w3.org/2000/svg">
<path d="M49.9501 8.10001V23.88H35.3V8.10001C35.3 4.05001 38.5801 0.769989 42.6301 0.769989C46.6801 0.769989 49.9601 4.05001 49.9601 8.10001H49.9501Z" fill="#1E353C"/>
<path d="M49.9501 26.13H35.3V46.78H49.9501V26.13Z" fill="#1E353C"/>
<path d="M35.3 49.03H49.9501V64.81C49.9501 68.86 46.6701 72.14 42.6201 72.14C38.5701 72.14 35.29 68.86 35.29 64.81V49.03H35.3Z" fill="#1E353C"/>
<path d="M38.71 64.77C38.57 64.77 38.46 64.72 38.38 64.63C38.3 64.54 38.26 64.4 38.26 64.22C38.26 64.04 38.3 63.91 38.38 63.81C38.46 63.71 38.57 63.66 38.71 63.66C38.77 63.66 38.83 63.66 38.89 63.68C38.94 63.7 39 63.72 39.05 63.74L39.14 63.54C39.01 63.48 38.87 63.44 38.72 63.44C38.57 63.44 38.45 63.47 38.35 63.53C38.25 63.59 38.16 63.68 38.11 63.79C38.05 63.91 38.02 64.04 38.02 64.2C38.02 64.44 38.08 64.63 38.19 64.76C38.31 64.89 38.47 64.95 38.69 64.95C38.84 64.95 38.97 64.93 39.09 64.89V64.68C39.03 64.7 38.96 64.72 38.91 64.73C38.85 64.74 38.79 64.75 38.73 64.75L38.71 64.77Z" fill="white"/>
<path d="M39.9999 63.48H39.7399L39.1899 64.95H39.4299L39.58 64.54H40.14L40.2899 64.95H40.5399L39.9899 63.48H39.9999ZM39.6599 64.33L39.7999 63.94C39.8299 63.84 39.8599 63.75 39.8799 63.67C39.8799 63.7 39.8999 63.74 39.9199 63.8C39.9399 63.86 39.95 63.9 39.96 63.93L40.0999 64.33H39.6699H39.6599Z" fill="white"/>
<path d="M41.67 63.48V64.41C41.67 64.65 41.56 64.77 41.33 64.77C41.21 64.77 41.13 64.74 41.07 64.68C41.02 64.62 40.99 64.53 40.99 64.41V63.48H40.75V64.43C40.75 64.6 40.8 64.73 40.9 64.83C41 64.93 41.14 64.97 41.32 64.97C41.44 64.97 41.55 64.95 41.64 64.91C41.73 64.87 41.79 64.8 41.84 64.72C41.89 64.64 41.91 64.54 41.91 64.43V63.48H41.67Z" fill="white"/>
<path d="M42.11 63.48V63.68H42.55V64.94H42.79V63.68H43.23V63.48H42.11Z" fill="white"/>
<path d="M43.47 63.48V64.95H43.71V63.48H43.47Z" fill="white"/>
<path d="M45.22 63.65C45.1 63.52 44.93 63.45 44.71 63.45C44.49 63.45 44.31 63.51 44.2 63.65C44.08 63.78 44.02 63.97 44.02 64.21C44.02 64.45 44.08 64.64 44.2 64.78C44.32 64.91 44.49 64.98 44.71 64.98C44.93 64.98 45.1 64.92 45.22 64.78C45.34 64.64 45.4 64.46 45.4 64.22C45.4 63.98 45.34 63.79 45.22 63.66V63.65ZM45.03 64.63C44.96 64.72 44.85 64.77 44.71 64.77C44.57 64.77 44.45 64.72 44.38 64.63C44.31 64.54 44.27 64.4 44.27 64.22C44.27 64.04 44.31 63.9 44.38 63.81C44.45 63.72 44.56 63.67 44.71 63.67C44.86 63.67 44.96 63.72 45.03 63.81C45.1 63.91 45.14 64.04 45.14 64.22C45.14 64.4 45.1 64.54 45.03 64.64V64.63Z" fill="white"/>
<path d="M46.75 63.48V64.24C46.75 64.29 46.75 64.37 46.75 64.47C46.75 64.56 46.75 64.62 46.76 64.64L46.02 63.48H45.72V64.95H45.96V64.19C45.96 64.09 45.96 63.98 45.94 63.85V63.79L46.72 64.95H46.94V63.48H46.74H46.75Z" fill="white"/>
<path d="M38.96 66.18C39.09 66.13 39.15 66.04 39.15 65.92C39.15 65.82 39.12 65.75 39.06 65.7C39 65.65 38.91 65.63 38.78 65.63H38.5V66.62H38.67V66.21H38.84L39.09 66.62H39.24L38.96 66.18ZM38.78 66.07H38.67V65.76H38.77C38.84 65.76 38.89 65.77 38.93 65.8C38.96 65.82 38.98 65.86 38.98 65.91C38.98 65.96 38.96 66 38.93 66.03C38.9 66.06 38.85 66.07 38.77 66.07H38.78Z" fill="white"/>
<path d="M39.38 65.63V66.62H39.55V65.63H39.38Z" fill="white"/>
<path d="M40.33 66.23C40.33 66.23 40.29 66.17 40.26 66.14C40.23 66.11 40.17 66.09 40.1 66.05C40.04 66.02 39.99 66 39.97 65.99C39.95 65.97 39.93 65.96 39.92 65.94C39.91 65.92 39.9 65.9 39.9 65.88C39.9 65.84 39.91 65.81 39.94 65.79C39.97 65.77 40 65.76 40.06 65.76C40.13 65.76 40.21 65.78 40.29 65.82L40.34 65.69C40.25 65.65 40.15 65.63 40.06 65.63C39.96 65.63 39.88 65.65 39.82 65.7C39.76 65.75 39.73 65.81 39.73 65.89C39.73 65.95 39.75 66.01 39.78 66.06C39.82 66.11 39.88 66.15 39.97 66.19C40.06 66.22 40.11 66.25 40.14 66.28C40.17 66.31 40.18 66.34 40.18 66.38C40.18 66.42 40.16 66.45 40.14 66.48C40.11 66.5 40.06 66.52 40 66.52C39.96 66.52 39.91 66.52 39.86 66.5C39.81 66.49 39.76 66.47 39.72 66.45V66.6C39.79 66.63 39.88 66.65 39.99 66.65C40.1 66.65 40.19 66.63 40.25 66.58C40.31 66.53 40.35 66.46 40.35 66.38C40.35 66.34 40.34 66.29 40.33 66.26V66.23Z" fill="white"/>
<path d="M40.9401 66.06C41.0201 65.97 41.1501 65.83 41.3301 65.63H41.1301L40.85 65.94C40.81 65.99 40.7601 66.04 40.7101 66.1V65.63H40.54V66.62H40.7101V66.25L40.8101 66.17L41.1401 66.62H41.3401L40.9401 66.07V66.06Z" fill="white"/>
<path d="M42.55 65.74C42.47 65.65 42.36 65.61 42.21 65.61C42.06 65.61 41.95 65.65 41.87 65.74C41.79 65.83 41.75 65.95 41.75 66.11C41.75 66.27 41.79 66.4 41.87 66.48C41.95 66.57 42.06 66.61 42.21 66.61C42.36 66.61 42.47 66.57 42.55 66.48C42.63 66.39 42.67 66.27 42.67 66.11C42.67 65.95 42.63 65.82 42.55 65.74ZM42.43 66.39C42.38 66.45 42.31 66.49 42.22 66.49C42.13 66.49 42.05 66.46 42 66.39C41.95 66.32 41.93 66.24 41.93 66.11C41.93 65.98 41.96 65.9 42 65.84C42.05 65.78 42.12 65.74 42.22 65.74C42.32 65.74 42.39 65.77 42.43 65.84C42.48 65.9 42.5 65.99 42.5 66.11C42.5 66.23 42.48 66.32 42.43 66.39Z" fill="white"/>
<path d="M43.44 65.77V65.63H42.89V66.62H43.06V66.21H43.4V66.07H43.06V65.76H43.43L43.44 65.77Z" fill="white"/>
<path d="M44.53 65.77V65.63H43.98V66.62H44.15V66.21H44.49V66.07H44.15V65.76H44.52L44.53 65.77Z" fill="white"/>
<path d="M44.7 65.63V66.62H44.8699V65.63H44.7Z" fill="white"/>
<path d="M45.57 66.18C45.7 66.13 45.76 66.04 45.76 65.92C45.76 65.82 45.73 65.75 45.67 65.7C45.61 65.65 45.51 65.63 45.39 65.63H45.11V66.62H45.28V66.21H45.45L45.7 66.62H45.85L45.57 66.18ZM45.39 66.07H45.28V65.76H45.38C45.45 65.76 45.5 65.77 45.54 65.8C45.58 65.82 45.59 65.86 45.59 65.91C45.59 65.96 45.57 66 45.54 66.03C45.51 66.06 45.46 66.07 45.38 66.07H45.39Z" fill="white"/>
<path d="M46.57 65.77V65.63H46.02V66.62H46.57V66.48H46.16V66.17H46.53V66.03H46.16V65.76H46.57V65.77Z" fill="white"/>
<path d="M44.9401 56.59C44.8201 57.15 44.57 57.5 44.16 57.8C44.27 56.19 43.4101 55.21 42.2801 54.04C42.3501 56.43 40.1 56.16 40.1 58.07C40.1 59.09 40.8401 59.96 41.7401 60.32C41.2401 59.05 41.7401 57.81 42.6301 57.18C41.9701 58.55 43.6901 58.55 43.2001 60.21C44.3001 60.01 45.5901 58.45 44.9401 56.59ZM44.9401 56.59C44.8201 57.15 44.57 57.5 44.16 57.8C44.27 56.19 43.4101 55.21 42.2801 54.04C42.3501 56.43 40.1 56.16 40.1 58.07C40.1 59.09 40.8401 59.96 41.7401 60.32C41.2401 59.05 41.7401 57.81 42.6301 57.18C41.9701 58.55 43.6901 58.55 43.2001 60.21C44.3001 60.01 45.5901 58.45 44.9401 56.59ZM42.5101 51.8C39.6501 51.8 37.3401 54.11 37.3401 56.97C37.3401 59.83 39.6501 62.14 42.5101 62.14C45.3701 62.14 47.6801 59.82 47.6801 56.97C47.6801 54.12 45.3601 51.8 42.5101 51.8ZM42.5101 60.93C40.3301 60.93 38.55 59.16 38.55 56.97C38.55 54.78 40.3201 53.01 42.5101 53.01C44.7001 53.01 46.47 54.78 46.47 56.97C46.47 59.16 44.7001 60.93 42.5101 60.93ZM44.16 57.8C44.27 56.19 43.4101 55.21 42.2801 54.04C42.3501 56.43 40.1 56.16 40.1 58.07C40.1 59.09 40.8401 59.96 41.7401 60.32C41.2401 59.05 41.7401 57.81 42.6301 57.18C41.9701 58.55 43.6901 58.55 43.2001 60.21C44.3001 60.01 45.5901 58.45 44.9401 56.59C44.8201 57.15 44.57 57.5 44.16 57.8ZM44.9401 56.59C44.8201 57.15 44.57 57.5 44.16 57.8C44.27 56.19 43.4101 55.21 42.2801 54.04C42.3501 56.43 40.1 56.16 40.1 58.07C40.1 59.09 40.8401 59.96 41.7401 60.32C41.2401 59.05 41.7401 57.81 42.6301 57.18C41.9701 58.55 43.6901 58.55 43.2001 60.21C44.3001 60.01 45.5901 58.45 44.9401 56.59ZM44.9401 56.59C44.8201 57.15 44.57 57.5 44.16 57.8C44.27 56.19 43.4101 55.21 42.2801 54.04C42.3501 56.43 40.1 56.16 40.1 58.07C40.1 59.09 40.8401 59.96 41.7401 60.32C41.2401 59.05 41.7401 57.81 42.6301 57.18C41.9701 58.55 43.6901 58.55 43.2001 60.21C44.3001 60.01 45.5901 58.45 44.9401 56.59Z" fill="white"/>
<path d="M38.4899 40.58H38.27L37.8099 41.81H38.02L38.14 41.47H38.6099L38.7299 41.81H38.9399L38.4799 40.58H38.4899ZM38.21 41.3L38.3199 40.98C38.3499 40.9 38.3699 40.82 38.3799 40.75C38.3799 40.77 38.3999 40.81 38.4099 40.86C38.4199 40.91 38.4399 40.95 38.4399 40.97L38.5599 41.3H38.2H38.21Z" fill="white"/>
<path d="M38.98 40.58V40.75H39.35V41.81H39.55V40.75H39.89V40.58H38.97H38.98Z" fill="white"/>
<path d="M39.96 40.58V40.75H40.2999V41.81H40.4999V40.75H40.8699V40.58H39.95H39.96Z" fill="white"/>
<path d="M41.77 40.75V40.58H41.09V41.81H41.77V41.64H41.2599V41.27H41.7399V41.1H41.2599V40.76H41.77V40.75Z" fill="white"/>
<path d="M42.86 40.58V41.23C42.86 41.23 42.86 41.34 42.86 41.42C42.86 41.5 42.86 41.55 42.86 41.56L42.25 40.57H42V41.8H42.2V41.16C42.2 41.07 42.2 40.98 42.19 40.87V40.81L42.8 41.8H43.06V40.57H42.86V40.58Z" fill="white"/>
<path d="M43.24 40.58V40.75H43.61V41.81H43.81V40.75H44.15V40.58H43.23H43.24Z" fill="white"/>
<path d="M44.3599 40.58V41.81H44.5599V40.58H44.3599Z" fill="white"/>
<path d="M45.83 40.73C45.73 40.62 45.59 40.56 45.4 40.56C45.21 40.56 45.0699 40.61 44.9699 40.72C44.8699 40.83 44.8199 40.99 44.8199 41.19C44.8199 41.39 44.8699 41.55 44.9699 41.66C45.0699 41.77 45.21 41.82 45.4 41.82C45.59 41.82 45.7199 41.77 45.8199 41.65C45.9199 41.54 45.9699 41.38 45.9699 41.18C45.9699 40.98 45.9199 40.82 45.8199 40.71L45.83 40.73ZM45.6699 41.54C45.6099 41.61 45.52 41.66 45.4 41.66C45.28 41.66 45.1899 41.62 45.1299 41.54C45.0699 41.46 45.0399 41.35 45.0399 41.2C45.0399 41.05 45.0699 40.93 45.1299 40.86C45.1899 40.79 45.28 40.74 45.4 40.74C45.52 40.74 45.6099 40.78 45.6699 40.86C45.7299 40.94 45.7599 41.05 45.7599 41.2C45.7599 41.35 45.7299 41.47 45.6699 41.55V41.54Z" fill="white"/>
<path d="M47.09 40.58V41.23C47.09 41.23 47.09 41.34 47.09 41.42C47.09 41.5 47.09 41.55 47.09 41.56L46.48 40.57H46.23V41.8H46.4V41.15C46.4 41.06 46.4 40.97 46.39 40.86V40.81L46.95 41.8H47.25V40.57H47.08L47.09 40.58Z" fill="white"/>
<path d="M38.7 42.62C38.61 42.53 38.49 42.49 38.33 42.49H38.02V43.48H38.3C38.47 43.48 38.6 43.44 38.69 43.35C38.78 43.26 38.83 43.14 38.83 42.98C38.83 42.82 38.79 42.71 38.7 42.62ZM38.27 43.34H38.15V42.62H38.29C38.51 42.62 38.62 42.74 38.62 42.97C38.62 43.2 38.5 43.33 38.27 43.33V43.34Z" fill="white"/>
<path d="M39.4299 42.49H39.2499L38.8799 43.48H39.0499L39.1399 43.21H39.5099L39.5999 43.48H39.7799L39.4099 42.49H39.4299ZM39.1999 43.07L39.2899 42.81C39.3099 42.75 39.3299 42.69 39.3399 42.63C39.3399 42.65 39.3499 42.68 39.3599 42.72C39.3699 42.76 39.3799 42.79 39.3899 42.81L39.4799 43.08H39.1899L39.1999 43.07Z" fill="white"/>
<path d="M40.6099 42.49V43.01C40.6099 43.01 40.6099 43.1 40.6099 43.16C40.6099 43.23 40.6099 43.26 40.6099 43.27L40.1199 42.49H39.9199V43.48H40.0599V42.97C40.0599 42.9 40.0599 42.82 40.0599 42.74V42.7L40.5099 43.48H40.7499V42.49H40.6099Z" fill="white"/>
<path d="M41.3999 42.93V43.07H41.5999V43.32C41.5299 43.33 41.4699 43.34 41.4199 43.34C41.3099 43.34 41.2199 43.31 41.1599 43.24C41.0999 43.18 41.0699 43.09 41.0699 42.97C41.0699 42.85 41.0999 42.77 41.1699 42.7C41.2399 42.64 41.3299 42.6 41.4399 42.6C41.5299 42.6 41.6099 42.62 41.6999 42.65L41.7599 42.52C41.6599 42.48 41.5499 42.46 41.4399 42.46C41.2699 42.46 41.1299 42.5 41.0299 42.59C40.9299 42.68 40.8799 42.8 40.8799 42.96C40.8799 43.12 40.9199 43.25 41.0099 43.33C41.0999 43.42 41.2199 43.46 41.3799 43.46C41.4499 43.46 41.5099 43.46 41.5699 43.45C41.6299 43.45 41.6899 43.43 41.7599 43.41V42.92H41.3899L41.3999 42.93Z" fill="white"/>
<path d="M42.59 42.63V42.49H42.01V43.48H42.59V43.34H42.18V43.03H42.55V42.89H42.18V42.62H42.59V42.63Z" fill="white"/>
<path d="M43.2599 43.04C43.3899 42.99 43.45 42.9 43.45 42.78C43.45 42.68 43.4199 42.61 43.3599 42.56C43.2999 42.51 43.2 42.49 43.08 42.49H42.7999V43.48H42.9699V43.07H43.1299L43.3699 43.48H43.53L43.2499 43.04H43.2599ZM43.03 42.93H42.9299V42.62H43.03C43.1 42.62 43.1499 42.62 43.1899 42.65C43.2299 42.68 43.2399 42.71 43.2399 42.77C43.2399 42.82 43.2199 42.86 43.1899 42.89C43.1599 42.92 43.11 42.93 43.03 42.93Z" fill="white"/>
<path d="M44.4299 42.49H44.2499L43.8799 43.48H44.0499L44.1399 43.21H44.5099L44.5999 43.48H44.7799L44.4099 42.49H44.4299ZM44.1999 43.07L44.2899 42.81C44.3099 42.75 44.3299 42.69 44.3399 42.63C44.3399 42.65 44.3499 42.68 44.3599 42.72C44.3699 42.76 44.3799 42.79 44.3899 42.81L44.4799 43.08H44.1899L44.1999 43.07Z" fill="white"/>
<path d="M45.4 43.04C45.53 42.99 45.59 42.9 45.59 42.78C45.59 42.68 45.5599 42.61 45.4999 42.56C45.4399 42.51 45.3499 42.49 45.2199 42.49H44.9399V43.48H45.1099V43.07H45.28L45.53 43.48H45.6799L45.4 43.04ZM45.2199 42.93H45.1099V42.62H45.21C45.28 42.62 45.3299 42.62 45.3699 42.65C45.4099 42.68 45.4199 42.71 45.4199 42.77C45.4199 42.82 45.4099 42.86 45.3699 42.89C45.3399 42.92 45.29 42.93 45.21 42.93H45.2199Z" fill="white"/>
<path d="M46.3699 42.63V42.49H45.8199V43.48H46.3699V43.34H45.96V43.03H46.33V42.89H45.96V42.62H46.3699V42.63Z" fill="white"/>
<path d="M46.9999 42.49H46.8199L46.45 43.48H46.6199L46.71 43.21H47.08L47.1799 43.48H47.3499L46.9799 42.49H46.9999ZM46.77 43.07L46.8599 42.81C46.8799 42.75 46.8999 42.69 46.9099 42.63C46.9099 42.65 46.9199 42.68 46.9299 42.72C46.9399 42.76 46.95 42.79 46.96 42.81L47.0499 43.08H46.7599L46.77 43.07Z" fill="white"/>
<path d="M43.0599 35.66C42.9599 35.56 42.8099 35.51 42.6199 35.51C42.4199 35.51 42.2699 35.56 42.1699 35.66C42.0699 35.75 42.02 35.9 42.02 36.09C42.02 36.28 42.0699 36.42 42.1699 36.52C42.2799 36.62 42.4199 36.67 42.6199 36.67C42.7999 36.67 42.9499 36.62 43.0499 36.52C43.1599 36.42 43.21 36.28 43.21 36.1C43.21 35.92 43.1599 35.77 43.0599 35.67V35.66ZM43.1299 31.07H42.1199L42.0499 31.22L42.2899 34.77L42.4 34.89H42.8599L42.9799 34.77L43.2199 31.22L43.1299 31.07ZM42.39 34.89H42.8499L42.9699 34.77L43.21 31.22L43.1199 31.07H42.1099L42.0399 31.22L42.28 34.77L42.39 34.89ZM43.0599 35.66C42.9599 35.56 42.8099 35.51 42.6199 35.51C42.4199 35.51 42.2699 35.56 42.1699 35.66C42.0699 35.75 42.02 35.9 42.02 36.09C42.02 36.28 42.0699 36.42 42.1699 36.52C42.2799 36.62 42.4199 36.67 42.6199 36.67C42.7999 36.67 42.9499 36.62 43.0499 36.52C43.1599 36.42 43.21 36.28 43.21 36.1C43.21 35.92 43.1599 35.77 43.0599 35.67V35.66ZM42.6199 28.78C39.7599 28.78 37.45 31.1 37.45 33.95C37.45 36.8 39.7599 39.12 42.6199 39.12C45.4799 39.12 47.7899 36.81 47.7899 33.95C47.7899 31.09 45.4799 28.78 42.6199 28.78ZM42.6199 37.88C40.4499 37.88 38.6899 36.13 38.6899 33.96C38.6899 31.79 40.4499 30.03 42.6199 30.03C44.7899 30.03 46.5399 31.79 46.5399 33.96C46.5399 36.13 44.7899 37.88 42.6199 37.88ZM42.39 34.89H42.8499L42.9699 34.77L43.21 31.22L43.1199 31.07H42.1099L42.0399 31.22L42.28 34.77L42.39 34.89ZM42.6299 35.52C42.4299 35.52 42.2799 35.57 42.1799 35.67C42.0799 35.76 42.03 35.91 42.03 36.1C42.03 36.29 42.0799 36.43 42.1799 36.53C42.2899 36.63 42.4299 36.68 42.6299 36.68C42.8099 36.68 42.9599 36.63 43.0599 36.53C43.1699 36.43 43.2199 36.29 43.2199 36.11C43.2199 35.93 43.1699 35.78 43.0699 35.68C42.9699 35.58 42.8199 35.53 42.6299 35.53V35.52ZM43.0599 35.66C42.9599 35.56 42.8099 35.51 42.6199 35.51C42.4199 35.51 42.2699 35.56 42.1699 35.66C42.0699 35.75 42.02 35.9 42.02 36.09C42.02 36.28 42.0699 36.42 42.1699 36.52C42.2799 36.62 42.4199 36.67 42.6199 36.67C42.7999 36.67 42.9499 36.62 43.0499 36.52C43.1599 36.42 43.21 36.28 43.21 36.1C43.21 35.92 43.1599 35.77 43.0599 35.67V35.66ZM43.1299 31.07H42.1199L42.0499 31.22L42.2899 34.77L42.4 34.89H42.8599L42.9799 34.77L43.2199 31.22L43.1299 31.07ZM43.1299 31.07H42.1199L42.0499 31.22L42.2899 34.77L42.4 34.89H42.8599L42.9799 34.77L43.2199 31.22L43.1299 31.07ZM43.0599 35.66C42.9599 35.56 42.8099 35.51 42.6199 35.51C42.4199 35.51 42.2699 35.56 42.1699 35.66C42.0699 35.75 42.02 35.9 42.02 36.09C42.02 36.28 42.0699 36.42 42.1699 36.52C42.2799 36.62 42.4199 36.67 42.6199 36.67C42.7999 36.67 42.9499 36.62 43.0499 36.52C43.1599 36.42 43.21 36.28 43.21 36.1C43.21 35.92 43.1599 35.77 43.0599 35.67V35.66Z" fill="white"/>
<path d="M39.5 17.02C39.37 16.89 39.19 16.83 38.96 16.83H38.51V18.3H38.92C39.17 18.3 39.36 18.24 39.5 18.11C39.64 17.98 39.7 17.8 39.7 17.56C39.7 17.33 39.64 17.16 39.5 17.03V17.02ZM38.91 18.12H38.73V17.03H38.94C39.28 17.03 39.45 17.21 39.45 17.57C39.45 17.93 39.27 18.12 38.91 18.12Z" fill="white"/>
<path d="M40.64 16.83H40.3799L39.83 18.3H40.0699L40.2199 17.89H40.78L40.9299 18.3H41.1799L40.6299 16.83H40.64ZM40.2899 17.68L40.4299 17.29C40.4599 17.19 40.4899 17.1 40.5099 17.02C40.5099 17.05 40.5299 17.09 40.5499 17.15C40.5699 17.21 40.58 17.25 40.59 17.28L40.7299 17.68H40.2999H40.2899Z" fill="white"/>
<path d="M42.4199 16.83V17.6C42.4199 17.65 42.4199 17.73 42.4199 17.83C42.4199 17.92 42.4199 17.98 42.4199 18L41.6799 16.84H41.3799V18.31H41.5799V17.55C41.5799 17.45 41.5799 17.34 41.5699 17.21V17.15L42.2499 18.31H42.5999V16.84H42.3999L42.4199 16.83Z" fill="white"/>
<path d="M43.6099 17.51V17.71H43.9199V18.09C43.8299 18.11 43.7399 18.12 43.6599 18.12C43.4999 18.12 43.3799 18.07 43.2999 17.98C43.2099 17.88 43.1699 17.75 43.1699 17.57C43.1699 17.4 43.2199 17.26 43.3099 17.16C43.3999 17.06 43.5299 17.01 43.6899 17.01C43.8099 17.01 43.9399 17.04 44.0599 17.1L44.15 16.9C44.01 16.84 43.86 16.81 43.7 16.81C43.46 16.81 43.2599 16.87 43.1299 17.01C42.9899 17.14 42.9199 17.33 42.9199 17.57C42.9199 17.81 42.9799 18 43.1099 18.13C43.2299 18.26 43.4099 18.33 43.6299 18.33C43.7299 18.33 43.82 18.33 43.9 18.31C43.98 18.3 44.0699 18.28 44.1599 18.25V17.51H43.6099Z" fill="white"/>
<path d="M45.35 17.03V16.83H44.53V18.3H45.35V18.1H44.77V17.66H45.32V17.46H44.77V17.05H45.35V17.03Z" fill="white"/>
<path d="M46.3399 17.64C46.5299 17.56 46.6199 17.43 46.6199 17.25C46.6199 17.11 46.5799 17 46.4799 16.93C46.3899 16.86 46.2499 16.83 46.0599 16.83H45.6399V18.3H45.8799V17.72H46.1199L46.4698 18.3H46.7499L46.3399 17.65V17.64ZM46.0599 17.51H45.8899V17.03H46.0499C46.1599 17.03 46.2399 17.05 46.2899 17.08C46.3399 17.11 46.3699 17.17 46.3699 17.26C46.3699 17.35 46.3499 17.4 46.2999 17.44C46.2499 17.48 46.1699 17.5 46.0599 17.5V17.51Z" fill="white"/>
<path d="M38.2899 18.98V19.39H37.8499V18.98H37.6799V19.97H37.8499V19.53H38.2899V19.97H38.46V18.98H38.2899Z" fill="white"/>
<path d="M38.7 18.98V19.97H38.8699V18.98H38.7Z" fill="white"/>
<path d="M39.52 19.42V19.56H39.72V19.81C39.66 19.82 39.6 19.83 39.54 19.83C39.43 19.83 39.35 19.8 39.29 19.73C39.23 19.67 39.2 19.58 39.2 19.46C39.2 19.34 39.23 19.26 39.29 19.19C39.36 19.13 39.45 19.09 39.56 19.09C39.64 19.09 39.73 19.11 39.81 19.14L39.87 19.01C39.77 18.97 39.67 18.95 39.56 18.95C39.39 18.95 39.26 18.99 39.16 19.08C39.07 19.17 39.01 19.29 39.01 19.45C39.01 19.61 39.05 19.74 39.14 19.82C39.22 19.91 39.35 19.95 39.51 19.95C39.58 19.95 39.64 19.95 39.7 19.94C39.76 19.94 39.82 19.92 39.88 19.9V19.41H39.51L39.52 19.42Z" fill="white"/>
<path d="M40.7499 18.98V19.39H40.3099V18.98H40.1399V19.97H40.3099V19.53H40.7499V19.97H40.9199V18.98H40.7499Z" fill="white"/>
<path d="M42.0899 18.98L41.8799 19.59C41.8799 19.59 41.8599 19.64 41.8499 19.69C41.8399 19.73 41.8299 19.78 41.8199 19.81C41.8199 19.79 41.8099 19.75 41.7999 19.71C41.7899 19.66 41.7799 19.62 41.7699 19.6L41.5599 18.98H41.3899L41.7399 19.97H41.9099L42.2599 18.98H42.0899Z" fill="white"/>
<path d="M43.14 19.1C43.06 19.01 42.9499 18.97 42.7999 18.97C42.6499 18.97 42.54 19.01 42.46 19.1C42.38 19.19 42.34 19.31 42.34 19.47C42.34 19.63 42.38 19.76 42.46 19.84C42.54 19.93 42.6499 19.97 42.7999 19.97C42.9499 19.97 43.06 19.93 43.14 19.84C43.22 19.75 43.2599 19.63 43.2599 19.47C43.2599 19.31 43.22 19.18 43.14 19.1ZM43.02 19.75C42.97 19.81 42.8999 19.84 42.7999 19.84C42.6999 19.84 42.63 19.81 42.59 19.75C42.54 19.69 42.52 19.6 42.52 19.47C42.52 19.34 42.54 19.26 42.59 19.19C42.64 19.13 42.7099 19.1 42.8099 19.1C42.9099 19.1 42.98 19.13 43.02 19.19C43.07 19.25 43.09 19.35 43.09 19.47C43.09 19.59 43.07 19.68 43.02 19.75Z" fill="white"/>
<path d="M43.64 19.83V18.98H43.47V19.97H44.05V19.83H43.64Z" fill="white"/>
<path d="M44.1199 18.98V19.12H44.3899V19.97H44.5599V19.12H44.8699V18.98H44.1199Z" fill="white"/>
<path d="M45.4099 18.98H45.2399L44.8699 19.97H45.0399L45.1399 19.7H45.5099L45.6099 19.97H45.7799L45.4099 18.98ZM45.1799 19.56L45.2699 19.3C45.2899 19.23 45.3099 19.17 45.3199 19.12C45.3199 19.14 45.3299 19.17 45.3499 19.21C45.3599 19.25 45.3699 19.28 45.3799 19.3L45.4698 19.57H45.1799V19.56Z" fill="white"/>
<path d="M46.2999 19.42V19.56H46.4999V19.81C46.4399 19.82 46.3799 19.83 46.3199 19.83C46.2099 19.83 46.1299 19.8 46.0699 19.73C46.0099 19.67 45.9799 19.58 45.9799 19.46C45.9799 19.34 46.0099 19.26 46.0699 19.19C46.1399 19.13 46.23 19.09 46.34 19.09C46.42 19.09 46.51 19.11 46.59 19.14L46.65 19.01C46.55 18.97 46.45 18.95 46.34 18.95C46.17 18.95 46.0399 18.99 45.9399 19.08C45.8499 19.17 45.7899 19.29 45.7899 19.45C45.7899 19.61 45.8299 19.74 45.9199 19.82C45.9999 19.91 46.1299 19.95 46.2899 19.95C46.3599 19.95 46.4199 19.95 46.4799 19.94C46.5399 19.94 46.5999 19.92 46.6599 19.9V19.41H46.2899L46.2999 19.42Z" fill="white"/>
<path d="M47.46 19.11V18.97H46.9099V19.96H47.46V19.82H47.0499V19.51H47.46V19.37H47.0499V19.1H47.46V19.11Z" fill="white"/>
<path d="M43.35 8.95999H42.02L41.49 10.76H42.29L41.75 12.84L43.61 10.52H42.81L43.35 8.95999Z" fill="white"/>
<path d="M47.3499 13.34L42.9899 6.07999C42.8799 5.90999 42.7199 5.79999 42.5499 5.79999C42.3799 5.79999 42.2099 5.89999 42.1099 6.07999L37.7499 13.34C37.6399 13.52 37.6299 13.7 37.7199 13.86C37.8099 14.01 37.9799 14.1 38.1799 14.1H46.9099C47.1199 14.1 47.2799 14.01 47.3699 13.86C47.4599 13.71 47.44 13.52 47.34 13.34H47.3499ZM38.28 13.56L42.5499 6.45001L46.82 13.56H38.28Z" fill="white"/>
<path d="M32.37 8.10001V23.88H17.72V8.10001C17.72 4.05001 21 0.769989 25.05 0.769989C29.1 0.769989 32.38 4.05001 32.38 8.10001H32.37Z" fill="#1E353C"/>
<path d="M32.37 26.13H17.72V46.78H32.37V26.13Z" fill="#1E353C"/>
<path d="M17.7199 49.03H32.3699V64.81C32.3699 68.86 29.0899 72.14 25.0399 72.14C20.9899 72.14 17.71 68.86 17.71 64.81V49.03H17.7199Z" fill="#1E353C"/>
<path d="M25.0101 5.54999C22.1501 5.54999 19.8401 7.87 19.8401 10.72C19.8401 13.57 22.1501 15.89 25.0101 15.89C27.8701 15.89 30.1801 13.57 30.1801 10.72C30.1801 7.87 27.8701 5.54999 25.0101 5.54999ZM22.9001 11.68L21.4401 10.83C21.2401 10.72 21.18 10.47 21.29 10.27C21.41 10.07 21.66 10.01 21.86 10.12L22.4501 10.46L21.8301 8.82001C21.7601 8.64001 21.85 8.42999 22.04 8.35999C22.22 8.28999 22.4301 8.38 22.5001 8.56L22.3701 8.23001C22.3701 8.23001 22.35 8.15001 22.35 8.10001C22.35 7.96001 22.4401 7.81999 22.5801 7.76999C22.7601 7.69999 22.97 7.79001 23.04 7.98001L23.1 8.14999C23.03 7.95999 23.1201 7.76 23.3101 7.69C23.5001 7.62 23.7001 7.70999 23.7701 7.89999L23.9601 8.39999C23.8901 8.21999 23.98 8.01 24.17 7.94C24.35 7.87 24.5601 7.95999 24.6301 8.14999L24.7601 8.48999C24.6201 8.54999 24.49 8.65 24.42 8.78C24.33 8.94 24.3 9.12001 24.35 9.29001L24.7501 10.82L24.1301 11.91L24.0201 12.11C23.8701 12.13 23.73 12.23 23.67 12.37C23.64 12.43 23.6301 12.49 23.6301 12.55L23.1901 12.71L22.9001 11.67V11.68ZM23.4901 13.73C23.4001 13.77 23.3001 13.72 23.2601 13.63C23.2301 13.54 23.2701 13.44 23.3701 13.4H23.3901L23.2801 12.99L23.73 12.82C23.77 12.88 23.8301 12.94 23.9001 12.97L24.6401 13.31L23.5001 13.74L23.4901 13.73ZM27.0701 13.72C27.1601 13.76 27.2 13.87 27.16 13.96C27.12 14.05 27.01 14.09 26.92 14.05L23.9901 12.72C23.9001 12.68 23.8601 12.57 23.9001 12.48C23.9401 12.39 24.0501 12.35 24.1401 12.39H24.1501L24.36 12.04L27.1901 13.32L27.05 13.71H27.0701V13.72ZM27.6401 12.02L27.2801 13.05L24.5001 11.79L25.0301 10.86L24.6 9.22C24.54 9 24.6701 8.78 24.8901 8.72C25.1101 8.66 25.3401 8.79001 25.3901 9.01001L25.5601 9.67001L26.2801 8.07999C26.3601 7.89999 26.5701 7.81999 26.7501 7.89999C26.9301 7.97999 27.0101 8.19 26.9301 8.37L27.0801 8.04999C27.1401 7.91999 27.2701 7.84 27.4001 7.84C27.4501 7.84 27.5 7.85 27.55 7.87C27.73 7.95 27.81 8.16 27.73 8.34L27.66 8.5C27.74 8.32 27.9501 8.24001 28.1301 8.32001C28.3101 8.40001 28.3901 8.61001 28.3101 8.79001L28.0901 9.26999C28.1701 9.08999 28.3801 9.01 28.5601 9.09C28.7401 9.17 28.8201 9.38 28.7401 9.56L27.6301 12L27.6401 12.02Z" fill="white"/>
<path d="M20.22 41.49C20.22 41.49 20.19 41.44 20.16 41.42C20.13 41.4 20.09 41.37 20.03 41.35C19.98 41.33 19.93 41.31 19.91 41.3C19.89 41.29 19.88 41.27 19.87 41.26C19.86 41.25 19.86 41.23 19.86 41.21C19.86 41.18 19.87 41.15 19.89 41.13C19.91 41.11 19.95 41.1 19.99 41.1C20.05 41.1 20.11 41.11 20.19 41.15L20.23 41.04C20.15 41 20.07 40.99 19.99 40.99C19.9 40.99 19.84 41.01 19.79 41.05C19.74 41.09 19.72 41.15 19.72 41.21C19.72 41.27 19.74 41.32 19.77 41.35C19.8 41.39 19.86 41.42 19.93 41.46C20 41.49 20.05 41.52 20.08 41.54C20.11 41.56 20.12 41.59 20.12 41.62C20.12 41.66 20.11 41.68 20.08 41.71C20.06 41.73 20.02 41.74 19.96 41.74C19.92 41.74 19.89 41.74 19.84 41.72C19.8 41.71 19.76 41.7 19.72 41.68V41.81C19.78 41.84 19.86 41.85 19.96 41.85C20.06 41.85 20.13 41.83 20.18 41.79C20.23 41.75 20.26 41.69 20.26 41.62C20.26 41.58 20.26 41.55 20.24 41.52L20.22 41.49Z" fill="white"/>
<path d="M20.7501 40.97H20.6L20.29 41.81H20.4301L20.5101 41.58H20.8301L20.91 41.81H21.0601L20.7501 40.97ZM20.55 41.46L20.6201 41.24C20.6401 41.18 20.65 41.13 20.66 41.08C20.66 41.1 20.6701 41.12 20.6801 41.15C20.6901 41.18 20.7001 41.2 20.7001 41.22L20.7801 41.45H20.54L20.55 41.46Z" fill="white"/>
<path d="M21.64 41.09V40.97H21.1699V41.8H21.3099V41.46H21.6299V41.34H21.3099V41.08H21.65L21.64 41.09Z" fill="white"/>
<path d="M22.2701 41.09V40.97H21.8V41.8H22.2701V41.68H21.9401V41.42H22.2501V41.31H21.9401V41.08H22.2701V41.09Z" fill="white"/>
<path d="M22.36 40.98V41.1H22.61V41.82H22.75V41.1H23V40.98H22.37H22.36Z" fill="white"/>
<path d="M23.55 40.98L23.35 41.36L23.15 40.98H23L23.28 41.5V41.82H23.42V41.5L23.7 40.99H23.55V40.98Z" fill="white"/>
<path d="M24.58 41.09V40.97H24.11V41.8H24.25V41.46H24.57V41.34H24.25V41.08H24.59L24.58 41.09Z" fill="white"/>
<path d="M25.3799 41.08C25.3099 41.01 25.22 40.97 25.09 40.97C24.96 40.97 24.8699 41.01 24.7999 41.08C24.7299 41.15 24.7 41.26 24.7 41.4C24.7 41.54 24.7299 41.65 24.7999 41.72C24.8699 41.79 24.96 41.83 25.09 41.83C25.22 41.83 25.3099 41.79 25.3799 41.72C25.4499 41.64 25.4799 41.54 25.4799 41.4C25.4799 41.26 25.4499 41.16 25.3799 41.08ZM25.27 41.63C25.23 41.68 25.17 41.71 25.09 41.71C25.01 41.71 24.9499 41.69 24.9099 41.63C24.8699 41.58 24.8499 41.5 24.8499 41.39C24.8499 41.28 24.8699 41.21 24.9099 41.16C24.9499 41.11 25.0199 41.08 25.0999 41.08C25.1799 41.08 25.24 41.11 25.28 41.16C25.32 41.21 25.34 41.29 25.34 41.39C25.34 41.49 25.32 41.57 25.28 41.63H25.27Z" fill="white"/>
<path d="M26.3 41.08C26.23 41.01 26.14 40.97 26.01 40.97C25.88 40.97 25.79 41.01 25.72 41.08C25.65 41.15 25.62 41.26 25.62 41.4C25.62 41.54 25.65 41.65 25.72 41.72C25.79 41.79 25.88 41.83 26.01 41.83C26.14 41.83 26.23 41.79 26.3 41.72C26.37 41.64 26.4 41.54 26.4 41.4C26.4 41.26 26.37 41.16 26.3 41.08ZM26.19 41.63C26.15 41.68 26.09 41.71 26.01 41.71C25.93 41.71 25.87 41.69 25.83 41.63C25.79 41.58 25.77 41.5 25.77 41.39C25.77 41.28 25.79 41.21 25.83 41.16C25.87 41.11 25.93 41.08 26.01 41.08C26.09 41.08 26.15 41.11 26.19 41.16C26.23 41.21 26.25 41.29 26.25 41.39C26.25 41.49 26.23 41.57 26.19 41.63Z" fill="white"/>
<path d="M26.49 40.98V41.1H26.74V41.82H26.88V41.1H27.13V40.98H26.5H26.49Z" fill="white"/>
<path d="M28.09 40.98L27.97 41.47C27.95 41.55 27.94 41.62 27.93 41.68C27.92 41.59 27.9 41.52 27.89 41.48L27.75 40.99H27.61L27.47 41.48C27.47 41.48 27.46 41.54 27.45 41.58C27.45 41.62 27.44 41.65 27.43 41.69C27.43 41.63 27.41 41.56 27.39 41.48L27.27 40.99H27.13L27.24 41.41L27.35 41.83H27.5L27.64 41.34C27.64 41.34 27.65 41.29 27.66 41.25C27.66 41.21 27.67 41.18 27.68 41.15C27.68 41.17 27.68 41.19 27.7 41.24C27.72 41.29 27.72 41.31 27.72 41.34L27.86 41.84H28.01L28.23 41.01H28.09V40.98Z" fill="white"/>
<path d="M28.83 41.09V40.97H28.36V41.8H28.83V41.68H28.49V41.42H28.8V41.31H28.49V41.08H28.83V41.09Z" fill="white"/>
<path d="M29.36 40.97H29.21L28.9 41.81H29.05L29.13 41.58H29.45L29.53 41.81H29.68L29.37 40.97H29.36ZM29.16 41.46L29.24 41.24C29.26 41.18 29.27 41.13 29.28 41.08C29.28 41.1 29.29 41.12 29.3 41.15C29.31 41.18 29.32 41.2 29.32 41.22L29.4 41.45H29.15L29.16 41.46Z" fill="white"/>
<path d="M30.17 41.44C30.28 41.4 30.33 41.32 30.33 41.22C30.33 41.14 30.3 41.08 30.25 41.04C30.2 41 30.12 40.98 30.01 40.98H29.77V41.81H29.91V41.48H30.05L30.25 41.81H30.4L30.16 41.44H30.17ZM30.01 41.37H29.91V41.1H30C30.06 41.1 30.11 41.11 30.14 41.13C30.17 41.15 30.18 41.18 30.18 41.23C30.18 41.27 30.17 41.31 30.14 41.34C30.11 41.36 30.06 41.37 30 41.37H30.01Z" fill="white"/>
<path d="M20.66 42.48L20.38 43.26L20.11 42.48H19.88V43.46H20.03V42.98C20.03 42.87 20.03 42.76 20.02 42.64L20.3 43.46H20.44L20.74 42.64C20.74 42.64 20.74 42.7 20.74 42.78C20.74 42.86 20.74 42.92 20.74 42.97V43.46H20.9V42.48H20.67H20.66Z" fill="white"/>
<path d="M21.75 42.48V43.1C21.75 43.26 21.68 43.34 21.52 43.34C21.44 43.34 21.38 43.32 21.35 43.28C21.31 43.24 21.3 43.18 21.3 43.1V42.48H21.14V43.11C21.14 43.22 21.17 43.31 21.24 43.38C21.31 43.45 21.4 43.48 21.53 43.48C21.61 43.48 21.68 43.47 21.74 43.44C21.8 43.41 21.84 43.37 21.88 43.31C21.91 43.26 21.92 43.19 21.92 43.12V42.48H21.76H21.75Z" fill="white"/>
<path d="M22.7101 43.09C22.7101 43.09 22.6701 43.03 22.6401 43C22.6101 42.97 22.55 42.95 22.48 42.91C22.42 42.88 22.3701 42.86 22.3401 42.85C22.3201 42.83 22.3 42.82 22.29 42.8C22.28 42.78 22.2701 42.76 22.2701 42.74C22.2701 42.7 22.2801 42.67 22.3101 42.65C22.3401 42.63 22.3701 42.62 22.4301 42.62C22.5001 42.62 22.58 42.64 22.66 42.68L22.7101 42.55C22.6201 42.51 22.5301 42.49 22.4301 42.49C22.3301 42.49 22.2501 42.51 22.1901 42.56C22.1301 42.61 22.1 42.67 22.1 42.75C22.1 42.81 22.1201 42.87 22.1501 42.92C22.1901 42.97 22.2501 43.01 22.3401 43.05C22.4301 43.08 22.4901 43.11 22.5101 43.14C22.5401 43.17 22.55 43.2 22.55 43.24C22.55 43.28 22.5401 43.31 22.5101 43.34C22.4801 43.37 22.4301 43.38 22.3701 43.38C22.3301 43.38 22.28 43.38 22.23 43.36C22.18 43.35 22.1301 43.33 22.0901 43.31V43.46C22.1601 43.49 22.25 43.51 22.36 43.51C22.47 43.51 22.5601 43.49 22.6201 43.44C22.6801 43.39 22.72 43.32 22.72 43.24C22.72 43.2 22.7201 43.15 22.7001 43.12L22.7101 43.09Z" fill="white"/>
<path d="M22.8101 42.48V42.62H23.1V43.47H23.2601V42.62H23.55V42.48H22.8101Z" fill="white"/>
<path d="M24.72 43.03C24.72 43.03 24.6301 42.97 24.5701 42.96C24.6201 42.94 24.6701 42.92 24.7001 42.88C24.7301 42.84 24.7401 42.79 24.7401 42.73C24.7401 42.64 24.7101 42.58 24.6501 42.55C24.5901 42.51 24.49 42.49 24.36 42.49H24.0701V43.47H24.42C24.53 43.47 24.6201 43.45 24.6801 43.4C24.7401 43.35 24.7701 43.28 24.7701 43.19C24.7701 43.13 24.75 43.07 24.72 43.03ZM24.22 42.62H24.36C24.43 42.62 24.4901 42.63 24.5201 42.65C24.5501 42.67 24.5701 42.7 24.5701 42.75C24.5701 42.8 24.5601 42.84 24.5301 42.86C24.5001 42.88 24.4501 42.89 24.3801 42.89H24.22V42.62ZM24.55 43.29C24.55 43.29 24.4601 43.33 24.4001 43.33H24.23V43.02H24.3901C24.4601 43.02 24.51 43.03 24.55 43.06C24.58 43.08 24.6 43.12 24.6 43.17C24.6 43.22 24.58 43.27 24.55 43.29Z" fill="white"/>
<path d="M25.53 42.62V42.48H24.97V43.46H25.53V43.32H25.13V43.01H25.5V42.88H25.13V42.61H25.53V42.62Z" fill="white"/>
<path d="M27.1 42.48L26.96 43.05C26.93 43.15 26.92 43.23 26.91 43.3C26.89 43.19 26.88 43.11 26.86 43.06L26.7 42.48H26.54L26.38 43.06C26.38 43.06 26.36 43.13 26.35 43.17C26.34 43.22 26.33 43.26 26.33 43.3C26.32 43.23 26.3 43.15 26.28 43.06L26.14 42.48H25.98L26.11 42.97L26.24 43.46H26.41L26.57 42.88C26.57 42.88 26.58 42.82 26.59 42.77C26.6 42.73 26.61 42.69 26.61 42.66C26.61 42.68 26.61 42.71 26.63 42.76C26.65 42.81 26.65 42.85 26.66 42.87L26.83 43.46H27.01L27.27 42.48H27.11H27.1Z" fill="white"/>
<path d="M28.16 42.6C28.08 42.51 27.97 42.47 27.82 42.47C27.67 42.47 27.55 42.51 27.48 42.6C27.4 42.69 27.36 42.81 27.36 42.97C27.36 43.13 27.4 43.26 27.48 43.34C27.56 43.43 27.67 43.47 27.82 43.47C27.97 43.47 28.08 43.43 28.16 43.34C28.24 43.25 28.28 43.13 28.28 42.97C28.28 42.81 28.24 42.68 28.16 42.6ZM28.04 43.25C27.99 43.31 27.92 43.35 27.82 43.35C27.72 43.35 27.65 43.32 27.6 43.25C27.55 43.19 27.53 43.1 27.53 42.97C27.53 42.84 27.55 42.76 27.6 42.7C27.65 42.64 27.72 42.6 27.82 42.6C27.92 42.6 27.99 42.63 28.03 42.7C28.08 42.76 28.1 42.85 28.1 42.97C28.1 43.09 28.08 43.18 28.03 43.25H28.04Z" fill="white"/>
<path d="M28.95 43.03C29.08 42.98 29.14 42.89 29.14 42.77C29.14 42.67 29.11 42.6 29.05 42.56C28.99 42.51 28.89 42.49 28.77 42.49H28.49V43.47H28.65V43.08H28.81L29.05 43.47H29.23L28.95 43.03ZM28.76 42.94H28.65V42.62H28.76C28.83 42.62 28.89 42.63 28.92 42.66C28.96 42.68 28.97 42.72 28.97 42.78C28.97 42.84 28.95 42.88 28.92 42.9C28.89 42.92 28.83 42.94 28.76 42.94Z" fill="white"/>
<path d="M30.04 42.48V43C30.04 43 30.04 43.09 30.04 43.15C30.04 43.21 30.04 43.25 30.04 43.26L29.56 42.48H29.37V43.46H29.52V42.95C29.52 42.88 29.52 42.8 29.51 42.72V42.68L29.99 43.46H30.19V42.48H30.04Z" fill="white"/>
<path d="M25.03 29.08C22.17 29.08 19.86 31.4 19.86 34.25C19.86 37.1 22.18 39.42 25.03 39.42C27.88 39.42 30.2 37.1 30.2 34.25C30.2 31.4 27.88 29.08 25.03 29.08ZM24.19 30.91H26.98V31.2H24.85V31.84H24.22L24.2 31.65C24.2 31.55 24.18 31.38 24.18 31.28V30.91H24.19ZM22.83 37.05H22.43C22.33 37.05 22.22 37.03 22.19 37.01C22.17 36.98 22.15 36.9 22.15 36.82C22.15 36.74 22.17 36.68 22.19 36.68C22.22 36.68 22.22 36.64 22.19 36.59C22.17 36.54 22.15 36.41 22.15 36.31C22.15 36.21 22.19 36.08 22.24 36.03C22.29 35.98 22.41 35.91 22.51 35.88L22.71 35.81C22.81 35.78 22.97 35.74 23.07 35.72L23.82 35.59C23.92 35.57 24.06 35.5 24.13 35.43L24.43 35.13C24.5 35.06 24.55 34.92 24.54 34.81L24.4 33.69C24.39 33.59 24.37 33.42 24.36 33.32L24.25 32.11H24.86C24.86 32.11 24.86 32.19 24.86 32.23L24.88 32.4L25.02 33.9C25.03 34.01 25.05 34.18 25.06 34.28L25.2 35.4C25.2 35.4 25.18 35.48 25.17 35.49L24.88 35.79C24.88 35.79 24.75 35.87 24.71 35.88L23.96 36.01C23.85 36.03 23.67 36.07 23.56 36.11L23.36 36.18C23.25 36.22 23.08 36.3 22.99 36.4C22.87 36.52 22.82 36.72 22.82 36.87C22.82 36.91 22.82 36.98 22.84 37.05H22.83ZM27.75 33.89C27.74 33.99 27.72 34.16 27.7 34.26L27.57 35.01C27.55 35.11 27.54 35.28 27.54 35.38C27.54 35.48 27.57 35.65 27.6 35.74L27.67 35.94C27.7 36.04 27.73 36.2 27.73 36.3V36.95C27.73 37 27.71 37.08 27.68 37.14C27.66 37.19 27.66 37.23 27.68 37.23C27.71 37.23 27.73 37.29 27.73 37.37C27.73 37.45 27.72 37.53 27.71 37.55C27.7 37.58 27.6 37.6 27.5 37.6H26.61C26.51 37.6 26.43 37.56 26.43 37.51C26.43 37.46 26.34 37.41 26.24 37.41H26.06C25.95 37.41 25.83 37.45 25.78 37.51C25.73 37.56 25.6 37.6 25.5 37.6H23.36C23.26 37.6 23.15 37.58 23.12 37.55C23.1 37.53 23.08 37.44 23.08 37.37C23.08 37.3 23.1 37.23 23.12 37.23C23.15 37.23 23.15 37.19 23.12 37.14C23.1 37.09 23.08 36.96 23.08 36.86C23.08 36.76 23.12 36.63 23.17 36.58C23.22 36.53 23.34 36.46 23.44 36.43L23.64 36.36C23.74 36.33 23.9 36.29 24 36.27L24.75 36.14C24.85 36.12 24.99 36.05 25.06 35.98L25.36 35.68C25.43 35.61 25.48 35.47 25.47 35.36L25.33 34.24C25.32 34.14 25.3 33.97 25.29 33.87L25.18 32.66H27.85L27.74 33.87L27.75 33.89ZM27.91 31.84C27.91 31.94 27.91 32.11 27.9 32.21L27.88 32.4H25.15L25.13 32.21C25.13 32.11 25.11 31.94 25.11 31.84V31.47H27.9V31.84H27.91Z" fill="white"/>
<path d="M14.8 8.10001V23.88H0.150024V8.10001C0.150024 4.05001 3.42998 0.769989 7.47998 0.769989C11.53 0.769989 14.81 4.05001 14.81 8.10001H14.8Z" fill="#1E353C"/>
<path d="M14.79 26.13H0.140015V46.78H14.79V26.13Z" fill="#1E353C"/>
<path d="M0.140015 49.03H14.79V64.81C14.79 68.86 11.51 72.14 7.46002 72.14C3.41002 72.14 0.130005 68.86 0.130005 64.81V49.03H0.140015Z" fill="#1E353C"/>
<path d="M20.7101 63.72L20.5701 64.29C20.5401 64.39 20.5301 64.47 20.5201 64.54C20.5001 64.43 20.49 64.35 20.47 64.3L20.3101 63.72H20.1501L19.9901 64.29C19.9901 64.29 19.9701 64.36 19.9601 64.41C19.9501 64.46 19.9401 64.5 19.9401 64.54C19.9301 64.47 19.9201 64.39 19.8901 64.29L19.7501 63.72H19.5901L19.72 64.21L19.85 64.7H20.0301L20.1901 64.11C20.1901 64.11 20.21 64.05 20.22 64.01C20.23 63.97 20.2401 63.93 20.2401 63.9C20.2401 63.92 20.2501 63.95 20.2601 64C20.2701 64.05 20.28 64.09 20.29 64.11L20.4601 64.7H20.6301L20.8901 63.72H20.73H20.7101Z" fill="white"/>
<path d="M21.57 63.86V63.72H21.01V64.7H21.57V64.56H21.17V64.25H21.54V64.11H21.17V63.84H21.57V63.86Z" fill="white"/>
<path d="M21.94 64.57V63.72H21.78V64.7H22.36V64.56H21.94V64.57Z" fill="white"/>
<path d="M23.2001 63.85C23.1101 63.76 22.9901 63.72 22.8401 63.72H22.54V64.7H22.8101C22.9801 64.7 23.1101 64.66 23.2001 64.57C23.2901 64.48 23.3401 64.36 23.3401 64.2C23.3401 64.05 23.3001 63.93 23.2101 63.85H23.2001ZM22.8 64.57H22.6901V63.85H22.8301C23.0501 63.85 23.16 63.97 23.16 64.2C23.16 64.43 23.04 64.56 22.8 64.56V64.57Z" fill="white"/>
<path d="M23.54 63.72V64.7H23.7001V63.72H23.54Z" fill="white"/>
<path d="M24.64 63.72V64.23C24.64 64.23 24.64 64.32 24.64 64.38C24.64 64.44 24.64 64.48 24.64 64.49L24.16 63.71H23.97V64.69H24.12V64.18C24.12 64.11 24.12 64.04 24.11 63.95V63.91L24.59 64.7H24.79V63.72H24.64Z" fill="white"/>
<path d="M25.44 64.17V64.31H25.64V64.57C25.58 64.58 25.52 64.59 25.47 64.59C25.37 64.59 25.29 64.56 25.23 64.49C25.17 64.43 25.14 64.34 25.14 64.21C25.14 64.1 25.17 64.01 25.23 63.94C25.29 63.87 25.37 63.84 25.48 63.84C25.56 63.84 25.64 63.86 25.72 63.89L25.77 63.76C25.68 63.72 25.58 63.7 25.48 63.7C25.32 63.7 25.2 63.75 25.11 63.84C25.02 63.93 24.97 64.05 24.97 64.21C24.97 64.37 25.01 64.5 25.09 64.58C25.17 64.67 25.29 64.71 25.44 64.71C25.5 64.71 25.56 64.71 25.62 64.7C25.67 64.7 25.73 64.68 25.79 64.66V64.17H25.43H25.44Z" fill="white"/>
<path d="M27.1901 63.72L26.91 64.5L26.6401 63.72H26.41V64.7H26.5601V64.22C26.5601 64.11 26.56 64 26.55 63.88L26.8401 64.7H26.98L27.2701 63.88C27.2701 63.88 27.2701 63.94 27.2701 64.02C27.2701 64.1 27.2701 64.16 27.2701 64.21V64.7H27.42V63.72H27.2001H27.1901Z" fill="white"/>
<path d="M28.0901 63.72H27.92L27.55 64.71H27.72L27.8201 64.43H28.2001L28.3 64.71H28.47L28.1 63.72H28.0901ZM27.86 64.3L27.9501 64.04C27.9701 63.98 27.9901 63.91 28.0001 63.86C28.0001 63.88 28.0101 63.91 28.0201 63.95C28.0301 63.99 28.04 64.02 28.05 64.04L28.1401 64.31H27.85L27.86 64.3Z" fill="white"/>
<path d="M29.13 64.32C29.13 64.32 29.09 64.26 29.06 64.23C29.03 64.21 28.97 64.18 28.9 64.15C28.84 64.12 28.79 64.1 28.77 64.09C28.75 64.07 28.73 64.06 28.72 64.04C28.71 64.02 28.7 64 28.7 63.97C28.7 63.93 28.71 63.91 28.74 63.88C28.77 63.86 28.8 63.85 28.86 63.85C28.93 63.85 29.01 63.87 29.09 63.9L29.14 63.77C29.05 63.73 28.95 63.71 28.86 63.71C28.76 63.71 28.68 63.73 28.62 63.78C28.56 63.83 28.53 63.89 28.53 63.97C28.53 64.03 28.55 64.09 28.58 64.14C28.62 64.18 28.68 64.23 28.77 64.26C28.86 64.29 28.91 64.32 28.94 64.35C28.97 64.37 28.98 64.4 28.98 64.44C28.98 64.48 28.96 64.51 28.93 64.54C28.9 64.56 28.86 64.58 28.79 64.58C28.75 64.58 28.7 64.58 28.65 64.56C28.6 64.55 28.55 64.53 28.51 64.51V64.66C28.58 64.69 28.67 64.71 28.78 64.71C28.89 64.71 28.98 64.69 29.04 64.64C29.1 64.59 29.14 64.52 29.14 64.43C29.14 64.39 29.13 64.35 29.12 64.31L29.13 64.32Z" fill="white"/>
<path d="M29.7201 64.15C29.7901 64.06 29.9201 63.92 30.0901 63.72H29.9101L29.6401 64.03C29.6001 64.08 29.5501 64.13 29.5101 64.19V63.72H29.3501V64.7H29.5101V64.33L29.6101 64.26L29.9201 64.71H30.1101L29.7301 64.15H29.7201Z" fill="white"/>
<path d="M20.4601 65.38L20.1801 66.16L19.91 65.38H19.6801V66.36H19.8301V65.88C19.8301 65.77 19.8301 65.66 19.8201 65.54L20.11 66.36H20.2501L20.55 65.54C20.55 65.54 20.55 65.6 20.55 65.68C20.55 65.76 20.55 65.82 20.55 65.87V66.36H20.7101V65.38H20.48H20.4601Z" fill="white"/>
<path d="M21.5601 65.38V66C21.5601 66.16 21.4901 66.24 21.3301 66.24C21.2501 66.24 21.19 66.22 21.16 66.18C21.12 66.14 21.11 66.08 21.11 66V65.38H20.9501V66.01C20.9501 66.13 20.98 66.21 21.05 66.28C21.12 66.35 21.2101 66.38 21.3401 66.38C21.4201 66.38 21.49 66.37 21.55 66.34C21.61 66.31 21.6501 66.27 21.6801 66.21C21.7101 66.16 21.73 66.09 21.73 66.02V65.38H21.5701H21.5601Z" fill="white"/>
<path d="M22.5201 65.98C22.5201 65.98 22.4801 65.92 22.4501 65.89C22.4201 65.86 22.3601 65.84 22.2901 65.8C22.2301 65.77 22.1801 65.75 22.1601 65.74C22.1401 65.73 22.1201 65.71 22.1101 65.69C22.1001 65.67 22.0901 65.65 22.0901 65.63C22.0901 65.59 22.1001 65.56 22.1301 65.54C22.1601 65.52 22.1901 65.51 22.2501 65.51C22.3201 65.51 22.4001 65.53 22.4801 65.56L22.5302 65.43C22.4402 65.39 22.3401 65.37 22.2501 65.37C22.1501 65.37 22.0701 65.39 22.0101 65.44C21.9501 65.49 21.9201 65.55 21.9201 65.63C21.9201 65.69 21.9401 65.75 21.9701 65.8C22.0101 65.85 22.0701 65.89 22.1601 65.93C22.2501 65.96 22.3001 65.99 22.3301 66.02C22.3601 66.05 22.3701 66.08 22.3701 66.12C22.3701 66.16 22.3501 66.19 22.3201 66.22C22.2901 66.24 22.2501 66.25 22.1801 66.25C22.1401 66.25 22.0901 66.25 22.0401 66.23C21.9901 66.22 21.9401 66.2 21.9001 66.18V66.33C21.9701 66.36 22.0601 66.38 22.1701 66.38C22.2801 66.38 22.3701 66.36 22.4301 66.31C22.4901 66.26 22.5302 66.19 22.5302 66.11C22.5302 66.07 22.5201 66.02 22.5101 65.99L22.5201 65.98Z" fill="white"/>
<path d="M22.6201 65.38V65.52H22.9101V66.37H23.0701V65.52H23.3601V65.38H22.6201Z" fill="white"/>
<path d="M24.5201 65.92C24.5201 65.92 24.4401 65.86 24.3701 65.85C24.4201 65.83 24.4701 65.81 24.5001 65.77C24.5301 65.73 24.5401 65.68 24.5401 65.63C24.5401 65.54 24.5101 65.48 24.4501 65.44C24.3901 65.4 24.2901 65.38 24.1501 65.38H23.8601V66.36H24.2101C24.3201 66.36 24.4101 66.34 24.4701 66.29C24.5301 66.24 24.5601 66.17 24.5601 66.08C24.5601 66.02 24.5401 65.96 24.5101 65.92H24.5201ZM24.0302 65.51H24.1701C24.2401 65.51 24.3001 65.52 24.3301 65.54C24.3601 65.56 24.3801 65.59 24.3801 65.64C24.3801 65.69 24.3701 65.73 24.3401 65.75C24.3101 65.77 24.2601 65.78 24.1901 65.78H24.0401V65.51H24.0302ZM24.3501 66.19C24.3501 66.19 24.2601 66.23 24.2001 66.23H24.0302V65.92H24.1901C24.2601 65.92 24.3101 65.93 24.3501 65.96C24.3801 65.98 24.4001 66.02 24.4001 66.07C24.4001 66.13 24.3801 66.17 24.3501 66.19Z" fill="white"/>
<path d="M25.33 65.51V65.37H24.77V66.35H25.33V66.21H24.93V65.9H25.3V65.77H24.93V65.5H25.33V65.51Z" fill="white"/>
<path d="M26.91 65.38L26.7701 65.95C26.7401 66.05 26.73 66.13 26.72 66.2C26.7 66.09 26.68 66.01 26.67 65.96L26.5101 65.38H26.35L26.1901 65.96C26.1901 65.96 26.17 66.03 26.16 66.08C26.15 66.12 26.1401 66.17 26.1401 66.21C26.1401 66.14 26.12 66.06 26.1 65.97L25.9601 65.39H25.8L25.9301 65.88L26.0601 66.37H26.2401L26.4001 65.79C26.4001 65.79 26.41 65.73 26.42 65.69C26.43 65.64 26.4401 65.6 26.4401 65.58C26.4401 65.6 26.4501 65.63 26.4601 65.68C26.4701 65.73 26.4801 65.77 26.4901 65.79L26.66 66.38H26.8301L27.0901 65.4H26.9301L26.91 65.38Z" fill="white"/>
<path d="M27.97 65.5C27.89 65.41 27.7801 65.37 27.6301 65.37C27.4801 65.37 27.37 65.41 27.29 65.5C27.21 65.59 27.17 65.71 27.17 65.87C27.17 66.03 27.21 66.16 27.29 66.24C27.37 66.33 27.4801 66.37 27.6301 66.37C27.7801 66.37 27.89 66.33 27.97 66.24C28.05 66.15 28.0901 66.03 28.0901 65.87C28.0901 65.71 28.05 65.59 27.97 65.5ZM27.8401 66.15C27.7901 66.21 27.7201 66.24 27.6301 66.24C27.5401 66.24 27.46 66.21 27.41 66.14C27.36 66.08 27.3401 65.99 27.3401 65.86C27.3401 65.73 27.36 65.65 27.41 65.59C27.46 65.53 27.5301 65.49 27.6301 65.49C27.7301 65.49 27.8 65.52 27.85 65.59C27.9 65.65 27.92 65.74 27.92 65.86C27.92 65.98 27.9 66.07 27.85 66.14L27.8401 66.15Z" fill="white"/>
<path d="M28.7601 65.93C28.8901 65.88 28.9501 65.79 28.9501 65.67C28.9501 65.57 28.92 65.5 28.86 65.46C28.8 65.41 28.7101 65.39 28.5801 65.39H28.3V66.37H28.4601V65.98H28.6201L28.86 66.37H29.04L28.7601 65.93ZM28.5701 65.84H28.4601V65.52H28.5701C28.6401 65.52 28.7 65.53 28.73 65.56C28.76 65.58 28.7801 65.62 28.7801 65.68C28.7801 65.74 28.76 65.78 28.73 65.8C28.7 65.83 28.6401 65.84 28.5701 65.84Z" fill="white"/>
<path d="M29.85 65.38V65.9C29.85 65.9 29.85 65.99 29.85 66.05C29.85 66.11 29.85 66.15 29.85 66.16L29.3701 65.38H29.1801V66.36H29.3301V65.85C29.3301 65.78 29.3301 65.7 29.3201 65.62V65.58L29.8 66.36H29.9901V65.38H29.8401H29.85Z" fill="white"/>
<path d="M22.79 54.93V56.98H26.8901V54.93H22.79ZM26.4301 56.52H23.2501V55.38H26.4301V56.52ZM22.79 54.93V56.98H26.8901V54.93H22.79ZM26.4301 56.52H23.2501V55.38H26.4301V56.52ZM24.8401 51.8C21.9801 51.8 19.67 54.11 19.67 56.97C19.67 59.83 21.9901 62.14 24.8401 62.14C27.6901 62.14 30.0101 59.83 30.0101 56.97C30.0101 54.11 27.6901 51.8 24.8401 51.8ZM27.6901 56.65C27.6901 56.71 27.6401 56.76 27.5801 56.76H27.42C27.4 57.75 27.3301 58.66 26.9901 59.35C26.6001 60.13 25.8201 60.64 24.8401 60.64C23.8801 60.64 23.0701 60.13 22.6901 59.35C22.3401 58.64 22.2701 57.72 22.2601 56.76H22.1C22.04 56.76 21.9901 56.71 21.9901 56.65V55.14C21.9901 55.08 22.04 55.03 22.1 55.03H22.2801C22.3301 54.17 22.47 53.52 22.47 53.52C22.47 53.52 23.6501 53.31 24.8401 53.31C26.0301 53.31 27.2101 53.52 27.2101 53.52C27.2101 53.52 27.3501 54.16 27.4001 55.03H27.5801C27.6401 55.03 27.6901 55.08 27.6901 55.14V56.65ZM22.79 56.98H26.8901V54.93H22.79V56.98ZM23.2501 55.38H26.4301V56.52H23.2501V55.38ZM22.79 54.93V56.98H26.8901V54.93H22.79ZM26.4301 56.52H23.2501V55.38H26.4301V56.52ZM22.79 54.93V56.98H26.8901V54.93H22.79ZM26.4301 56.52H23.2501V55.38H26.4301V56.52Z" fill="white"/>
<path d="M20.57 18.07C20.57 18.07 20.53 18.01 20.5 17.98C20.47 17.95 20.41 17.93 20.34 17.89C20.28 17.86 20.23 17.84 20.21 17.83C20.19 17.81 20.17 17.8 20.16 17.78C20.15 17.76 20.15 17.74 20.15 17.72C20.15 17.68 20.16 17.65 20.19 17.63C20.22 17.61 20.26 17.6 20.31 17.6C20.38 17.6 20.46 17.62 20.55 17.65L20.6 17.52C20.51 17.48 20.41 17.46 20.32 17.46C20.23 17.46 20.15 17.48 20.08 17.53C20.02 17.58 19.99 17.64 19.99 17.72C19.99 17.78 20.01 17.84 20.04 17.89C20.08 17.94 20.14 17.98 20.23 18.02C20.32 18.05 20.37 18.08 20.4 18.11C20.43 18.13 20.44 18.16 20.44 18.2C20.44 18.24 20.42 18.27 20.39 18.3C20.36 18.32 20.32 18.33 20.25 18.33C20.21 18.33 20.16 18.33 20.11 18.31C20.06 18.3 20.01 18.28 19.97 18.26V18.41C20.04 18.44 20.13 18.46 20.25 18.46C20.37 18.46 20.45 18.44 20.51 18.39C20.57 18.34 20.6 18.27 20.6 18.19C20.6 18.15 20.6 18.1 20.58 18.07H20.57Z" fill="white"/>
<path d="M21.2 17.47H21.02L20.65 18.46H20.82L20.92 18.19H21.3L21.4 18.46H21.57L21.2 17.47ZM20.97 18.04L21.06 17.78C21.08 17.72 21.1 17.65 21.11 17.6C21.11 17.62 21.12 17.64 21.13 17.69C21.14 17.73 21.15 17.75 21.16 17.78L21.25 18.05H20.96L20.97 18.04Z" fill="white"/>
<path d="M22.2599 17.6V17.46H21.7V18.44H21.8599V18.04H22.2299V17.9H21.8599V17.59H22.2599V17.6Z" fill="white"/>
<path d="M22.9899 17.6V17.46H22.4299V18.44H22.9899V18.3H22.59V17.99H22.96V17.86H22.59V17.59H22.9899V17.6Z" fill="white"/>
<path d="M23.1 17.47V17.61H23.39V18.46H23.55V17.61H23.84V17.47H23.1Z" fill="white"/>
<path d="M24.5 17.47L24.27 17.92L24.03 17.47H23.86L24.19 18.08V18.45H24.35V18.07L24.68 17.47H24.51H24.5Z" fill="white"/>
<path d="M25.58 18.33C25.48 18.33 25.41 18.3 25.36 18.24C25.31 18.18 25.28 18.09 25.28 17.96C25.28 17.84 25.31 17.76 25.36 17.69C25.41 17.62 25.48 17.59 25.58 17.59C25.62 17.59 25.66 17.59 25.7 17.61C25.74 17.62 25.77 17.64 25.81 17.65L25.87 17.52C25.78 17.48 25.69 17.46 25.59 17.46C25.49 17.46 25.41 17.48 25.34 17.52C25.27 17.56 25.21 17.62 25.18 17.7C25.14 17.78 25.13 17.87 25.13 17.97C25.13 18.13 25.17 18.26 25.24 18.34C25.32 18.43 25.43 18.47 25.57 18.47C25.67 18.47 25.75 18.46 25.83 18.43V18.29C25.83 18.29 25.75 18.31 25.71 18.32C25.67 18.33 25.63 18.33 25.59 18.33H25.58Z" fill="white"/>
<path d="M26.19 18.32V17.47H26.03V18.45H26.61V18.31H26.19V18.32Z" fill="white"/>
<path d="M27.54 17.59C27.46 17.5 27.35 17.46 27.2 17.46C27.05 17.46 26.94 17.5 26.86 17.59C26.78 17.68 26.74 17.8 26.74 17.96C26.74 18.12 26.78 18.25 26.86 18.33C26.94 18.42 27.05 18.46 27.2 18.46C27.35 18.46 27.46 18.42 27.54 18.33C27.62 18.24 27.66 18.12 27.66 17.96C27.66 17.8 27.62 17.68 27.54 17.59ZM27.41 18.24C27.36 18.3 27.29 18.33 27.2 18.33C27.11 18.33 27.03 18.3 26.98 18.23C26.93 18.17 26.91 18.08 26.91 17.95C26.91 17.82 26.93 17.74 26.98 17.68C27.03 17.62 27.1 17.58 27.2 17.58C27.3 17.58 27.37 17.61 27.42 17.68C27.47 17.74 27.49 17.83 27.49 17.95C27.49 18.07 27.47 18.16 27.42 18.23L27.41 18.24Z" fill="white"/>
<path d="M28.43 17.47L28.22 18.08C28.22 18.08 28.2 18.13 28.19 18.18C28.18 18.23 28.17 18.27 28.16 18.3C28.16 18.28 28.15 18.25 28.14 18.2C28.13 18.16 28.12 18.12 28.11 18.09L27.91 17.48H27.74L28.08 18.46H28.25L28.59 17.48H28.42L28.43 17.47Z" fill="white"/>
<path d="M29.28 17.6V17.46H28.72V18.44H29.28V18.3H28.88V17.99H29.25V17.86H28.88V17.59H29.28V17.6Z" fill="white"/>
<path d="M30.0399 18.07C30.0399 18.07 29.9999 18.01 29.9699 17.98C29.9399 17.95 29.8799 17.93 29.8099 17.89C29.7499 17.86 29.6999 17.84 29.6799 17.83C29.6599 17.81 29.6399 17.8 29.6299 17.78C29.6199 17.76 29.6099 17.74 29.6099 17.72C29.6099 17.68 29.62 17.65 29.65 17.63C29.68 17.61 29.72 17.6 29.77 17.6C29.84 17.6 29.9199 17.62 30.0099 17.65L30.0599 17.52C29.9599 17.48 29.87 17.46 29.78 17.46C29.69 17.46 29.5999 17.48 29.5399 17.53C29.4799 17.58 29.45 17.64 29.45 17.72C29.45 17.78 29.4699 17.84 29.4999 17.89C29.5399 17.94 29.5999 17.98 29.6899 18.02C29.7799 18.05 29.8299 18.08 29.8599 18.11C29.8899 18.13 29.9 18.16 29.9 18.2C29.9 18.24 29.8899 18.27 29.8599 18.3C29.8299 18.33 29.7799 18.33 29.7199 18.33C29.6799 18.33 29.63 18.33 29.58 18.31C29.53 18.3 29.4799 18.28 29.4399 18.26V18.41C29.5099 18.44 29.5999 18.46 29.7199 18.46C29.8399 18.46 29.9199 18.44 29.9799 18.39C30.0399 18.34 30.08 18.27 30.08 18.19C30.08 18.15 30.0799 18.1 30.0599 18.07H30.0399Z" fill="white"/>
<path d="M20.64 19.12L20.36 19.9L20.08 19.12H19.86V20.1H20.01V19.62C20.01 19.51 20.01 19.4 20 19.28L20.29 20.1H20.43L20.73 19.28C20.73 19.28 20.73 19.34 20.73 19.42C20.73 19.5 20.73 19.56 20.73 19.61V20.1H20.88V19.12H20.65H20.64Z" fill="white"/>
<path d="M21.73 19.12V19.74C21.73 19.9 21.66 19.98 21.51 19.98C21.43 19.98 21.37 19.96 21.34 19.92C21.3 19.88 21.28 19.82 21.28 19.74V19.12H21.12V19.75C21.12 19.86 21.15 19.95 21.22 20.02C21.29 20.08 21.38 20.12 21.51 20.12C21.59 20.12 21.66 20.11 21.72 20.08C21.78 20.05 21.83 20.01 21.86 19.95C21.89 19.9 21.91 19.83 21.91 19.76V19.12H21.75H21.73Z" fill="white"/>
<path d="M22.6901 19.72C22.6901 19.72 22.6501 19.66 22.6201 19.63C22.5901 19.6 22.5301 19.58 22.4601 19.54C22.4001 19.51 22.3501 19.49 22.3301 19.48C22.3001 19.46 22.2901 19.45 22.2801 19.43C22.2701 19.41 22.2601 19.39 22.2601 19.37C22.2601 19.33 22.27 19.3 22.3 19.28C22.33 19.26 22.37 19.25 22.42 19.25C22.49 19.25 22.57 19.27 22.66 19.31L22.7101 19.18C22.6101 19.14 22.5201 19.12 22.4301 19.12C22.3401 19.12 22.2501 19.14 22.1901 19.19C22.1301 19.23 22.1 19.3 22.1 19.38C22.1 19.44 22.1201 19.5 22.1501 19.55C22.1901 19.6 22.2501 19.64 22.3401 19.67C22.4301 19.71 22.4901 19.74 22.5101 19.76C22.5401 19.79 22.55 19.82 22.55 19.86C22.55 19.9 22.5401 19.93 22.5101 19.96C22.4801 19.98 22.4301 20 22.3701 20C22.3301 20 22.28 20 22.23 19.98C22.18 19.97 22.1301 19.95 22.0901 19.93V20.08C22.1601 20.11 22.25 20.13 22.36 20.13C22.47 20.13 22.5601 20.11 22.6201 20.06C22.6801 20.01 22.72 19.94 22.72 19.85C22.72 19.81 22.7201 19.77 22.7001 19.73L22.6901 19.72Z" fill="white"/>
<path d="M22.8 19.12V19.26H23.0901V20.11H23.2501V19.26H23.54V19.12H22.8Z" fill="white"/>
<path d="M24.7001 19.67C24.7001 19.67 24.61 19.61 24.55 19.6C24.61 19.58 24.6501 19.56 24.6801 19.52C24.7101 19.48 24.72 19.43 24.72 19.38C24.72 19.29 24.6901 19.23 24.6301 19.19C24.5701 19.15 24.4701 19.13 24.3401 19.13H24.05V20.11H24.41C24.52 20.11 24.6 20.09 24.67 20.04C24.73 19.99 24.7601 19.92 24.7601 19.83C24.7601 19.77 24.7501 19.71 24.7101 19.67H24.7001ZM24.2001 19.26H24.3401C24.4101 19.26 24.4701 19.27 24.5001 19.29C24.5301 19.31 24.55 19.34 24.55 19.39C24.55 19.44 24.5301 19.48 24.5001 19.5C24.4701 19.52 24.42 19.53 24.35 19.53H24.1901V19.26H24.2001ZM24.5301 19.94C24.5301 19.94 24.4401 19.98 24.3801 19.98H24.2101V19.67H24.3701C24.4401 19.67 24.5001 19.68 24.5301 19.71C24.5601 19.73 24.5801 19.77 24.5801 19.82C24.5801 19.87 24.5601 19.92 24.5301 19.94Z" fill="white"/>
<path d="M25.5099 19.26V19.12H24.95V20.1H25.5099V19.96H25.1099V19.65H25.4799V19.52H25.1099V19.25H25.5099V19.26Z" fill="white"/>
<path d="M27.08 19.12L26.9399 19.69C26.9199 19.79 26.9 19.87 26.89 19.94C26.87 19.83 26.86 19.75 26.84 19.7L26.6799 19.12H26.52L26.3599 19.7C26.3599 19.7 26.34 19.77 26.33 19.81C26.33 19.86 26.3099 19.9 26.3099 19.94C26.2999 19.87 26.2899 19.79 26.2599 19.69L26.1199 19.12H25.96L26.09 19.61L26.2199 20.1H26.39L26.5499 19.51C26.5499 19.51 26.5599 19.46 26.5699 19.41C26.5799 19.37 26.59 19.33 26.59 19.3C26.59 19.32 26.5899 19.35 26.6099 19.4C26.6199 19.45 26.6299 19.49 26.6299 19.51L26.7999 20.1H26.9699L27.2299 19.12H27.0699H27.08Z" fill="white"/>
<path d="M28.1401 19.24C28.0601 19.15 27.95 19.11 27.8 19.11C27.65 19.11 27.5401 19.15 27.4601 19.24C27.3801 19.33 27.3401 19.45 27.3401 19.61C27.3401 19.77 27.3801 19.9 27.4601 19.98C27.5401 20.07 27.65 20.11 27.8 20.11C27.95 20.11 28.0601 20.07 28.1401 19.98C28.2201 19.89 28.2601 19.77 28.2601 19.61C28.2601 19.45 28.2201 19.32 28.1401 19.24ZM28.0201 19.89C27.9701 19.95 27.9 19.99 27.8 19.99C27.7 19.99 27.6301 19.96 27.5901 19.89C27.5401 19.83 27.5201 19.74 27.5201 19.61C27.5201 19.48 27.5401 19.4 27.5901 19.33C27.6401 19.27 27.7101 19.24 27.8101 19.24C27.9101 19.24 27.9801 19.27 28.0201 19.33C28.0701 19.39 28.0901 19.49 28.0901 19.61C28.0901 19.73 28.0701 19.82 28.0201 19.89Z" fill="white"/>
<path d="M28.93 19.67C29.06 19.62 29.12 19.53 29.12 19.41C29.12 19.31 29.09 19.24 29.03 19.2C28.97 19.16 28.88 19.13 28.75 19.13H28.47V20.11H28.63V19.72H28.79L29.03 20.11H29.21L28.93 19.67ZM28.75 19.58H28.64V19.26H28.75C28.83 19.26 28.88 19.27 28.91 19.3C28.95 19.32 28.96 19.36 28.96 19.42C28.96 19.47 28.94 19.52 28.91 19.54C28.88 19.57 28.82 19.58 28.75 19.58Z" fill="white"/>
<path d="M30.03 19.12V19.63C30.03 19.63 30.03 19.72 30.03 19.78C30.03 19.84 30.03 19.88 30.03 19.89L29.55 19.11H29.35V20.09H29.5V19.58C29.5 19.51 29.5 19.43 29.49 19.35V19.31L29.97 20.09H30.17V19.11H30.02L30.03 19.12Z" fill="white"/>
<path d="M3.23999 41.67H3.08002V41.23H2.63V41.67H2.46997V40.69H2.63V41.09H3.08002V40.69H3.23999V41.67Z" fill="white"/>
<path d="M3.48999 41.67V40.69H3.65002V41.67H3.48999Z" fill="white"/>
<path d="M4.32001 41.13H4.67999V41.62C4.61999 41.64 4.56001 41.65 4.51001 41.66C4.46001 41.66 4.40002 41.67 4.33002 41.67C4.18002 41.67 4.06999 41.63 3.98999 41.54C3.90999 41.45 3.87 41.33 3.87 41.17C3.87 41.01 3.92001 40.89 4.01001 40.8C4.10001 40.71 4.23001 40.67 4.39001 40.67C4.49001 40.67 4.58999 40.69 4.67999 40.73L4.62 40.86C4.54 40.82 4.46 40.8 4.38 40.8C4.27 40.8 4.19 40.83 4.13 40.9C4.07 40.97 4.03998 41.06 4.03998 41.17C4.03998 41.29 4.07 41.38 4.12 41.44C4.18 41.5 4.24999 41.53 4.35999 41.53C4.40999 41.53 4.47003 41.53 4.53003 41.51V41.26H4.33002V41.12L4.32001 41.13Z" fill="white"/>
<path d="M5.68994 41.67H5.52997V41.23H5.07996V41.67H4.91992V40.69H5.07996V41.09H5.52997V40.69H5.68994V41.67Z" fill="white"/>
<path d="M6.86993 40.68H7.03992L6.69995 41.66H6.52997L6.18994 40.68H6.35992L6.56995 41.29C6.56995 41.29 6.58991 41.36 6.59991 41.4C6.60991 41.45 6.61993 41.48 6.61993 41.5C6.61993 41.47 6.62996 41.43 6.64996 41.38C6.65996 41.34 6.66993 41.3 6.67993 41.28L6.88995 40.67L6.86993 40.68Z" fill="white"/>
<path d="M7.16992 41.67V40.69H7.32996V41.67H7.16992Z" fill="white"/>
<path d="M8.16003 41.4C8.16003 41.49 8.13007 41.56 8.07007 41.61C8.01007 41.66 7.92006 41.68 7.81006 41.68C7.70006 41.68 7.61004 41.66 7.54004 41.63V41.48C7.54004 41.48 7.63005 41.52 7.68005 41.53C7.73005 41.54 7.78007 41.55 7.82007 41.55C7.88007 41.55 7.93008 41.54 7.96008 41.51C7.99008 41.49 8.01007 41.45 8.01007 41.41C8.01007 41.37 8.00003 41.34 7.97003 41.32C7.94003 41.29 7.88005 41.26 7.80005 41.23C7.71005 41.19 7.65005 41.15 7.61005 41.11C7.57005 41.06 7.55005 41.01 7.55005 40.94C7.55005 40.86 7.58008 40.79 7.64008 40.75C7.70008 40.7 7.78007 40.68 7.88007 40.68C7.98007 40.68 8.07003 40.7 8.16003 40.74L8.11005 40.87C8.02005 40.83 7.94007 40.81 7.88007 40.81C7.83007 40.81 7.79007 40.82 7.76007 40.84C7.73007 40.86 7.72003 40.89 7.72003 40.93C7.72003 40.96 7.72005 40.98 7.74005 41C7.75005 41.02 7.77004 41.04 7.79004 41.05C7.81004 41.07 7.86004 41.09 7.92004 41.11C7.99004 41.14 8.05008 41.17 8.08008 41.19C8.11008 41.22 8.14009 41.25 8.15009 41.28C8.17009 41.31 8.17004 41.35 8.17004 41.4H8.16003Z" fill="white"/>
<path d="M8.34998 41.67V40.69H8.51001V41.67H8.34998Z" fill="white"/>
<path d="M8.77002 40.68H9.06C9.2 40.68 9.28998 40.7 9.34998 40.74C9.40998 40.78 9.44 40.84 9.44 40.93C9.44 40.99 9.43002 41.04 9.40002 41.07C9.37002 41.11 9.33002 41.13 9.27002 41.14C9.34002 41.16 9.38998 41.19 9.41998 41.22C9.44998 41.26 9.46997 41.31 9.46997 41.38C9.46997 41.47 9.44 41.54 9.38 41.59C9.32 41.64 9.23 41.67 9.12 41.67H8.76001V40.69L8.77002 40.68ZM8.92999 41.09H9.08002C9.15002 41.09 9.19998 41.08 9.22998 41.06C9.25998 41.04 9.28003 41 9.28003 40.95C9.28003 40.9 9.25998 40.87 9.22998 40.85C9.19998 40.83 9.14001 40.82 9.07001 40.82H8.92999V41.09ZM8.92999 41.22V41.53H9.09998C9.16998 41.53 9.22 41.52 9.25 41.49C9.28 41.46 9.29999 41.42 9.29999 41.37C9.29999 41.32 9.28 41.28 9.25 41.26C9.22 41.24 9.16003 41.22 9.09003 41.22H8.92999Z" fill="white"/>
<path d="M9.67993 41.67V40.69H9.83997V41.67H9.67993Z" fill="white"/>
<path d="M10.1 41.67V40.69H10.26V41.54H10.68V41.68H10.1V41.67Z" fill="white"/>
<path d="M10.85 41.67V40.69H11.01V41.67H10.85Z" fill="white"/>
<path d="M11.6099 41.67H11.45V40.82H11.1599V40.68H11.9V40.82H11.6099V41.67Z" fill="white"/>
<path d="M12.33 41.13L12.5599 40.68H12.7399L12.4099 41.28V41.66H12.2499V41.28L11.9199 40.67H12.0999L12.33 41.12V41.13Z" fill="white"/>
<path d="M5.21997 43.6C5.21997 43.6 5.13999 43.6 5.10999 43.58V43.44C5.10999 43.44 5.18002 43.45 5.21002 43.45C5.30002 43.45 5.34003 43.39 5.34003 43.28V42.33H5.5V43.28C5.5 43.38 5.47999 43.46 5.42999 43.51C5.37999 43.56 5.30997 43.59 5.21997 43.59V43.6Z" fill="white"/>
<path d="M6.37 43.32L6.27002 43.05H5.89001L5.78998 43.32H5.62L5.98999 42.33H6.16998L6.53998 43.32H6.37ZM6.22998 42.91L6.14001 42.64C6.14001 42.64 6.11999 42.59 6.10999 42.56C6.09999 42.52 6.09003 42.49 6.09003 42.48C6.08003 42.54 6.05998 42.6 6.03998 42.66L5.95001 42.92H6.23999L6.22998 42.91Z" fill="white"/>
<path d="M7.09003 42.46C7.00003 42.46 6.92 42.49 6.87 42.56C6.82 42.63 6.78998 42.72 6.78998 42.83C6.78998 42.94 6.82 43.04 6.87 43.1C6.92 43.16 6.99003 43.19 7.09003 43.19C7.13003 43.19 7.17002 43.19 7.21002 43.18C7.25002 43.18 7.29002 43.16 7.33002 43.15V43.29C7.25002 43.32 7.17001 43.33 7.07001 43.33C6.93001 43.33 6.81999 43.29 6.73999 43.2C6.65999 43.11 6.62 42.99 6.62 42.83C6.62 42.73 6.63999 42.64 6.67999 42.56C6.71999 42.48 6.77003 42.42 6.84003 42.38C6.91003 42.34 6.99003 42.32 7.09003 42.32C7.19003 42.32 7.28 42.34 7.37 42.38L7.31 42.51C7.31 42.51 7.24001 42.48 7.20001 42.47C7.16001 42.46 7.12002 42.45 7.08002 42.45L7.09003 42.46Z" fill="white"/>
<path d="M8.30005 43.32H8.11005L7.80005 42.87L7.71008 42.95V43.32H7.55005V42.34H7.71008V42.81C7.75008 42.76 7.80009 42.7 7.84009 42.65L8.11005 42.34H8.29004C8.12004 42.54 7.99004 42.69 7.92004 42.77L8.30005 43.32Z" fill="white"/>
<path d="M8.97992 43.32H8.41992V42.34H8.97992V42.48H8.57996V42.75H8.94995V42.88H8.57996V43.19H8.97992V43.33V43.32Z" fill="white"/>
<path d="M9.54004 43.32H9.38007V42.47H9.09009V42.33H9.83008V42.47H9.54004V43.32Z" fill="white"/>
<path d="M2.79999 44.98L2.51001 44.16C2.51001 44.28 2.52002 44.4 2.52002 44.5V44.98H2.37V44H2.59998L2.87 44.78L3.15002 44H3.38V44.98H3.22998V44.49C3.22998 44.49 3.22998 44.38 3.22998 44.3C3.22998 44.22 3.22998 44.17 3.22998 44.16L2.92999 44.98H2.78998H2.79999Z" fill="white"/>
<path d="M4.40997 43.99V44.63C4.40997 44.7 4.38999 44.77 4.35999 44.82C4.32999 44.87 4.27997 44.92 4.21997 44.95C4.15997 44.98 4.09001 44.99 4.01001 44.99C3.89001 44.99 3.78998 44.96 3.72998 44.89C3.65998 44.83 3.63 44.74 3.63 44.62V43.99H3.78998V44.61C3.78998 44.69 3.80998 44.75 3.84998 44.79C3.88998 44.83 3.95002 44.85 4.02002 44.85C4.17002 44.85 4.25 44.77 4.25 44.61V43.99H4.40997Z" fill="white"/>
<path d="M5.22998 44.71C5.22998 44.8 5.20001 44.87 5.14001 44.92C5.08001 44.97 4.99 44.99 4.88 44.99C4.77 44.99 4.67999 44.97 4.60999 44.94V44.79C4.60999 44.79 4.7 44.83 4.75 44.84C4.8 44.85 4.85001 44.86 4.89001 44.86C4.95001 44.86 5.00003 44.85 5.03003 44.82C5.06003 44.8 5.08002 44.76 5.08002 44.72C5.08002 44.68 5.06998 44.65 5.03998 44.63C5.00998 44.6 4.95 44.57 4.87 44.54C4.78 44.5 4.71999 44.46 4.67999 44.42C4.63999 44.37 4.62 44.32 4.62 44.25C4.62 44.17 4.65002 44.1 4.71002 44.06C4.77002 44.01 4.85001 43.99 4.95001 43.99C5.05001 43.99 5.13998 44.01 5.22998 44.05L5.17999 44.18C5.08999 44.14 5.01001 44.12 4.95001 44.12C4.90001 44.12 4.86002 44.13 4.83002 44.15C4.80002 44.17 4.78998 44.2 4.78998 44.24C4.78998 44.27 4.79 44.29 4.81 44.31C4.82 44.33 4.83999 44.35 4.85999 44.36C4.87999 44.38 4.92999 44.4 4.98999 44.42C5.05999 44.45 5.12002 44.48 5.15002 44.5C5.18002 44.53 5.20997 44.56 5.21997 44.59C5.23997 44.62 5.23999 44.66 5.23999 44.71H5.22998Z" fill="white"/>
<path d="M5.76007 44.98H5.60004V44.13H5.31006V43.99H6.05005V44.13H5.76007V44.98Z" fill="white"/>
<path d="M6.56006 43.99H6.85004C6.99004 43.99 7.08008 44.01 7.14008 44.05C7.20008 44.09 7.23004 44.15 7.23004 44.24C7.23004 44.3 7.22006 44.35 7.19006 44.38C7.16006 44.42 7.12006 44.44 7.06006 44.45C7.13006 44.47 7.18008 44.5 7.21008 44.53C7.24008 44.57 7.26007 44.62 7.26007 44.69C7.26007 44.78 7.23004 44.85 7.17004 44.9C7.11004 44.95 7.02003 44.98 6.91003 44.98H6.55005V44L6.56006 43.99ZM6.72003 44.4H6.87006C6.94006 44.4 6.99008 44.39 7.02008 44.37C7.05008 44.35 7.07007 44.31 7.07007 44.26C7.07007 44.21 7.05008 44.18 7.02008 44.16C6.99008 44.14 6.93005 44.13 6.86005 44.13H6.72003V44.4ZM6.72003 44.53V44.84H6.89008C6.96008 44.84 7.01004 44.83 7.04004 44.8C7.07004 44.77 7.09009 44.73 7.09009 44.68C7.09009 44.63 7.07004 44.59 7.04004 44.57C7.01004 44.55 6.95007 44.53 6.88007 44.53H6.72003Z" fill="white"/>
<path d="M8.03003 44.98H7.46997V44H8.03003V44.14H7.63V44.41H8V44.54H7.63V44.85H8.03003V44.99V44.98Z" fill="white"/>
<path d="M9.50995 44.98H9.32996L9.15991 44.39C9.15991 44.39 9.13994 44.33 9.12994 44.28C9.11994 44.23 9.10992 44.2 9.10992 44.18C9.10992 44.21 9.09997 44.25 9.08997 44.29C9.07997 44.34 9.06994 44.37 9.05994 44.39L8.89996 44.97H8.71991L8.58997 44.48L8.45996 43.99H8.61993L8.75995 44.56C8.77995 44.65 8.79994 44.73 8.80994 44.8C8.80994 44.76 8.81996 44.72 8.82996 44.67C8.82996 44.62 8.84992 44.58 8.85992 44.56L9.01996 43.98H9.17993L9.33997 44.56C9.35997 44.61 9.36995 44.69 9.38995 44.8C9.38995 44.74 9.40994 44.65 9.43994 44.55L9.57996 43.98H9.73993L9.47992 44.96L9.50995 44.98Z" fill="white"/>
<path d="M10.78 44.48C10.78 44.64 10.74 44.76 10.66 44.85C10.58 44.94 10.47 44.98 10.32 44.98C10.17 44.98 10.06 44.94 9.97998 44.85C9.89998 44.76 9.85999 44.64 9.85999 44.47C9.85999 44.3 9.89998 44.18 9.97998 44.1C10.06 44.01 10.17 43.97 10.32 43.97C10.47 43.97 10.58 44.01 10.66 44.1C10.74 44.19 10.78 44.31 10.78 44.47V44.48ZM10.03 44.48C10.03 44.6 10.05 44.69 10.1 44.76C10.15 44.82 10.22 44.85 10.32 44.85C10.42 44.85 10.49 44.82 10.54 44.76C10.59 44.7 10.61 44.61 10.61 44.48C10.61 44.35 10.59 44.27 10.54 44.21C10.49 44.15 10.42 44.12 10.32 44.12C10.22 44.12 10.15 44.15 10.1 44.21C10.05 44.27 10.03 44.36 10.03 44.48Z" fill="white"/>
<path d="M11.15 44.58V44.97H10.99V43.99H11.27C11.4 43.99 11.49 44.01 11.55 44.06C11.61 44.11 11.64 44.18 11.64 44.28C11.64 44.4 11.58 44.49 11.45 44.54L11.73 44.98H11.55L11.31 44.59H11.15V44.58ZM11.15 44.45H11.26C11.33 44.45 11.39 44.44 11.42 44.41C11.45 44.38 11.47 44.34 11.47 44.29C11.47 44.24 11.45 44.19 11.42 44.17C11.39 44.15 11.33 44.13 11.26 44.13H11.15V44.45Z" fill="white"/>
<path d="M12.69 44.98H12.49L12.01 44.2V44.24C12.01 44.32 12.02 44.4 12.02 44.47V44.98H11.87V44H12.07L12.55 44.78C12.55 44.78 12.55 44.73 12.55 44.67C12.55 44.61 12.55 44.55 12.55 44.52V44H12.7V44.98H12.69Z" fill="white"/>
<path d="M7.53003 29.11C4.67003 29.11 2.35999 31.43 2.35999 34.28C2.35999 37.13 4.68003 39.45 7.53003 39.45C10.38 39.45 12.7 37.13 12.7 34.28C12.7 31.43 10.38 29.11 7.53003 29.11ZM4.39001 34.36C5.00001 34.08 5.38999 33.36 5.29999 32.59L5.13 30.94L5.67999 30.86L6.46002 35.1H4.39001V34.35V34.36ZM7.53003 37.19C7.53003 37.53 7.27998 37.81 6.97998 37.81L4.95001 37.6C4.64001 37.6 4.40002 37.32 4.40002 36.98V36.56H7.53998V37.18L7.53003 37.19ZM7.53003 36.15H4.39001V35.53H7.53003V36.15ZM7.53003 35.11H6.89001L6.09998 30.81L6.59998 30.74L7.52002 33.03V35.11H7.53003ZM8.46002 30.74L8.96002 30.81L8.16998 35.11H7.79999V32.98L7.67999 32.67L8.46002 30.74ZM10.67 36.98C10.67 37.32 10.42 37.6 10.12 37.6L8.09003 37.81C7.94003 37.81 7.80001 37.74 7.70001 37.63C7.77001 37.5 7.81 37.35 7.81 37.19V36.57H10.68V36.99L10.67 36.98ZM10.67 36.15H7.79999V35.53H10.67V36.15ZM10.67 35.11H8.59998L9.38 30.87L9.92999 30.95L9.76001 32.6C9.67001 33.37 10.06 34.09 10.67 34.37V35.12V35.11Z" fill="white"/>
<path d="M2.87 17.95C2.87 17.95 2.82999 17.89 2.79999 17.86C2.76999 17.83 2.71001 17.81 2.64001 17.77C2.58001 17.74 2.53001 17.72 2.51001 17.71C2.49001 17.69 2.47002 17.68 2.46002 17.66C2.45002 17.64 2.44 17.62 2.44 17.6C2.44 17.56 2.44998 17.53 2.47998 17.51C2.50998 17.49 2.53998 17.48 2.59998 17.48C2.66998 17.48 2.75003 17.5 2.84003 17.53L2.89001 17.4C2.80001 17.36 2.69999 17.34 2.60999 17.34C2.50999 17.34 2.43 17.36 2.37 17.41C2.31 17.45 2.28003 17.52 2.28003 17.6C2.28003 17.67 2.30002 17.72 2.33002 17.77C2.37002 17.82 2.43002 17.86 2.52002 17.89C2.61002 17.93 2.66 17.96 2.69 17.98C2.72 18.01 2.72998 18.04 2.72998 18.08C2.72998 18.12 2.70999 18.15 2.67999 18.18C2.64999 18.2 2.59998 18.22 2.53998 18.22C2.49998 18.22 2.45002 18.22 2.40002 18.2C2.35002 18.19 2.30001 18.17 2.26001 18.15V18.3C2.33001 18.33 2.42003 18.35 2.53003 18.35C2.64003 18.35 2.72998 18.32 2.78998 18.28C2.84998 18.23 2.89001 18.16 2.89001 18.07C2.89001 18.03 2.88 17.99 2.87 17.95Z" fill="white"/>
<path d="M3.49994 17.35H3.31995L2.94995 18.34H3.11993L3.21991 18.07H3.59991L3.69995 18.34H3.86993L3.49994 17.35ZM3.26996 17.92L3.35992 17.66C3.37992 17.59 3.39991 17.53 3.40991 17.48C3.40991 17.5 3.41993 17.53 3.42993 17.57C3.43993 17.61 3.44996 17.64 3.45996 17.66L3.54993 17.93H3.25995L3.26996 17.92Z" fill="white"/>
<path d="M4.54999 17.49V17.35H3.98999V18.33H4.15002V17.92H4.52002V17.78H4.15002V17.47H4.54999V17.49Z" fill="white"/>
<path d="M5.28998 17.49V17.35H4.72998V18.33H5.28998V18.19H4.89001V17.88H5.26001V17.75H4.89001V17.48H5.28998V17.49Z" fill="white"/>
<path d="M5.39001 17.35V17.49H5.67999V18.34H5.84003V17.49H6.13V17.35H5.39001Z" fill="white"/>
<path d="M6.78998 17.35L6.56 17.8L6.33002 17.35H6.15002L6.47998 17.96V18.34H6.64001V17.96L6.96997 17.36H6.78998V17.35Z" fill="white"/>
<path d="M8.06995 17.35V17.75H7.61993V17.35H7.45996V18.33H7.61993V17.89H8.06995V18.33H8.22992V17.35H8.06995Z" fill="white"/>
<path d="M9.04999 17.49V17.35H8.48999V18.33H9.04999V18.19H8.65002V17.88H9.02002V17.75H8.65002V17.48H9.04999V17.49Z" fill="white"/>
<path d="M9.41998 18.19V17.34H9.26001V18.32H9.84003V18.18H9.41998V18.19Z" fill="white"/>
<path d="M10.79 17.35L10.51 18.13L10.24 17.35H10.01V18.33H10.16V17.85C10.16 17.74 10.16 17.63 10.15 17.51L10.44 18.33H10.58L10.87 17.51C10.87 17.51 10.87 17.57 10.87 17.65C10.87 17.73 10.87 17.79 10.87 17.84V18.33H11.02V17.35H10.8H10.79Z" fill="white"/>
<path d="M11.84 17.49V17.35H11.28V18.33H11.84V18.19H11.44V17.88H11.81V17.75H11.44V17.48H11.84V17.49Z" fill="white"/>
<path d="M11.9399 17.35V17.49H12.2299V18.34H12.39V17.49H12.6799V17.35H11.9399Z" fill="white"/>
<path d="M3.07007 19.01L2.79004 19.79L2.52008 19.01H2.29004V19.99H2.44006V19.51C2.44006 19.4 2.44005 19.29 2.43005 19.17L2.71008 19.99H2.85004L3.15009 19.17C3.15009 19.17 3.15009 19.23 3.15009 19.31C3.15009 19.39 3.15009 19.45 3.15009 19.5V19.98H3.31006V19H3.08008L3.07007 19.01Z" fill="white"/>
<path d="M4.17004 19.01V19.63C4.17004 19.79 4.10006 19.87 3.94006 19.87C3.86006 19.87 3.80008 19.85 3.77008 19.81C3.73008 19.77 3.72003 19.71 3.72003 19.63V19.01H3.56006V19.64C3.56006 19.75 3.59003 19.84 3.66003 19.91C3.73003 19.98 3.82007 20.01 3.95007 20.01C4.03007 20.01 4.10003 20 4.16003 19.97C4.22003 19.94 4.26005 19.9 4.30005 19.85C4.33005 19.8 4.34009 19.73 4.34009 19.66V19.02H4.18005L4.17004 19.01Z" fill="white"/>
<path d="M5.13 19.61C5.13 19.61 5.09 19.55 5.06 19.52C5.03 19.49 4.97002 19.47 4.90002 19.43C4.84002 19.41 4.79001 19.38 4.76001 19.37C4.74001 19.35 4.72002 19.34 4.71002 19.32C4.70002 19.3 4.69 19.28 4.69 19.25C4.69 19.21 4.69998 19.19 4.72998 19.16C4.75998 19.14 4.78998 19.13 4.84998 19.13C4.91998 19.13 5.00002 19.15 5.08002 19.18L5.13 19.05C5.04 19.01 4.94998 18.99 4.84998 18.99C4.74998 18.99 4.66999 19.01 4.60999 19.06C4.54999 19.11 4.52002 19.17 4.52002 19.25C4.52002 19.31 4.54001 19.37 4.57001 19.42C4.61001 19.47 4.67001 19.51 4.76001 19.55C4.85001 19.58 4.90999 19.61 4.92999 19.64C4.95999 19.66 4.96997 19.69 4.96997 19.73C4.96997 19.77 4.95999 19.8 4.92999 19.83C4.89999 19.86 4.84998 19.87 4.78998 19.87C4.74998 19.87 4.70002 19.87 4.65002 19.85C4.60002 19.84 4.55001 19.82 4.51001 19.8V19.95C4.58001 19.98 4.67003 20 4.78003 20C4.89003 20 4.97998 19.98 5.03998 19.93C5.09998 19.88 5.14001 19.81 5.14001 19.73C5.14001 19.69 5.14 19.65 5.12 19.61H5.13Z" fill="white"/>
<path d="M5.22998 19.01V19.15H5.52002V20H5.67999V19.15H5.96997V19.01H5.22998Z" fill="white"/>
<path d="M7.14001 19.55C7.14001 19.55 7.04999 19.49 6.98999 19.47C7.03999 19.45 7.09 19.43 7.12 19.39C7.15 19.35 7.15997 19.3 7.15997 19.25C7.15997 19.16 7.13001 19.1 7.07001 19.06C7.01001 19.02 6.91003 19 6.78003 19H6.48999V19.98H6.84003C6.95003 19.98 7.03998 19.96 7.09998 19.91C7.15998 19.86 7.19 19.79 7.19 19.7C7.19 19.64 7.17001 19.58 7.14001 19.55ZM6.64001 19.14H6.78003C6.85003 19.14 6.91 19.15 6.94 19.17C6.97 19.19 6.98999 19.22 6.98999 19.27C6.98999 19.32 6.98001 19.36 6.95001 19.38C6.92001 19.4 6.86999 19.41 6.79999 19.41H6.64001V19.14ZM6.96002 19.81C6.96002 19.81 6.87 19.85 6.81 19.85H6.64001V19.54H6.79999C6.86999 19.54 6.92002 19.55 6.96002 19.58C6.99002 19.6 7.01001 19.64 7.01001 19.7C7.01001 19.75 6.99002 19.8 6.96002 19.82V19.81Z" fill="white"/>
<path d="M7.94 19.14V19.01H7.38V19.99H7.94V19.85H7.53998V19.54H7.90997V19.4H7.53998V19.13H7.94V19.14Z" fill="white"/>
<path d="M9.52002 19.01L9.38 19.58C9.35 19.68 9.34002 19.76 9.33002 19.82C9.31002 19.71 9.30003 19.64 9.28003 19.58L9.12 19H8.96002L8.79999 19.57C8.79999 19.57 8.78002 19.64 8.77002 19.69C8.76002 19.74 8.75 19.78 8.75 19.82C8.74 19.75 8.72001 19.67 8.70001 19.58L8.56 19.01H8.40002L8.65997 19.99H8.83002L8.98999 19.41C8.98999 19.41 9.00001 19.35 9.01001 19.31C9.02001 19.26 9.03003 19.23 9.03003 19.2C9.03003 19.22 9.02999 19.25 9.04999 19.3C9.05999 19.35 9.07002 19.39 9.08002 19.41L9.25 20H9.42999L9.69 19.02H9.53003L9.52002 19.01Z" fill="white"/>
<path d="M10.58 19.12C10.5 19.03 10.39 18.99 10.24 18.99C10.09 18.99 9.97002 19.03 9.90002 19.12C9.82002 19.21 9.78003 19.33 9.78003 19.49C9.78003 19.65 9.82002 19.78 9.90002 19.87C9.98002 19.96 10.09 20 10.24 20C10.39 20 10.5 19.96 10.58 19.87C10.66 19.78 10.7 19.66 10.7 19.5C10.7 19.34 10.66 19.21 10.58 19.13V19.12ZM10.45 19.77C10.4 19.83 10.33 19.86 10.23 19.86C10.13 19.86 10.06 19.83 10.01 19.77C9.96001 19.71 9.94 19.61 9.94 19.49C9.94 19.37 9.96001 19.28 10.01 19.21C10.06 19.15 10.13 19.12 10.23 19.12C10.33 19.12 10.4 19.15 10.44 19.21C10.49 19.27 10.51 19.36 10.51 19.49C10.51 19.62 10.49 19.7 10.44 19.77H10.45Z" fill="white"/>
<path d="M11.3699 19.55C11.4999 19.5 11.5599 19.41 11.5599 19.29C11.5599 19.19 11.5299 19.12 11.4699 19.08C11.4099 19.03 11.3099 19.01 11.1899 19.01H10.9099V19.99H11.0699V19.6H11.2299L11.4699 19.99H11.65L11.3699 19.56V19.55ZM11.1799 19.46H11.0699V19.14H11.1799C11.2499 19.14 11.31 19.15 11.34 19.18C11.37 19.21 11.39 19.24 11.39 19.3C11.39 19.36 11.37 19.4 11.34 19.43C11.31 19.46 11.2499 19.47 11.1799 19.47V19.46Z" fill="white"/>
<path d="M12.4601 19.01V19.52C12.4601 19.52 12.4601 19.61 12.4601 19.67C12.4601 19.74 12.4601 19.78 12.4601 19.79L11.98 19.01H11.79V19.99H11.9401V19.48C11.9401 19.41 11.9401 19.34 11.9301 19.25V19.21L12.41 19.99H12.61V19.01H12.4601Z" fill="white"/>
<path d="M7.45001 5.42999C4.59001 5.42999 2.28003 7.75001 2.28003 10.6C2.28003 13.45 4.60001 15.77 7.45001 15.77C10.3 15.77 12.62 13.46 12.62 10.6C12.62 7.74001 10.3 5.42999 7.45001 5.42999ZM10.31 10.94C10.24 11.47 10.37 11.92 10.08 11.89C10.05 11.89 10.02 11.88 9.98999 11.87C9.53999 13.35 8.58001 14.6 7.45001 14.6C6.32001 14.6 5.34997 13.35 4.90997 11.87C4.87997 11.88 4.86001 11.89 4.82001 11.89C4.53001 11.92 4.66003 11.47 4.59003 10.94C4.54003 10.53 4.38001 10.19 4.45001 10.05C4.55001 10.06 4.63999 10.06 4.73999 10.06C4.73999 10.06 4.82 10.07 4.88 10.09C5.24001 10.16 6.08 10.34 7.44 10.34C8.8 10.34 9.64 10.17 10 10.09C10.07 10.08 10.11 10.07 10.13 10.06C10.23 10.06 10.34 10.06 10.44 10.05C10.51 10.19 10.35 10.53 10.3 10.94H10.31ZM10.14 9.79001C10.01 9.79001 9.15001 10.06 7.45001 10.06C5.75001 10.06 4.89001 9.79001 4.76001 9.79001C4.21001 9.79001 3.94003 9.69 4.53003 9.19C4.69003 8.45 5.05 7.85 5.56 7.44C5.51 7.34 5.54001 7.20999 5.64001 7.14999L6.01001 6.92999C6.11001 6.86999 6.24999 6.91001 6.29999 7.01001C6.51999 6.94001 6.75 6.88001 7 6.85001V6.82001C7 6.70001 7.10002 6.60999 7.21002 6.60999H7.64001C7.76001 6.60999 7.85999 6.71001 7.85999 6.82001V6.85001C8.10999 6.88001 8.34 6.93999 8.56 7.01999C8.62 6.90999 8.74999 6.87999 8.85999 6.92999L9.22998 7.14999C9.32998 7.20999 9.37 7.33 9.31 7.44C9.82 7.85 10.18 8.45 10.35 9.19C10.94 9.68 10.67 9.79001 10.12 9.79001H10.14Z" fill="white"/>
<path d="M7.07001 66.02H6.47998L5.02002 63.66H5V63.79C5.03 64.04 5.03998 64.27 5.03998 64.48V66.02H4.59998V63.06H5.19L6.64001 65.41H6.65002C6.65002 65.41 6.65 65.27 6.63 65.07C6.63 64.87 6.62 64.72 6.62 64.61V63.06H7.06V66.02H7.07001Z" fill="white"/>
<path d="M10.4799 64.53C10.4799 65.01 10.3599 65.39 10.1199 65.65C9.87993 65.92 9.53991 66.05 9.09991 66.05C8.65991 66.05 8.30995 65.92 8.06995 65.65C7.82995 65.38 7.70996 65.01 7.70996 64.52C7.70996 64.03 7.82995 63.66 8.06995 63.39C8.30995 63.13 8.64991 63 9.09991 63C9.54991 63 9.87993 63.13 10.1199 63.4C10.3599 63.67 10.4799 64.04 10.4799 64.52V64.53ZM8.21991 64.53C8.21991 64.89 8.28994 65.17 8.43994 65.36C8.58994 65.55 8.80997 65.64 9.08997 65.64C9.36997 65.64 9.58993 65.55 9.73993 65.36C9.88993 65.17 9.95996 64.9 9.95996 64.53C9.95996 64.16 9.88993 63.89 9.73993 63.7C9.58993 63.51 9.37997 63.42 9.08997 63.42C8.79997 63.42 8.57993 63.51 8.42993 63.7C8.27993 63.89 8.20996 64.16 8.20996 64.53H8.21991Z" fill="white"/>
<path d="M4.90997 67.41C4.90997 67.5 4.88 67.57 4.81 67.62C4.74 67.67 4.65999 67.69 4.54999 67.69C4.43999 67.69 4.35003 67.67 4.28003 67.64V67.49C4.28003 67.49 4.36998 67.53 4.41998 67.54C4.46998 67.55 4.52 67.56 4.56 67.56C4.62 67.56 4.67001 67.55 4.70001 67.52C4.73001 67.5 4.75 67.46 4.75 67.42C4.75 67.38 4.74002 67.35 4.71002 67.33C4.68002 67.3 4.61998 67.27 4.53998 67.24C4.44998 67.2 4.38998 67.16 4.34998 67.12C4.30998 67.07 4.28998 67.02 4.28998 66.95C4.28998 66.87 4.32 66.8 4.38 66.76C4.44 66.71 4.52 66.69 4.62 66.69C4.72 66.69 4.81002 66.71 4.90002 66.75L4.84998 66.88C4.75998 66.84 4.68 66.82 4.62 66.82C4.57 66.82 4.53 66.83 4.5 66.85C4.47 66.87 4.46002 66.9 4.46002 66.94C4.46002 66.97 4.45998 66.99 4.47998 67.01C4.48998 67.03 4.51003 67.05 4.53003 67.06C4.55003 67.08 4.59997 67.1 4.65997 67.12C4.72997 67.15 4.79001 67.18 4.82001 67.2C4.85001 67.23 4.88001 67.26 4.89001 67.29C4.91001 67.32 4.90997 67.36 4.90997 67.41Z" fill="white"/>
<path d="M5.53003 67.68L5.23999 66.86C5.23999 66.98 5.25 67.1 5.25 67.2V67.68H5.09998V66.69H5.33002L5.59998 67.47L5.88 66.69H6.10999V67.68H5.95001V67.19C5.95001 67.19 5.95001 67.08 5.95001 67C5.95001 66.92 5.95001 66.87 5.95001 66.86L5.65002 67.68H5.51001H5.53003Z" fill="white"/>
<path d="M7.26007 67.18C7.26007 67.34 7.22008 67.47 7.14008 67.55C7.06008 67.64 6.95005 67.68 6.80005 67.68C6.65005 67.68 6.54008 67.64 6.46008 67.55C6.38008 67.46 6.34009 67.34 6.34009 67.17C6.34009 67 6.38008 66.88 6.46008 66.79C6.54008 66.7 6.65005 66.66 6.80005 66.66C6.95005 66.66 7.06008 66.7 7.14008 66.79C7.22008 66.88 7.26007 67 7.26007 67.16V67.18ZM6.50006 67.18C6.50006 67.3 6.52007 67.39 6.57007 67.46C6.62007 67.52 6.69004 67.55 6.79004 67.55C6.89004 67.55 6.96007 67.52 7.01007 67.46C7.06007 67.4 7.08008 67.31 7.08008 67.18C7.08008 67.05 7.06007 66.97 7.01007 66.9C6.96007 66.84 6.89004 66.81 6.79004 66.81C6.69004 66.81 6.62007 66.84 6.57007 66.9C6.52007 66.96 6.50006 67.05 6.50006 67.18Z" fill="white"/>
<path d="M8.21991 67.68H8.02997L7.71991 67.23L7.61993 67.31V67.68H7.45996V66.69H7.61993V67.16C7.65993 67.11 7.70994 67.05 7.74994 67L8.01996 66.69H8.19995C8.02995 66.89 7.89996 67.04 7.82996 67.12L8.20996 67.67L8.21991 67.68Z" fill="white"/>
<path d="M8.34998 67.68V66.69H8.51001V67.68H8.34998Z" fill="white"/>
<path d="M9.59003 67.68H9.39001L8.90002 66.89V66.93C8.90002 67.01 8.90997 67.09 8.90997 67.16V67.67H8.76001V66.68H8.96002L9.44 67.46C9.44 67.46 9.44 67.41 9.44 67.35C9.44 67.29 9.44 67.23 9.44 67.2V66.68H9.59003V67.67V67.68Z" fill="white"/>
<path d="M10.2601 67.14H10.6201V67.64C10.5601 67.66 10.5001 67.67 10.4501 67.68C10.4001 67.68 10.3401 67.69 10.2701 67.69C10.1201 67.69 10.01 67.65 9.92004 67.56C9.84004 67.47 9.80005 67.35 9.80005 67.19C9.80005 67.03 9.85006 66.91 9.94006 66.82C10.0301 66.73 10.1601 66.69 10.3201 66.69C10.4201 66.69 10.52 66.71 10.61 66.75L10.55 66.88C10.47 66.84 10.3901 66.82 10.3101 66.82C10.2001 66.82 10.1201 66.85 10.0601 66.92C10.0001 66.99 9.97003 67.08 9.97003 67.19C9.97003 67.31 10 67.4 10.05 67.47C10.11 67.53 10.18 67.56 10.29 67.56C10.34 67.56 10.4001 67.56 10.4601 67.54V67.29H10.2601V67.15V67.14Z" fill="white"/>
<path d="M10.0301 54.94L9.99005 54.89L5.42004 59.46L5.47003 59.5C6.04003 59.95 6.75003 60.19 7.47003 60.19C8.34003 60.19 9.15007 59.85 9.76007 59.24C10.9201 58.08 11.0301 56.23 10.0201 54.94H10.0301ZM7.52008 57.73L8.36005 56.89H10.04V57.73H7.52008ZM9.47003 54.38C8.90003 53.93 8.19003 53.69 7.47003 53.69C6.60003 53.69 5.79005 54.03 5.18005 54.64C4.02005 55.8 3.91004 57.65 4.92004 58.94L4.96008 58.99L9.53009 54.42L9.48004 54.38H9.47003ZM4.90009 56.48C4.90009 55.76 5.29007 55.53 5.63007 55.34C5.92007 55.17 6.16003 55.03 6.16003 54.6C6.16003 54.54 6.21008 54.48 6.27008 54.48C6.33008 54.48 6.39008 54.53 6.39008 54.6C6.39008 55.17 6.05006 55.36 5.75006 55.54C5.43006 55.72 5.14008 55.9 5.14008 56.49C5.14008 56.55 5.09009 56.6 5.03009 56.6C4.97009 56.6 4.91003 56.55 4.91003 56.49L4.90009 56.48ZM5.65009 57.73H5.02008V56.89H5.65009V57.73ZM5.85004 57.71V56.9H6.66003L5.85004 57.71ZM6.29004 55.74C6.00004 55.91 5.76007 56.05 5.76007 56.48C5.76007 56.54 5.71008 56.59 5.64008 56.59C5.57008 56.59 5.52008 56.54 5.52008 56.48C5.52008 55.91 5.86003 55.72 6.16003 55.54C6.48003 55.36 6.77008 55.18 6.77008 54.6C6.77008 54.54 6.82007 54.48 6.88007 54.48C6.94007 54.48 6.99005 54.53 6.99005 54.6C6.99005 55.32 6.60007 55.55 6.26007 55.74H6.29004ZM7.47003 51.76C4.61003 51.76 2.29004 54.08 2.29004 56.94C2.29004 59.8 4.61003 62.12 7.47003 62.12C10.33 62.12 12.6501 59.8 12.6501 56.94C12.6501 54.08 10.33 51.76 7.47003 51.76ZM10.2401 59.7C9.50005 60.44 8.52004 60.84 7.48004 60.84C6.44004 60.84 5.45003 60.43 4.72003 59.7C3.20003 58.18 3.20003 55.7 4.72003 54.17C5.46003 53.43 6.44004 53.03 7.48004 53.03C8.52004 53.03 9.51005 53.44 10.2401 54.17C11.7601 55.69 11.7601 58.17 10.2401 59.7Z" fill="white"/>
</svg>
